<?xml version="1.0" encoding="UTF-8"?>
<svg width="223px" height="189px" viewBox="0 0 223 189" version="1.1" xmlns="http://www.w3.org/2000/svg" xmlns:xlink="http://www.w3.org/1999/xlink">
    <title>Group</title>
    <g id="Registration" stroke="none" stroke-width="1" fill="none" fill-rule="evenodd">
        <g id="3-Confirm" transform="translate(-97.000000, -227.000000)">
            <g id="Group" transform="translate(97.000000, 227.000000)">
                <path d="M0,0 L223,0 L223,189 L0,189 L0,0 Z" id="Rectangle-233" fill="#C4C4C4" opacity="0"></path>
                <path d="M123.5,185 C86.2207773,185 56,154.779215 56,117.5 C56,80.2207741 86.2207773,50 123.5,50 C160.779211,50 191,80.2207741 191,117.5 C191,154.779215 160.779211,185 123.5,185 Z" id="Vector" fill="#EDF7FD"></path>
                <path d="M90,70.5097177 L47.9238027,22 C46.2079297,22.4416667 44.5666666,23.0305567 43,23.7666678 L87.4634852,75 C88.4333265,73.6013889 89.2539683,72.055551 90,70.5097177 Z" id="Vector" fill="#9FC2F9" fill-rule="nonzero"></path>
                <path d="M62.4822786,20.2216517 C61.389759,20.0738854 60.2972461,20 59.1318918,20 C58.1122068,20 57.019685,20 56,20.0738848 L92.1988145,63 C92.6358224,60.8573884 92.9271654,58.6408927 93,56.424398 L62.4822786,20.2216517 Z" id="Vector" fill="#9FC2F9" fill-rule="nonzero"></path>
                <path d="M92,45 C89,35.7716269 82.0769243,28.1418682 73,24 L92,45 Z" id="Vector" fill="#9FC2F9" fill-rule="nonzero"></path>
                <path d="M84,80.725853 L36.8878974,27 C35.5157,27.8929504 34.2197311,28.9347276 33,30.0509156 L80.3408161,84 C81.6367804,82.9582245 82.8565021,81.9164536 84,80.725853 Z" id="Vector" fill="#9FC2F9" fill-rule="nonzero"></path>
                <path d="M47,90 L22,61 C22.6859758,65.7702348 24.3627964,70.2375985 26.8018218,74.1749348 L34.6524368,83.261096 C38.234755,86.2898164 42.4268276,88.5613578 47,90 Z" id="Vector" fill="#9FC2F9" fill-rule="nonzero"></path>
                <path d="M73,86.9104454 L28.7045077,34 C27.6811797,35.3432836 26.8040435,36.7611919 26,38.2537292 L68.4681206,89 C70.0762077,88.402985 71.5381027,87.731341 73,86.9104454 Z" id="Vector" fill="#9FC2F9" fill-rule="nonzero"></path>
                <path d="M62,91.6018143 L24.2904431,45 C23.7169138,46.9701577 23.2867647,49.0160908 23,51.0620239 L56.1213267,91.9806908 C58.1286793,92.0564661 60.0643385,91.9049155 62,91.6018143 Z" id="Vector" fill="#9FC2F9" fill-rule="nonzero"></path>
                <path d="M204.32314,168 L221,146.714281 C220.585153,146.142852 220.087333,145.571428 219.589516,145 L202,167.5 C202.746725,167.714277 203.576415,167.857143 204.32314,168 Z" id="Vector" fill="#FED3CC" fill-rule="nonzero"></path>
                <path d="M222,151.608093 C221.919355,151.173409 221.838708,150.738731 221.677418,150.2316 C221.596773,149.796917 221.435483,149.434683 221.274192,149 L207,167.981153 C208.048387,168.053601 209.016127,167.908711 209.983869,167.691369 L222,151.608093 Z" id="Vector" fill="#FED3CC" fill-rule="nonzero"></path>
                <path d="M215,168 C218.738635,165.480917 221.284091,161.45038 222,157 L215,168 Z" id="Vector" fill="#FED3CC" fill-rule="nonzero"></path>
                <path d="M200.609051,167 L216,143.169595 C215.510288,142.730998 215.020578,142.365497 214.460907,142 L199,165.976613 C199.489712,166.34211 200.04938,166.707602 200.609051,167 Z" id="Vector" fill="#FED3CC" fill-rule="nonzero"></path>
                <path d="M192,153 L201,140 C199.153847,140.826589 197.538461,141.953764 196.153846,143.306365 L193.384617,147.364163 C192.538464,149.092486 192.076923,151.046243 192,153 Z" id="Vector" fill="#FED3CC" fill-rule="nonzero"></path>
                <path d="M195.461535,165 L213,140.683886 C212.269231,140.455922 211.538464,140.227964 210.807694,140 L194,163.328281 C194.48718,163.936184 194.974355,164.468085 195.461535,165 Z" id="Vector" fill="#FED3CC" fill-rule="nonzero"></path>
                <path d="M193.833338,160 L208,139 C207.166667,139 206.257575,139 205.424242,139.151088 L193,157.582726 C193.227273,158.413661 193.530308,159.244605 193.833338,160 Z" id="Vector" fill="#FED3CC" fill-rule="nonzero"></path>
                <path d="M123.88236,132.899997 L110.553069,142.051374 C108.691438,143.316199 106.308551,143.316199 104.446919,142.051374 L48.7468945,103.43702 L39.289807,96.8896881 C36.2367309,94.8064468 36.2367309,90.2679547 39.289807,88.1103119 L48.7468945,81.56298 L98.7875539,46.8918935 L104.446919,42.9486189 C106.308551,41.6837938 108.691438,41.6837938 110.553069,42.9486189 L116.212435,46.8918935 L123.88236,52.2488027 L175.710195,88.184718 C178.763271,90.2679592 178.763271,94.8064399 175.710195,96.9640827 L123.88236,132.899997 Z" id="Vector" fill="#472BA8" fill-rule="nonzero"></path>
                <path d="M64.9435603,145 C60.0246022,145 56,140.972131 56,136.04918 L56,62.9508197 C56,58.0278689 60.0246022,54 64.9435603,54 L150.05644,54 C154.975398,54 159,58.0278689 159,62.9508197 L159,136.04918 C159,140.972131 154.975398,145 150.05644,145 L64.9435603,145 Z" id="Vector" fill="#FBE2A6" fill-rule="nonzero"></path>
                <path d="M77.5,102 C71.1487317,102 66,96.85128 66,90.5 C66,84.1487317 71.1487317,79 77.5,79 C83.85128,79 89,84.1487317 89,90.5 C89,96.85128 83.85128,102 77.5,102 Z" id="Vector" fill="#FEA63D"></path>
                <path d="M73.4401699,93 C70.5982888,93 68.3247864,94.5555539 68,96.5897398 C70.1923083,98.6837548 73.6837598,100 77.5,100 C81.3974371,100 84.8076917,98.6239258 87,96.5897398 C86.8376068,94.615383 84.4829054,93 81.7222208,93 L73.4401699,93 Z" id="Vector" fill="#FFFFFF" fill-rule="nonzero"></path>
                <path d="M77.5,92 C74.4624373,92 72,89.5375578 72,86.5 C72,83.4624297 74.4624373,81 77.5,81 C80.5375689,81 83,83.4624297 83,86.5 C83,89.5375578 80.5375689,92 77.5,92 Z" id="Vector" fill="#FFFFFF"></path>
                <path d="M98.4217641,85 C97.6734648,85 97,84.3684264 97,83.5 C97,82.710533 97.5986349,82 98.4217641,82 L150.578224,82 C151.326524,82 152,82.6315856 152,83.5 C152,84.3684264 151.326524,85 150.578224,85 L98.4217641,85 Z" id="Vector" fill="#FEA63D" fill-rule="nonzero"></path>
                <path d="M97.4615338,95 C96.692303,95 96,94.3684144 96,93.5 C96,92.7105209 96.6153799,92 97.4615338,92 L109.538454,92 C110.307685,92 111,92.6315736 111,93.5 C111,94.3684144 110.307685,95 109.538454,95 L97.4615338,95 Z" id="Vector" fill="#FEA63D" fill-rule="nonzero"></path>
                <path d="M114.435247,95 C113.679851,95 113,94.3684144 113,93.5 C113,92.7105209 113.604312,92 114.435247,92 L132.564741,92 C133.320137,92 134,92.6315736 134,93.5 C133.92446,94.3684144 133.320137,95 132.564741,95 L114.435247,95 Z" id="Vector" fill="#FEA63D" fill-rule="nonzero"></path>
                <path d="M123.923925,132.82206 L110.591115,141.909472 C108.728991,143.165455 106.345476,143.165455 104.483352,141.909472 L48.7686167,103.56504 L39.3090319,97.0634759 C37.8938181,96.103018 37.0744849,94.5515089 37,93 C37,93.0738814 37,93.1477582 37,93.295521 L37,158.163375 C37,161.414156 39.6069739,164 42.8843112,164 L172.115672,164 C175.393009,164 178,161.414156 178,158.163375 L178,93.3694069 C178,93.2955255 178,93.147756 178,93.0738746 C177.925515,94.6253835 177.180666,96.1030112 175.765452,97.1373505 L123.923925,132.82206 Z" id="Vector" fill="#664BC4" fill-rule="nonzero"></path>
                <path d="M155.5,75 C144.730449,75 136,66.2695545 136,55.5 C136,44.7304455 144.730449,36 155.5,36 C166.269551,36 175,44.7304455 175,55.5 C175,66.2695545 166.269551,75 155.5,75 Z" id="Vector" fill="#FF6B8D"></path>
                <path d="M155.5,71 C146.939585,71 140,64.0604101 140,55.5 C140,46.9395842 146.939585,40 155.5,40 C164.060415,40 171,46.9395842 171,55.5 C171,64.0604101 164.060415,71 155.5,71 Z" id="Vector" fill="#E9446A"></path>
                <path d="M151.846923,61.4752362 L146.361653,55.3915248 C145.820851,54.8121233 145.898106,53.943017 146.516165,53.5084658 C147.134225,53.0014895 148.061318,53.073918 148.524863,53.6533195 L153.005784,58.5782287 L162.585711,49.3802322 C163.126513,48.8732559 164.053595,48.8732559 164.594397,49.3802322 C165.135199,49.8872085 165.135199,50.7563098 164.594397,51.2632861 L153.932883,61.4752362 C153.701111,61.9097874 153.314816,62.054641 152.851272,61.9822158 C152.928529,61.9822158 152.928529,61.9822158 152.851272,61.9822158 C152.464985,61.9822158 152.078695,61.764937 151.846923,61.4752362 Z" id="Vector" fill="#FED3CC" fill-rule="nonzero"></path>
            </g>
        </g>
    </g>
</svg>