<?xml version="1.0" encoding="UTF-8"?>
<svg width="281px" height="202px" viewBox="0 0 281 202" version="1.1" xmlns="http://www.w3.org/2000/svg" xmlns:xlink="http://www.w3.org/1999/xlink">
    <title>undraw_unlock_24mb</title>
    <g id="Registration" stroke="none" stroke-width="1" fill="none" fill-rule="evenodd">
        <g id="6-Set-new-password" transform="translate(-68.000000, -114.000000)" fill-rule="nonzero">
            <g id="undraw_unlock_24mb" transform="translate(68.000000, 114.000000)">
                <path d="M281,202 C266.520851,199.882463 252.596152,198.057039 239.225902,196.52373 L244.5128,187.981057 C242.730544,187.455332 234.899192,192.325285 234.899192,192.325285 L241.839384,167.489137 C232.875238,168.351443 228.313906,193.722322 228.313906,193.722322 L218.300033,185.091224 L223.147274,194.765228 C182.226318,190.547632 146.885351,188.890681 117.159269,188.699564 L121.684332,181.38793 C119.902073,180.862203 112.070723,185.732158 112.070723,185.732158 L119.010915,160.89601 C110.046767,161.758313 105.485437,187.129196 105.485437,187.129196 L95.4715535,178.498097 L100.605551,188.744454 C75.6850471,189.046065 55.3625709,190.374209 39.6765354,191.922839 C44.2540237,180.521219 59.7999722,169.729057 59.7999722,169.729057 C47.9284075,172.625737 41.7006331,177.542858 38.4461323,182.13882 C38.1973609,168.03388 39.8709048,141.892579 52.304577,113 C52.304577,113 27.7608537,157.523128 30.8874011,187.499439 L31.2611099,192.82153 C10.4587033,195.215445 0,197.757728 0,197.757728 L281,202 Z" id="Path" fill="#0B1E2B"></path>
                <path d="M150,8.08204504 L150,187.923492 C149.995505,192.384338 146.345277,196 141.843129,196 L68.1568755,196 C65.9933495,196.003744 63.9172634,195.154214 62.3868919,193.638922 C60.8565204,192.12363 59.9976993,190.067173 60,187.923492 L60,8.08204504 C60,5.93849667 60.8591395,3.88268923 62.3888901,2.36697164 C63.9186407,0.851254052 65.9934814,0 68.1568755,0 L79.183912,0 L79.183912,1.40111008 C79.1834479,5.07620489 82.1895797,8.05600231 85.8986996,8.05707476 L123.376063,8.05707476 C124.809781,8.06010694 126.206227,7.60473298 127.357893,6.75862063 C127.590698,6.59082848 127.811504,6.40727469 128.018731,6.20927465 C129.344408,4.95504717 130.093322,3.21726137 130.09085,1.40111008 L130.09085,0 L141.843129,0 C144.006669,0 146.081786,0.850631444 147.611639,2.36645121 C149.141493,3.88227098 150,5.93835226 150,8.08204504 Z" id="Path" fill="#2EBFEA"></path>
                <circle id="Oval" fill="#F2F2F2" cx="81" cy="30" r="2"></circle>
                <path d="M127.671284,6 C127.460782,6.19514282 127.236485,6.37604785 127,6.54141869 C131.930391,14.8822645 140.273827,20.8527483 150,23 L150,22.1468554 C140.536888,20.0008267 132.439875,14.1455278 127.671284,6 L127.671284,6 Z" id="Path" fill="#664BC4"></path>
                <path d="M110.926619,9 L110,9 C116.694374,25.5103072 131.930554,37.3183461 150,40 L150,39.1499337 C132.406361,36.4978634 117.556326,25.0392292 110.926619,9 Z" id="Path" fill="#664BC4"></path>
                <path d="M93.892169,8 L93,8 C100.462034,33.7335203 122.978008,52.8892006 150,56 L150,55.14446 C123.446676,52.0477083 101.317497,33.2566564 93.892169,8 Z" id="Path" fill="#664BC4"></path>
                <polygon id="Path" fill="#F2F2F2" points="75 43.4555 74.5445 43.4555 74.5445 43 74.45575 43 74.45575 43.4555 74 43.4555 74 43.5445 74.45575 43.5445 74.45575 44 74.5445 44 74.5445 43.5445 75 43.5445"></polygon>
                <polygon id="Path" fill="#F2F2F2" points="108 19.4555 107.5445 19.4555 107.5445 19 107.45575 19 107.45575 19.4555 107 19.4555 107 19.5445 107.45575 19.5445 107.45575 20 107.5445 20 107.5445 19.5445 108 19.5445"></polygon>
                <polygon id="Path" fill="#F2F2F2" points="78 64.4555 77.5445 64.4555 77.5445 64 77.45575 64 77.45575 64.4555 77 64.4555 77 64.5445 77.45575 64.5445 77.45575 65 77.5445 65 77.5445 64.5445 78 64.5445"></polygon>
                <polygon id="Path" fill="#F2F2F2" points="102 50.4555 101.5445 50.4555 101.5445 50 101.45575 50 101.45575 50.4555 101 50.4555 101 50.5445 101.45575 50.5445 101.45575 51 101.5445 51 101.5445 50.5445 102 50.5445"></polygon>
                <polygon id="Path" fill="#F2F2F2" points="136 58.4555 135.5445 58.4555 135.5445 58 135.45575 58 135.45575 58.4555 135 58.4555 135 58.5445 135.45575 58.5445 135.45575 59 135.5445 59 135.5445 58.5445 136 58.5445"></polygon>
                <circle id="Oval" fill="#FF6584" cx="130.5" cy="34.5" r="1.5"></circle>
                <path d="M89.5717884,60 L89,60.0991501 C89.1788413,61.3852691 89.3198992,62.6997167 89.4231738,64 L90,63.9433428 C89.8967179,62.6260822 89.7531411,61.3003031 89.5717884,60 Z" id="Path" fill="#E6E6E6"></path>
                <path d="M88.7612457,52 L88,52.1904897 C88.4602076,53.4413737 88.8719723,54.7235298 89.2214533,56 L90,55.8550112 C89.6435952,54.5643178 89.2249239,53.2679472 88.7612457,52 Z" id="Path" fill="#E6E6E6"></path>
                <path d="M85.5573333,46 L85,46.2094545 C85.512,47.1236364 85.992,48.0618182 86.4266667,49 L87,48.8232727 C86.5600027,47.8741753 86.077336,46.9229047 85.5573333,46 Z" id="Path" fill="#E6E6E6"></path>
                <path d="M81.6423841,39 L81,39.2803951 C81.8178808,40.1648799 82.602649,41.081307 83.3311258,42 L84,41.7492401 C83.2649073,40.8191672 82.4701987,39.8936125 81.6423841,39 Z" id="Path" fill="#E6E6E6"></path>
                <path d="M76.501912,33 L76,33.3619433 C76.8546845,34.2121457 77.6864245,35.1012146 78.4722753,36 L79,35.6672065 C78.2083987,34.7586899 77.3680574,33.8598996 76.501912,33 Z" id="Path" fill="#E6E6E6"></path>
                <path d="M72.3933162,26 L72,26.4539823 C72.8843188,27.2690265 73.7506427,28.1265487 74.5758355,29 L75,28.5725664 C74.164527,27.688477 73.2879126,26.8229876 72.3933162,26 Z" id="Path" fill="#E6E6E6"></path>
                <path d="M65.3059289,22 L65,22.5677291 C65.9059289,23.3356574 66.8023715,24.1543825 67.6632411,25 L68,24.4591454 C67.1272704,23.6045787 66.2213415,22.7769163 65.3059289,22 Z" id="Path" fill="#E6E6E6"></path>
                <path d="M59,18 L59,18.8 C59.8712029,19.1846154 60.7351154,19.5876923 61.5808019,20 L62,19.3876923 C61.0157837,18.9076738 60.0157837,18.4451097 59,18 Z" id="Path" fill="#E6E6E6"></path>
                <path d="M89,120.894513 C89.1132334,120.270192 89.2168284,119.632692 89.3080526,119 L90,119.084398 C89.9077466,119.724235 89.8029799,120.368556 89.6885655,121 L89,120.894513 Z" id="Path" fill="#E6E6E6"></path>
                <path d="M89,128.805332 L89.7442742,129 C90.2112504,127.735847 90.6338732,126.440857 91,125.150654 L90.2415442,125 C89.878791,126.276266 89.4635621,127.555107 89,128.805332 Z" id="Path" fill="#E6E6E6"></path>
                <path d="M85,135.78617 L85.5482415,136 C86.0695189,135.080008 86.5574231,134.132023 87,133.183021 L86.4361283,133 C85.9987781,133.93873 85.5160665,134.876445 85,135.78617 Z" id="Path" fill="#E6E6E6"></path>
                <path d="M81,142.714065 L81.6299594,143 C82.4608348,142.109349 83.2579226,141.185903 84,140.256904 L83.3448747,140 C82.612484,140.918729 81.8218388,141.831443 81,142.714065 Z" id="Path" fill="#E6E6E6"></path>
                <path d="M76,147.631328 L76.4942059,148 C77.3617688,147.138525 78.2028309,146.242475 79,145.3362 L78.4778158,145 C77.6918312,145.895774 76.859166,146.780832 76,147.631328 Z" id="Path" fill="#E6E6E6"></path>
                <path d="M73,153.537851 L73.3864679,154 C74.2838654,153.179897 75.1614198,152.314605 76,151.435518 L75.5848942,151 C74.7558592,151.870211 73.8858515,152.723474 73,153.537851 Z" id="Path" fill="#E6E6E6"></path>
                <path d="M65,159.419887 L65.2998539,160 C66.216417,159.22684 67.126689,158.402775 68,157.553662 L67.6718064,157 C66.8068591,157.842072 65.907739,158.656743 65,159.419887 Z" id="Path" fill="#E6E6E6"></path>
                <path d="M62,160.610429 C61.0176678,161.092025 60.0141343,161.558282 59,162 L59,161.208589 C59.8763251,160.822086 60.745583,160.41411 61.5971731,160 L62,160.610429 Z" id="Path" fill="#E6E6E6"></path>
                <path d="M89,69.0120472 L89.9853327,69 C90.003435,69.6692849 90.004781,70.3421164 89.9893706,71 L89.0041194,70.9896512 C89.0191011,70.3392531 89.0178109,69.6738811 89,69.0120472 Z" id="Path" fill="#E6E6E6"></path>
                <path d="M64,84 L128.813373,84 C138.85757,84 147,91.907581 147,101.662076 L147,104 L82.1866294,104 C72.1424329,104 64,96.092419 64,86.3379235 L64,84 L64,84 Z" id="Path" fill="#FFFFFF"></path>
                <path d="M105.302214,196 C105.23718,195.897068 103.703741,193.417056 103.172118,188.267254 C102.684494,183.542581 102.998046,175.578776 107.262111,164.469924 C115.340258,143.424945 105.400458,126.444698 105.298892,126.275558 L105.789283,126 C105.81502,126.042888 108.379879,130.372185 109.895051,137.265928 C111.897068,146.405581 111.16806,155.908613 107.793464,164.661311 C99.7291631,185.67036 105.724529,195.615881 105.785961,195.713987 L105.302214,196 Z" id="Path" fill="#F2F2F2"></path>
                <circle id="Oval" fill="#664BC4" cx="102.5" cy="121.5" r="3.5"></circle>
                <circle id="Oval" fill="#F2F2F2" cx="113.5" cy="133.5" r="3.5"></circle>
                <circle id="Oval" fill="#664BC4" cx="106.5" cy="141.5" r="3.5"></circle>
                <circle id="Oval" fill="#664BC4" cx="115.5" cy="149.5" r="3.5"></circle>
                <circle id="Oval" fill="#F2F2F2" cx="103.5" cy="162.5" r="3.5"></circle>
                <path d="M108.592593,196 C108.592593,196 104.888889,186.857143 116,180 L108.592593,196 Z" id="Path" fill="#F2F2F2"></path>
                <path d="M105,196 C105,196 103.283719,185.914108 90,186.000553 L105,196 Z" id="Path" fill="#F2F2F2"></path>
                <circle id="Oval" fill="#664BC4" opacity="0.2" cx="89.5" cy="94.5" r="21.5"></circle>
                <circle id="Oval" fill="#664BC4" opacity="0.2" cx="89.5" cy="94.5" r="15.5"></circle>
                <ellipse id="Oval" fill="#664BC4" cx="89.5" cy="94" rx="10.5" ry="10"></ellipse>
                <path d="M91,91.83837 C91.0001925,90.9833502 90.5190405,90.2411298 89.8392327,90.0477827 C89.159425,89.8544356 88.4605897,90.2610506 88.1533108,91.0287307 C87.8460319,91.7964108 88.0115028,92.7223092 88.552505,93.2624364 L88.0000937,98 L91,98 L90.447586,93.2624364 C90.7974124,92.9139301 91.0003521,92.3907722 91,91.83837 Z" id="Path" fill="#FFFFFF"></path>
                <path d="M193.534108,13.4837897 C193.534108,13.4837897 187.394049,7.88610381 179.136749,18.4355914 C170.87945,28.985079 157.964163,34.1521783 155,38.2427954 C155,38.2427954 167.280101,33.0756989 171.514619,30.922743 C175.749137,28.7697871 175.537409,29.2003766 175.537409,29.2003766 C175.537409,29.2003766 169.820811,33.2909937 168.762181,37.3816135 C167.703551,41.4722334 168.550464,44.9169606 166.644923,49.0075805 C164.739383,53.0982004 203.061785,51.8064403 203.061785,51.8064403 C203.061785,51.8064403 206.87285,45.1322834 205.81422,38.2428122 C204.75559,31.3533409 205.390756,14.3449799 193.534108,13.4837897 Z" id="Path" fill="#0B1E2B"></path>
                <path d="M181.716991,32 C181.716991,32 183.104767,41.0740753 177.157161,43.1111123 C171.209554,45.1481493 173.390352,47.925926 173.390352,47.925926 L182.311763,52 L191.827942,49.2222233 L195,44.7777741 C195,44.7777741 189.845407,43.6666644 191.233191,40.3333249 C192.620975,36.9999853 193.017473,35.8888757 193.017473,35.8888757 L181.716991,32 Z" id="Path" fill="#FFB9B9"></path>
                <path d="M181.716991,32 C181.716991,32 183.104767,41.0740753 177.157161,43.1111123 C171.209554,45.1481493 173.390352,47.925926 173.390352,47.925926 L182.311763,52 L191.827942,49.2222233 L195,44.7777741 C195,44.7777741 189.845407,43.6666644 191.233191,40.3333249 C192.620975,36.9999853 193.017473,35.8888757 193.017473,35.8888757 L181.716991,32 Z" id="Path" fill="#000000" opacity="0.1"></path>
                <path d="M205.963663,59 C205.963663,59 204.604013,76.6404572 204.992472,77.4074353 C205.380932,78.1744134 204.992472,104.826842 204.992472,104.826842 C204.992472,104.826842 207.711769,119.207648 204.215531,119.974624 C200.719294,120.741599 201.496232,103.86812 201.496232,103.86812 L198,81.6258051 L198.388471,59.5752232 L205.963663,59 Z" id="Path" fill="#FFB9B9"></path>
                <path d="M205.963663,59 C205.963663,59 204.604013,76.6404572 204.992472,77.4074353 C205.380932,78.1744134 204.992472,104.826842 204.992472,104.826842 C204.992472,104.826842 207.711769,119.207648 204.215531,119.974624 C200.719294,120.741599 201.496232,103.86812 201.496232,103.86812 L198,81.6258051 L198.388471,59.5752232 L205.963663,59 Z" id="Path" fill="#000000" opacity="0.1"></path>
                <path d="M168.457072,112 C168.457072,112 161.802849,136.111677 162.004492,147.878171 C162.206135,159.644666 164.827505,176.04061 164.827505,176.04061 C164.827505,176.04061 165.230791,183.177664 164.625863,183.949239 C164.020934,184.720814 167.650487,188 167.650487,188 L171.481697,185.878173 L172.893199,184.335025 L172.893199,182.984782 C172.893199,182.984782 170.675126,176.426407 172.489913,171.218284 C174.304701,166.010161 175.312915,152.893412 173.498142,148.842651 L186,113.350266 L168.457072,112 Z" id="Path" fill="#FFB9B9"></path>
                <path d="M168.779739,185.201656 C168.779739,185.201656 166.438034,182.211634 164.876896,183.208321 C163.315758,184.205007 160.778911,190.982374 160.778911,190.982374 C160.778911,190.982374 151.997515,199.553762 158.242063,199.952433 C164.486612,200.351105 167.218604,198.158424 167.999172,196.563746 C168.779739,194.969068 176,190.783022 176,190.783022 C176,190.783022 175.219432,183.208304 174.048578,183.008969 C172.877724,182.809635 171.121447,185.998985 171.121447,185.998985 L168.779739,185.201656 Z" id="Path" fill="#E9446A"></path>
                <path d="M189.718446,113.724635 L189.718446,137.386471 C189.740996,140.257544 189.935507,143.124823 190.300969,145.973429 C190.883495,150.171497 187,181.466183 187,181.466183 L187.388349,187 L192.242717,186.618355 L192.825243,181.847825 L199.815533,160.857489 C199.815533,160.857489 202.145629,148.072463 200.980583,143.301933 C199.815536,138.531402 207,108 207,108 L189.718446,113.724635 Z" id="Path" fill="#FFB9B9"></path>
                <path d="M185.41397,186.290427 L186.8547,185.968855 C186.8547,185.968855 187.942865,183.494416 189.304574,184.093561 C190.26281,184.547292 191.17062,185.105737 192.012274,185.75922 L192.611588,186.889551 C192.611588,186.889551 193.9733,189.885279 195.724069,191.882429 C197.474838,193.87958 199.420134,198.273312 196.502191,198.672741 C193.584248,199.072171 189.693634,199.271886 188.526454,198.273312 C187.359275,197.274738 188.137395,195.677016 186.970212,195.277584 C185.80303,194.878152 184.830381,193.679866 185.024911,193.280433 C185.219441,192.881001 185.41397,186.290427 185.41397,186.290427 Z" id="Path" fill="#E9446A"></path>
                <circle id="Oval" fill="#FFB9B9" cx="189.5" cy="30.5" r="8.5"></circle>
                <path d="M173,44.8953651 L175.559885,44 C175.559885,44 174.550388,45.6719872 179.976745,46.6427823 C185.403102,47.6135774 191.022715,47.957254 193.542365,44.7759831 C193.542365,44.7759831 194.511627,44.3129049 195.868217,45.6720012 C197.224807,47.0310975 198,46.6427963 198,46.6427963 L197.030995,51.6908664 L195.093011,61.0103873 L192.573637,68 L185.403094,66.4467474 L177.651167,60.8161975 L174.744181,53.2440965 L174.744181,46.2544614 L173,44.8953651 Z" id="Path" fill="#E9446A"></path>
                <path d="M196.926609,48.8076534 L198.899086,47.4875023 C198.899086,47.4875023 205.605505,48.6190608 206,51.6365456 L200.871562,61.0661908 C201.917559,63.689996 201.84675,66.6012044 200.674315,69.1756821 C198.701838,73.5133207 198.899086,74.4562839 198.899086,74.4562839 L197.518351,80.114071 L172.4679,82 C172.4679,82 171.481649,79.7368857 171.087165,79.3597004 C170.692682,78.9825152 170.692671,77.662364 171.087165,77.662364 C171.48166,77.662364 171.087165,77.0965834 170.692671,76.5308055 C170.298176,75.9650276 170.100928,75.776435 170.692671,75.0220618 C171.284413,74.2676885 169.706419,67.4783457 169.706419,67.4783457 L169.706419,60.1232276 L163,51.6365456 C163,51.6365456 165.366971,48.2418728 166.550459,47.8646876 C167.733946,47.4875023 173.363729,46 173.363729,46 L174.637612,47.7933981 L176.412842,61.4433651 L178.977061,69.7414545 L189.77372,67.9875014 L193.967887,61.2547725 L196.729356,53.3338711 L196.926609,48.8076534 Z" id="Path" fill="#E9446A"></path>
                <path d="M204.215882,51 L205.88309,52.1581084 C205.88309,52.1581084 207.3419,62.9671365 206.92511,63.7392088 C206.50832,64.511281 199.214262,65.283356 199.005861,64.8973199 C198.79746,64.5112838 204.215882,51 204.215882,51 Z" id="Path" fill="#E9446A"></path>
                <path d="M172.138963,44.7740824 L174.041457,57.5462282 C174.041457,57.5462282 172.329212,76.5109325 172.709711,80.3812802 L173.09021,81.5423829 C173.09021,81.5423829 172.329212,81.1553487 172.138949,81.9294199 C171.948686,82.7034911 172.138949,85.2192135 172.138949,85.2192135 C172.138949,85.2192135 170.99745,86.3803189 170.616951,92.7663918 C170.236452,99.1524647 165.670458,114.440338 167.382705,115.020901 C169.094953,115.601463 179.368436,118.504214 184.885677,117.923663 C190.402919,117.343112 210.188887,110.570002 209.998637,108.828345 C209.808388,107.086688 200.295903,82.5099824 200.295903,82.5099824 C200.295903,82.5099824 198.583685,79.607209 198.583685,79.2201748 C198.583685,78.8331406 200.866681,77.2850009 200.295933,75.7368613 C199.725185,74.1887217 196.681197,57.9332652 196.681197,57.9332652 L198.773943,46.322222 L195.920182,45.5481396 L193.827436,56.7721486 C193.827436,56.7721486 185.646702,60.8360134 177.085462,57.1591828 L175.182965,44 L172.138963,44.7740824 Z" id="Path" fill="#0B1E2B"></path>
                <path d="M182,24.7065403 C182,24.7065403 196.291712,34.1582247 200.154337,29.8956984 C204.016961,25.6331721 193.394743,21.9266344 193.394743,21.9266344 L184.510708,21 L182,24.7065403 Z" id="Path" fill="#0B1E2B"></path>
                <path d="M159.852411,128.282694 C162.924689,130.498861 167.218278,130.155614 169.874208,127.481509 C172.530138,124.807404 172.71977,120.636752 170.316835,117.746662 C167.913899,114.856571 163.668101,114.148738 160.406588,116.094487 C157.145075,118.040237 155.885424,122.032502 157.466398,125.412957 L137.56851,141.467058 L134.91913,138.42008 L133.728788,139.191568 L132.404098,137.668082 L133.492543,136.7794 L132.167853,135.255914 L130.474716,136.638302 L131.289911,137.575829 L129.475834,139.056977 L128.660642,138.11945 L126,140.291776 L127.22279,141.698066 L128.190292,140.908128 L129.514981,142.431617 L128.305598,143.419047 L130.751178,146.23164 L127.848658,148.60145 L130.803735,152 L159.852411,128.282694 Z M164.820528,117.513409 C166.848439,117.681305 168.572297,119.016406 169.188269,120.896156 C169.804241,122.775906 169.191023,124.83012 167.634556,126.100922 C166.078089,127.371723 163.884894,127.608848 162.077655,126.701727 C160.270416,125.794605 159.205037,123.921879 159.378304,121.956797 C159.614897,119.273522 162.05146,117.284148 164.820528,117.513398 L164.820528,117.513409 Z" id="Shape" fill="#FFFFFF"></path>
                <path d="M163.036337,61 C163.036337,61 164.395986,78.6404572 164.007527,79.4074325 C163.619068,80.1744078 164.007527,106.826839 164.007527,106.826839 C164.007527,106.826839 161.288233,121.207645 164.784468,121.974623 C168.280703,122.741601 167.503765,105.868117 167.503765,105.868117 L171,83.6258023 L170.61153,61.5752204 L163.036337,61 Z" id="Path" fill="#FFB9B9"></path>
                <path d="M165.735549,51 L164.216894,51.5965209 C164.216894,51.5965209 161.369417,64.1234768 162.128744,64.1234768 C162.88807,64.1234768 172,65.3165214 172,64.9188409 C172,64.5211603 170.291513,54.7779714 170.291513,54.7779714 L165.735549,51 Z" id="Path" fill="#E9446A"></path>
            </g>
        </g>
    </g>
</svg>