<?xml version="1.0" encoding="UTF-8"?>
<svg width="19px" height="19px" viewBox="0 0 19 19" version="1.1" xmlns="http://www.w3.org/2000/svg" xmlns:xlink="http://www.w3.org/1999/xlink">
    <title>My position</title>
    <g id="map" stroke="none" stroke-width="1" fill="none" fill-rule="evenodd">
        <g id="News-filters-Copy" transform="translate(-325.000000, -138.000000)" fill="#664BC4" fill-rule="nonzero">
            <path d="M334.5,144.045455 C332.591364,144.045455 331.045455,145.591364 331.045455,147.5 C331.045455,149.408636 332.591364,150.954545 334.5,150.954545 C336.408636,150.954545 337.954545,149.408636 337.954545,147.5 C337.954545,145.591364 336.408636,144.045455 334.5,144.045455 Z M342.220909,146.636364 C341.823636,143.035 338.965,140.176364 335.363636,139.779091 L335.363636,138 L333.636364,138 L333.636364,139.779091 C330.035,140.176364 327.176364,143.035 326.779091,146.636364 L325,146.636364 L325,148.363636 L326.779091,148.363636 C327.176364,151.965 330.035,154.823636 333.636364,155.220909 L333.636364,157 L335.363636,157 L335.363636,155.220909 C338.965,154.823636 341.823636,151.965 342.220909,148.363636 L344,148.363636 L344,146.636364 L342.220909,146.636364 Z M334.5,153.545455 C331.157727,153.545455 328.454545,150.842273 328.454545,147.5 C328.454545,144.157727 331.157727,141.454545 334.5,141.454545 C337.842273,141.454545 340.545455,144.157727 340.545455,147.5 C340.545455,150.842273 337.842273,153.545455 334.5,153.545455 Z" id="My-position"></path>
        </g>
    </g>
</svg>