<?xml version="1.0" encoding="UTF-8"?>
<svg width="23px" height="21px" viewBox="0 0 23 21" version="1.1" xmlns="http://www.w3.org/2000/svg" xmlns:xlink="http://www.w3.org/1999/xlink">
    <title>Create professional account</title>
    <defs>
        <polygon id="path-1" points="0 -2.52237472e-05 22.7744 -2.52237472e-05 22.7744 20.9379 0 20.9379"></polygon>
    </defs>
    <g id="Menu" stroke="none" stroke-width="1" fill="none" fill-rule="evenodd">
        <g id="My-profile" transform="translate(-23.000000, -564.000000)">
            <g id="Create-professional-account" transform="translate(23.000000, 564.000000)">
                <mask id="mask-2" fill="white">
                    <use xlink:href="#path-1"></use>
                </mask>
                <g id="Clip-2"></g>
                <path d="M16.4114,16.8986 L6.3634,16.8986 L6.3634,16.1256 C6.3634,14.5686 7.6254,13.3056 9.1834,13.3056 L13.5914,13.3056 C15.1484,13.3056 16.4114,14.5686 16.4114,16.1256 L16.4114,16.8986 Z M11.3874,7.4376 C12.5674,7.4376 13.5244,8.3946 13.5244,9.5736 C13.5244,10.7536 12.5674,11.7116 11.3874,11.7116 C10.2074,11.7116 9.2504,10.7536 9.2504,9.5736 C9.2504,8.3946 10.2074,7.4376 11.3874,7.4376 L11.3874,7.4376 Z M21.1014,2.9406 L14.5184,2.9406 L11.6214,0.1576 C11.4034,-0.0524 11.0454,-0.0524 10.8274,0.1566 L7.9124,2.9406 L1.6734,2.9406 C0.7494,2.9406 -0.0006,3.6416 -0.0006,4.5056 L-0.0006,19.3726 C-0.0006,20.2376 0.7494,20.9386 1.6734,20.9386 L21.1014,20.9386 C22.0254,20.9386 22.7744,20.2376 22.7744,19.3726 L22.7744,4.5056 C22.7744,3.6416 22.0254,2.9406 21.1014,2.9406 L21.1014,2.9406 Z" id="Fill-1" fill="#B4BBCB" mask="url(#mask-2)"></path>
            </g>
        </g>
    </g>
</svg>