<?xml version="1.0" encoding="UTF-8"?>
<svg width="22px" height="22px" viewBox="0 0 22 22" version="1.1" xmlns="http://www.w3.org/2000/svg" xmlns:xlink="http://www.w3.org/1999/xlink">
    <title>camera</title>
    <g id="Menu" stroke="none" stroke-width="1" fill="none" fill-rule="evenodd">
        <g id="Settings" transform="translate(-175.000000, -177.000000)">
            <g id="camera" transform="translate(175.000000, 177.000000)">
                <circle id="Oval" fill="#664BC4" cx="11" cy="11" r="11"></circle>
                <g id="Group" transform="translate(5.000000, 4.000000)" fill="#FFFFFF" fill-opacity="0.920000017">
                    <g id="_Icons-/-FontIcons-/-Camera">
                        <path d="M7.80502976,2.18291667 C7.90938978,2.18291667 8.00974726,2.22307812 8.08529547,2.29507451 L8.08529547,2.29507451 L9.06384342,3.22761703 L10.0124646,3.22795245 C10.8798216,3.26612836 11.5728933,3.96320388 11.606369,4.84629167 L11.606369,4.84629167 L11.6056543,9.35259322 C11.5550277,10.204947 10.8278329,10.857784 9.99460119,10.817006 L9.99460119,10.817006 L3.02349301,10.8165308 C2.17097996,10.8577973 1.44393337,10.2055135 1.39208333,9.32920238 L1.39208333,9.32920238 L1.3923801,4.83076641 C1.42555911,3.96320388 2.11863076,3.26612836 3.00385119,3.22755952 L3.00385119,3.22755952 L3.91725859,3.22755952 L4.89574619,2.29507451 C4.97129441,2.22307812 5.07165189,2.18291667 5.1760119,2.18291667 L5.1760119,2.18291667 Z M7.64245502,2.99541667 L5.33858665,2.99541667 L4.36061693,3.92740814 C4.32405633,3.96238265 4.28097444,3.99059609 4.23337919,4.01004051 L4.23337919,4.01004051 C4.18031629,4.03087746 4.12961001,4.04017458 4.07896328,4.0400592 L4.07896328,4.0400592 L3.02171461,4.03966659 C2.57681091,4.05924861 2.22130547,4.41680781 2.20458333,4.84629167 L2.20458333,4.84629167 L2.203854,9.30487021 C2.2283176,9.71258122 2.57624275,10.024729 3.00385119,10.004506 L3.00385119,10.004506 L10.0142284,10.0049804 C10.4223605,10.0247215 10.7703566,9.71230909 10.793869,9.32850595 L10.793869,9.32850595 L10.7941658,4.86181692 C10.7771469,4.41680781 10.4216415,4.05924861 9.99460119,4.04005952 L9.99460119,4.04005952 L8.90120833,4.04005952 C8.79684832,4.04005952 8.69649084,3.99989807 8.62094262,3.92790168 L8.62094262,3.92790168 L7.64245502,2.99541667 Z M6.49922619,4.7819881 C7.58900235,4.7819881 8.47244048,5.66542622 8.47244048,6.75520238 C8.47244048,7.84497854 7.58900235,8.72841667 6.49922619,8.72841667 C5.40945003,8.72841667 4.5260119,7.84497854 4.5260119,6.75520238 C4.5260119,5.66542622 5.40945003,4.7819881 6.49922619,4.7819881 Z M6.49922619,5.5944881 C5.85818139,5.5944881 5.3385119,6.11415758 5.3385119,6.75520238 C5.3385119,7.39624718 5.85818139,7.91591667 6.49922619,7.91591667 C7.14027099,7.91591667 7.65994048,7.39624718 7.65994048,6.75520238 C7.65994048,6.11415758 7.14027099,5.5944881 6.49922619,5.5944881 Z" id="Combined-Shape"></path>
                    </g>
                </g>
            </g>
        </g>
    </g>
</svg>