<?xml version="1.0" encoding="UTF-8"?>
<svg width="39px" height="39px" viewBox="0 0 39 39" version="1.1" xmlns="http://www.w3.org/2000/svg" xmlns:xlink="http://www.w3.org/1999/xlink">
    <title>information-button</title>
    <defs>
        <filter id="filter-1">
            <feColorMatrix in="SourceGraphic" type="matrix" values="0 0 0 0 1.000000 0 0 0 0 1.000000 0 0 0 0 1.000000 0 0 0 1.000000 0"></feColorMatrix>
        </filter>
    </defs>
    <g id="Menu" stroke="none" stroke-width="1" fill="none" fill-rule="evenodd">
        <g id="information-button" transform="translate(-43.000000, -657.000000)" filter="url(#filter-1)">
            <g transform="translate(43.000000, 657.000000)">
                <path d="M19.4991746,0 C8.73104762,0 0,8.73104762 0,19.4991746 C0,30.2673016 8.73104762,39 19.4991746,39 C30.2673016,39 39,30.2673016 39,19.4991746 C39,8.73104762 30.2673016,0 19.4991746,0 Z M23.5584762,30.2210794 C22.5547937,30.6172698 21.7558095,30.9177143 21.1565714,31.1257143 C20.5589841,31.3337143 19.864,31.4377143 19.0732698,31.4377143 C17.8582857,31.4377143 16.912381,31.1405714 16.2388571,30.5479365 C15.5653333,29.9553016 15.2302222,29.2041905 15.2302222,28.2913016 C15.2302222,27.936381 15.2549841,27.5732063 15.3045079,27.2034286 C15.3556825,26.8336508 15.4365714,26.4176508 15.5471746,25.9504762 L16.8034286,21.5131429 C16.9140317,21.0872381 17.0097778,20.6827937 17.0857143,20.3064127 C17.1616508,19.9267302 17.1979683,19.5784127 17.1979683,19.2614603 C17.1979683,18.6968889 17.0807619,18.3006984 16.848,18.0778413 C16.6119365,17.8549841 16.167873,17.7460317 15.5059048,17.7460317 C15.1823492,17.7460317 14.8488889,17.7939048 14.5071746,17.8946032 C14.1687619,17.9986032 13.8749206,18.0926984 13.6339048,18.1851429 L13.9657143,16.8182857 C14.7878095,16.4831746 15.5752381,16.1959365 16.3263492,15.9582222 C17.0774603,15.7172063 17.7873016,15.5983492 18.455873,15.5983492 C19.6626032,15.5983492 20.5936508,15.8921905 21.2490159,16.4732698 C21.9010794,17.056 22.2295873,17.8137143 22.2295873,18.7447619 C22.2295873,18.9379048 22.2064762,19.2779683 22.1619048,19.7633016 C22.1173333,20.2502857 22.0331429,20.6943492 21.9109841,21.1020952 L20.6613333,25.5262222 C20.5589841,25.8811429 20.4681905,26.2872381 20.3856508,26.7412063 C20.3047619,27.1951746 20.2651429,27.5418413 20.2651429,27.7746032 C20.2651429,28.3622857 20.3955556,28.7634286 20.6596825,28.976381 C20.9205079,29.1893333 21.3777778,29.2966349 22.0248889,29.2966349 C22.3302857,29.2966349 22.672,29.2421587 23.0582857,29.1365079 C23.4412698,29.0308571 23.7186032,28.9367619 23.8935873,28.855873 L23.5584762,30.2210794 Z M23.3372698,12.263746 C22.7545397,12.8052063 22.0529524,13.0759365 21.2325079,13.0759365 C20.4137143,13.0759365 19.7071746,12.8052063 19.1194921,12.263746 C18.5351111,11.7222857 18.239619,11.063619 18.239619,10.2943492 C18.239619,9.52673016 18.5367619,8.8664127 19.1194921,8.32 C19.7071746,7.77193651 20.4137143,7.49955556 21.2325079,7.49955556 C22.0529524,7.49955556 22.7561905,7.77193651 23.3372698,8.32 C23.92,8.8664127 24.2121905,9.52673016 24.2121905,10.2943492 C24.2121905,11.0652698 23.92,11.7222857 23.3372698,12.263746 Z" id="Shape" fill="#030104" fill-rule="nonzero"></path>
            </g>
        </g>
    </g>
</svg>