<?xml version="1.0" encoding="UTF-8"?>
<svg width="30px" height="29px" viewBox="0 0 30 29" version="1.1" xmlns="http://www.w3.org/2000/svg" xmlns:xlink="http://www.w3.org/1999/xlink">
    <title>promo code </title>
    <defs>
        <filter id="filter-1">
            <feColorMatrix in="SourceGraphic" type="matrix" values="0 0 0 0 0.704193 0 0 0 0 0.731979 0 0 0 0 0.794497 0 0 0 1.000000 0"></feColorMatrix>
        </filter>
    </defs>
    <g id="Menu" stroke="none" stroke-width="1" fill="none" fill-rule="evenodd">
        <g id="promo-code-" transform="translate(-82.000000, -134.000000)" filter="url(#filter-1)">
            <g transform="translate(82.000000, 134.000000)">
                <path d="M15.943,12.8608 L28.803,12.8608 L28.803,-0.0002 L15.943,-0.0002 L15.943,12.8608 Z M16.851,11.9528 L27.897,11.9528 L27.897,0.9078 L16.851,0.9078 L16.851,11.9528 Z" id="Fill-1" fill="#000000"></path>
                <path d="M21.574,7.1578 L23.029,7.1578 L23.029,5.7028 L21.574,5.7028 L21.574,7.1578 Z M20.667,8.0658 L23.938,8.0658 L23.938,4.7958 L20.667,4.7958 L20.667,8.0658 Z" id="Fill-2" fill="#000000"></path>
                <path d="M0,12.8608 L12.86,12.8608 L12.86,-0.0002 L0,-0.0002 L0,12.8608 Z M0.908,11.9528 L11.953,11.9528 L11.953,0.9078 L0.908,0.9078 L0.908,11.9528 Z" id="Fill-3" fill="#000000"></path>
                <path d="M5.631,7.1578 L7.086,7.1578 L7.086,5.7028 L5.631,5.7028 L5.631,7.1578 Z M4.724,8.0658 L7.994,8.0658 L7.994,4.7958 L4.724,4.7958 L4.724,8.0658 Z" id="Fill-4" fill="#000000"></path>
                <path d="M0,28.8008 L12.86,28.8008 L12.86,15.9408 L0,15.9408 L0,28.8008 Z M0.908,27.8938 L11.953,27.8938 L11.953,16.8488 L0.908,16.8488 L0.908,27.8938 Z" id="Fill-5" fill="#000000"></path>
                <path d="M5.631,23.0988 L7.086,23.0988 L7.086,21.6438 L5.631,21.6438 L5.631,23.0988 Z M4.724,24.0068 L7.994,24.0068 L7.994,20.7368 L4.724,20.7368 L4.724,24.0068 Z" id="Fill-6" fill="#000000"></path>
                <g id="Group-13" transform="translate(14.000000, 15.800800)" fill="#000000">
                    <path d="M11.8403,11.6299 C10.3503,11.6299 9.4243,10.6509 9.4243,9.0759 C9.4243,7.5009 10.3503,6.5229 11.8403,6.5229 C13.3313,6.5229 14.2573,7.5009 14.2573,9.0759 C14.2573,10.6509 13.3313,11.6299 11.8403,11.6299 L11.8403,11.6299 Z M3.8053,11.4779 L10.5073,1.6629 L12.0843,1.6629 L5.3833,11.4779 L3.8053,11.4779 Z M4.0493,6.6169 C2.5593,6.6169 1.6323,5.6389 1.6323,4.0649 C1.6323,2.4889 2.5593,1.5109 4.0493,1.5109 C5.5403,1.5109 6.4653,2.4889 6.4653,4.0649 C6.4653,5.6389 5.5403,6.6169 4.0493,6.6169 L4.0493,6.6169 Z M11.8403,5.7059 C11.0973,5.7059 10.4473,5.9059 9.9303,6.2669 L13.6313,0.8469 L10.0763,0.8469 L7.1553,5.1229 C7.2383,4.7979 7.2823,4.4429 7.2823,4.0649 C7.2823,2.0489 5.9833,0.6939 4.0493,0.6939 C2.1153,0.6939 0.8163,2.0489 0.8163,4.0649 C0.8163,6.1109 2.0853,7.4349 4.0493,7.4349 C4.7873,7.4349 5.4263,7.2479 5.9373,6.9059 L2.2583,12.2939 L5.8143,12.2939 L8.7433,8.0049 C8.6543,8.3349 8.6073,8.6929 8.6073,9.0759 C8.6073,11.1229 9.8763,12.4459 11.8403,12.4459 C13.8043,12.4459 15.0733,11.1229 15.0733,9.0759 C15.0733,7.0609 13.7743,5.7059 11.8403,5.7059 L11.8403,5.7059 Z" id="Fill-7"></path>
                    <path d="M11.8403,9.9883 C11.7393,9.9883 11.5803,9.7403 11.5803,9.0763 C11.5803,8.4123 11.7393,8.1643 11.8403,8.1643 C11.9413,8.1643 12.1003,8.4123 12.1003,9.0763 C12.1003,9.7403 11.9413,9.9883 11.8403,9.9883 M11.8403,7.3473 C11.5163,7.3473 10.7633,7.5153 10.7633,9.0763 C10.7633,10.6363 11.5163,10.8043 11.8403,10.8043 C12.1643,10.8043 12.9173,10.6363 12.9173,9.0763 C12.9173,7.5153 12.1643,7.3473 11.8403,7.3473" id="Fill-9"></path>
                    <path d="M4.0498,4.9775 C3.9488,4.9775 3.7898,4.7295 3.7898,4.0645 C3.7898,3.3995 3.9488,3.1515 4.0498,3.1515 C4.1498,3.1515 4.3088,3.3995 4.3088,4.0645 C4.3088,4.7295 4.1498,4.9775 4.0498,4.9775 M4.0498,2.3345 C3.7258,2.3345 2.9728,2.5035 2.9728,4.0645 C2.9728,5.6245 3.7258,5.7935 4.0498,5.7935 C4.3728,5.7935 5.1258,5.6245 5.1258,4.0645 C5.1258,2.5035 4.3728,2.3345 4.0498,2.3345" id="Fill-11"></path>
                </g>
            </g>
        </g>
    </g>
</svg>