<?xml version="1.0" encoding="UTF-8"?>
<svg width="19px" height="20px" viewBox="0 0 19 20" version="1.1" xmlns="http://www.w3.org/2000/svg" xmlns:xlink="http://www.w3.org/1999/xlink">
    <title>Group 6</title>
    <defs>
        <polygon id="path-1" points="0 0.587897599 18.2424848 0.587897599 18.2424848 7 0 7"></polygon>
    </defs>
    <g id="Store" stroke="none" stroke-width="1" fill="none" fill-rule="evenodd">
        <g id="local-investments" transform="translate(-200.000000, -312.000000)">
            <g id="Group-6" transform="translate(200.000000, 312.000000)">
                <g id="Group-3" transform="translate(0.000000, 12.292700)">
                    <mask id="mask-2" fill="white">
                        <use xlink:href="#path-1"></use>
                    </mask>
                    <g id="Clip-2"></g>
                    <path d="M9.0776,6.997 C7.0166,6.997 4.9556,7.00002959 2.8956,6.996 C1.1086,6.993 0.0136,5.899 0.0026,4.108 C-0.0034,3.174 0.0026,2.238 0.0016,1.304 C0.0016,0.934 0.0476,0.581 0.5266,0.588 C0.9876,0.594 1.0676,0.934 1.0686,1.307 C1.0706,2.299 1.0626,3.291 1.0716,4.283 C1.0786,5.197 1.6556,5.905 2.5646,5.911 C6.9336,5.942 11.3036,5.943 15.6726,5.908 C16.5916,5.9 17.1556,5.189 17.1776,4.212 C17.1986,3.259 17.1826,2.304 17.1826,1.35 C17.1836,0.97 17.1986,0.574 17.7196,0.589 C18.2256,0.602 18.2416,0.995 18.2406,1.375 C18.2396,2.31 18.2466,3.245 18.2386,4.18 C18.2246,5.841 17.0896,6.987 15.4316,6.995 C13.3136,7.005 11.1956,6.997 9.0776,6.997" id="Fill-1" fill="#FFFFFF" mask="url(#mask-2)"></path>
                </g>
                <path d="M9.7802,11.9958 C10.5652,11.2018 11.3492,10.4068 12.1352,9.6138 C12.4042,9.3438 12.6742,9.0738 12.9442,8.8048 C13.2092,8.5398 13.5062,8.4388 13.7872,8.7458 C14.0432,9.0248 13.9342,9.3078 13.6912,9.5528 C12.7472,10.4968 11.8032,11.4408 10.8592,12.3858 C10.4412,12.8038 10.0162,13.2148 9.6062,13.6418 C9.2752,13.9848 8.9672,13.9948 8.6272,13.6528 C7.2682,12.2868 5.9042,10.9268 4.5412,9.5638 C4.2822,9.3058 4.1532,9.0158 4.4582,8.7218 C4.7592,8.4318 5.0522,8.5648 5.3092,8.8208 C6.3072,9.8178 7.3032,10.8168 8.3012,11.8138 C8.3642,11.8758 8.4372,11.9278 8.6012,12.0628 L8.6012,11.3608 C8.6012,7.8898 8.6012,4.4178 8.6012,0.9458 C8.6012,0.7748 8.5532,0.5768 8.6232,0.4378 C8.7132,0.2578 8.9022,-0.0042 9.0412,-0.000245261803 C9.2352,0.0058 9.4822,0.1878 9.5942,0.3658 C9.6922,0.5188 9.6452,0.7708 9.6452,0.9798 C9.6472,4.4898 9.6462,7.9998 9.6462,11.5098 L9.6462,11.9078 C9.6912,11.9368 9.7362,11.9668 9.7802,11.9958" id="Fill-4" fill="#FFFFFF"></path>
            </g>
        </g>
    </g>
</svg>