<?xml version="1.0" encoding="UTF-8"?>
<svg width="16px" height="15px" viewBox="0 0 16 15" version="1.1" xmlns="http://www.w3.org/2000/svg" xmlns:xlink="http://www.w3.org/1999/xlink">
    <title>review star empty</title>
    <defs>
        <path d="M17.6535693,8.09266857 C17.9678961,7.80517457 18.0786345,7.38351671 17.9431929,6.99175823 C17.8077513,6.59999974 17.4542402,6.32017225 17.0206566,6.26114015 L13.2274396,5.74365096 C13.15333,5.7336845 13.0885906,5.68998542 13.0553691,5.62635341 L11.3593675,2.39875416 C11.1642975,2.02922855 10.771602,1.8 10.3329074,1.8 C9.89421288,1.8 9.50151737,2.02922855 9.30815104,2.39875416 L7.6112976,5.62635341 C7.57807607,5.68998542 7.51333668,5.7336845 7.43922712,5.74365096 L3.64601005,6.2619068 C3.21242651,6.32093891 2.85891538,6.60076639 2.72347376,6.99252488 C2.58803215,7.38428336 2.69877057,7.80594122 3.01309734,8.09343522 L5.75770668,10.6057494 C5.81137223,10.6548151 5.83607541,10.7261136 5.8232979,10.7958788 L5.17505218,14.343938 C5.10094262,14.7494962 5.2755686,15.1519878 5.62993157,15.3942494 C5.98429454,15.636511 6.4459886,15.6679437 6.8335731,15.476281 L10.2264282,13.8011493 C10.2928712,13.7681834 10.3729436,13.7681834 10.4393867,13.8011493 L13.8322417,15.476281 C14.0009049,15.5583126 14.1831974,15.5997118 14.3654899,15.5997118 C14.6014479,15.5997118 14.8357023,15.5299466 15.0367351,15.3934827 C15.3910981,15.1512211 15.565724,14.7487295 15.4916145,14.3431713 L14.8433688,10.7951121 C14.8305913,10.7253469 14.8552944,10.6540484 14.90896,10.6049828 L17.6535693,8.09266857 Z" id="path-1"></path>
    </defs>
    <g id="Experts" stroke="none" stroke-width="1" fill="none" fill-rule="evenodd">
        <g id="Expert-scheda-client" transform="translate(-99.000000, -1228.000000)">
            <g id="icons/tabbar/Favorites" transform="translate(97.000000, 1227.000000)">
                <rect id="Rectangle" fill-opacity="0" fill="#FF0000" x="0" y="0" width="20" height="18"></rect>
                <mask id="mask-2" fill="white">
                    <use xlink:href="#path-1"></use>
                </mask>
                <use id="Star" fill="#000000" fill-rule="nonzero" xlink:href="#path-1"></use>
                <g id="color/primary" mask="url(#mask-2)" fill="#DAD9E2">
                    <rect id="color/Title-text-light-gray" x="0" y="0" width="20" height="18"></rect>
                </g>
            </g>
        </g>
    </g>
</svg>