<?xml version="1.0" encoding="UTF-8"?>
<svg width="14px" height="15px" viewBox="0 0 14 15" version="1.1" xmlns="http://www.w3.org/2000/svg" xmlns:xlink="http://www.w3.org/1999/xlink">
    <title>review star </title>
    <defs>
        <path d="M15.0055339,8.09266857 C15.2727117,7.80517457 15.3668393,7.38351671 15.251714,6.99175823 C15.1365886,6.59999974 14.8361041,6.32017225 14.4675581,6.26114015 L11.2433236,5.74365096 C11.1803305,5.7336845 11.125302,5.68998542 11.0970637,5.62635341 L9.65546234,2.39875416 C9.48965284,2.02922855 9.15586166,1.8 8.7829713,1.8 C8.41008094,1.8 8.07628977,2.02922855 7.91192839,2.39875416 L6.46960296,5.62635341 C6.44136466,5.68998542 6.38633618,5.7336845 6.32334305,5.74365096 L3.09910854,6.2619068 C2.73056253,6.32093891 2.43007807,6.60076639 2.3149527,6.99252488 C2.19982732,7.38428336 2.29395499,7.80594122 2.56113274,8.09343522 L4.89405068,10.6057494 C4.93966639,10.6548151 4.9606641,10.7261136 4.94980322,10.7958788 L4.39879436,14.343938 C4.33580123,14.7494962 4.48423331,15.1519878 4.78544184,15.3942494 C5.08665036,15.636511 5.47909031,15.6679437 5.80853713,15.476281 L8.69246394,13.8011493 C8.74894053,13.7681834 8.81700207,13.7681834 8.87347867,13.8011493 L11.7574055,15.476281 C11.9007691,15.5583126 12.0557178,15.5997118 12.2106664,15.5997118 C12.4112307,15.5997118 12.6103469,15.5299466 12.7812248,15.3934827 C13.0824334,15.1512211 13.2308654,14.7487295 13.1678723,14.3431713 L12.6168634,10.7951121 C12.6060026,10.7253469 12.6270003,10.6540484 12.672616,10.6049828 L15.0055339,8.09266857 Z" id="path-1"></path>
    </defs>
    <g id="Experts" stroke="none" stroke-width="1" fill="none" fill-rule="evenodd">
        <g id="Expert-scheda-client" transform="translate(-79.000000, -1228.000000)">
            <g id="icons/tabbar/Favorites" transform="translate(77.000000, 1227.000000)">
                <rect id="Rectangle" fill-opacity="0" fill="#FF0000" x="0" y="0" width="17" height="18"></rect>
                <mask id="mask-2" fill="white">
                    <use xlink:href="#path-1"></use>
                </mask>
                <use id="Star" fill="#000000" fill-rule="nonzero" xlink:href="#path-1"></use>
                <g id="color/primary" mask="url(#mask-2)" fill="#FFC700">
                    <rect x="0" y="0" width="17" height="18"></rect>
                </g>
            </g>
        </g>
    </g>
</svg>