<?xml version="1.0" encoding="UTF-8"?>
<svg width="16px" height="16px" viewBox="0 0 16 16" version="1.1" xmlns="http://www.w3.org/2000/svg" xmlns:xlink="http://www.w3.org/1999/xlink">
    <title>bell-ringing</title>
    <g id="Home" stroke="none" stroke-width="1" fill="none" fill-rule="evenodd">
        <g transform="translate(-19.000000, -48.000000)" fill="#5432D3" fill-rule="nonzero" id="loop">
            <g transform="translate(12.000000, 41.000000)">
                <g id="bell-ringing" transform="translate(7.000000, 7.000000)">
                    <path d="M14.8121245,2.41529706 C15.151055,2.07646458 15.1513857,1.52639899 14.8121245,1.18723594 C14.4728634,0.847742334 13.9233,0.848072903 13.5833775,1.18690538 C12.0001587,-0.395855487 9.43321477,-0.395524919 7.84999598,1.18723594 L3.9891642,5.0472816 C3.64990303,5.38644464 3.27658348,5.5160274 2.52663774,5.2806628 C2.06833756,5.1368656 1.40337244,5.17554209 1.06378061,5.51470513 C0.724850107,5.85353761 0.226208935,6.35236512 0.226208935,6.35236512 L0.230507565,6.35600137 C-0.502574317,7.17217442 0.566792759,9.5142506 2.67345251,11.8543434 C2.7432226,11.4973296 2.8870614,11.1525469 3.10067028,10.8418128 C1.496289,8.97013523 0.956645505,7.53084099 0.983098618,7.0568061 C0.989050568,7.0568061 0.994341191,7.05647553 1.00095447,7.05647553 C1.84547009,7.05647553 3.82912287,8.14206172 5.84220473,10.1545613 C5.96058241,10.2725742 6.07168549,10.3889342 6.18212723,10.5052943 C5.91462013,10.3856285 5.62826519,10.3234817 5.34058759,10.3234817 C4.81417065,10.3234817 4.28742304,10.5238061 3.88632772,10.9254465 C3.75538482,11.0563516 3.64758838,11.2021322 3.55897045,11.3558464 C3.55863979,11.3555158 3.55863979,11.3551853 3.55830913,11.3551853 C3.55632514,11.3588215 3.55533315,11.3621272 3.55334917,11.3657635 C3.45745664,11.5346838 3.38768655,11.7138518 3.34337759,11.8979784 C3.34073228,11.908226 3.3377563,11.9184736 3.33577232,11.9290518 C3.31494049,12.0212803 3.30039128,12.1148312 3.29212468,12.2090431 C3.29212468,12.2113571 3.29212468,12.2133405 3.29179402,12.2153239 C3.28451941,12.3058996 3.28418875,12.397467 3.28914871,12.4880427 C3.28947937,12.4949847 3.28848738,12.501596 3.28881804,12.508538 C3.28914871,12.5088685 3.28981003,12.5095297 3.2901407,12.5098602 C3.32056178,12.9918288 3.51763747,13.4658637 3.88632772,13.8341167 C4.28775371,14.2354266 4.81450131,14.4364121 5.34058759,14.4364121 C5.39184049,14.4364121 5.44408539,14.4324453 5.49566896,14.4294702 L5.49566896,14.4294702 L5.49599962,14.4294702 C5.59387614,14.4225282 5.69109133,14.4073221 5.78731452,14.3858352 C5.78995984,14.385174 5.79293581,14.3845129 5.79558112,14.3838517 C5.98769685,14.3405473 6.17452196,14.268814 6.35010449,14.1703046 C6.35142715,14.1696435 6.35274981,14.1686518 6.35440313,14.1679907 C6.51212981,14.0784067 6.66125923,13.968658 6.79484745,13.8344473 C7.34143489,13.2883485 7.5153641,12.5105214 7.31762709,11.8166586 C8.54670483,13.3954526 8.97094662,14.5848372 8.94713882,15.0079646 C8.94151754,15.0079646 8.93655758,15.0082952 8.92961363,15.0082952 C8.54968081,15.0082952 7.93729125,14.7858228 7.1966041,14.360712 C6.91818509,14.6221915 6.59446512,14.8182184 6.24230806,14.941851 C7.30241655,15.6168714 8.25605126,16 8.92928297,16 C9.22754181,16 9.46892647,15.922647 9.64285568,15.7659577 L9.64550099,15.7702551 C9.64550099,15.7702551 10.1438115,15.2720887 10.4834033,14.9329256 C10.8220032,14.5940932 10.7337159,13.9498156 10.7175134,13.4704916 C10.7003189,12.9676973 10.6120316,12.3478818 10.9512928,12.0087187 L14.8127859,8.14834252 C16.3953433,6.56392881 16.395674,3.99805792 14.8121245,2.41529706 Z" id="Shape"></path>
                </g>
            </g>
        </g>
    </g>
</svg>