<?xml version="1.0" encoding="UTF-8"?>
<svg width="25px" height="22px" viewBox="0 0 25 22" version="1.1" xmlns="http://www.w3.org/2000/svg" xmlns:xlink="http://www.w3.org/1999/xlink">
    <title>Group 8</title>
    <defs>
        <polygon id="path-1" points="0 0.2399 24.791 0.2399 24.791 20.9999 0 20.9999"></polygon>
    </defs>
    <g id="Store" stroke="none" stroke-width="1" fill="none" fill-rule="evenodd">
        <g id="local-investments" transform="translate(-308.000000, -310.000000)">
            <g id="Group-8" transform="translate(308.000000, 310.000000)">
                <path d="M6.1035,19.0171 C5.8925,19.0171 5.7245,19.1851 5.7245,19.3971 C5.7245,19.6091 5.8925,19.7761 6.1035,19.7761 C6.3155,19.7761 6.4885,19.6091 6.4885,19.3971 C6.4885,19.1851 6.3155,19.0171 6.1035,19.0171" id="Fill-1" fill="#FFFFFF"></path>
                <g id="Group-5" transform="translate(0.000000, 0.761000)">
                    <mask id="mask-2" fill="white">
                        <use xlink:href="#path-1"></use>
                    </mask>
                    <g id="Clip-4"></g>
                    <path d="M15.4301,14.0539 L15.8381,11.3889 L18.6471,11.3889 L17.9501,14.0539 L15.4301,14.0539 Z M12.4031,14.0539 L12.5481,11.3889 L15.0791,11.3889 L14.6721,14.0539 L12.4031,14.0539 Z M9.2381,14.0539 L9.0981,11.3889 L11.7901,11.3889 L11.6571,14.0539 L9.2381,14.0539 Z M5.8151,11.3889 L8.3451,11.3889 L8.4901,14.0539 L6.2211,14.0539 L5.8151,11.3889 Z M2.7541,13.3279 L2.2511,11.3889 L5.0561,11.3889 L5.4631,14.0539 L3.6901,14.0539 C3.2491,14.0539 2.8661,13.7519 2.7541,13.3279 L2.7541,13.3279 Z M0.9531,4.9329 C1.1371,4.6889 1.4211,4.5539 1.7221,4.5539 L4.0131,4.5539 L4.4211,7.2179 L1.1641,7.2179 L0.7851,5.7699 C0.7081,5.4799 0.7691,5.1679 0.9531,4.9329 L0.9531,4.9329 Z M7.9891,4.5539 L8.1281,7.2179 L5.1791,7.2179 L4.7771,4.5539 L7.9891,4.5539 Z M12.1521,4.5539 L12.0131,7.2179 L8.8801,7.2179 L8.7411,4.5539 L12.1521,4.5539 Z M15.7141,7.2179 L12.7611,7.2179 L12.9061,4.5539 L16.1161,4.5539 L15.7141,7.2179 Z M19.7291,7.2179 L16.4731,7.2179 L16.8801,4.5539 L20.4251,4.5539 L19.7291,7.2179 Z M12.7261,7.9659 L15.5981,7.9659 L15.1901,10.6309 L12.5811,10.6309 L12.7261,7.9659 Z M8.9191,7.9659 L11.9741,7.9659 L11.8351,10.6309 L9.0581,10.6309 L8.9191,7.9659 Z M5.2951,7.9659 L8.1661,7.9659 L8.3111,10.6309 L5.7021,10.6309 L5.2951,7.9659 Z M1.3601,7.9659 L4.5331,7.9659 L4.9451,10.6309 L2.0521,10.6309 L1.3601,7.9659 Z M18.8431,10.6309 L15.9541,10.6309 L16.3621,7.9659 L19.5341,7.9659 L18.9261,10.2959 L18.8431,10.6309 Z M18.6861,18.6359 C18.6861,19.5289 17.9671,20.2519 17.0811,20.2519 C16.1941,20.2519 15.4701,19.5289 15.4701,18.6359 C15.4701,17.7549 16.1941,17.0309 17.0811,17.0309 C17.9671,17.0309 18.6861,17.7549 18.6861,18.6359 L18.6861,18.6359 Z M6.1031,20.2519 C5.2231,20.2519 4.4981,19.5289 4.4981,18.6359 C4.4981,17.7549 5.2231,17.0309 6.1031,17.0309 C6.9791,17.0309 7.6931,17.7329 7.7101,18.6029 C7.7101,18.6029 7.7041,18.6249 7.7041,18.6359 C7.7041,18.6469 7.7101,18.6579 7.7101,18.6699 C7.6931,19.5379 6.9791,20.2519 6.1031,20.2519 L6.1031,20.2519 Z M24.4181,0.2399 C22.7281,0.2399 21.2501,1.3879 20.8271,3.0159 L20.6201,3.7949 L16.5571,3.7949 L12.5481,3.7949 L8.3451,3.7949 L4.3371,3.7949 L1.7221,3.7949 C1.1871,3.7949 0.6851,4.0409 0.3621,4.4639 C0.0331,4.8879 -0.0789,5.4349 0.0551,5.9589 L2.0291,13.5189 C2.2241,14.2649 2.9101,14.7999 3.6901,14.7999 L5.8981,14.7999 L8.8861,14.7999 L12.0131,14.7999 L14.9961,14.7999 L17.7561,14.7999 L17.3651,16.2949 C17.2701,16.2829 17.1761,16.2719 17.0811,16.2719 C15.9041,16.2719 14.9341,17.1419 14.7511,18.2559 L8.4351,18.2559 C8.2501,17.1419 7.2811,16.2719 6.1031,16.2719 C4.8051,16.2719 3.7461,17.3429 3.7461,18.6359 C3.7461,19.9409 4.8051,20.9999 6.1031,20.9999 C7.2811,20.9999 8.2501,20.1299 8.4351,19.0149 L14.7511,19.0149 C14.9341,20.1299 15.9041,20.9999 17.0811,20.9999 C18.3791,20.9999 19.4391,19.9409 19.4391,18.6359 C19.4391,17.6999 18.8821,16.8849 18.0851,16.5059 L18.6031,14.5219 L18.6421,14.3769 L21.5521,3.2049 C21.8921,1.9109 23.0681,0.9969 24.4181,0.9969 C24.6231,0.9969 24.7911,0.8299 24.7911,0.6179 C24.7911,0.4169 24.6231,0.2399 24.4181,0.2399 L24.4181,0.2399 Z" id="Fill-3" fill="#FFFFFF" mask="url(#mask-2)"></path>
                </g>
                <path d="M16.6962,19.3969 C16.6962,19.6089 16.8682,19.7759 17.0812,19.7759 C17.2862,19.7759 17.4602,19.6089 17.4602,19.3969 C17.4602,19.1849 17.2862,19.0169 17.0812,19.0169 C16.8682,19.0169 16.6962,19.1849 16.6962,19.3969" id="Fill-6" fill="#FFFFFF"></path>
            </g>
        </g>
    </g>
</svg>