<?xml version="1.0" encoding="UTF-8"?>
<svg width="20px" height="20px" viewBox="0 0 20 20" version="1.1" xmlns="http://www.w3.org/2000/svg" xmlns:xlink="http://www.w3.org/1999/xlink">
    <title>Group 16</title>
    <defs>
        <polygon id="path-1" points="0.0003 0.0007 19.57 0.0007 19.57 19.5477 0.0003 19.5477"></polygon>
    </defs>
    <g id="Store" stroke="none" stroke-width="1" fill="none" fill-rule="evenodd">
        <g id="local-investments" transform="translate(-258.000000, -312.000000)">
            <g id="Group-16" transform="translate(258.000000, 312.000000)">
                <mask id="mask-2" fill="white">
                    <use xlink:href="#path-1"></use>
                </mask>
                <g id="Clip-2"></g>
                <path d="M2.565,4.2589 L12.63,4.2589 L12.63,2.5869 L2.565,2.5869 L2.565,4.2589 Z M2.27,4.8579 L12.929,4.8579 C13.092,4.8579 13.225,4.7259 13.225,4.5589 L13.225,2.2889 C13.225,2.1289 13.092,1.9979 12.929,1.9979 L2.27,1.9979 C2.108,1.9979 1.976,2.1289 1.976,2.2889 L1.976,4.5589 C1.976,4.7259 2.108,4.8579 2.27,4.8579 L2.27,4.8579 Z" id="Fill-1" fill="#FFFFFF" mask="url(#mask-2)"></path>
                <path d="M4.6821,12.4017 C4.6821,12.7357 4.4131,13.0007 4.0881,13.0007 L3.1601,13.0007 C2.8331,13.0007 2.5651,12.7357 2.5651,12.4017 L2.5651,11.4767 C2.5651,11.1517 2.8331,10.8867 3.1601,10.8867 L4.0881,10.8867 C4.4131,10.8867 4.6821,11.1517 4.6821,11.4767 L4.6821,12.4017 Z M4.0881,10.2897 L3.1601,10.2897 C2.5081,10.2897 1.9751,10.8257 1.9751,11.4767 L1.9751,12.4017 C1.9751,13.0607 2.5081,13.5887 3.1601,13.5887 L4.0881,13.5887 C4.7401,13.5887 5.2711,13.0607 5.2711,12.4017 L5.2711,11.4767 C5.2711,10.8257 4.7401,10.2897 4.0881,10.2897 L4.0881,10.2897 Z" id="Fill-3" fill="#FFFFFF" mask="url(#mask-2)"></path>
                <path d="M4.6821,16.4232 C4.6821,16.7492 4.4131,17.0132 4.0881,17.0132 L3.1601,17.0132 C2.8331,17.0132 2.5651,16.7492 2.5651,16.4232 L2.5651,15.4992 C2.5651,15.1652 2.8331,14.9012 3.1601,14.9012 L4.0881,14.9012 C4.4131,14.9012 4.6821,15.1652 4.6821,15.4992 L4.6821,16.4232 Z M4.0881,14.3122 L3.1601,14.3122 C2.5081,14.3122 1.9751,14.8392 1.9751,15.4992 L1.9751,16.4232 C1.9751,17.0742 2.5081,17.6112 3.1601,17.6112 L4.0881,17.6112 C4.7401,17.6112 5.2711,17.0742 5.2711,16.4232 L5.2711,15.4992 C5.2711,14.8392 4.7401,14.3122 4.0881,14.3122 L4.0881,14.3122 Z" id="Fill-4" fill="#FFFFFF" mask="url(#mask-2)"></path>
                <path d="M8.7002,8.3519 C8.7002,8.6689 8.4312,8.9429 8.1062,8.9429 L7.1782,8.9429 C6.8512,8.9429 6.5832,8.6689 6.5832,8.3519 L6.5832,7.4189 C6.5832,7.0939 6.8512,6.8209 7.1782,6.8209 L8.1062,6.8209 C8.4312,6.8209 8.7002,7.0939 8.7002,7.4189 L8.7002,8.3519 Z M8.1062,6.2319 L7.1782,6.2319 C6.5262,6.2319 5.9932,6.7689 5.9932,7.4189 L5.9932,8.3519 C5.9932,9.0039 6.5262,9.5319 7.1782,9.5319 L8.1062,9.5319 C8.7582,9.5319 9.2892,9.0039 9.2892,8.3519 L9.2892,7.4189 C9.2892,6.7689 8.7582,6.2319 8.1062,6.2319 L8.1062,6.2319 Z" id="Fill-5" fill="#FFFFFF" mask="url(#mask-2)"></path>
                <path d="M8.7002,12.3744 C8.7002,12.7004 8.4312,12.9734 8.1062,12.9734 L7.1782,12.9734 C6.8512,12.9734 6.5832,12.7004 6.5832,12.3744 L6.5832,11.4504 C6.5832,11.1254 6.8512,10.8614 7.1782,10.8614 L8.1062,10.8614 C8.4312,10.8614 8.7002,11.1254 8.7002,11.4504 L8.7002,12.3744 Z M8.1062,10.2624 L7.1782,10.2624 C6.5262,10.2624 5.9932,10.7994 5.9932,11.4504 L5.9932,12.3744 C5.9932,13.0354 6.5262,13.5634 7.1782,13.5634 L8.1062,13.5634 C8.7582,13.5634 9.2892,13.0354 9.2892,12.3744 L9.2892,11.4504 C9.2892,10.7994 8.7582,10.2624 8.1062,10.2624 L8.1062,10.2624 Z" id="Fill-6" fill="#FFFFFF" mask="url(#mask-2)"></path>
                <path d="M8.7002,16.4232 C8.7002,16.7492 8.4312,17.0132 8.1062,17.0132 L7.1782,17.0132 C6.8512,17.0132 6.5832,16.7492 6.5832,16.4232 L6.5832,15.4992 C6.5832,15.1652 6.8512,14.9012 7.1782,14.9012 L8.1062,14.9012 C8.4312,14.9012 8.7002,15.1652 8.7002,15.4992 L8.7002,16.4232 Z M8.1062,14.3122 L7.1782,14.3122 C6.5262,14.3122 5.9932,14.8392 5.9932,15.4992 L5.9932,16.4232 C5.9932,17.0742 6.5262,17.6112 7.1782,17.6112 L8.1062,17.6112 C8.7582,17.6112 9.2892,17.0742 9.2892,16.4232 L9.2892,15.4992 C9.2892,14.8392 8.7582,14.3122 8.1062,14.3122 L8.1062,14.3122 Z" id="Fill-7" fill="#FFFFFF" mask="url(#mask-2)"></path>
                <path d="M4.0884,8.9427 L3.1604,8.9427 C2.8334,8.9427 2.5654,8.6697 2.5654,8.3517 L2.5654,7.4547 C2.5654,7.1377 2.8334,6.8647 3.1604,6.8647 L4.0884,6.8647 C4.4134,6.8647 4.6824,7.1377 4.6824,7.4547 L4.6824,8.3517 C4.6824,8.6697 4.4134,8.9427 4.0884,8.9427 M4.0884,6.2317 L3.1604,6.2317 C2.5084,6.2317 1.9754,6.7687 1.9754,7.4197 L1.9754,7.4547 L1.9754,8.3517 L1.9754,8.3867 C1.9754,9.0397 2.5084,9.5767 3.1604,9.5767 L4.0884,9.5767 C4.7394,9.5767 5.2714,9.0397 5.2714,8.3867 L5.2714,8.3517 L5.2714,7.4547 L5.2714,7.4197 C5.2714,6.7687 4.7394,6.2317 4.0884,6.2317" id="Fill-8" fill="#FFFFFF" mask="url(#mask-2)"></path>
                <path d="M11.4858,3.2123 C11.4278,3.2743 11.3978,3.3453 11.3978,3.4243 C11.3978,3.5023 11.4278,3.5813 11.4818,3.6353 C11.5378,3.6883 11.6178,3.7233 11.6928,3.7233 C11.7768,3.7233 11.8508,3.6883 11.9038,3.6353 C11.9608,3.5813 11.9918,3.5023 11.9918,3.4243 C11.9918,3.3453 11.9608,3.2743 11.9038,3.2123 C11.7948,3.1073 11.5908,3.1073 11.4858,3.2123" id="Fill-9" fill="#FFFFFF" mask="url(#mask-2)"></path>
                <path d="M10.2143,3.1244 C10.0513,3.1244 9.9193,3.2654 9.9193,3.4244 C9.9193,3.5904 10.0513,3.7234 10.2143,3.7234 C10.3763,3.7234 10.5133,3.5904 10.5133,3.4244 C10.5133,3.2654 10.3763,3.1244 10.2143,3.1244" id="Fill-10" fill="#FFFFFF" mask="url(#mask-2)"></path>
                <path d="M8.5244,3.2123 C8.4664,3.2743 8.4404,3.3453 8.4404,3.4243 C8.4404,3.5023 8.4664,3.5813 8.5244,3.6353 C8.5814,3.6883 8.6554,3.7233 8.7354,3.7233 C8.8144,3.7233 8.8844,3.6883 8.9474,3.6353 C8.9994,3.5813 9.0294,3.5023 9.0294,3.4243 C9.0294,3.3453 8.9994,3.2743 8.9474,3.2123 C8.8324,3.1073 8.6344,3.1073 8.5244,3.2123" id="Fill-11" fill="#FFFFFF" mask="url(#mask-2)"></path>
                <path d="M14.9053,15.9837 C12.6613,15.9837 10.8343,14.1617 10.8343,11.9167 C10.8343,9.6717 12.6613,7.8417 14.9053,7.8417 C17.1493,7.8417 18.9753,9.6717 18.9753,11.9167 C18.9753,14.1617 17.1493,15.9837 14.9053,15.9837 L14.9053,15.9837 Z M11.3273,14.9007 C11.7103,15.3587 12.1803,15.7457 12.7133,16.0277 L12.7133,16.4227 C12.7133,16.7497 12.4493,17.0127 12.1243,17.0127 L11.1963,17.0127 C10.8693,17.0127 10.6013,16.7497 10.6013,16.4227 L10.6013,15.4997 C10.6013,15.1657 10.8693,14.9007 11.1963,14.9007 L11.3273,14.9007 Z M11.3143,8.9427 L11.1963,8.9427 C10.8693,8.9427 10.6013,8.6697 10.6013,8.3517 L10.6013,7.4197 C10.6013,7.0937 10.8693,6.8207 11.1963,6.8207 L12.1243,6.8207 C12.4493,6.8207 12.7133,7.0937 12.7133,7.4197 L12.7133,7.7977 C12.1763,8.0877 11.7013,8.4757 11.3143,8.9427 L11.3143,8.9427 Z M13.6553,18.9497 L1.5403,18.9497 C1.0163,18.9497 0.5893,18.5267 0.5893,17.9987 L0.5893,1.5407 C0.5893,1.0207 1.0163,0.5887 1.5403,0.5887 L13.6553,0.5887 C14.1833,0.5887 14.6063,1.0207 14.6063,1.5407 L14.6063,7.2607 C14.1533,7.2957 13.7173,7.3837 13.3073,7.5337 L13.3073,7.4197 C13.3073,6.7687 12.7763,6.2317 12.1243,6.2317 L11.1963,6.2317 C10.5393,6.2317 10.0113,6.7687 10.0113,7.4197 L10.0113,8.3517 C10.0113,8.9077 10.3993,9.3737 10.9233,9.4967 C10.4953,10.2007 10.2403,11.0277 10.2403,11.9167 C10.2403,12.8057 10.4953,13.6337 10.9273,14.3377 C10.4033,14.4617 10.0113,14.9357 10.0113,15.4997 L10.0113,16.4227 C10.0113,17.0747 10.5393,17.6117 11.1963,17.6117 L12.1243,17.6117 C12.7763,17.6117 13.3073,17.0747 13.3073,16.4227 L13.3073,16.2917 C13.7173,16.4407 14.1533,16.5377 14.6063,16.5647 L14.6063,17.9987 C14.6063,18.5267 14.1833,18.9497 13.6553,18.9497 L13.6553,18.9497 Z M19.5703,11.9167 C19.5703,9.4437 17.6343,7.4197 15.2003,7.2607 L15.2003,1.5407 C15.2003,0.6947 14.5093,0.0007 13.6553,0.0007 L1.5403,0.0007 C0.6903,0.0007 0.0003,0.6947 0.0003,1.5407 L0.0003,17.9987 C0.0003,18.8527 0.6903,19.5477 1.5403,19.5477 L13.6553,19.5477 C14.5093,19.5477 15.2003,18.8527 15.2003,17.9987 L15.2003,16.5647 C17.6343,16.4057 19.5703,14.3907 19.5703,11.9167 L19.5703,11.9167 Z" id="Fill-12" fill="#FFFFFF" mask="url(#mask-2)"></path>
                <path d="M16.8105,9.5931 L12.5775,13.8191 C12.4625,13.9331 12.4625,14.1261 12.5775,14.2411 C12.6385,14.2931 12.7135,14.3201 12.7885,14.3201 C12.8635,14.3201 12.9425,14.2931 12.9995,14.2411 L17.2285,10.0071 C17.3485,9.8931 17.3485,9.7071 17.2285,9.5931 C17.1145,9.4711 16.9255,9.4711 16.8105,9.5931" id="Fill-13" fill="#FFFFFF" mask="url(#mask-2)"></path>
                <path d="M16.5771,13.5892 C16.3831,13.7832 16.0671,13.7832 15.8731,13.5892 C15.6801,13.3962 15.6801,13.0782 15.8731,12.8862 C15.9701,12.7882 16.0981,12.7442 16.2251,12.7442 C16.3481,12.7442 16.4761,12.7882 16.5771,12.8862 C16.7711,13.0782 16.7711,13.3962 16.5771,13.5892 M15.4511,12.4632 C15.0291,12.8942 15.0291,13.5802 15.4511,14.0122 C15.6671,14.2232 15.9441,14.3282 16.2251,14.3282 C16.5021,14.3282 16.7801,14.2232 16.9951,14.0122 C17.4231,13.5802 17.4231,12.8942 16.9951,12.4632 C16.5691,12.0402 15.8781,12.0402 15.4511,12.4632" id="Fill-14" fill="#FFFFFF" mask="url(#mask-2)"></path>
                <path d="M13.2324,10.2445 C13.3304,10.1485 13.4574,10.1035 13.5854,10.1035 C13.7124,10.1035 13.8404,10.1485 13.9374,10.2445 C14.1304,10.4385 14.1304,10.7555 13.9374,10.9485 C13.7434,11.1425 13.4264,11.1425 13.2324,10.9485 C13.0394,10.7555 13.0394,10.4385 13.2324,10.2445 M13.5854,11.6885 C13.8624,11.6885 14.1444,11.5825 14.3554,11.3625 C14.7814,10.9395 14.7814,10.2545 14.3554,9.8315 C13.9334,9.3995 13.2414,9.3995 12.8154,9.8315 C12.3884,10.2545 12.3884,10.9395 12.8154,11.3625 C13.0264,11.5825 13.3074,11.6885 13.5854,11.6885" id="Fill-15" fill="#FFFFFF" mask="url(#mask-2)"></path>
            </g>
        </g>
    </g>
</svg>