<svg xmlns="http://www.w3.org/2000/svg" width="17.778" height="13.333" viewBox="0 0 17.778 13.333">
  <path id="email-line" d="M17.778,3.333H2.222A1.111,1.111,0,0,0,1.111,4.444V15.555a1.111,1.111,0,0,0,1.111,1.111H17.778a1.111,1.111,0,0,0,1.111-1.111V4.444a1.111,1.111,0,0,0-1.111-1.111Zm-.856,12.222H3.144l3.889-4.022-.8-.772-4.011,4.15V5.289l6.906,6.872a1.111,1.111,0,0,0,1.567,0l7.083-7.044v9.722L13.689,10.75l-.783.783ZM2.95,4.444H16.878L9.911,11.372Z" transform="translate(-1.111 -3.333)" fill="#664bc4"/>
</svg>
