<svg xmlns="http://www.w3.org/2000/svg" width="16.256" height="16.25" viewBox="0 0 16.256 16.25">
  <path id="phone" d="M16.25,18.125h-.106C3.862,17.419,2.119,7.056,1.875,3.894A1.875,1.875,0,0,1,3.6,1.875H7.044a1.25,1.25,0,0,1,1.163.787L9.156,5a1.25,1.25,0,0,1-.275,1.35L7.55,7.694a5.856,5.856,0,0,0,4.737,4.75L13.643,11.1A1.25,1.25,0,0,1,15,10.844l2.356.944a1.25,1.25,0,0,1,.77,1.162v3.3A1.875,1.875,0,0,1,16.25,18.125Zm-12.5-15a.625.625,0,0,0-.625.625V3.8c.288,3.7,2.131,12.45,13.088,13.075a.625.625,0,0,0,.663-.587V12.951l-2.356-.944-1.794,1.781-.3-.037C6.988,13.07,6.251,7.632,6.251,7.576l-.037-.3L7.989,5.482,7.05,3.125Z" transform="translate(-1.869 -1.875)" fill="#664bc4"/>
</svg>
