<?xml version="1.0" encoding="UTF-8"?>
<svg width="357px" height="308px" viewBox="0 0 357 308" version="1.1" xmlns="http://www.w3.org/2000/svg" xmlns:xlink="http://www.w3.org/1999/xlink">
    <title>Group</title>
    <defs>
        <filter id="filter-1">
            <feColorMatrix in="SourceGraphic" type="matrix" values="0 0 0 0 0.322729 0 0 0 0 0.217019 0 0 0 0 0.690755 0 0 0 1.000000 0"></feColorMatrix>
        </filter>
        <polygon id="path-2" points="0 0.0418888166 356.341654 0.0418888166 356.341654 307.640351 0 307.640351"></polygon>
        <path d="M51.0437552,3.17703529 C52.4587164,3.85768235 51.4990746,-0.551682353 52.9140358,0.127941176 C53.7378985,0.523023529 56.3646627,6.80954118 55.8582985,7.91392941 L55.8582985,7.91392941 L44.1904836,33.6065647 L38.3254388,46.5214588 L38.3254388,46.5214588 L34.7400537,54.0136941 C34.7155522,54.0648706 34.6910507,54.1170706 34.6665493,54.1682471 C33.9539642,55.6278 33.0974328,57.2920588 32.1296239,59.1098471 C29.2013662,64.6070915 25.2491981,71.5123236 21.1512077,78.4122123 L20.0794362,80.2111328 C19.0055116,82.0080735 17.9268595,83.7962869 16.8590687,85.5506824 C11.4003403,94.5208941 6.2254209,102.606776 3.42,106.457294 C3.17090149,106.896388 2.93201194,107.239271 2.70537313,107.506412 C2.18471642,108.124624 1.73654328,108.333424 1.42006567,108.388694 C1.10256716,108.443965 0.915743284,108.344682 0.915743284,108.344682 C0.915743284,108.344682 0.91100569,108.342184 0.902380419,108.336851 L0.865691488,108.312021 C0.64798153,108.153362 -0.165129851,107.373865 0.758525373,105.056082 C1.42108657,102.614965 2.82073433,99.0172588 4.65528358,94.7726824 C7.01355224,89.3152235 10.0915522,82.7851059 13.2420358,76.2642 C16.416,69.6951882 19.6655104,63.1343647 22.3300478,57.6840706 C23.8001373,54.6769412 25.092591,52.0075765 26.0961313,49.8643059 L26.0961313,49.8643059 L25.9389134,49.7895882 C27.1343821,47.2911529 28.3298507,44.7937412 29.5242985,42.2963294 C29.5753433,42.3208941 29.6263881,42.3444353 29.6764119,42.369 C33.6650507,34.365 37.6536896,26.3620235 41.6423284,18.3590471 C42.4712955,16.6958118 43.2992418,15.0325765 44.128209,13.3703647 C45.329803,10.9568824 46.5324179,8.54544706 47.7340119,6.13298824 L47.7340119,6.13298824 L48.5864597,4.42369412" id="path-4"></path>
        <path d="M47.4236597,1.70417647 C47.9647343,0.617188235 49.0570925,0.0644823529 49.8799343,0.459564706 L49.8799343,0.459564706 L54.1258388,2.49741176 C54.9486806,2.89249412 55.2018627,4.09104706 54.6944776,5.19645882 L54.6944776,5.19645882 L36.8982269,43.9728706 L37.043194,44.0516824 L34.3521134,49.6800706 L34.1959164,49.6053529 C31.2825723,55.5725294 26.2555092,65.3233083 21.0266203,75.0443258 L19.9548661,77.031092 C13.8725101,88.2733832 7.69413536,99.1263796 4.39699701,103.6518 C2.99734925,106.125671 1.62832836,108.058094 1.11992239,107.813471 C0.614579104,107.570894 1.26897313,105.285353 2.3245791,102.637482 C5.16879403,92.1493765 18.9018806,60.0340941 24.9333313,47.1458118 L24.9333313,47.1458118 L24.7761134,47.0710941 L28.3614985,39.5768118 L28.5136119,39.6505059 L42.965409,10.6518706 L46.5712119,3.41347059 L47.4236597,1.70417647 Z" id="path-6"></path>
        <polygon id="path-8" points="0 261 341.403797 261 341.403797 -0.00307058824 0 -0.00307058824"></polygon>
        <polygon id="path-10" points="0.795272393 0.08625 88.022773 0.08625 88.022773 114.518437 0.795272393 114.518437"></polygon>
        <polygon id="path-12" points="0.26763681 0.08625 125.145465 0.08625 125.145465 114.518437 0.26763681 114.518437"></polygon>
        <polygon id="path-14" points="0.753415951 0.08625 36.4648025 0.08625 36.4648025 114.518437 0.753415951 114.518437"></polygon>
        <polygon id="path-16" points="0.59973865 0.08625 36.3111252 0.08625 36.3111252 114.518437 0.59973865 114.518437"></polygon>
        <polygon id="path-18" points="0.574278528 0.08625 38.015935 0.08625 38.015935 114.518437 0.574278528 114.518437"></polygon>
        <polygon id="path-20" points="0.631411043 0.745035714 57.3573791 0.745035714 57.3573791 103.223795 0.631411043 103.223795"></polygon>
        <path d="M8.265,0.0386086957 C12.356,0.0386086957 15.673,3.49878261 15.673,7.76869565 C15.673,8.64909491 15.358064,9.8217467 14.8580633,11.1287055 C14.8288115,11.2070677 14.7981654,11.2858994 14.766882,11.3651799 C14.3072447,12.5285778 13.7107138,13.7893331 13.065384,15.0391179 L12.9008959,15.3562078 C12.6037591,15.9236679 12.2980729,16.486972 11.9921805,17.0359731 C11.6709545,17.6120521 11.3496314,18.1726372 11.0377298,18.70572 L10.872968,18.9865711 C10.5994049,19.4506332 10.3346099,19.8914016 10.0853276,20.3006735 L9.93744788,20.5425965 C9.64611825,21.0181787 9.37906609,21.4460439 9.14794458,21.81202 L9.035536,21.9896849 C8.99906092,22.0471815 8.96363801,22.1028932 8.92932122,22.1567545 L8.73712563,22.4571915 C8.44036095,22.9191603 8.265,23.1829565 8.265,23.1829565 C8.265,23.1829565 8.08963905,22.919185 7.79287437,22.4572542 L7.60067878,22.1568415 C7.32614447,21.7259855 6.9808183,21.176706 6.59232635,20.5425965 L6.44467244,20.3006735 C4.25098793,16.6990815 0.856,10.658392 0.856,7.76869565 C0.856,6.91471304 0.98868,6.09307826 1.233704,5.32501148 L1.31056118,5.09634899 M8.265,3.18573913 C6.054,3.18573913 4.261,5.05669565 4.261,7.36382609 L4.261,7.36382609 L4.264,7.48278261 L4.261,7.62469565 C4.261,9.86191304 5.9469798,11.6889908 8.06518978,11.7976684 L8.265,11.8027826 L8.46481022,11.7976684 C10.5830202,11.6889908 12.269,9.86191304 12.269,7.62469565 L12.269,7.62469565 L12.266,7.49426087 L12.269,7.36382609 C12.269,5.1266087 10.5830202,3.29953096 8.46481022,3.19085336" id="path-22"></path>
        <linearGradient x1="50.0014139%" y1="100.002317%" x2="50.0014139%" y2="-0.00379801623%" id="linearGradient-24">
            <stop stop-color="#FFFFFF" offset="0%"></stop>
            <stop stop-color="#FFFFFF" offset="100%"></stop>
        </linearGradient>
        <path d="M0.856,7.76869565 C0.856,12.0375652 8.265,23.1829565 8.265,23.1829565 L8.265,23.1829565 C8.265,23.1829565 15.674,12.0375652 15.674,7.76869565 L15.674,7.76869565 C15.674,3.49878261 12.356,0.0375652174 8.265,0.0375652174 L8.265,0.0375652174 C4.173,0.0375652174 0.856,3.49878261 0.856,7.76869565 M4.261,7.62469565 C4.261,5.31756522 6.054,3.4466087 8.265,3.4466087 L8.265,3.4466087 C10.476,3.4466087 12.268,5.31756522 12.268,7.62469565 L12.268,7.62469565 C12.268,9.93182609 10.476,11.8027826 8.265,11.8027826 L8.265,11.8027826 C6.054,11.8027826 4.261,9.93182609 4.261,7.62469565" id="path-25"></path>
        <path d="M8.265,0.0386086957 C12.356,0.0386086957 15.673,3.49878261 15.673,7.76869565 C15.673,8.64909491 15.358064,9.8217467 14.8580633,11.1287055 C14.8226577,11.2231493 14.7855567,11.3182812 14.7475385,11.4140548 C14.2905564,12.5638258 13.7016922,13.8068048 13.065384,15.0391179 L12.9008959,15.3562078 C12.6037591,15.9236679 12.2980729,16.486972 11.9921805,17.0359731 C11.6709545,17.6120521 11.3496314,18.1726372 11.0377298,18.70572 L10.872968,18.9865711 C10.5994049,19.4506332 10.3346099,19.8914016 10.0853276,20.3006735 L9.93744788,20.5425965 C9.64611825,21.0181787 9.37906609,21.4460439 9.14794458,21.81202 L9.035536,21.9896849 C8.99906092,22.0471815 8.96363801,22.1028932 8.92932122,22.1567545 L8.73712563,22.4571915 C8.44036095,22.9191603 8.265,23.1829565 8.265,23.1829565 C8.265,23.1829565 8.08963905,22.919185 7.79287437,22.4572542 L7.60067878,22.1568415 C7.32614447,21.7259855 6.9808183,21.176706 6.59232635,20.5425965 L6.44467244,20.3006735 C4.25098793,16.6990815 0.856,10.658392 0.856,7.76869565 C0.856,6.80559304 1.0247534,5.88363308 1.33309022,5.03325399 M8.265,3.4466087 L8.06518978,3.45172292 C5.9469798,3.56040053 4.261,5.38747826 4.261,7.62469565 C4.261,9.93182609 6.054,11.8027826 8.265,11.8027826 L8.265,11.8027826 L8.46481022,11.7976684 C10.5830202,11.6889908 12.269,9.86191304 12.269,7.62469565 C12.269,5.31756522 10.476,3.4466087 8.265,3.4466087" id="path-27"></path>
        <linearGradient x1="50.0014139%" y1="-0.0037723174%" x2="50.0014139%" y2="100.002343%" id="linearGradient-29">
            <stop stop-color="#231F1F" offset="0%"></stop>
            <stop stop-color="#231F1F" offset="100%"></stop>
        </linearGradient>
        <path d="M8.131,0.17426087 L8.37630332,0.178326439 C12.448832,0.313504037 15.712,3.80251662 15.712,8.08486957 L15.712,8.08486957 L15.7066723,8.29149336 C15.4981999,12.4506814 9.23588675,22.1715776 8.25867274,23.6650819 L8.17795596,23.7880645 C8.14714888,23.8348375 8.131,23.8591304 8.131,23.8591304 L8.131,23.8591304 C8.11860539,23.8404374 8.1045821,23.8192465 8.08404404,23.7880645 L8.00332726,23.6650819 C7.0095503,22.146264 0.55,12.118796 0.55,8.08486957 C0.55,3.71686957 3.945,0.17426087 8.131,0.17426087 M8.131,3.39547826 C5.868,3.39547826 4.034,5.31026087 4.034,7.67165217 L4.034,7.67165217 L4.037,7.80521739 L4.035,7.88556522 L4.034,7.93878261 C4.034,10.2276047 5.7585326,12.0964753 7.92649364,12.2076384 L8.131,12.2128696 L8.33550636,12.2076384 C10.5034674,12.0964753 12.228,10.2276047 12.228,7.93878261 L12.228,7.93878261 L12.224,7.80521739 L12.228,7.67165217 C12.228,5.38181818 10.5034674,3.5119358 8.33550636,3.40071229" id="path-30"></path>
        <linearGradient x1="50.0005316%" y1="99.9971312%" x2="50.0005316%" y2="0.00141900524%" id="linearGradient-32">
            <stop stop-color="#FFFFFF" offset="0%"></stop>
            <stop stop-color="#FFFFFF" offset="100%"></stop>
        </linearGradient>
        <path d="M0.55,8.08486957 C0.55,12.4549565 8.131,23.8591304 8.131,23.8591304 L8.131,23.8591304 C8.131,23.8591304 15.712,12.4549565 15.712,8.08486957 L15.712,8.08486957 C15.712,3.71686957 12.317,0.17426087 8.131,0.17426087 L8.131,0.17426087 C3.945,0.17426087 0.55,3.71686957 0.55,8.08486957 M4.034,7.93878261 C4.034,5.5773913 5.868,3.6626087 8.131,3.6626087 L8.131,3.6626087 C10.394,3.6626087 12.228,5.5773913 12.228,7.93878261 L12.228,7.93878261 C12.228,10.2991304 10.394,12.2128696 8.131,12.2128696 L8.131,12.2128696 C5.868,12.2128696 4.034,10.2991304 4.034,7.93878261" id="path-33"></path>
        <path d="M8.131,0.17426087 L8.37630332,0.178326439 C12.448832,0.313504037 15.712,3.80251662 15.712,8.08486957 L15.712,8.08486957 L15.7066723,8.29149336 C15.4981999,12.4506814 9.23588675,22.1715776 8.25867274,23.6650819 L8.17795596,23.7880645 C8.14714888,23.8348375 8.131,23.8591304 8.131,23.8591304 L8.131,23.8591304 C8.11860539,23.8404374 8.1045821,23.8192465 8.08404404,23.7880645 L8.00332726,23.6650819 C7.0095503,22.146264 0.55,12.118796 0.55,8.08486957 C0.55,3.71686957 3.945,0.17426087 8.131,0.17426087 M8.131,3.6626087 L7.92649364,3.66784272 C5.7585326,3.77906624 4.034,5.64894862 4.034,7.93878261 C4.034,10.2991304 5.868,12.2128696 8.131,12.2128696 L8.131,12.2128696 L8.33550636,12.2076384 C10.5034674,12.0964753 12.228,10.2276047 12.228,7.93878261 C12.228,5.5773913 10.394,3.6626087 8.131,3.6626087" id="path-35"></path>
        <linearGradient x1="50.0005316%" y1="0.00141107538%" x2="50.0005316%" y2="99.9971232%" id="linearGradient-37">
            <stop stop-color="#231F1F" offset="0%"></stop>
            <stop stop-color="#231F1F" offset="100%"></stop>
        </linearGradient>
        <path d="M8.20392857,29.2696541 C5.99110714,31.9088722 5.03025,35.3835188 5.56971429,38.7906767 L5.56971429,38.7906767 L13.4061964,88.2619549 C16.2582321,100.285173 14.1563571,113.045654 7.50160714,124.114827 L7.50160714,124.114827 L0.782732143,135.291368 L17.6740714,134.300511 L46.6646786,134.707489 L50.9620714,116.450767 C52.7361964,108.913504 53.3682857,101.155368 52.8512143,93.4279098 L52.8512143,93.4279098 C52.2058929,83.7606617 53.0995714,71.2691128 53.5922143,64.4353684 L53.5922143,64.4353684 L56.6345893,22.2508271 C56.943,17.9663158 53.7194464,14.2871579 49.1370536,13.699188 L49.1370536,13.699188 C43.9673571,13.0345263 39.0612857,16.5255338 38.3915357,21.3468872 L38.3915357,21.3468872 L33.6829286,55.9778045 C33.6381429,56.2999098 33.1689107,56.2753684 33.1587321,55.9501955 L33.1587321,55.9501955 L32.3006786,26.2418647 L32.3006786,0.523548872 L8.20392857,29.2696541 Z" id="path-38"></path>
        <linearGradient x1="-0.000324819499%" y1="49.9998149%" x2="100.000322%" y2="49.9998149%" id="linearGradient-40">
            <stop stop-color="#FDBC85" offset="0%"></stop>
            <stop stop-color="#F6A77E" offset="100%"></stop>
        </linearGradient>
        <polygon id="path-41" points="0.912635498 0.599794068 64.7856193 0.599794068 64.7856193 17.425 0.912635498 17.425"></polygon>
        <path d="M21.9687719,19.0001869 L43.105193,42.5514953 L14.906,19.5049533 C10.9528421,16.6757944 5.06126316,17.8796262 2.00049123,22.1398131 L2.00049123,22.1398131 C-0.712280702,25.9147664 -0.255403509,30.8215888 3.06178947,33.5469159 L3.06178947,33.5469159 L35.7147719,60.3735514 C41.0049825,64.7190654 50.669614,72.6688785 57.2327719,79.804486 L57.2327719,79.804486 C62.4792281,85.5090654 68.533614,90.3891589 75.2117544,94.2782243 L75.2117544,94.2782243 L100.492632,108.998692 L115.178842,93.2306542 L114.966175,68.8661682 L110.540877,67.5934579 C97.9599649,64.8609346 87.2727018,57.6142991 80.5141754,47.2321495 L80.5141754,47.2321495 L50.0326316,7.38336449 C47.9334386,4.63850467 44.7566667,2.95149533 41.3285614,2.76028037 L41.3285614,2.76028037 L3.98775439,0.677476636 L21.9687719,19.0001869 Z" id="path-43"></path>
        <linearGradient x1="-1.90817393e-05%" y1="49.9999409%" x2="100.00044%" y2="49.9999409%" id="linearGradient-45">
            <stop stop-color="#FDBC85" offset="0%"></stop>
            <stop stop-color="#F6A77E" offset="100%"></stop>
        </linearGradient>
        <polygon id="path-46" points="0.978472661 0.860190477 32.9897345 0.860190477 32.9897345 69.8715596 0.978472661 69.8715596"></polygon>
    </defs>
    <g id="Registration" stroke="none" stroke-width="1" fill="none" fill-rule="evenodd">
        <g id="0-Onboarding-1" transform="translate(-21.000000, -151.000000)">
            <g id="Group" transform="translate(21.000000, 151.000000)">
                <g filter="url(#filter-1)" id="Group-6-Copy">
                    <g>
                        <g id="Group-3">
                            <mask id="mask-3" fill="white">
                                <use xlink:href="#path-2"></use>
                            </mask>
                            <g id="Clip-2"></g>
                            <path d="M349.178035,115.750487 C341.900936,128.782724 338.010586,143.919697 338.842681,159.943162 C340.004628,182.244127 352.836267,194.902461 354.219472,221.493118 C356.563727,266.67018 321.913008,305.176803 276.807484,307.527636 C249.448795,308.959346 224.590465,296.69939 208.697856,276.78461 C208.544468,276.836276 186.471552,244.480706 146.657229,246.55689 C129.282324,247.458338 117.442955,254.121978 99.9567422,255.035662 C47.5469703,257.764478 2.85545703,217.431846 0.129768821,164.938513 C-2.59727681,112.430224 37.6717802,67.6787325 90.0856243,64.9471974 C110.611088,63.8757939 123.949043,73.058864 148.854883,71.7603991 C173.396936,70.4823289 194.318765,56.7648289 205.926016,37.0444781 C206.034609,37.0703114 223.811309,2.58009211 270.3204,0.15447807 C315.419138,-2.19499561 353.882833,32.5100482 356.23116,77.6979868 C356.931586,91.1911447 354.273769,104.062943 349.076229,115.591408 C349.115594,115.638996 349.148172,115.694741 349.178035,115.750487" id="Fill-1" fill="#000000" mask="url(#mask-3)"></path>
                        </g>
                        <path d="M160.268948,56.376415 C176.978345,51.0875174 186.59124,34.4461746 181.744449,19.212295 C176.893554,3.97841538 159.753361,1.16758047 143.045331,6.45647798 C126.335934,11.7440117 116.37977,23.1319163 121.229297,38.3657959 C126.078825,53.603767 143.555448,61.6666763 160.268948,56.376415" id="Fill-4" fill="#000000"></path>
                    </g>
                </g>
                <g id="Group-245" transform="translate(14.000000, 0.000000)">
                    <g id="Group-5" transform="translate(58.500000, 26.000000)" fill="#BDD1E9">
                        <path d="M76.4549842,185.166638 L73.7742474,185.166638 L73.7742474,182.494979 C73.7742474,181.905702 73.2908526,181.427745 72.6976421,181.427745 C72.1054579,181.427745 71.6251421,181.905702 71.6251421,182.494979 L71.6251421,185.166638 L68.9403,185.166638 C68.3481158,185.166638 67.8678,185.644596 67.8678,186.235915 C67.8678,186.825191 68.3481158,187.305191 68.9403,187.305191 L71.6251421,187.305191 L71.6251421,189.974809 C71.6251421,190.564085 72.1054579,191.043064 72.6976421,191.043064 C73.2908526,191.043064 73.7742474,190.564085 73.7742474,189.974809 L73.7742474,187.305191 L76.4549842,187.305191 C77.0512737,187.305191 77.5305632,186.825191 77.5305632,186.235915 C77.5305632,185.644596 77.0512737,185.166638 76.4549842,185.166638" id="Fill-1"></path>
                        <path d="M9.14611579,3.89504681 L6.46537895,3.89504681 L6.46537895,1.22338723 C6.46537895,0.634110638 5.98198421,0.156153191 5.38877368,0.156153191 C4.79658947,0.156153191 4.31627368,0.634110638 4.31627368,1.22338723 L4.31627368,3.89504681 L1.63143158,3.89504681 C1.03924737,3.89504681 0.558931579,4.37300426 0.558931579,4.9643234 C0.558931579,5.5536 1.03924737,6.0336 1.63143158,6.0336 L4.31627368,6.0336 L4.31627368,8.70321702 C4.31627368,9.29249362 4.79658947,9.77249362 5.38877368,9.77249362 C5.98198421,9.77249362 6.46537895,9.29249362 6.46537895,8.70321702 L6.46537895,6.0336 L9.14611579,6.0336 C9.74240526,6.0336 10.2227211,5.5536 10.2227211,4.9643234 C10.2227211,4.37300426 9.74240526,3.89504681 9.14611579,3.89504681" id="Fill-3"></path>
                    </g>
                    <g id="Group-131" transform="translate(0.500000, 0.000000)">
                        <path d="M60.9052997,78.4732835 L74.4811684,72.0895306 C77.0813893,70.8664129 80.1777654,71.9882012 81.3977355,74.5961541 L115.159771,146.758048 C116.378721,149.364978 115.259819,152.469342 112.659598,153.69246 L45.1069415,185.460766 C42.5067206,186.683884 39.4093236,185.562095 38.1903743,182.955166 L4.42833851,110.792248 C3.20836836,108.185319 4.32829075,105.080954 6.92749075,103.857836 L19.9143027,97.75146 L60.9052997,78.4732835 Z" id="Fill-6" fill="#000000"></path>
                        <path d="M56.9707684,77.1539541 L70.5456161,70.7702012 C73.1468579,69.54606 76.243234,70.6688718 77.4632042,73.2758012 L111.22524,145.437695 C112.444189,148.044625 111.325288,151.150013 108.725067,152.372107 L41.1713893,184.140413 C38.5721893,185.364554 35.4747922,184.241742 34.255843,181.634813 L0.493807164,109.472919 C-0.726162985,106.864966 0.392738507,103.760601 2.9929594,102.538507 L15.9787504,96.4311071 L56.9707684,77.1539541 Z" id="Fill-8" fill="#FAFAFA"></path>
                        <path d="M56.9707684,77.1539541 L70.5456161,70.7702012 C73.1468579,69.54606 76.243234,70.6688718 77.4632042,73.2758012 L85.2128221,89.8406012 L8.24342507,126.037719 L0.493807164,109.472919 C-0.726162985,106.864966 0.392738507,103.760601 2.9929594,102.538507 L15.9787504,96.4311071 L56.9707684,77.1539541 Z" id="Fill-10" fill="#00DD99"></path>
                        <line x1="85.8269928" y1="91.1534824" x2="8.85759582" y2="127.349576" id="Stroke-12" stroke="#00DD99"></line>
                        <line x1="57.0873546" y1="91.7082353" x2="27.6569785" y2="105.547376" id="Stroke-14" stroke="#FFFFFF" stroke-linecap="round"></line>
                        <line x1="61.0692555" y1="80.9162435" x2="57.6257749" y2="73.5570671" id="Stroke-16" stroke="#525252" stroke-linecap="round"></line>
                        <line x1="16.8342609" y1="101.719684" x2="13.3907803" y2="94.3594835" id="Stroke-18" stroke="#525252" stroke-linecap="round"></line>
                        <path d="M48.5314334,129.445867 L45.0736603,131.072255 C43.3748901,131.871632 41.3514752,131.137761 40.5551767,129.434608 L38.9329737,125.968938 C38.1356543,124.264761 38.8666155,122.236126 40.5653857,121.437773 L44.0231588,119.811385 C45.7229499,119.013032 47.7453439,119.744855 48.5426633,121.449032 L50.1648663,124.915726 C50.9611648,126.618879 50.2302036,128.647514 48.5314334,129.445867" id="Fill-20" fill="#E3E1D2"></path>
                        <path d="M65.5710985,121.432553 L62.1123045,123.058941 C60.4135343,123.858318 58.3911403,123.124447 57.5938209,121.421294 L55.9716179,117.955624 C55.1742985,116.251447 55.9062806,114.222812 57.6050507,113.424459 L61.0628239,111.798071 C62.7626149,110.999718 64.785009,111.731541 65.5823284,113.435718 L67.2045313,116.902412 C68.0008299,118.605565 67.2698687,120.6342 65.5710985,121.432553" id="Fill-22" fill="#E3E1D2"></path>
                        <path d="M82.6102531,113.419239 L79.15248,115.046651 C77.4537099,115.845004 75.4302949,115.111133 74.6339964,113.40798 L73.0107725,109.942309 C72.214474,108.238133 72.9454352,106.209498 74.6442054,105.411145 L78.1019785,103.784756 C79.8017696,102.986404 81.8241636,103.718227 82.621483,105.422404 L84.243686,108.889098 C85.0399845,110.592251 84.3090233,112.620886 82.6102531,113.419239" id="Fill-24" fill="#E3E1D2"></path>
                        <path d="M39.6240179,154.840246 L36.1662448,156.466634 C34.4674746,157.264987 32.4440597,156.53214 31.6467403,154.828987 L30.0245373,151.362293 C29.2282388,149.65914 29.9592,147.630505 31.6579701,146.831128 L35.1157433,145.20474 C36.8155343,144.406387 38.8379284,145.139234 39.6352478,146.843411 L41.2574507,150.309081 C42.0537493,152.012234 41.3227881,154.041893 39.6240179,154.840246" id="Fill-26" fill="#00DD99"></path>
                        <path d="M56.6631725,146.826932 L53.2053994,148.45332 C51.5066293,149.251673 49.4832143,148.518826 48.6869158,146.815673 L47.0636919,143.348979 C46.2673934,141.645826 46.9983546,139.617191 48.6971248,138.818838 L52.1548979,137.192449 C53.854689,136.393073 55.877083,137.12592 56.6744024,138.830096 L58.2966054,142.295767 C59.0929039,143.99892 58.3619427,146.028579 56.6631725,146.826932" id="Fill-28" fill="#E3E1D2"></path>
                        <path d="M73.7023272,138.813618 L70.244554,140.440006 C68.5457839,141.238359 66.522369,140.505512 65.7260704,138.802359 L64.1038675,135.335665 C63.3065481,133.632512 64.0375093,131.603876 65.7362794,130.805524 L69.1950734,129.179135 C70.8938436,128.379759 72.9162376,129.112606 73.713557,130.816782 L75.33576,134.282453 C76.1330794,135.985606 75.4021182,138.015265 73.7023272,138.813618" id="Fill-30" fill="#E3E1D2"></path>
                        <path d="M90.7420943,130.800304 L87.2843212,132.426692 C85.585551,133.225045 83.5621361,132.492198 82.7648167,130.789045 L81.1426137,127.322351 C80.3463152,125.619198 81.0772764,123.590562 82.7760466,122.792209 L86.2338197,121.165821 C87.9336107,120.366445 89.9560048,121.099292 90.7533242,122.803468 L92.3755272,126.270162 C93.1718257,127.973315 92.4408645,130.001951 90.7420943,130.800304" id="Fill-32" fill="#E3E1D2"></path>
                        <path d="M47.755757,172.221208 L44.2979839,173.847596 C42.5992137,174.645949 40.5757988,173.912079 39.7784794,172.208926 L38.1562764,168.743255 C37.358957,167.040102 38.0909391,165.010444 39.7897093,164.212091 L43.2474824,162.585702 C44.9472734,161.787349 46.9696675,162.519173 47.7669869,164.223349 L49.3891899,167.690044 C50.1854884,169.393196 49.4545272,171.421832 47.755757,172.221208" id="Fill-34" fill="#E3E1D2"></path>
                        <path d="M64.7949116,164.207894 L61.3371385,165.834282 C59.6383684,166.632635 57.6149534,165.899788 56.8186549,164.195612 L55.195431,160.729941 C54.3991325,159.026788 55.1300937,156.998153 56.8288639,156.198776 L60.286637,154.572388 C61.9864281,153.774035 64.0088221,154.505859 64.8061415,156.210035 L66.4283445,159.676729 C67.224643,161.379882 66.4936818,163.408518 64.7949116,164.207894" id="Fill-36" fill="#E3E1D2"></path>
                        <path d="M81.8346788,156.19458 L78.3758848,157.820968 C76.6771146,158.619321 74.6547206,157.886474 73.8574012,156.183321 L72.2351982,152.716627 C71.4378788,151.013474 72.1698609,148.984839 73.868631,148.185462 L77.3264042,146.559074 C79.0261952,145.760721 81.0485893,146.492545 81.8459087,148.196721 L83.4681116,151.663415 C84.2644101,153.366568 83.533449,155.395204 81.8346788,156.19458" id="Fill-38" fill="#E3E1D2"></path>
                        <g id="Group-42" transform="translate(258.286567, 107.470588)">
                            <mask id="mask-5" fill="white">
                                <use xlink:href="#path-4"></use>
                            </mask>
                            <g id="Clip-41"></g>
                            <path d="M0.915743284,108.344682 C0.915743284,108.344682 1.10256716,108.443965 1.42006567,108.388694 C1.73654328,108.333424 2.18471642,108.124624 2.70537313,107.506412 C2.93201194,107.239271 3.17090149,106.896388 3.42,106.457294 C6.2254209,102.606776 11.4003403,94.5208941 16.8590687,85.5506824 C22.3759881,76.4863059 28.1828418,66.5191765 32.1296239,59.1098471 C33.0974328,57.2920588 33.9539642,55.6278 34.6665493,54.1682471 C34.6910507,54.1170706 34.7155522,54.0648706 34.7400537,54.0136941 C35.9355224,51.5162824 37.130991,49.0188706 38.3254388,46.5214588 L44.1904836,33.6065647 L55.8582985,7.91392941 C56.3646627,6.80954118 53.7378985,0.523023529 52.9140358,0.127941176 C51.4990746,-0.551682353 52.4587164,3.85768235 51.0437552,3.17703529 C50.2198925,2.78297647 49.1285552,3.33670588 48.5864597,4.42369412 C48.3026507,4.9938 48.0188418,5.56390588 47.7340119,6.13298824 C46.5324179,8.54544706 45.329803,10.9568824 44.128209,13.3703647 C43.2992418,15.0325765 42.4712955,16.6958118 41.6423284,18.3590471 C37.6536896,26.3620235 33.6650507,34.365 29.6764119,42.369 C29.6263881,42.3444353 29.5753433,42.3208941 29.5242985,42.2963294 C28.3298507,44.7937412 27.1343821,47.2911529 25.9389134,49.7895882 L26.0961313,49.8643059 C25.092591,52.0075765 23.8001373,54.6769412 22.3300478,57.6840706 C19.6655104,63.1343647 16.416,69.6951882 13.2420358,76.2642 C10.0915522,82.7851059 7.01355224,89.3152235 4.65528358,94.7726824 C2.82073433,99.0172588 1.42108657,102.614965 0.758525373,105.056082 C-0.297080597,107.704976 0.915743284,108.344682 0.915743284,108.344682" id="Fill-40" mask="url(#mask-5)"></path>
                        </g>
                        <path d="M300.196574,114.166927 L303.433834,107.402421 C300.600849,106.745315 296.82864,109.529315 294.63984,114.104492 L278.489273,147.857421 C277.304013,150.335386 276.810921,152.856339 276.97018,154.934104 C277.018162,154.829704 277.048789,154.725304 277.098813,154.61988 L293.248359,120.868998 C294.985924,117.238539 297.723965,114.730892 300.196574,114.166927" id="Fill-43" fill="#146578"></path>
                        <path d="M281.942554,149.925462 C276.383778,161.544568 261.453181,196.283156 258.542608,207.135639 L260.593587,208.119251 C267.16305,199.143921 284.567276,166.295792 290.446614,154.008321 L281.942554,149.925462 Z M293.142799,148.372768 L284.638739,144.290933 L303.668232,106.105098 C304.210327,105.017086 305.301664,104.463356 306.124506,104.859462 L310.370411,106.897309 C311.193253,107.292392 311.446435,108.491968 310.93905,109.596356 L293.142799,148.372768 Z" id="Fill-45" fill="#337687"></path>
                        <path d="M258.583648,207.001249 C257.518854,209.665496 256.857313,211.969461 257.364699,212.214085 C257.877188,212.459732 259.260501,210.50172 260.669337,208.003285 L258.583648,207.001249 Z" id="Fill-47" fill="#F7F7F7"></path>
                        <polygon id="Fill-49" fill="#11ADAD" points="290.593827 154.078535 281.792687 149.853406 284.48683 144.227065 293.28797 148.452194"></polygon>
                        <g id="Group-53" transform="translate(256.244776, 104.400000)">
                            <mask id="mask-7" fill="white">
                                <use xlink:href="#path-6"></use>
                            </mask>
                            <g id="Clip-52"></g>
                            <polygon id="Fill-51" fill="#360000" mask="url(#mask-7)" points="9.63123045 118.141087 -1.25355761 112.916993 56.8272304 -8.46847765 67.7120185 -3.24336"></polygon>
                        </g>
                        <path d="M208.532816,204.166482 L181.085019,222.107929 C178.939096,223.510165 176.064254,222.897071 174.675836,220.738447 L137.803132,163.443318 C136.423902,161.300047 137.031335,158.441329 139.162965,157.048306 L166.611783,139.107882 C168.757705,137.7036 171.631526,138.318741 173.019944,140.476341 L209.892648,197.772494 C211.271878,199.915765 210.664445,202.774482 208.532816,204.166482" id="Fill-54" fill="#383E42"></path>
                        <path d="M207.207897,200.474202 L180.665635,217.822002 C178.591175,219.178179 175.812297,218.584532 174.46982,216.497555 L138.815044,161.095955 C137.481754,159.023308 138.068769,156.259779 140.129957,154.911791 L166.671199,137.563991 C168.746679,136.207814 171.525557,136.801461 172.868035,138.888438 L208.522811,194.290038 C209.8561,196.362685 209.269085,199.127238 207.207897,200.474202" id="Fill-56" fill="#F0F6F7"></path>
                        <polygon id="Fill-58" fill="#3EC0E8" points="204.307227 190.334915 173.127036 210.715433 143.030015 163.949351 174.211227 143.567809"></polygon>
                        <path d="M160.079174,149.485652 L153.6557,153.685193 C153.326971,153.899111 152.887986,153.805969 152.67564,153.474346 C152.462273,153.143746 152.556195,152.701581 152.883903,152.487664 L159.308398,148.288122 C159.636106,148.073181 160.075091,148.167346 160.288458,148.497946 C160.500804,148.828546 160.406882,149.271734 160.079174,149.485652" id="Fill-60" fill="#B4D9DE"></path>
                        <path d="M194.468653,203.409889 L188.045178,207.609431 C187.71645,207.823348 187.278485,207.729184 187.065118,207.39756 C186.851751,207.067984 186.945673,206.625819 187.274402,206.410878 L193.697876,202.21236 C194.025584,201.997419 194.464569,202.091584 194.677936,202.422184 C194.890282,202.752784 194.797381,203.195972 194.468653,203.409889" id="Fill-62" fill="#B4D9DE"></path>
                        <polygon id="Fill-64" fill="#FFFFFF" points="174.53873 144.126145 172.798103 211.260462 143.160485 164.199604"></polygon>
                        <path d="M198.662798,2.37827294 L164.18001,81.8952494 C163.703251,82.9955435 164.205532,84.2729082 165.301974,84.7508965 L231.581574,113.641038 C232.676995,114.119026 233.952093,113.615449 234.428851,112.516179 L268.911639,32.9981788 C269.387377,31.8999318 268.886117,30.6215435 267.789675,30.1435553 L201.510075,1.25239059 C200.413633,0.776449412 199.139556,1.27900235 198.662798,2.37827294" id="Fill-66" fill="#4D4D4D"></path>
                        <path d="M198.957428,1.69864941 L164.47464,81.2156259 C163.997882,82.31592 164.501183,83.5932847 165.596604,84.0712729 L231.876204,112.961414 C232.971625,113.439402 234.246724,112.935826 234.723482,111.836555 L269.20627,32.3185553 C269.682007,31.2203082 269.180747,29.94192 268.084306,29.4639318 L201.804706,0.572767059 C200.708264,0.0968258824 199.434186,0.599378824 198.957428,1.69864941" id="Fill-68" fill="#666666"></path>
                        <polygon id="Fill-70" fill="#DB1F21" points="173.696287 84.9713647 169.415672 94.8443294 175.476729 93.2906118 178.269899 98.4144 182.445362 88.7860588 174.672263 85.3971529"></polygon>
                        <path d="M168.894913,90.7337329 L170.831552,91.5781447 L171.142925,90.8596271 L179.892,94.6743212 L179.581648,95.3918153 L235.377672,119.711898 L270.126913,39.5787565 L267.756394,30.9094624 L265.163319,29.7784624 L262.407922,36.1335565 L261.057278,35.5460506 C261.085863,35.7568976 261.064424,35.9749094 260.975606,36.1806388 C260.702006,36.8101094 259.944501,37.0874859 259.28194,36.7988506 C258.619379,36.5091918 258.303922,35.7650859 258.577522,35.1356153 C258.667361,34.9298859 258.811307,34.7650976 258.98486,34.6422741 L256.649051,33.6248859 C256.677636,33.8347094 256.657218,34.0527212 256.567379,34.2594741 C256.2948,34.8889447 255.536275,35.1663212 254.874734,34.8776859 C254.212173,34.5890506 253.896716,33.8439212 254.169296,33.2144506 C254.259134,33.0087212 254.404101,32.8439329 254.577654,32.7211094 L252.241845,31.7037212 C252.27043,31.9135447 252.250012,32.1315565 252.160173,32.3383094 C251.887594,32.96778 251.129069,33.2451565 250.466507,32.9565212 C249.803946,32.6678859 249.48951,31.9227565 249.76209,31.2932859 C249.851928,31.0875565 249.996896,30.9227682 250.169427,30.7999447 L247.834639,29.7815329 C247.863224,29.99238 247.842806,30.2103918 247.752967,30.4171447 C247.480388,31.0476388 246.721863,31.3239918 246.059301,31.0353565 C245.397761,30.7467212 245.081284,30.0015918 245.354884,29.3721212 C245.443701,29.1663918 245.58969,29.0016035 245.762221,28.87878 L243.427433,27.8603682 C243.456018,28.0712153 243.434579,28.2892271 243.345761,28.49598 C243.072161,29.1264741 242.314657,29.4028271 241.652096,29.1141918 C240.989534,28.8255565 240.674078,28.0804271 240.947678,27.4509565 C241.036496,27.2452271 241.181463,27.0814624 241.355015,26.9576153 L239.019206,25.9392035 C239.047791,26.1500506 239.027373,26.3680624 238.937534,26.5748153 C238.664955,27.2053094 237.90643,27.4816624 237.24489,27.1930271 C236.582328,26.9043918 236.266872,26.1592624 236.539451,25.5297918 C236.62929,25.3230388 236.774257,25.1602976 236.946788,25.0364506 L234.612,24.0180388 C234.640585,24.2288859 234.620167,24.4468976 234.530328,24.6536506 C234.256728,25.2841447 233.499224,25.5594741 232.836663,25.2718624 C232.174101,24.9832271 231.858645,24.2380976 232.132245,23.6086271 C232.222084,23.4018741 232.36603,23.2391329 232.539582,23.1163094 L230.51923,22.2340271 C230.547815,22.4448741 230.527397,22.6628859 230.437558,22.8696388 C230.163958,23.5001329 229.405433,23.7754624 228.743893,23.4878506 C228.081331,23.1992153 227.765875,22.4540859 228.039475,21.8246153 C228.128293,21.6178624 228.27326,21.4540976 228.446812,21.3312741 L226.111003,20.3128624 C226.139588,20.5237094 226.11917,20.7417212 226.029331,20.9484741 C225.756752,21.5789682 224.998227,21.8542976 224.336687,21.5666859 C223.674125,21.2780506 223.358669,20.5329212 223.631248,19.9034506 C223.721087,19.6966976 223.866054,19.5339565 224.039606,19.4101094 L221.703797,18.3916976 C221.732382,18.6025447 221.711964,18.8205565 221.622125,19.0273094 C221.349546,19.6578035 220.591021,19.9331329 219.92846,19.6455212 C219.265899,19.3568859 218.951463,18.6117565 219.224042,17.9822859 C219.313881,17.7755329 219.458848,17.6127918 219.631379,17.4879212 L217.296591,16.4705329 C217.325176,16.68138 217.303737,16.8993918 217.214919,17.1061447 C216.941319,17.7366388 216.183815,18.0119682 215.521254,17.7243565 C214.858693,17.4357212 214.543236,16.6905918 214.816836,16.0611212 C214.905654,15.8543682 215.050621,15.6906035 215.224173,15.56778 L212.889385,14.5493682 C212.91797,14.7602153 212.896531,14.9782271 212.807713,15.18498 C212.534113,15.8154741 211.775588,16.0908035 211.113027,15.8021682 C210.451487,15.5145565 210.13603,14.7694271 210.40963,14.1399565 C210.498448,13.9332035 210.643415,13.7694388 210.815946,13.6466153 L208.481158,12.6282035 C208.509743,12.8390506 208.489325,13.0570624 208.399487,13.2638153 C208.126907,13.8943094 207.368382,14.1696388 206.705821,13.8810035 C206.044281,13.5933918 205.728824,12.8482624 206.001403,12.2187918 C206.091242,12.0120388 206.236209,11.8482741 206.40874,11.7254506 L202.057684,9.82885059 L197.314603,20.7683329 L195.336107,19.5718271 L168.237457,82.0623918 L168.894913,90.7337329 Z M261.61877,37.8172624 C261.286979,37.6729447 261.042985,37.4139918 260.915373,37.1130741 C260.787761,36.8121565 260.777552,36.4682506 260.914352,36.1540271 C261.051152,35.83878 261.308418,35.61258 261.614687,35.5010153 C261.921976,35.3894506 262.276227,35.3925212 262.606997,35.5358153 C263.269558,35.8254741 263.585015,36.56958 263.312436,37.1990506 C263.175636,37.5142976 262.91837,37.7415212 262.611081,37.8530859 C262.304812,37.9636271 261.94954,37.9605565 261.61877,37.8172624 L261.61877,37.8172624 Z" id="Fill-72" fill="#000000"></path>
                        <polygon id="Fill-74" fill="#000000" points="262.947874 33.5449482 264.708919 29.4835835 203.993199 3.01920706 202.232155 7.08057176"></polygon>
                        <path d="M204.56388,6.77832353 C203.899277,6.48866471 203.58382,5.73841765 203.858441,5.10485294 C204.133062,4.47026471 204.895671,4.19186471 205.560274,4.48152353 C206.224877,4.77118235 206.541355,5.52040588 206.265713,6.15499412 C205.990071,6.78855882 205.228483,7.06798235 204.56388,6.77832353 L204.56388,6.77832353 Z M208.988441,8.70665294 C208.323838,8.41699412 208.007361,7.66777059 208.283002,7.03318235 C208.557623,6.39961765 209.320232,6.12019412 209.984835,6.40985294 C210.649438,6.69951176 210.964895,7.44873529 210.690274,8.0823 C210.414632,8.71791176 209.653044,8.99631176 208.988441,8.70665294 L208.988441,8.70665294 Z M213.413002,10.6360059 C212.748399,10.3453235 212.431922,9.5961 212.707564,8.96253529 C212.982184,8.32794706 213.743773,8.04852353 214.409396,8.33818235 C215.072979,8.62886471 215.389456,9.37706471 215.114835,10.0116529 C214.839193,10.6452176 214.077605,10.9256647 213.413002,10.6360059 L213.413002,10.6360059 Z M217.837564,12.5633118 C217.172961,12.2736529 216.856483,11.5254529 217.132125,10.8908647 C217.406746,10.2562765 218.168334,9.97685294 218.832937,10.2665118 C219.49754,10.5561706 219.814017,11.3064176 219.538376,11.9399824 C219.263755,12.5745706 218.502167,12.8539941 217.837564,12.5633118 L217.837564,12.5633118 Z M222.261104,14.4926647 C221.596501,14.2030059 221.281044,13.4527588 221.556686,12.8191941 C221.831307,12.1846059 222.592895,11.9062059 223.257498,12.1958647 C223.922101,12.4855235 224.238579,13.2347471 223.962937,13.8683118 C223.688316,14.5029 222.926728,14.7823235 222.261104,14.4926647 L222.261104,14.4926647 Z M226.685665,16.4209941 C226.022083,16.1313353 225.704584,15.3821118 225.980226,14.7475235 C226.255868,14.1139588 227.017456,13.8345353 227.682059,14.1241941 C228.346662,14.4138529 228.66314,15.1620529 228.387498,15.7976647 C228.112877,16.4322529 227.351289,16.7106529 226.685665,16.4209941 L226.685665,16.4209941 Z M230.79477,18.2121706 C230.130167,17.9225118 229.813689,17.1722647 230.089331,16.5387 C230.363952,15.9041118 231.126561,15.6257118 231.791164,15.9153706 C232.455767,16.2050294 232.771223,16.9532294 232.496602,17.5888412 C232.221981,18.2224059 231.459373,18.5018294 230.79477,18.2121706 L230.79477,18.2121706 Z M235.219331,20.1405 C234.554728,19.8498176 234.23825,19.1016176 234.513892,18.4670294 C234.788513,17.8334647 235.551122,17.5530176 236.214704,17.8437 C236.880328,18.1333588 237.195784,18.8825824 236.921164,19.5161471 C236.645522,20.1507353 235.883934,20.4301588 235.219331,20.1405 L235.219331,20.1405 Z M239.643892,22.0688294 C238.978268,21.7791706 238.662811,21.0299471 238.937432,20.3963824 C239.213074,19.7617941 239.974662,19.4823706 240.639265,19.7720294 C241.304889,20.0627118 241.620346,20.8109118 241.345725,21.4455 C241.070083,22.0790647 240.308495,22.3595118 239.643892,22.0688294 L239.643892,22.0688294 Z M244.068453,23.9971588 C243.402829,23.7075 243.087373,22.9593 243.361993,22.3236882 C243.637635,21.6901235 244.399223,21.4107 245.063826,21.7003588 C245.728429,21.9900176 246.044907,22.7402647 245.770286,23.3738294 C245.494644,24.0084176 244.733056,24.2868176 244.068453,23.9971588 L244.068453,23.9971588 Z M248.493014,25.9254882 C247.82739,25.6368529 247.511934,24.8866059 247.786555,24.2530412 C248.062196,23.6184529 248.823784,23.3400529 249.488387,23.6297118 C250.15299,23.9193706 250.469468,24.6685941 250.193826,25.3021588 C249.919205,25.9367471 249.157617,26.2151471 248.493014,25.9254882 L248.493014,25.9254882 Z M252.916555,27.8548412 C252.251952,27.5651824 251.936495,26.8159588 252.211116,26.1813706 C252.485737,25.5478059 253.248346,25.2673588 253.912949,25.5580412 C254.577552,25.8477 254.894029,26.5959 254.618387,27.2304882 C254.343767,27.8650765 253.582179,28.1445 252.916555,27.8548412 L252.916555,27.8548412 Z M257.341116,29.7831706 C256.676513,29.4924882 256.361056,28.7442882 256.635677,28.1097 C256.910298,27.4761353 257.672907,27.1967118 258.33751,27.4853471 C259.002113,27.7760294 259.31859,28.5252529 259.042949,29.1588176 C258.768328,29.7934059 258.00674,30.0728294 257.341116,29.7831706 L257.341116,29.7831706 Z M261.765677,31.7115 C261.101074,31.4218412 260.784596,30.6736412 261.060238,30.0390529 C261.334859,29.4034412 262.096447,29.1250412 262.762071,29.4147 C263.426674,29.7043588 263.742131,30.4535824 263.46751,31.0881706 C263.192889,31.7217353 262.431301,32.0021824 261.765677,31.7115 L261.765677,31.7115 Z M167.040865,82.0711941 L232.349593,110.538618 L267.241761,30.0779471 L201.932011,1.6095 L167.040865,82.0711941 Z" id="Fill-76" fill="#F5F5F5"></path>
                        <path d="M211.945976,2.02750941 L211.907181,2.01010941 C211.487593,1.82792118 210.999605,2.02034471 210.817886,2.44101529 L209.708173,4.99881529 L208.883289,6.90053294 C208.700549,7.32120353 208.893498,7.81045059 209.313086,7.99366235 L209.350859,8.01106235 C209.771468,8.19325059 210.259456,8.00082706 210.441176,7.58015647 L211.265038,5.67843882 L212.374752,3.11961529 C212.557492,2.69894471 212.365564,2.21072118 211.945976,2.02750941 M264.725253,25.03338 L264.68748,25.0170035 C264.267892,24.8337918 263.779904,25.0262153 263.597164,25.4468859 L262.48745,28.0057094 L261.663587,29.9064035 C261.480847,30.3270741 261.672776,30.8163212 262.093384,31.0005565 L262.131158,31.0159094 C262.550746,31.1991212 263.038734,31.0056741 263.221474,30.5850035 L264.045337,28.6843094 L265.15505,26.1265094 C265.33779,25.7058388 265.144841,25.2155682 264.725253,25.03338 M260.33234,23.1173329 L260.293546,23.1009565 C259.873958,22.9177447 259.38597,23.1111918 259.203229,23.5318624 L258.094537,26.0906859 L257.269653,27.99138 C257.086913,28.4120506 257.278841,28.9012976 257.698429,29.0845094 L257.737223,29.1008859 C258.156811,29.2840976 258.644799,29.0906506 258.82754,28.66998 L259.651402,26.7692859 L260.761116,24.2114859 C260.943856,23.7908153 260.750907,23.3005447 260.33234,23.1173329 M255.825086,21.1542035 L255.787313,21.1378271 C255.367725,20.9546153 254.879737,21.1470388 254.696996,21.5677094 L253.588304,24.1265329 L252.76342,26.0272271 C252.58068,26.4478976 252.773629,26.9371447 253.193217,27.1203565 L253.23099,27.1367329 C253.650579,27.3199447 254.138567,27.1264976 254.321307,26.7058271 L255.14517,24.8051329 L256.254883,22.2473329 C256.437623,21.8266624 256.245695,21.3363918 255.825086,21.1542035 M207.484662,0.0828035294 L207.446889,0.0664270588 C207.027301,-0.116784706 206.539313,0.0766623529 206.356573,0.497332941 L205.246859,3.05513294 L204.422996,4.95582706 C204.240256,5.37649765 204.432184,5.86676824 204.851773,6.04998 L204.890567,6.06533294 C205.310155,6.24854471 205.798143,6.05612118 205.980883,5.63442706 L206.804746,3.73373294 L207.914459,1.17593294 C208.096179,0.755262353 207.905271,0.264991765 207.484662,0.0828035294 M251.432173,19.2381565 L251.393379,19.22178 C250.97379,19.0385682 250.485802,19.2320153 250.303062,19.6526859 L249.193349,22.2115094 L248.369486,24.1122035 C248.187767,24.5328741 248.379695,25.0221212 248.799283,25.2053329 L248.837056,25.2217094 C249.256644,25.4049212 249.744632,25.2114741 249.927373,24.7908035 L250.752256,22.8901094 L251.860949,20.3323094 C252.043689,19.9116388 251.851761,19.4213682 251.432173,19.2381565 M229.562549,9.70602706 L229.524776,9.68965059 C229.105187,9.50746235 228.617199,9.69988588 228.434459,10.1205565 L227.324746,12.6783565 L226.500883,14.5800741 C226.318143,15.0007447 226.511092,15.4899918 226.93068,15.6732035 L226.968453,15.68958 C227.388041,15.8717682 227.876029,15.6793447 228.05877,15.2586741 L228.882632,13.3569565 L229.992346,10.7991565 C230.175086,10.3784859 229.982137,9.88923882 229.562549,9.70602706 M225.190053,7.80021529 L225.15228,7.78383882 C224.731671,7.60062706 224.243683,7.79305059 224.061964,8.21372118 L222.95225,10.7725447 L222.127367,12.6732388 C221.944626,13.0949329 222.137576,13.5831565 222.557164,13.7663682 L222.594937,13.7827447 C223.014525,13.9659565 223.503534,13.7735329 223.686274,13.3518388 L224.510137,11.4511447 L225.61985,8.89334471 C225.80157,8.47267412 225.609641,7.98240353 225.190053,7.80021529 M220.796119,5.88519176 L220.757325,5.86779176 C220.337737,5.68458 219.849749,5.87802706 219.667008,6.29869765 L218.558316,8.85752118 L217.733432,10.7582153 C217.551713,11.1788859 217.743641,11.6681329 218.163229,11.8513447 L218.201002,11.8677212 C218.621611,12.0509329 219.109599,11.8574859 219.291319,11.4368153 L220.116202,9.53612118 L221.224895,6.97832118 C221.407635,6.55765059 221.215707,6.06738 220.796119,5.88519176 M238.143176,13.4460035 L238.105402,13.4296271 C237.684793,13.2464153 237.196805,13.4388388 237.015086,13.8605329 L235.905373,16.4193565 L235.08151,18.3200506 C234.89877,18.7407212 235.090698,19.2299682 235.510286,19.4121565 L235.54908,19.4295565 C235.968668,19.6127682 236.456656,19.4193212 236.638376,18.9986506 L237.463259,17.0979565 L238.572973,14.5401565 C238.754692,14.1184624 238.562764,13.6292153 238.143176,13.4460035 M233.749241,11.53098 L233.711468,11.5146035 C233.29188,11.3313918 232.803892,11.5238153 232.621152,11.9444859 L231.511438,14.5022859 L230.686555,16.4050271 C230.504835,16.8256976 230.696764,17.3149447 231.116352,17.4971329 L231.154125,17.5145329 C231.574734,17.6977447 232.062722,17.5042976 232.244441,17.0836271 L233.069325,15.1829329 L234.179038,12.6241094 C234.361779,12.2024153 234.168829,11.7141918 233.749241,11.53098 M242.578967,15.4009447 L242.541193,15.3845682 C242.121605,15.2013565 241.633617,15.3948035 241.450877,15.8154741 L240.341164,18.3742976 L239.517301,20.2749918 C239.334561,20.6946388 239.52751,21.1849094 239.946077,21.3681212 L239.984871,21.3844976 C240.404459,21.5677094 240.892447,21.3742624 241.075187,20.9535918 L241.89905,19.0528976 L243.008764,16.4940741 C243.191504,16.0734035 242.998555,15.5841565 242.578967,15.4009447 M216.277635,3.91592118 L216.238841,3.89852118 C215.819253,3.71530941 215.331265,3.90875647 215.149546,4.32942706 L214.039832,6.88722706 L213.214949,8.78792118 C213.032208,9.20961529 213.225158,9.69886235 213.644746,9.88207412 L213.682519,9.89742706 C214.102107,10.0806388 214.590095,9.88923882 214.772835,9.46856824 L215.597719,7.56685059 L216.707432,5.00802706 C216.889152,4.58735647 216.697223,4.09810941 216.277635,3.91592118 M247.467014,18.4162624 L246.358322,20.9750859 L245.533438,22.87578 C245.350698,23.2964506 244.86271,23.4898976 244.443122,23.3066859 L244.405349,23.2892859 C243.985761,23.1070976 243.792811,22.6168271 243.975552,22.19718 L244.800435,20.2954624 L245.909128,17.7376624 C246.091868,17.3169918 246.579856,17.1235447 246.999444,17.3067565 L247.038238,17.3231329 C247.457826,17.5063447 247.649755,17.9955918 247.467014,18.4162624" id="Fill-78" fill="#586066"></path>
                        <polygon id="Fill-80" fill="#C5D5D9" points="241.147161 39.8211282 203.21885 23.2890812 204.161137 21.1161282 242.089447 37.6481753"></polygon>
                        <polygon id="Fill-82" fill="#C5D5D9" points="235.977856 51.7416635 198.049546 35.2096165 198.991832 33.0366635 236.920143 49.5687106"></polygon>
                        <polygon id="Fill-84" fill="#C5D5D9" points="230.808552 63.6620965 192.880241 47.1300494 193.822528 44.9570965 231.750838 61.4891435"></polygon>
                        <polygon id="Fill-86" fill="#C5D5D9" points="225.639349 75.5816082 187.711039 59.0495612 188.653325 56.8776318 226.581636 73.4096788"></polygon>
                        <polygon id="Fill-88" fill="#C5D5D9" points="220.470045 87.5021435 182.541734 70.9700965 183.484021 68.7981671 221.412331 85.3302141"></polygon>
                        <polygon id="Fill-90" fill="#C3D82E" points="248.299453 43.6553718 246.675208 40.5325835 248.04525 39.9256306 248.977327 41.7157835 252.680115 40.0760894 253.373303 41.4077012"></polygon>
                        <polygon id="Fill-92" fill="#C3D82E" points="243.047864 55.7657718 241.423619 52.6429835 242.793661 52.0360306 243.725739 53.8261835 247.428527 52.1864894 248.121715 53.5181012"></polygon>
                        <polygon id="Fill-94" fill="#C3D82E" points="237.645795 68.2230459 236.02155 65.0992341 237.391592 64.4922812 238.32367 66.2824341 242.027479 64.64274 242.719646 65.9743518"></polygon>
                        <path d="M186.28495,73.91346 L170.753045,138.759166 C170.537636,139.655778 171.08892,140.556484 171.982204,140.771425 L226.033517,153.785601 C226.926801,154.000542 227.825189,153.44886 228.039577,152.552248 L243.572502,87.7065424 C243.78689,86.8099306 243.236627,85.9092247 242.342323,85.6942835 L188.29203,72.6801071 C187.397726,72.4651659 186.499338,73.0168482 186.28495,73.91346" id="Fill-96" fill="#4D4D4D"></path>
                        <path d="M186.417564,73.3587071 L170.88566,138.205436 C170.671272,139.101025 171.221534,140.002754 172.114818,140.217695 L226.166131,153.230848 C227.059415,153.445789 227.957803,152.894107 228.172191,151.998519 L243.705116,87.1517894 C243.919504,86.2562012 243.369242,85.3544718 242.474937,85.1395306 L188.424645,72.1263776 C187.53034,71.9114365 186.631952,72.4631188 186.417564,73.3587071" id="Fill-98" fill="#666666"></path>
                        <polygon id="Fill-100" fill="#DB1F21" points="178.370049 139.816062 176.441577 147.866121 180.826324 145.879451 183.624598 149.386062 185.505088 141.534568 179.165327 140.007462"></polygon>
                        <path d="M175.500822,144.822759 L177.080147,145.203512 L177.22001,144.618053 L184.355049,146.336559 L184.215186,146.922018 L229.7165,157.875829 L245.36887,92.5275706 L242.419503,86.2779 L240.305228,85.7692059 L239.062798,90.9513353 L237.962273,90.6862412 C238.011276,90.8428412 238.025568,91.0107 237.984733,91.1785588 C237.861204,91.6923706 237.324213,92.0035235 236.784159,91.8735353 C236.244106,91.7435471 235.906189,91.2215471 236.028697,90.7077353 C236.069533,90.5398765 236.15733,90.3955588 236.27167,90.2799 L234.3677,89.8213588 C234.416703,89.9769353 234.430995,90.1447941 234.390159,90.3126529 C234.266631,90.8264647 233.72964,91.1376176 233.189586,91.0076294 C232.649533,90.8776412 232.311616,90.3556412 232.435144,89.8418294 C232.474959,89.6739706 232.562756,89.5306765 232.677097,89.4139941 L230.773127,88.9554529 C230.82315,89.1110294 230.836422,89.2788882 230.796607,89.4467471 C230.673079,89.9605588 230.136088,90.2717118 229.595013,90.1417235 C229.054959,90.0117353 228.717043,89.4897353 228.840571,88.9769471 C228.880386,88.8080647 228.969204,88.6657941 229.083544,88.5491118 L227.179574,88.0905706 C227.228577,88.2461471 227.241849,88.4140059 227.202034,88.5828882 C227.078506,89.0967 226.541515,89.4068294 226.001461,89.2768412 C225.461407,89.1468529 225.12247,88.6248529 225.245998,88.1120647 C225.286834,87.9431824 225.374631,87.7998882 225.488971,87.6832059 L223.585001,87.2256882 C223.634004,87.3812647 223.648297,87.5491235 223.607461,87.7169824 C223.483933,88.2307941 222.946941,88.5419471 222.406888,88.4119588 C221.866834,88.2819706 221.528918,87.7599706 221.652446,87.2461588 C221.692261,87.0783 221.780058,86.9339824 221.894398,86.8183235 L219.990428,86.3597824 C220.039431,86.5153588 220.053724,86.6832176 220.012888,86.8510765 C219.89038,87.3648882 219.352368,87.6760412 218.812315,87.5460529 C218.272261,87.4160647 217.934344,86.8940647 218.057873,86.3802529 C218.097688,86.2123941 218.185485,86.0691 218.300846,85.9524176 L216.395855,85.4938765 C216.445879,85.6504765 216.45915,85.8183353 216.419336,85.9861941 C216.295807,86.5000059 215.758816,86.8101353 215.218762,86.6801471 C214.677688,86.5501588 214.339771,86.0291824 214.4633,85.5153706 C214.504136,85.3475118 214.591933,85.2042176 214.706273,85.0875353 L213.058547,84.6904059 C213.10755,84.8459824 213.121843,85.0138412 213.081007,85.1817 C212.957479,85.6955118 212.420488,86.0066647 211.880434,85.8766765 C211.34038,85.7466882 211.002464,85.2246882 211.125992,84.7119 C211.165807,84.5430176 211.253604,84.4007471 211.367944,84.2840647 L209.463974,83.8245 C209.513998,83.9811 209.52727,84.1489588 209.487455,84.3178412 C209.363927,84.8316529 208.825915,85.1417824 208.285861,85.0117941 C207.745807,84.8818059 207.407891,84.3598059 207.531419,83.8470176 C207.571234,83.6781353 207.659031,83.5348412 207.774392,83.4181588 L205.870422,82.9606412 C205.919425,83.1162176 205.932697,83.2840765 205.892882,83.4519353 C205.769353,83.9657471 205.232362,84.2769 204.692309,84.1469118 C204.151234,84.0169235 203.813318,83.4949235 203.936846,82.9811118 C203.977682,82.8132529 204.064458,82.6689353 204.179819,82.5532765 L202.275849,82.0947353 C202.324852,82.2503118 202.338124,82.4181706 202.298309,82.5860294 C202.17478,83.0998412 201.637789,83.4109941 201.097736,83.2810059 C200.557682,83.1510176 200.219765,82.6290176 200.342273,82.1152059 C200.383109,81.9473471 200.470906,81.8040529 200.585246,81.6873706 L198.681276,81.2288294 C198.730279,81.3854294 198.744571,81.5532882 198.703736,81.7211471 C198.580207,82.2349588 198.043216,82.5450882 197.503162,82.4151 C196.963109,82.2851118 196.625192,81.7641353 196.7477,81.2503235 C196.788536,81.0824647 196.876333,80.9381471 196.990673,80.8224882 L195.086703,80.3629235 C195.136727,80.5195235 195.149998,80.6873824 195.110183,80.8562647 C194.986655,81.3690529 194.449664,81.6812294 193.908589,81.5502176 C193.368536,81.4202294 193.030619,80.8982294 193.154147,80.3854412 C193.193962,80.2165588 193.281759,80.0732647 193.397121,79.9565824 L189.848488,79.1029588 L187.711753,88.0230176 L186.053819,87.3822882 L173.847992,138.342794 L175.500822,144.822759 Z M238.690171,92.3320765 C238.419634,92.2665706 238.200141,92.1038294 238.063341,91.8929824 C237.926541,91.6821353 237.873455,91.4231824 237.934709,91.1662765 C237.995962,90.9093706 238.161347,90.7036412 238.378798,90.5777471 C238.595228,90.4518529 238.864744,90.4068176 239.135282,90.4713 C239.675336,90.6012882 240.013252,91.1232882 239.890744,91.6371 C239.82847,91.8940059 239.664106,92.0997353 239.446655,92.2256294 C239.229204,92.3515235 238.959688,92.3965588 238.690171,92.3320765 L238.690171,92.3320765 Z" id="Fill-102" fill="#000000"></path>
                        <polygon id="Fill-104" fill="#000000" points="239.127829 88.9185035 239.921065 85.6063624 190.407632 73.6853153 189.614396 76.99848"></polygon>
                        <path d="M191.340629,76.4562141 C190.798533,76.3262259 190.459596,75.8001318 190.583124,75.2832494 C190.706653,74.7663671 191.246706,74.4531671 191.788802,74.5831553 C192.330897,74.7141671 192.670856,75.2392376 192.546306,75.75612 C192.422778,76.2730024 191.882724,76.5872259 191.340629,76.4562141 L191.340629,76.4562141 Z M194.948473,77.3251906 C194.406378,77.1952024 194.067441,76.6691082 194.190969,76.1522259 C194.315518,75.6353435 194.855572,75.3221435 195.397667,75.4531553 C195.939763,75.58212 196.2787,76.1071906 196.154151,76.6250965 C196.030623,77.1419788 195.490569,77.4562024 194.948473,77.3251906 L194.948473,77.3251906 Z M198.556318,78.1941671 C198.015244,78.0631553 197.675285,77.5391082 197.799835,77.0212024 C197.923363,76.50432 198.463417,76.1900965 199.005512,76.3211082 C199.547608,76.4510965 199.886545,76.9771906 199.763017,77.4940729 C199.638467,78.0109553 199.099435,78.3241553 198.556318,78.1941671 L198.556318,78.1941671 Z M202.165184,79.0631435 C201.623088,78.9321318 201.284151,78.4070612 201.407679,77.8891553 C201.531208,77.3732965 202.071261,77.0590729 202.613357,77.1900847 C203.155453,77.3200729 203.49439,77.8451435 203.370861,78.3620259 C203.247333,78.8799318 202.707279,79.1931318 202.165184,79.0631435 L202.165184,79.0631435 Z M205.773029,79.93212 C205.230933,79.8011082 204.891996,79.2760376 205.015524,78.7581318 C205.140073,78.2412494 205.679106,77.9270259 206.222223,78.0580376 C206.763297,78.1880259 207.102235,78.71412 206.978706,79.2310024 C206.855178,79.7489082 206.315124,80.0610847 205.773029,79.93212 L205.773029,79.93212 Z M209.380873,80.8000729 C208.838778,80.6690612 208.499841,80.1450141 208.623369,79.6271082 C208.747918,79.1102259 209.287972,78.7960024 209.830067,78.9270141 C210.372163,79.0570024 210.7111,79.5830965 210.587572,80.0999788 C210.463023,80.6168612 209.922969,80.9300612 209.380873,80.8000729 L209.380873,80.8000729 Z M212.731453,81.6066141 C212.189357,81.4756024 211.85042,80.9515553 211.973948,80.4336494 C212.098497,79.9167671 212.638551,79.6025435 213.180647,79.7335553 C213.722742,79.8645671 214.061679,80.3896376 213.93713,80.90652 C213.813602,81.4244259 213.273548,81.7366024 212.731453,81.6066141 L212.731453,81.6066141 Z M216.339297,82.4755906 C215.798223,82.3445788 215.459285,81.8195082 215.582814,81.3016024 C215.706342,80.78472 216.246396,80.47152 216.788491,80.6025318 C217.330587,80.7335435 217.669524,81.2575906 217.545996,81.7744729 C217.421447,82.2923788 216.882414,82.6066024 216.339297,82.4755906 L216.339297,82.4755906 Z M219.947142,83.3435435 C219.406067,83.2135553 219.06713,82.6884847 219.190659,82.1716024 C219.314187,81.6536965 219.854241,81.3394729 220.396336,81.4704847 C220.938432,81.6014965 221.277369,82.1265671 221.153841,82.6434494 C221.030312,83.1613553 220.490259,83.4745553 219.947142,83.3435435 L219.947142,83.3435435 Z M223.556008,84.21252 C223.013912,84.0815082 222.674975,83.5564376 222.798503,83.0405788 C222.923053,82.5226729 223.462085,82.2094729 224.005202,82.3394612 C224.546276,82.4704729 224.885214,82.9955435 224.761685,83.5134494 C224.638157,84.0293082 224.098103,84.3435318 223.556008,84.21252 L223.556008,84.21252 Z M227.163853,85.0814965 C226.621757,84.9515082 226.28282,84.4254141 226.407369,83.9085318 C226.530897,83.3906259 227.070951,83.0784494 227.613047,83.2084376 C228.155142,83.3394494 228.494079,83.8634965 228.36953,84.3814024 C228.246002,84.8982847 227.705948,85.2125082 227.163853,85.0814965 L227.163853,85.0814965 Z M230.772718,85.9494494 C230.229602,85.8194612 229.890664,85.2943906 230.015214,84.7775082 C230.138742,84.2596024 230.678796,83.9464024 231.220891,84.0763906 C231.762987,84.2074024 232.101924,84.7324729 231.978396,85.2503788 C231.854867,85.7672612 231.313793,86.0804612 230.772718,85.9494494 L230.772718,85.9494494 Z M234.380563,86.8184259 C233.838467,86.6884376 233.498509,86.1623435 233.623059,85.6464847 C233.746587,85.1285788 234.286641,84.8153788 234.828736,84.9453671 C235.370832,85.0763788 235.709769,85.6014494 235.586241,86.1183318 C235.462712,86.6352141 234.922659,86.9494376 234.380563,86.8184259 L234.380563,86.8184259 Z M237.988408,87.6874024 C237.446312,87.5574141 237.107375,87.0323435 237.230903,86.5144376 C237.355453,85.9975553 237.895506,85.6843553 238.436581,85.8153671 C238.979697,85.9453553 239.318635,86.4694024 239.194085,86.9873082 C239.070557,87.5041906 238.530503,87.8184141 237.988408,87.6874024 L237.988408,87.6874024 Z M172.94307,138.509732 L226.202169,151.331485 L241.917835,85.7171082 L188.659757,72.8943318 L172.94307,138.509732 Z" id="Fill-106" fill="#FFFFFF"></path>
                        <path d="M196.299527,71.8703929 L196.267879,71.8622047 C195.925879,71.7803224 195.581837,71.9911694 195.500165,72.3340518 L194.999927,74.4210282 L194.628321,75.9716753 C194.546649,76.3145576 194.756953,76.6594871 195.099974,76.7423929 L195.130601,76.7495576 C195.472601,76.8324635 195.816643,76.6205929 195.899336,76.2777106 L196.270941,74.7270635 L196.770159,72.6400871 C196.852852,72.2972047 196.641527,71.9522753 196.299527,71.8703929 M239.341503,82.2326047 L239.309855,82.22544 C238.967855,82.1425341 238.623813,82.3544047 238.541121,82.6972871 L238.041903,84.78324 L237.670297,86.3338871 C237.588625,86.6777929 237.79893,87.0227224 238.14093,87.1046047 L238.172577,87.1127929 C238.514577,87.1946753 238.858619,86.9838282 238.941312,86.6399224 L239.311897,85.0892753 L239.812136,83.0033224 C239.893807,82.66044 239.683503,82.3155106 239.341503,82.2326047 M235.758159,81.3697694 L235.726512,81.3626047 C235.384512,81.2796988 235.04047,81.4915694 234.958798,81.8344518 L234.458559,83.9204047 L234.086953,85.4710518 C234.005282,85.8139341 234.215586,86.1598871 234.558607,86.2417694 L234.589234,86.2489341 C234.931234,86.33184 235.275276,86.1199694 235.357968,85.7770871 L235.729574,84.22644 L236.228792,82.1404871 C236.310464,81.7976047 236.100159,81.4516518 235.758159,81.3697694 M232.082936,80.48544 L232.052309,80.4772518 C231.710309,80.3953694 231.366267,80.6062165 231.283574,80.9501224 L230.784356,83.0360753 L230.41275,84.5867224 C230.330058,84.9296047 230.541383,85.2745341 230.883383,85.35744 L230.915031,85.3646047 C231.257031,85.4475106 231.601073,85.23564 231.682744,84.8927576 L232.05435,83.3421106 L232.553568,81.2561576 C232.636261,80.9122518 232.425956,80.5673224 232.082936,80.48544 M192.662076,70.9942518 L192.630428,70.9870871 C192.288428,70.9041812 191.944386,71.1160518 191.861694,71.4589341 L191.362476,73.5448871 L190.99087,75.0955341 C190.909198,75.4384165 191.119503,75.7833459 191.461503,75.8652282 L191.49315,75.8734165 C191.83515,75.9552988 192.179192,75.7444518 192.260864,75.4015694 L192.63247,73.8509224 L193.131688,71.7639459 C193.21438,71.4220871 193.003055,71.0771576 192.662076,70.9942518 M228.500613,79.6226047 L228.468965,79.6144165 C228.126965,79.5325341 227.782924,79.7433812 227.700231,80.0872871 L227.201013,82.17324 L226.829407,83.7238871 C226.746715,84.0667694 226.95804,84.4116988 227.30004,84.4946047 L227.330667,84.5017694 C227.673688,84.5846753 228.01773,84.3728047 228.099401,84.0299224 L228.471007,82.4792753 L228.970225,80.3933224 C229.052918,80.0494165 228.841592,79.7044871 228.500613,79.6226047 M210.666589,75.3288988 L210.634941,75.3217341 C210.292941,75.2388282 209.9489,75.4506988 209.867228,75.7935812 L209.366989,77.8795341 L208.995383,79.4301812 C208.912691,79.7740871 209.124016,80.1190165 209.466016,80.2008988 L209.497664,80.2080635 C209.839664,80.2909694 210.183706,80.0801224 210.266398,79.7362165 L210.636983,78.1855694 L211.137222,76.0996165 C211.218894,75.7567341 211.008589,75.4118047 210.666589,75.3288988 M207.09958,74.4701576 L207.068953,74.4629929 C206.725933,74.3800871 206.381891,74.5919576 206.300219,74.93484 L205.801001,77.0207929 L205.429395,78.57144 C205.346703,78.9153459 205.558028,79.2602753 205.900028,79.3421576 L205.931676,79.3503459 C206.273676,79.4322282 206.617718,79.2213812 206.70041,78.8774753 L207.070995,77.3268282 L207.571234,75.2408753 C207.652906,74.8979929 207.442601,74.5530635 207.09958,74.4701576 M203.516237,73.6073224 L203.48561,73.6001576 C203.14361,73.5172518 202.799568,73.7291224 202.716876,74.0720047 L202.217658,76.1579576 L201.846052,77.7086047 C201.76438,78.0525106 201.974685,78.39744 202.316685,78.4793224 L202.348333,78.4875106 C202.690333,78.5693929 203.034374,78.3575224 203.116046,78.01464 L203.487652,76.4639929 L203.987891,74.37804 C204.069562,74.0351576 203.859258,73.6902282 203.516237,73.6073224 M217.662786,77.0136282 L217.632159,77.0064635 C217.290159,76.9235576 216.946118,77.1354282 216.863425,77.4783106 L216.364207,79.5652871 L215.992601,81.1149106 C215.909909,81.4577929 216.121234,81.8027224 216.463234,81.8856282 L216.494882,81.8927929 C216.836882,81.9746753 217.180924,81.7638282 217.262595,81.4209459 L217.634201,79.8702988 L218.13444,77.7833224 C218.216112,77.44044 218.005807,77.0955106 217.662786,77.0136282 M214.080464,76.1507929 L214.048816,76.1436282 C213.706816,76.0617459 213.362774,76.2725929 213.280082,76.6154753 L212.780864,78.7014282 L212.409258,80.2520753 C212.327586,80.5949576 212.537891,80.9398871 212.879891,81.0217694 L212.911539,81.0299576 C213.253539,81.11184 213.59758,80.9009929 213.679252,80.5581106 L214.050858,79.0084871 L214.551097,76.9215106 C214.632768,76.5786282 214.422464,76.2336988 214.080464,76.1507929 M221.283903,77.9010282 L221.252255,77.8938635 C220.910255,77.8109576 220.566213,78.0228282 220.483521,78.3657106 L219.984303,80.4516635 L219.612697,82.0012871 C219.531025,82.3451929 219.74133,82.6901224 220.08333,82.7720047 L220.114977,82.7801929 C220.456977,82.8620753 220.801019,82.6502047 220.883712,82.3073224 L221.254297,80.7576988 L221.754536,78.6717459 C221.837228,78.3288635 221.625903,77.9839341 221.283903,77.9010282 M199.831825,72.7199224 L199.800177,72.7127576 C199.458177,72.6308753 199.114136,72.8417224 199.032464,73.1846047 L198.533246,75.2715812 L198.16164,76.8222282 C198.078947,77.1651106 198.289252,77.51004 198.632273,77.5919224 L198.6629,77.6001106 C199.0049,77.6819929 199.348941,77.4711459 199.431634,77.1282635 L199.80324,75.5776165 L200.302458,73.49064 C200.38413,73.1477576 200.173825,72.8028282 199.831825,72.7199224 M225.387903,79.5304871 L224.887664,81.61644 L224.517079,83.1670871 C224.434386,83.5099694 224.090344,83.72184 223.748344,83.6389341 L223.716697,83.6317694 C223.374697,83.5488635 223.163371,83.2039341 223.246064,82.8610518 L223.61767,81.3114282 L224.116888,79.2254753 C224.19958,78.8815694 224.543622,78.6707224 224.885622,78.7526047 L224.916249,78.7597694 C225.25927,78.8426753 225.469574,79.1865812 225.387903,79.5304871" id="Fill-108" fill="#586066"></path>
                        <polygon id="Fill-110" fill="#C5D5D9" points="223.449937 96.5890376 192.519865 89.1428612 192.944558 87.3701082 223.874629 94.8183318"></polygon>
                        <polygon id="Fill-112" fill="#C5D5D9" points="221.12158 106.31052 190.191509 98.8643435 190.616201 97.0915906 221.546273 104.538791"></polygon>
                        <polygon id="Fill-114" fill="#C5D5D9" points="218.793122 116.031081 187.86305 108.584905 188.287743 106.812152 219.217814 114.260375"></polygon>
                        <polygon id="Fill-116" fill="#C5D5D9" points="216.464663 125.752564 185.534592 118.306387 185.959284 116.533634 216.889356 123.980834"></polygon>
                        <polygon id="Fill-118" fill="#C5D5D9" points="214.136817 135.473125 183.206746 128.026948 183.630417 126.254195 214.56151 133.702419"></polygon>
                        <polygon id="Fill-120" fill="#C3D82E" points="229.378481 98.5371212 227.731777 96.3887329 228.689377 95.7449329 229.633705 96.9772624 232.219633 95.2382859 232.92201 96.1553682"></polygon>
                        <polygon id="Fill-122" fill="#C3D82E" points="227.012658 108.412542 225.366974 106.264154 226.323553 105.621378 227.267882 106.853707 229.854831 105.114731 230.556186 106.030789"></polygon>
                        <polygon id="Fill-124" fill="#C3D82E" points="224.579558 118.570867 222.933874 116.422479 223.890453 115.778679 224.834781 117.012032 227.421731 115.273055 228.123086 116.189114"></polygon>
                        <path d="M261.716572,61.6181082 L179.340512,61.6181082 L80.6668764,61.6181082 C77.1253899,61.6181082 74.2536107,64.4614729 74.2536107,67.9691082 L74.2536107,184.126391 C74.2536107,187.635049 77.1253899,190.478414 80.6668764,190.478414 L261.716572,190.478414 C265.259079,190.478414 268.129838,187.635049 268.129838,184.126391 L268.129838,67.9691082 C268.129838,64.4614729 265.259079,61.6181082 261.716572,61.6181082" id="Fill-126" fill="#303030"></path>
                        <mask id="mask-9" fill="white">
                            <use xlink:href="#path-8"></use>
                        </mask>
                        <g id="Clip-129"></g>
                        <polygon id="Fill-128" fill="#FCFCFC" mask="url(#mask-9)" points="88.7617612 182.547494 253.622096 182.547494 253.622096 69.5488235 88.7617612 69.5488235"></polygon>
                        <polygon id="Fill-130" fill="#DBE0E3" mask="url(#mask-9)" points="88.4289493 182.731729 253.622096 182.731729 253.622096 68.6624471 88.4289493 68.6624471"></polygon>
                    </g>
                    <g id="Group-161" transform="translate(88.500000, 68.000000)">
                        <g id="Group-134" transform="translate(77.398773, 0.000000)">
                            <mask id="mask-11" fill="white">
                                <use xlink:href="#path-10"></use>
                            </mask>
                            <g id="Clip-133"></g>
                            <polygon id="Fill-132" fill="#664BC4" mask="url(#mask-11)" points="93.4609534 116.860433 95.4448061 70.2977545 95.162708 32.7327991 90.8528184 -1.85653125 90.8528184 -14.4305491 19.5135546 -16.2992991 0.795272393 27.7847187 14.5691988 66.8672634 2.2078 115.421906"></polygon>
                        </g>
                        <g id="Group-137" transform="translate(3.055215, 0.000000)">
                            <mask id="mask-13" fill="white">
                                <use xlink:href="#path-12"></use>
                            </mask>
                            <g id="Clip-136"></g>
                            <polygon id="Fill-135" fill="#DBE0E3" mask="url(#mask-13)" points="125.145465 122.160804 118.411772 71.9273661 109.127993 24.7404018 114.683391 -12.3142411 90.3251828 -9.2575 18.9849006 -11.1252232 0.26763681 32.9587946 14.0405448 72.0403125 1.68016442 120.595982"></polygon>
                        </g>
                        <g id="Group-140" transform="translate(86.564417, 0.000000)">
                            <mask id="mask-15" fill="white">
                                <use xlink:href="#path-14"></use>
                            </mask>
                            <g id="Clip-139"></g>
                            <polygon id="Fill-138" fill="#FAFBFD" mask="url(#mask-15)" points="7.09400491 -14.0005312 36.4648025 117.816165 30.1242135 119.252638 0.753415951 -12.5650848"></polygon>
                        </g>
                        <g id="Group-143" transform="translate(44.809816, 0.000000)">
                            <mask id="mask-17" fill="white">
                                <use xlink:href="#path-16"></use>
                            </mask>
                            <g id="Clip-142"></g>
                            <polygon id="Fill-141" fill="#FAFBFD" mask="url(#mask-17)" points="6.94032761 -9.76103571 36.3111252 122.056687 29.9705362 123.492134 0.59973865 -8.32558929"></polygon>
                        </g>
                        <g id="Group-146" transform="translate(1.018405, 0.000000)">
                            <mask id="mask-19" fill="white">
                                <use xlink:href="#path-18"></use>
                            </mask>
                            <g id="Clip-145"></g>
                            <polygon id="Fill-144" fill="#FAFBFD" mask="url(#mask-19)" points="7.68376319 -4.93996875 38.015935 131.190254 31.675346 132.626728 0.574278528 -6.95554911"></polygon>
                        </g>
                        <g id="Group-149" transform="translate(0.000000, 11.294643)">
                            <mask id="mask-21" fill="white">
                                <use xlink:href="#path-20"></use>
                            </mask>
                            <g id="Clip-148"></g>
                            <polygon id="Fill-147" fill="#FAFBFD" mask="url(#mask-21)" points="57.3573791 4.82548214 -26.0866454 110.536152 -31.1715411 106.455705 52.2724834 0.745035714"></polygon>
                        </g>
                        <g id="Group-160" transform="translate(31.570552, 12.321429)" fill="#BAB4A8">
                            <polygon id="Fill-150" points="49.0699055 47.3568973 52.941881 64.7352455 44.1774883 66.7200223 40.3055129 49.3416741"></polygon>
                            <polygon id="Fill-152" points="46.0609264 33.8532277 48.4246442 44.4609509 39.6602515 46.4467545 37.2965337 35.8390313"></polygon>
                            <polygon id="Fill-154" points="38.704784 0.838678571 43.6959865 23.2410893 34.9315939 25.2268929 29.9403914 2.82448214"></polygon>
                            <polygon id="Fill-156" points="8.92591166 62.6553884 11.2896294 73.2631116 2.52523681 75.2489152 0.161519018 64.641192"></polygon>
                            <polygon id="Fill-158" points="23.9249791 59.2581652 26.2886969 69.8658884 12.9842552 72.8805313 10.6215558 62.2717813"></polygon>
                        </g>
                    </g>
                    <g id="Group-166" transform="translate(182.500000, 85.000000)">
                        <path d="M11.0678,17.9249739 C8.8578,17.8592348 7.5248,16.9441043 8.0898,15.8808 C8.6548,14.8174957 10.9058,14.0098435 13.1158,14.0766261 C15.3258,14.1423652 16.6598,15.0574957 16.0938,16.1208 C15.5278,17.1841043 13.2778,17.9917565 11.0678,17.9249739 M13.9508,12.5061913 C9.8608,12.3830609 5.6968,13.8783652 4.6508,15.8453217 C3.6048,17.8122783 8.2778,23.1684522 8.2778,23.1684522 C8.2778,23.1684522 18.4158,18.2557565 19.4628,16.2898435 C20.5088,14.322887 18.0418,12.6282783 13.9508,12.5061913" id="Fill-162" fill="#000000"></path>
                        <path d="M8.2646,11.8026783 C6.0536,11.8026783 4.2606,9.93172174 4.2606,7.6245913 C4.2606,5.31746087 6.0536,3.44650435 8.2646,3.44650435 C10.4756,3.44650435 12.2686,5.31746087 12.2686,7.6245913 C12.2686,9.93172174 10.4756,11.8026783 8.2646,11.8026783 M8.2646,0.0385043478 C4.1726,0.0385043478 0.8556,3.49867826 0.8556,7.7685913 C0.8556,12.0385043 8.2646,23.1828522 8.2646,23.1828522 C8.2646,23.1828522 15.6736,12.0385043 15.6736,7.7685913 C15.6736,3.49867826 12.3566,0.0385043478 8.2646,0.0385043478" id="Fill-164" fill="#E73031"></path>
                    </g>
                    <g id="Group-176" transform="translate(182.500000, 85.000000)">
                        <g id="Group-169">
                            <mask id="mask-23" fill="white">
                                <use xlink:href="#path-22"></use>
                            </mask>
                            <g id="Clip-168"></g>
                            <path d="M8.265,11.541913 C6.054,11.541913 4.261,9.67095652 4.261,7.36382609 C4.261,5.05669565 6.054,3.18573913 8.265,3.18573913 C10.476,3.18573913 12.269,5.05669565 12.269,7.36382609 C12.269,9.67095652 10.476,11.541913 8.265,11.541913 M8.265,11.8027826 C6.054,11.8027826 4.261,9.93182609 4.261,7.62469565 C4.261,5.31756522 6.054,3.4466087 8.265,3.4466087 C10.476,3.4466087 12.269,5.31756522 12.269,7.62469565 C12.269,9.93182609 10.476,11.8027826 8.265,11.8027826 M8.265,0.0386086957 C4.173,0.0386086957 0.856,3.49878261 0.856,7.76869565 C0.856,12.0386087 8.265,23.1829565 8.265,23.1829565 C8.265,23.1829565 15.673,12.0386087 15.673,7.76869565 C15.673,3.49878261 12.356,0.0386086957 8.265,0.0386086957" id="Fill-167" fill="url(#linearGradient-24)" mask="url(#mask-23)"></path>
                        </g>
                        <g id="Group-172">
                            <mask id="mask-26" fill="white">
                                <use xlink:href="#path-25"></use>
                            </mask>
                            <g id="Clip-171"></g>
                            <path d="M8.2646,12.0635478 C6.0536,12.0635478 4.2606,10.1925913 4.2606,7.88546087 C4.2606,5.57833043 6.0536,3.70737391 8.2646,3.70737391 C10.4756,3.70737391 12.2686,5.57833043 12.2686,7.88546087 C12.2686,10.1925913 10.4756,12.0635478 8.2646,12.0635478" id="Fill-170" fill="#FFFFFF" mask="url(#mask-26)"></path>
                        </g>
                        <g id="Group-175">
                            <mask id="mask-28" fill="white">
                                <use xlink:href="#path-27"></use>
                            </mask>
                            <g id="Clip-174"></g>
                            <path d="M8.265,11.8027826 C6.054,11.8027826 4.261,9.93182609 4.261,7.62469565 C4.261,5.31756522 6.054,3.4466087 8.265,3.4466087 C10.476,3.4466087 12.269,5.31756522 12.269,7.62469565 C12.269,9.93182609 10.476,11.8027826 8.265,11.8027826 M8.265,0.0386086957 C4.173,0.0386086957 0.856,3.49878261 0.856,7.76869565 C0.856,12.0386087 8.265,23.1829565 8.265,23.1829565 C8.265,23.1829565 15.673,12.0386087 15.673,7.76869565 C15.673,3.49878261 12.356,0.0386086957 8.265,0.0386086957" id="Fill-173" fill="url(#linearGradient-29)" mask="url(#mask-28)"></path>
                        </g>
                    </g>
                    <g id="Group-181" transform="translate(111.500000, 142.000000)">
                        <path d="M10.9995,18.4793739 C8.7375,18.4115478 7.3735,17.4745043 7.9525,16.3872 C8.5305,15.2988522 10.8335,14.4724174 13.0955,14.5402435 C15.3565,14.6080696 16.7215,15.5440696 16.1425,16.6313739 C15.5635,17.7197217 13.2615,18.5461565 10.9995,18.4793739 M13.9505,12.933287 C9.7655,12.8070261 5.5035,14.3378087 4.4335,16.3506783 C3.3625,18.3635478 8.1455,23.8449391 8.1455,23.8449391 C8.1455,23.8449391 18.5185,18.8174609 19.5895,16.8045913 C20.6605,14.7917217 18.1355,13.0585043 13.9505,12.933287" id="Fill-177" fill="#000000"></path>
                        <path d="M8.1308,12.2133913 C5.8678,12.2133913 4.0338,10.2996522 4.0338,7.93826087 C4.0338,5.57791304 5.8678,3.66313043 8.1308,3.66313043 C10.3938,3.66313043 12.2278,5.57791304 12.2278,7.93826087 C12.2278,10.2996522 10.3938,12.2133913 8.1308,12.2133913 M8.1308,0.174782609 C3.9438,0.174782609 0.5498,3.71634783 0.5498,8.0853913 C0.5498,12.4544348 8.1308,23.8596522 8.1308,23.8596522 C8.1308,23.8596522 15.7128,12.4544348 15.7128,8.0853913 C15.7128,3.71634783 12.3178,0.174782609 8.1308,0.174782609" id="Fill-179" fill="#664BC4"></path>
                    </g>
                    <g id="Group-191" transform="translate(111.500000, 142.000000)">
                        <g id="Group-184">
                            <mask id="mask-31" fill="white">
                                <use xlink:href="#path-30"></use>
                            </mask>
                            <g id="Clip-183"></g>
                            <path d="M8.131,11.9467826 C5.868,11.9467826 4.034,10.0330435 4.034,7.67165217 C4.034,5.31026087 5.868,3.39547826 8.131,3.39547826 C10.394,3.39547826 12.228,5.31026087 12.228,7.67165217 C12.228,10.0330435 10.394,11.9467826 8.131,11.9467826 M8.131,12.2128696 C5.868,12.2128696 4.034,10.2991304 4.034,7.93878261 C4.034,5.5773913 5.868,3.6626087 8.131,3.6626087 C10.394,3.6626087 12.228,5.5773913 12.228,7.93878261 C12.228,10.2991304 10.394,12.2128696 8.131,12.2128696 M8.131,0.17426087 C3.944,0.17426087 0.55,3.71686957 0.55,8.08486957 C0.55,12.4549565 8.131,23.8601739 8.131,23.8601739 C8.131,23.8601739 15.712,12.4549565 15.712,8.08486957 C15.712,3.71686957 12.318,0.17426087 8.131,0.17426087" id="Fill-182" fill="url(#linearGradient-32)" mask="url(#mask-31)"></path>
                        </g>
                        <g id="Group-187">
                            <mask id="mask-34" fill="white">
                                <use xlink:href="#path-33"></use>
                            </mask>
                            <g id="Clip-186"></g>
                            <path d="M8.1308,12.480313 C5.8678,12.480313 4.0338,10.5665739 4.0338,8.20518261 C4.0338,5.84483478 5.8678,3.93005217 8.1308,3.93005217 C10.3938,3.93005217 12.2278,5.84483478 12.2278,8.20518261 C12.2278,10.5665739 10.3938,12.480313 8.1308,12.480313" id="Fill-185" fill="#FFFFFF" mask="url(#mask-34)"></path>
                        </g>
                        <g id="Group-190">
                            <mask id="mask-36" fill="white">
                                <use xlink:href="#path-35"></use>
                            </mask>
                            <g id="Clip-189"></g>
                            <path d="M8.131,12.2128696 C5.868,12.2128696 4.034,10.2991304 4.034,7.93878261 C4.034,5.5773913 5.868,3.6626087 8.131,3.6626087 C10.394,3.6626087 12.228,5.5773913 12.228,7.93878261 C12.228,10.2991304 10.394,12.2128696 8.131,12.2128696 M8.131,0.17426087 C3.944,0.17426087 0.55,3.71686957 0.55,8.08486957 C0.55,12.4549565 8.131,23.8601739 8.131,23.8601739 C8.131,23.8601739 15.712,12.4549565 15.712,8.08486957 C15.712,3.71686957 12.318,0.17426087 8.131,0.17426087" id="Fill-188" fill="url(#linearGradient-37)" mask="url(#mask-36)"></path>
                        </g>
                    </g>
                    <g id="Group-206" transform="translate(81.500000, 110.000000)">
                        <line x1="41.9697112" y1="54.9981091" x2="43.799936" y2="54.5877818" id="Stroke-192" stroke="#664BC4"></line>
                        <line x1="46.5978281" y1="53.9590545" x2="115.145367" y2="38.5610909" id="Stroke-194" stroke="#664BC4" stroke-dasharray="27.24,21.403"></line>
                        <polyline id="Stroke-196" stroke="#664BC4" points="116.544313 38.24688 118.374538 37.8365527 117.989066 36.0078982"></polyline>
                        <line x1="117.413517" y1="33.2851782" x2="111.166213" y2="3.71514182" id="Stroke-198" stroke="#664BC4" stroke-dasharray="26.528,20.844"></line>
                        <line x1="110.878797" y1="2.35393455" x2="110.493325" y2="0.526298182" id="Stroke-200" stroke="#664BC4"></line>
                        <path d="M1.17471798,24.99952 L1.17471798,24.99952 C0.601111236,24.99952 0.136908989,24.5372655 0.136908989,23.9660655 L0.136908989,1.75544727 C0.136908989,1.18424727 0.601111236,0.721992727 1.17471798,0.721992727 C1.74832472,0.721992727 2.21252697,1.18424727 2.21252697,1.75544727 L2.21252697,23.9660655 C2.21252697,24.5372655 1.74832472,24.99952 1.17471798,24.99952" id="Fill-202" fill="#616161"></path>
                        <path d="M180.463736,24.99952 L180.463736,24.99952 C179.891152,24.99952 179.425927,24.5372655 179.425927,23.9660655 L179.425927,1.75544727 C179.425927,1.18424727 179.891152,0.721992727 180.463736,0.721992727 C181.037343,0.721992727 181.501545,1.18424727 181.501545,1.75544727 L181.501545,23.9660655 C181.501545,24.5372655 181.037343,24.99952 180.463736,24.99952" id="Fill-204" fill="#616161"></path>
                    </g>
                    <g id="Group-209" transform="translate(42.500000, 125.000000)">
                        <mask id="mask-39" fill="white">
                            <use xlink:href="#path-38"></use>
                        </mask>
                        <g id="Clip-208"></g>
                        <path d="M8.20392857,29.2696541 C5.99110714,31.9088722 5.03025,35.3835188 5.56971429,38.7906767 L5.56971429,38.7906767 L13.4061964,88.2619549 C16.2582321,100.285173 14.1563571,113.045654 7.50160714,124.114827 L7.50160714,124.114827 L0.782732143,135.291368 L17.6740714,134.300511 L46.6646786,134.707489 L50.9620714,116.450767 C52.7361964,108.913504 53.3682857,101.155368 52.8512143,93.4279098 L52.8512143,93.4279098 C52.2058929,83.7606617 53.0995714,71.2691128 53.5922143,64.4353684 L53.5922143,64.4353684 L56.6345893,22.2508271 C56.943,17.9663158 53.7194464,14.2871579 49.1370536,13.699188 L49.1370536,13.699188 C43.9673571,13.0345263 39.0612857,16.5255338 38.3915357,21.3468872 L38.3915357,21.3468872 L33.6829286,55.9778045 C33.6381429,56.2999098 33.1689107,56.2753684 33.1587321,55.9501955 L33.1587321,55.9501955 L32.3006786,26.2418647 L32.3006786,0.523548872 L8.20392857,29.2696541 Z" id="Fill-207" fill="url(#linearGradient-40)" mask="url(#mask-39)"></path>
                    </g>
                    <g id="Group-231" transform="translate(38.500000, 56.000000)">
                        <path d="M52.3264104,100.91986 L50.4118476,100.75176 C47.6196918,100.50781 45.4190684,98.16876 45.5018216,95.375635 L45.6775446,89.442935 C45.7776658,86.04506 48.5922978,83.34521 51.9555532,83.64041 L54.2603844,83.842335 C57.6246615,84.13651 59.8436745,87.27711 59.2572502,90.63296 L58.2345835,96.49186 C57.7523671,99.250135 55.1185662,101.164835 52.3264104,100.91986" id="Fill-210" fill="#FCEEE3"></path>
                        <path d="M11.2056069,189.457208 L15.1930874,175.863657 C15.5864208,174.525007 16.9053645,173.682457 18.2804987,173.891558 L58.5537455,180.020033 C60.1750961,180.267057 61.2335203,181.858882 60.8371221,183.455832 L56.2060052,202.116983 L11.2056069,189.457208 Z" id="Fill-212" fill="#F2F2F2"></path>
                        <g id="Group-216" transform="translate(0.000000, 187.575000)">
                            <mask id="mask-42" fill="white">
                                <use xlink:href="#path-41"></use>
                            </mask>
                            <g id="Clip-215"></g>
                            <path d="M64.7317351,17.42541 L64.7317351,17.42541 C64.9677351,16.483435 64.4068519,15.526085 63.4730684,15.275985 L8.96013333,0.66051 C8.08254026,0.42476 7.1712329,0.89421 6.84839307,1.74496 L0.912635498,17.42541 L64.7317351,17.42541 Z" id="Fill-214" fill="#404040" mask="url(#mask-42)"></path>
                        </g>
                        <path d="M54.7637489,189.043825 C54.7637489,190.243075 53.7952294,191.21375 52.5999048,191.21375 C51.4045801,191.21375 50.4360606,190.243075 50.4360606,189.043825 C50.4360606,187.844575 51.4045801,186.872875 52.5999048,186.872875 C53.7952294,186.872875 54.7637489,187.844575 54.7637489,189.043825" id="Fill-217" fill="#404040"></path>
                        <polygon id="Fill-219" fill="#E0B892" points="233.922281 118.434957 235.712203 115.142657 200.058835 78.7971825 191.986817 74.4747575 203.91248 96.4558825"></polygon>
                        <polygon id="Fill-221" fill="#212121" points="163.341423 63.3051275 180.692021 80.7127025 186.92712 74.4581525 169.576523 57.0495525"></polygon>
                        <path d="M174.308681,79.2116925 L206.377096,111.386442 C209.449183,114.467592 214.428681,114.467592 217.498724,111.386442 C220.57081,108.304267 220.57081,103.309442 217.498724,100.227267 L185.430308,68.0525175 L174.308681,79.2116925 Z" id="Fill-223" fill="#303030"></path>
                        <path d="M174.894287,38.598015 C174.894287,55.32294 161.379967,68.88164 144.709785,68.88164 C128.038582,68.88164 114.524261,55.32294 114.524261,38.598015 C114.524261,21.872065 128.038582,8.313365 144.709785,8.313365 C161.379967,8.313365 174.894287,21.872065 174.894287,38.598015" id="Fill-225" fill="#3EC0E8"></path>
                        <path d="M124.391718,17.972965 C135.801449,6.525765 154.300376,6.525765 165.710107,17.972965 C177.119839,29.420165 177.119839,47.978815 165.710107,59.426015 C154.300376,70.87424 135.801449,70.87424 124.391718,59.426015 C112.981986,47.978815 112.981986,29.420165 124.391718,17.972965 M118.261848,11.82194 C103.465363,26.66599 103.465363,50.734015 118.261848,65.57704 C133.056289,80.422115 157.045536,80.422115 171.840999,65.57704 C186.636462,50.734015 186.636462,26.66599 171.840999,11.82194 C157.045536,-3.02211 133.056289,-3.02211 118.261848,11.82194" id="Fill-227" fill="#303030"></path>
                        <path d="M125.649363,35.0776525 C125.913969,34.8982775 126.111146,34.6174275 126.176532,34.2781525 C127.135856,29.3304775 129.956618,25.0541775 134.120843,22.2354275 C138.28609,19.4177025 143.295216,18.3947525 148.226696,19.3562025 C148.904047,19.4874025 149.558921,19.0446025 149.690713,18.3650275 C149.822506,17.6854525 149.380133,17.0284275 148.702783,16.8972275 C143.117449,15.8066275 137.443233,16.9648775 132.725276,20.1577525 C128.007319,23.3516525 124.810592,28.1958025 123.725605,33.7994775 C123.593813,34.4790525 124.035164,35.1371025 124.712514,35.2693275 C125.0517,35.3349275 125.384757,35.2570275 125.649363,35.0776525" id="Fill-229" fill="#FFFFFF"></path>
                    </g>
                    <g id="Group-234" transform="translate(226.500000, 130.000000)">
                        <mask id="mask-44" fill="white">
                            <use xlink:href="#path-43"></use>
                        </mask>
                        <g id="Clip-233"></g>
                        <path d="M21.9687719,19.0001869 L43.105193,42.5514953 L14.906,19.5049533 C10.9528421,16.6757944 5.06126316,17.8796262 2.00049123,22.1398131 L2.00049123,22.1398131 C-0.712280702,25.9147664 -0.255403509,30.8215888 3.06178947,33.5469159 L3.06178947,33.5469159 L35.7147719,60.3735514 C41.0049825,64.7190654 50.669614,72.6688785 57.2327719,79.804486 L57.2327719,79.804486 C62.4792281,85.5090654 68.533614,90.3891589 75.2117544,94.2782243 L75.2117544,94.2782243 L100.492632,108.998692 L115.178842,93.2306542 L114.966175,68.8661682 L110.540877,67.5934579 C97.9599649,64.8609346 87.2727018,57.6142991 80.5141754,47.2321495 L80.5141754,47.2321495 L50.0326316,7.38336449 C47.9334386,4.63850467 44.7566667,2.95149533 41.3285614,2.76028037 L41.3285614,2.76028037 L3.98775439,0.677476636 L21.9687719,19.0001869 Z" id="Fill-232" fill="url(#linearGradient-45)" mask="url(#mask-44)"></path>
                    </g>
                    <g id="Group-244" transform="translate(227.500000, 149.000000)">
                        <path d="M15.1069292,14.5322569 L16.2925487,13.015633 C18.0216195,10.8023486 17.8333451,7.58311927 15.7572389,5.7253578 L11.3475487,1.7786422 C8.82161947,-0.481908257 4.94927434,-0.27640367 2.86604425,2.39001835 L1.43821239,4.21695413 C-0.645017699,6.88337615 0.110115044,10.6656881 2.93728319,12.541945 L7.8710885,15.8176881 C10.1955133,17.36 13.3768407,16.7465688 15.1069292,14.5322569" id="Fill-235" fill="#FCEEE3"></path>
                        <path d="M107.195265,45.2415266 L95.4459292,39.2336 C93.7504425,38.3673982 91.6814602,38.8976 90.6006637,40.4758752 L68.6906195,72.4986275 C67.4174779,74.3594716 68.005708,76.9221138 69.9586726,78.0277284 L85.6271681,86.8983339 L107.195265,45.2415266 Z" id="Fill-237" fill="#F2F2F2"></path>
                        <g id="Group-241" transform="translate(81.415929, 42.128440)">
                            <mask id="mask-47" fill="white">
                                <use xlink:href="#path-46"></use>
                            </mask>
                            <g id="Clip-240"></g>
                            <path d="M32.9897345,69.8719706 L3.99446903,54.7653284 C1.22734513,53.3237138 0.168938053,49.8712367 1.64561947,47.1041174 L24.7290708,3.81765872 C26.1131416,1.22213578 29.2466372,0.148374312 31.9089381,1.35263119 L32.9897345,1.84275963 L32.9897345,69.8719706 Z" id="Fill-239" fill="#404040" mask="url(#mask-47)"></path>
                        </g>
                        <path d="M77.1602168,76.8608734 C78.0272965,77.6849468 79.3910133,77.6428183 80.207208,76.7673688 C81.022385,75.8919193 80.9806593,74.5150385 80.1145973,73.6909651 C79.2475177,72.8668917 77.8827832,72.9090202 77.0676062,73.7844697 C76.2514115,74.6588917 76.2931372,76.0368 77.1602168,76.8608734" id="Fill-242" fill="#404040"></path>
                    </g>
                </g>
            </g>
        </g>
    </g>
</svg>