<?xml version="1.0" encoding="UTF-8"?>
<svg width="357px" height="353px" viewBox="0 0 357 353" version="1.1" xmlns="http://www.w3.org/2000/svg" xmlns:xlink="http://www.w3.org/1999/xlink">
    <title>Group</title>
    <defs>
        <filter id="filter-1">
            <feColorMatrix in="SourceGraphic" type="matrix" values="0 0 0 0 0.322729 0 0 0 0 0.217019 0 0 0 0 0.690755 0 0 0 1.000000 0"></feColorMatrix>
        </filter>
        <polygon id="path-2" points="0 0.0418888166 356.341654 0.0418888166 356.341654 307.640351 0 307.640351"></polygon>
        <path d="M2.61695238,0.287551724 C6.11390476,1.798 7.28828571,4.70772414 7.28828571,7.61744828 L7.28828571,7.61744828 L7.28828571,16.3113448 C7.28828571,16.3113448 7.54809524,16.6448621 7.89485714,17.0863448 L7.89485714,17.0863448 L0.95647619,17.0863448 C0.62647619,17.0863448 0.606571429,16.7464138 0.95647619,16.7464138 C4.76038095,16.7464138 5.81952381,14.4887586 5.81952381,13.0467241 L5.81952381,13.0467241 L5.81952381,6.59765517" id="path-4"></path>
        <linearGradient x1="49.9947303%" y1="9.26565511%" x2="49.9947303%" y2="97.1497442%" id="linearGradient-6">
            <stop stop-color="#FFBC49" offset="0%"></stop>
            <stop stop-color="#FDAF31" offset="100%"></stop>
        </linearGradient>
        <path d="M0.882,1.181 L0.882,4.851 C0.882,5.264 1.215,5.6 1.626,5.6 L1.626,5.6 C2.043,5.6 2.378,5.264 2.378,4.851 L2.378,4.851 L2.378,1.181 C2.378,0.768 2.043,0.434 1.626,0.434 L1.626,0.434 C1.215,0.434 0.882,0.768 0.882,1.181" id="path-7"></path>
        <linearGradient x1="62.600245%" y1="-21.8463047%" x2="45.2469975%" y2="77.038674%" id="linearGradient-9">
            <stop stop-color="#FFBC49" offset="0%"></stop>
            <stop stop-color="#FDAF31" offset="100%"></stop>
        </linearGradient>
        <path d="M0.67,0.563 C0.377,0.856 0.377,1.332 0.67,1.624 L0.67,1.624 L3.265,4.216 C3.554,4.509 4.029,4.509 4.323,4.219 L4.323,4.219 C4.611,3.924 4.611,3.452 4.323,3.159 L4.323,3.159 L1.726,0.563 C1.58,0.418 1.389,0.345 1.198,0.345 L1.198,0.345 C1.007,0.345 0.816,0.418 0.67,0.563" id="path-10"></path>
        <linearGradient x1="24.7402756%" y1="-53.0061201%" x2="59.5046902%" y2="88.7813209%" id="linearGradient-12">
            <stop stop-color="#FFBC49" offset="0%"></stop>
            <stop stop-color="#FDAF31" offset="100%"></stop>
        </linearGradient>
        <path d="M3.531,0.563 L0.935,3.159 C0.644,3.452 0.644,3.924 0.936,4.219 L0.936,4.219 C1.229,4.509 1.702,4.509 1.993,4.216 L1.993,4.216 L4.59,1.624 C4.882,1.332 4.882,0.856 4.59,0.563 L4.59,0.563 C4.442,0.418 4.25,0.345 4.059,0.345 L4.059,0.345 C3.867,0.345 3.676,0.418 3.531,0.563" id="path-13"></path>
        <linearGradient x1="75.2587822%" y1="-52.9513741%" x2="40.4848898%" y2="88.7577467%" id="linearGradient-15">
            <stop stop-color="#FFBC49" offset="0%"></stop>
            <stop stop-color="#FDAF31" offset="100%"></stop>
        </linearGradient>
        <polygon id="path-16" points="0.689342475 0.854946377 11.7279398 0.854946377 11.7279398 11.8705406 0.689342475 11.8705406"></polygon>
        <polygon id="path-18" points="0 0.177844928 15.1744401 0.177844928 15.1744401 2.69898986 0 2.69898986"></polygon>
        <path d="M46.4859822,24.8851309 L39.342929,87.1159372 C39.342929,87.1159372 20.9133432,94.7993403 10.3851775,97.8166492 L10.3851775,97.8166492 C-0.15252071,100.839246 -2.77714793,107.869058 6.18132544,111.727152 L6.18132544,111.727152 C15.0963728,115.57467 29.0710828,112.255948 39.4509645,110.386126 L39.4509645,110.386126 C49.8393195,108.518419 56.0111124,112.880984 58.7819053,119.761675 L58.7819053,119.761675 C61.5516391,126.640251 74.5603846,165.441173 100.446538,175.955749 L100.446538,175.955749 C102.514041,179.89422 105.633302,189.308901 109.336166,202 L109.336166,202 L178.832651,202 C167.757953,179.571654 159.04203,160.632304 156.325254,151.49577 L156.325254,151.49577 C146.749284,119.302681 146.488728,93.7576126 144.768633,78.0544921 L144.768633,78.0544921 C143.177757,64.1714869 101.161479,1.84232461 101.161479,1.84232461 L101.161479,1.84232461 C99.9021243,0.72973822 98.1237751,0.243244357 95.9694201,0.243244357 L95.9694201,0.243244357 C80.6590947,0.246418848 46.4859822,24.8851309 46.4859822,24.8851309" id="path-20"></path>
        <linearGradient x1="32.9887752%" y1="22.8265214%" x2="77.1805595%" y2="125.361216%" id="linearGradient-22">
            <stop stop-color="#FDBC85" offset="0%"></stop>
            <stop stop-color="#F6A77E" offset="100%"></stop>
        </linearGradient>
        <path d="M0.3968,9.36730435 C-0.158933333,18.7147826 6.2688,22.776 13.3813333,23.4907826 L13.3813333,23.4907826 L15.5232,23.4824348 L15.3322667,0.751304348 L13.4048,0.218086957 C13.4048,0.218086957 13.3856,0.217043478 13.3482667,0.217043478 L13.3482667,0.217043478 C12.4426667,0.217043478 0.9312,0.394434783 0.3968,9.36730435" id="path-23"></path>
        <linearGradient x1="90.5513019%" y1="50.0025341%" x2="-8.72871568%" y2="50.0025341%" id="linearGradient-25">
            <stop stop-color="#FDBC85" offset="0%"></stop>
            <stop stop-color="#FFD8B8" offset="100%"></stop>
        </linearGradient>
        <path d="M0.496842105,11.088 C0.772631579,21.4267826 13.9305263,22.2375652 17.0305263,23.2236522 L17.0305263,23.2236522 L19.6326316,22.8803478 L18.5347368,1.62469565 L16.5747368,0.734608696 C16.5747368,0.734608696 15.0778947,0.474782609 12.9978947,0.474782609 L12.9978947,0.474782609 C8.18315789,0.474782609 0.245263158,1.86573913 0.496842105,11.088" id="path-26"></path>
        <linearGradient x1="75.8732312%" y1="49.999262%" x2="-23.1301891%" y2="49.999262%" id="linearGradient-28">
            <stop stop-color="#FDBC85" offset="0%"></stop>
            <stop stop-color="#FFD8B8" offset="100%"></stop>
        </linearGradient>
        <path d="M3.4943662,2.5606383 C-2.21197183,5.02234043 -0.427816901,24.1265957 30.8577465,27.6755319 L30.8577465,27.6755319 C35.4285211,32.25 44.8795775,80.5574468 71.403169,99.1968085 L71.403169,99.1968085 L73.9933099,31.6659574 C73.9933099,31.6659574 48.2239437,5.59042553 38.8394366,2.62234043 L38.8394366,2.62234043 C34.5042254,1.25212766 27.2028169,0.589361702 20.2246479,0.589361702 L20.2246479,0.589361702 C13.2,0.589361702 6.50387324,1.26170213 3.4943662,2.5606383" id="path-29"></path>
        <linearGradient x1="37.2968003%" y1="-14.806215%" x2="112.983098%" y2="196.22522%" id="linearGradient-31">
            <stop stop-color="#FDBC85" offset="0%"></stop>
            <stop stop-color="#F6A77E" offset="100%"></stop>
        </linearGradient>
        <path d="M21.3433256,0.4579375 C18.2433023,2.526625 16.0884729,7.0921875 15.5723333,8.81875 C13.1180155,9.14175 4.99784496,5.8023125 1.45389922,3.7920625 C0.541627907,3.20025 1.10131008,2.0049375 2.01889147,1.7180625" id="path-32"></path>
        <linearGradient x1="96.8157308%" y1="53.6946854%" x2="57.8848307%" y2="46.4977445%" id="linearGradient-34">
            <stop stop-color="#FBD6F9" offset="0%"></stop>
            <stop stop-color="#FBEBF9" offset="100%"></stop>
        </linearGradient>
    </defs>
    <g id="Registration" stroke="none" stroke-width="1" fill="none" fill-rule="evenodd">
        <g id="0-Onboarding-2" transform="translate(-21.000000, -124.000000)">
            <g id="Group" transform="translate(21.000000, 124.000000)">
                <g filter="url(#filter-1)" id="Group-6">
                    <g transform="translate(0.000000, 27.000000)">
                        <g id="Group-3">
                            <mask id="mask-3" fill="white">
                                <use xlink:href="#path-2"></use>
                            </mask>
                            <g id="Clip-2"></g>
                            <path d="M349.178035,115.750487 C341.900936,128.782724 338.010586,143.919697 338.842681,159.943162 C340.004628,182.244127 352.836267,194.902461 354.219472,221.493118 C356.563727,266.67018 321.913008,305.176803 276.807484,307.527636 C249.448795,308.959346 224.590465,296.69939 208.697856,276.78461 C208.544468,276.836276 186.471552,244.480706 146.657229,246.55689 C129.282324,247.458338 117.442955,254.121978 99.9567422,255.035662 C47.5469703,257.764478 2.85545703,217.431846 0.129768821,164.938513 C-2.59727681,112.430224 37.6717802,67.6787325 90.0856243,64.9471974 C110.611088,63.8757939 123.949043,73.058864 148.854883,71.7603991 C173.396936,70.4823289 194.318765,56.7648289 205.926016,37.0444781 C206.034609,37.0703114 223.811309,2.58009211 270.3204,0.15447807 C315.419138,-2.19499561 353.882833,32.5100482 356.23116,77.6979868 C356.931586,91.1911447 354.273769,104.062943 349.076229,115.591408 C349.115594,115.638996 349.148172,115.694741 349.178035,115.750487" id="Fill-1" fill="#000000" mask="url(#mask-3)"></path>
                        </g>
                        <path d="M160.268948,56.376415 C176.978345,51.0875174 186.59124,34.4461746 181.744449,19.212295 C176.893554,3.97841538 159.753361,1.16758047 143.045331,6.45647798 C126.335934,11.7440117 116.37977,23.1319163 121.229297,38.3657959 C126.078825,53.603767 143.555448,61.6666763 160.268948,56.376415" id="Fill-4" fill="#000000"></path>
                    </g>
                </g>
                <g id="Group-161" transform="translate(20.000000, 0.000000)">
                    <g id="Group-10" transform="translate(61.000000, 24.000000)">
                        <path d="M9.71907619,4.08293103 C10.2125048,3.95251724 10.4471714,3.93434483 11.0883143,3.9322069 L11.1323143,3.9322069 L11.1805048,3.9322069 C11.8237429,3.93434483 12.0584095,3.95251724 12.5486952,4.08293103 C12.8944095,4.17272414 13.1856476,4.29886207 13.4999333,4.41217241 C13.5041238,4.3287931 13.5198381,4.25396552 13.5198381,4.17272414 L13.5198381,2.45810345 C13.5198381,1.11227586 12.4523143,0.0219310345 11.1323143,0.0219310345 C9.81650476,0.0219310345 8.74688571,1.11227586 8.74688571,2.45810345 L8.74688571,4.17272414 C8.74688571,4.25396552 8.7626,4.3287931 8.76888571,4.41217241 C9.08212381,4.29886207 9.37650476,4.17272414 9.71907619,4.08293103" id="Fill-1" fill="#F65662"></path>
                        <path d="M11.1805048,25.1694517 L11.0883143,25.1694517 L7.25717143,25.1694517 L7.25717143,25.4612793 C7.25717143,27.5019345 8.99202857,29.1599 11.1323143,29.1599 C13.2767905,29.1599 15.0095524,27.5019345 15.0095524,25.4612793 L15.0095524,25.1694517 L11.1805048,25.1694517 Z" id="Fill-3" fill="#F65662"></path>
                        <path d="M20.9671524,23.304 C20.2264857,22.4915862 18.8122,20.6561724 18.8122,20.6561724 L18.8122,11.9622759 C18.8122,8.64741379 17.2910571,5.33041379 12.5484857,4.08293103 C12.0582,3.95251724 11.8235333,3.93434483 11.1802952,3.9322069 L11.1321048,3.9322069 L11.0881048,3.9322069 C10.4469619,3.93434483 10.2122952,3.95251724 9.71886667,4.08293103 C4.97524762,5.33041379 3.4562,8.64741379 3.4562,11.9622759 L3.4562,20.6561724 C3.4562,20.6561724 2.04086667,22.4915862 1.30229524,23.304 C0.566866667,24.1121379 0.626580952,25.1693448 1.92562857,25.1693448 L11.0881048,25.1693448 L11.1802952,25.1693448 L20.3459143,25.1693448 C21.6439143,25.1693448 21.7036286,24.1121379 20.9671524,23.304" id="Fill-5" fill="#3EC0E8"></path>
                        <g id="Group-9" transform="translate(11.523810, 4.344828)">
                            <mask id="mask-5" fill="white">
                                <use xlink:href="#path-4"></use>
                            </mask>
                            <g id="Clip-8"></g>
                            <path d="M7.28828571,16.3113448 L7.28828571,7.61744828 C7.28828571,4.70772414 6.11390476,1.798 2.61695238,0.287551724 C3.33457143,0.965275862 5.81952381,3.53934483 5.81952381,6.59765517 L5.81952381,13.0467241 C5.81952381,14.4887586 4.76038095,16.7464138 0.95647619,16.7464138 C0.606571429,16.7464138 0.62647619,17.0863448 0.95647619,17.0863448 L7.89485714,17.0863448 C7.54809524,16.6448621 7.28828571,16.3113448 7.28828571,16.3113448" id="Fill-7" fill="url(#linearGradient-6)" mask="url(#mask-5)"></path>
                        </g>
                    </g>
                    <g id="Group-13" transform="translate(70.000000, 55.000000)">
                        <mask id="mask-8" fill="white">
                            <use xlink:href="#path-7"></use>
                        </mask>
                        <g id="Clip-12"></g>
                        <path d="M0.882,1.181 L0.882,4.851 C0.882,5.264 1.215,5.6 1.626,5.6 L1.626,5.6 C2.043,5.6 2.378,5.264 2.378,4.851 L2.378,4.851 L2.378,1.181 C2.378,0.768 2.043,0.434 1.626,0.434 L1.626,0.434 C1.215,0.434 0.882,0.768 0.882,1.181" id="Fill-11" fill="url(#linearGradient-9)" mask="url(#mask-8)"></path>
                    </g>
                    <g id="Group-16" transform="translate(75.000000, 54.000000)">
                        <mask id="mask-11" fill="white">
                            <use xlink:href="#path-10"></use>
                        </mask>
                        <g id="Clip-15"></g>
                        <path d="M0.67,0.563 C0.377,0.856 0.377,1.332 0.67,1.624 L0.67,1.624 L3.265,4.216 C3.554,4.509 4.029,4.509 4.323,4.219 L4.323,4.219 C4.611,3.924 4.611,3.452 4.323,3.159 L4.323,3.159 L1.726,0.563 C1.58,0.418 1.389,0.345 1.198,0.345 L1.198,0.345 C1.007,0.345 0.816,0.418 0.67,0.563" id="Fill-14" fill="url(#linearGradient-12)" mask="url(#mask-11)"></path>
                    </g>
                    <g id="Group-19" transform="translate(63.000000, 54.000000)">
                        <mask id="mask-14" fill="white">
                            <use xlink:href="#path-13"></use>
                        </mask>
                        <g id="Clip-18"></g>
                        <path d="M3.531,0.563 L0.935,3.159 C0.644,3.452 0.644,3.924 0.936,4.219 L0.936,4.219 C1.229,4.509 1.702,4.509 1.993,4.216 L1.993,4.216 L4.59,1.624 C4.882,1.332 4.882,0.856 4.59,0.563 L4.59,0.563 C4.442,0.418 4.25,0.345 4.059,0.345 L4.059,0.345 C3.867,0.345 3.676,0.418 3.531,0.563" id="Fill-17" fill="url(#linearGradient-15)" mask="url(#mask-14)"></path>
                    </g>
                    <g id="Group-44">
                        <path d="M26.738897,70.0245623 C26.738897,68.173113 28.2465023,66.6665623 30.0997331,66.6665623 C31.9540241,66.6665623 33.4637498,68.173113 33.4637498,70.0245623 C33.4637498,71.8728377 31.9540241,73.3804464 30.0997331,73.3804464 C28.2465023,73.3804464 26.738897,71.8728377 26.738897,70.0245623 M24.3979739,70.0245623 C24.3979739,73.1614464 26.9583585,75.7153884 30.0997331,75.7153884 C33.2453485,75.7153884 35.8046729,73.1614464 35.8046729,70.0245623 C35.8046729,66.8834464 33.2453485,64.3316203 30.0997331,64.3316203 C26.9583585,64.3316203 24.3979739,66.8834464 24.3979739,70.0245623" id="Fill-20" fill="#3EC0E8"></path>
                        <g id="Group-24" transform="translate(304.277592, 120.608696)">
                            <mask id="mask-17" fill="white">
                                <use xlink:href="#path-16"></use>
                            </mask>
                            <g id="Clip-23"></g>
                            <path d="M10.4993793,5.13761304 L7.43539933,5.13761304 L7.43539933,2.0769029 C7.43539933,1.40191739 6.88409498,0.854946377 6.20662676,0.854946377 C5.53021873,0.854946377 4.98209498,1.40191739 4.98209498,2.0769029 L4.98209498,5.13761304 L1.91387425,5.13761304 C1.23852642,5.13761304 0.689342475,5.68458406 0.689342475,6.36274348 C0.689342475,7.03772899 1.23852642,7.58681594 1.91387425,7.58681594 L4.98209498,7.58681594 L4.98209498,10.6454101 C4.98209498,11.3214536 5.53021873,11.8705406 6.20662676,11.8705406 C6.88409498,11.8705406 7.43539933,11.3214536 7.43539933,10.6454101 L7.43539933,7.58681594 L10.4993793,7.58681594 C11.1810883,7.58681594 11.7281518,7.03772899 11.7281518,6.36274348 C11.7281518,5.68458406 11.1810883,5.13761304 10.4993793,5.13761304" id="Fill-22" fill="#3EC0E8" mask="url(#mask-17)"></path>
                        </g>
                        <path d="M129.748736,4.94231159 L126.685816,4.94231159 L126.685816,1.88160145 C126.685816,1.20661594 126.133452,0.659644928 125.457044,0.659644928 C124.779576,0.659644928 124.231452,1.20661594 124.231452,1.88160145 L124.231452,4.94231159 L121.164291,4.94231159 C120.487883,4.94231159 119.938699,5.48928261 119.938699,6.16744203 C119.938699,6.84242754 120.487883,7.39151449 121.164291,7.39151449 L124.231452,7.39151449 L124.231452,10.4501087 C124.231452,11.1261522 124.779576,11.6752391 125.457044,11.6752391 C126.133452,11.6752391 126.685816,11.1261522 126.685816,10.4501087 L126.685816,7.39151449 L129.748736,7.39151449 C130.430445,7.39151449 130.977509,6.84242754 130.977509,6.16744203 C130.977509,5.48928261 130.430445,4.94231159 129.748736,4.94231159" id="Fill-25" fill="#3EC0E8"></path>
                        <path d="M138.789915,288.575136 C137.86118,286.968078 136.274059,284.225817 135.344263,282.622991 L142.234507,282.622991 C141.305772,284.225817 139.716531,286.968078 138.789915,288.575136 M139.60521,290.923832 L144.67933,282.152194 C144.845782,281.86231 144.845782,281.504716 144.67933,281.213774 C144.512879,280.92389 144.20118,280.745093 143.867216,280.745093 L133.715795,280.745093 C133.381832,280.745093 133.069073,280.92389 132.903681,281.213774 C132.730869,281.504716 132.730869,281.86231 132.903681,282.152194 L137.975681,290.923832 C138.143193,291.2116 138.455952,291.394629 138.789915,291.394629 C139.125999,291.394629 139.437698,291.2116 139.60521,290.923832" id="Fill-27" fill="#3EC0E8"></path>
                        <path d="M270.091209,236.561049 C271.039029,237.508991 273.617437,240.079861 274.565256,241.025687 C273.617437,241.974687 271.039029,244.546614 270.091209,245.493499 C269.14339,244.546614 266.564982,241.974687 265.617163,241.025687 C266.564982,240.079861 269.14339,237.508991 270.091209,236.561049 L270.091209,236.561049 Z M263.486159,240.317904 C263.093885,240.71147 263.093885,241.343078 263.486159,241.737701 L269.381935,247.618962 C269.772089,248.01147 270.40927,248.01147 270.800484,247.618962 L276.69626,241.737701 C277.088534,241.343078 277.088534,240.71147 276.69626,240.317904 L270.800484,234.43347 C270.40927,234.044136 269.772089,234.044136 269.381935,234.43347 L263.486159,240.317904 Z" id="Fill-29" fill="#3EC0E8"></path>
                        <g id="Group-33" transform="translate(0.000000, 130.130435)">
                            <mask id="mask-19" fill="white">
                                <use xlink:href="#path-18"></use>
                            </mask>
                            <g id="Clip-32"></g>
                            <path d="M1.26566756,0.177844928 C0.568055518,0.177844928 -0.000212040134,0.740685507 -0.000212040134,1.44000435 C-0.000212040134,2.13614928 0.568055518,2.69898986 1.26566756,2.69898986 L13.9043197,2.69898986 C14.6093532,2.69898986 15.1744401,2.13614928 15.1744401,1.44000435 C15.1744401,0.740685507 14.6093532,0.177844928 13.9043197,0.177844928 L1.26566756,0.177844928 Z" id="Fill-31" fill="#3EC0E8" mask="url(#mask-19)"></path>
                        </g>
                        <path d="M19.3253378,130.30828 C18.6234849,130.30828 18.0594582,130.87112 18.0594582,131.570439 C18.0594582,132.266584 18.6234849,132.829425 19.3253378,132.829425 L21.6429365,132.829425 C22.3394883,132.829425 22.9035151,132.266584 22.9035151,131.570439 C22.9035151,130.87112 22.3394883,130.30828 21.6429365,130.30828 L19.3253378,130.30828 Z" id="Fill-34" fill="#3EC0E8"></path>
                        <path d="M193.170788,1.95333188 C192.474236,1.95333188 191.905969,2.51617246 191.905969,3.21654928 C191.905969,3.91163623 192.474236,4.47553478 193.170788,4.47553478 L205.810501,4.47553478 C206.515534,4.47553478 207.079561,3.91163623 207.079561,3.21654928 C207.079561,2.51617246 206.515534,1.95333188 205.810501,1.95333188 L193.170788,1.95333188 Z" id="Fill-36" fill="#3EC0E8"></path>
                        <path d="M211.231413,1.95333188 C210.52956,1.95333188 209.965533,2.51617246 209.965533,3.21654928 C209.965533,3.91163623 210.52956,4.47553478 211.231413,4.47553478 L213.549011,4.47553478 C214.245563,4.47553478 214.80959,3.91163623 214.80959,3.21654928 C214.80959,2.51617246 214.245563,1.95333188 213.549011,1.95333188 L211.231413,1.95333188 Z" id="Fill-38" fill="#3EC0E8"></path>
                        <path d="M303.306342,70.0261493 C304.003954,70.0261493 304.572222,69.4633087 304.572222,68.7639899 C304.572222,68.0678449 304.003954,67.5050043 303.306342,67.5050043 L290.663449,67.5050043 C289.962657,67.5050043 289.39863,68.0678449 289.39863,68.7639899 C289.39863,69.4633087 289.962657,70.0261493 290.663449,70.0261493 L303.306342,70.0261493 Z" id="Fill-40" fill="#3EC0E8"></path>
                        <path d="M285.246672,70.0261493 C285.947465,70.0261493 286.512552,69.4633087 286.512552,68.7639899 C286.512552,68.0678449 285.947465,67.5050043 285.246672,67.5050043 L282.929073,67.5050043 C282.232521,67.5050043 281.668495,68.0678449 281.668495,68.7639899 C281.668495,69.4633087 282.232521,70.0261493 282.929073,70.0261493 L285.246672,70.0261493 Z" id="Fill-42" fill="#3EC0E8"></path>
                    </g>
                    <g id="Group-47" transform="translate(104.000000, 151.000000)">
                        <mask id="mask-21" fill="white">
                            <use xlink:href="#path-20"></use>
                        </mask>
                        <g id="Clip-46"></g>
                        <path d="M46.4859822,24.8851309 L39.342929,87.1159372 C39.342929,87.1159372 20.9133432,94.7993403 10.3851775,97.8166492 L10.3851775,97.8166492 C-0.15252071,100.839246 -2.77714793,107.869058 6.18132544,111.727152 L6.18132544,111.727152 C15.0963728,115.57467 29.0710828,112.255948 39.4509645,110.386126 L39.4509645,110.386126 C49.8393195,108.518419 56.0111124,112.880984 58.7819053,119.761675 L58.7819053,119.761675 C61.5516391,126.640251 74.5603846,165.441173 100.446538,175.955749 L100.446538,175.955749 C102.514041,179.89422 105.633302,189.308901 109.336166,202 L109.336166,202 L178.832651,202 C167.757953,179.571654 159.04203,160.632304 156.325254,151.49577 L156.325254,151.49577 C146.749284,119.302681 146.488728,93.7576126 144.768633,78.0544921 L144.768633,78.0544921 C143.177757,64.1714869 101.161479,1.84232461 101.161479,1.84232461 L101.161479,1.84232461 C99.9021243,0.72973822 98.1237751,0.243244357 95.9694201,0.243244357 L95.9694201,0.243244357 C80.6590947,0.246418848 46.4859822,24.8851309 46.4859822,24.8851309" id="Fill-45" fill="url(#linearGradient-22)" mask="url(#mask-21)"></path>
                    </g>
                    <g id="Group-52" transform="translate(142.000000, 151.000000)" fill="#FEB783">
                        <path d="M63.4248118,1.846308 C63.4248118,1.846308 64.9297066,4.067008 67.3767592,7.753688 C67.8894039,23.732128 69.099075,56.368468 70.5059171,58.735448 C72.3710487,61.874108 80.1299961,72.781508 80.1299961,72.781508 C80.1299961,72.781508 66.1169961,60.674188 60.0153513,55.787588 C55.1745355,51.903748 57.2165882,15.210788 58.2567987,0.251008 C60.3958382,0.258428 62.1703776,0.740728 63.4248118,1.846308" id="Fill-48"></path>
                        <path d="M4.246425,94.422892 L4.56616184,91.629792 L51.3298066,92.131172 L56.1663592,105.282592 L0.847622368,95.805132 C2.93763553,94.962432 4.246425,94.422892 4.246425,94.422892" id="Fill-50"></path>
                    </g>
                    <g id="Group-55" transform="translate(90.000000, 164.000000)">
                        <mask id="mask-24" fill="white">
                            <use xlink:href="#path-23"></use>
                        </mask>
                        <g id="Clip-54"></g>
                        <path d="M0.3968,9.36730435 C-0.158933333,18.7147826 6.2688,22.776 13.3813333,23.4907826 L13.3813333,23.4907826 L15.5232,23.4824348 L15.3322667,0.751304348 L13.4048,0.218086957 C13.4048,0.218086957 13.3856,0.217043478 13.3482667,0.217043478 L13.3482667,0.217043478 C12.4426667,0.217043478 0.9312,0.394434783 0.3968,9.36730435" id="Fill-53" fill="url(#linearGradient-25)" mask="url(#mask-24)"></path>
                    </g>
                    <g id="Group-58" transform="translate(87.000000, 207.000000)">
                        <mask id="mask-27" fill="white">
                            <use xlink:href="#path-26"></use>
                        </mask>
                        <g id="Clip-57"></g>
                        <path d="M0.496842105,11.088 C0.772631579,21.4267826 13.9305263,22.2375652 17.0305263,23.2236522 L17.0305263,23.2236522 L19.6326316,22.8803478 L18.5347368,1.62469565 L16.5747368,0.734608696 C16.5747368,0.734608696 15.0778947,0.474782609 12.9978947,0.474782609 L12.9978947,0.474782609 C8.18315789,0.474782609 0.245263158,1.86573913 0.496842105,11.088" id="Fill-56" fill="url(#linearGradient-28)" mask="url(#mask-27)"></path>
                    </g>
                    <g id="Group-103" transform="translate(102.000000, 33.000000)">
                        <path d="M93.3253552,0.17250754 C100.074307,0.17250754 105.568803,5.6425117 105.575187,12.3689514 L105.658187,202.365427 C105.665627,209.092927 100.173259,214.570352 93.4221792,214.570352 L13.5104592,214.60217 C6.7604432,214.610643 1.2670112,209.140639 1.2638192,202.409959 L1.18188363,12.4177245 C1.1744432,5.68598333 6.6625552,0.217040071 13.4136352,0.210678369 L93.3253552,0.17250754 Z" id="Fill-59" fill="#EFEFEF"></path>
                        <path d="M0.2929192,65.9152922 C0.2961112,66.717927 0.7014952,67.3668206 1.1951912,67.3647458 C1.6920792,67.3710617 2.0921432,66.7136858 2.0878872,65.9121113 L2.0804392,44.5792035 C2.0846952,43.7797496 1.6761192,43.1244943 1.1824232,43.1266098 C0.6855352,43.1266098 0.2886632,43.7797496 0.2844072,44.5792035 L0.2929192,65.9152922 Z" id="Fill-61" fill="#EFEFEF"></path>
                        <path d="M105.058509,72.6145887 C105.058509,73.411922 105.436229,74.0692979 105.904389,74.0692979 C106.367229,74.066117 106.750269,73.411922 106.750269,72.6145887 L106.741757,60.2654645 C106.741757,59.4670709 106.361909,58.8160567 105.895877,58.8139362 C105.434101,58.8139362 105.051061,59.4691915 105.051061,60.2686454 L105.058509,72.6145887 Z" id="Fill-63" fill="#EFEFEF"></path>
                        <path d="M105.051167,55.4279202 C105.051167,56.2252535 105.431015,56.8815691 105.895983,56.8794537 C106.360951,56.8752074 106.739735,56.2241933 106.741863,55.4279202 L106.735479,43.0787961 C106.737607,42.2804025 106.353503,41.6272677 105.887471,41.6293831 C105.423567,41.6272677 105.046911,42.282523 105.046911,43.0787961 L105.051167,55.4279202 Z" id="Fill-65" fill="#EFEFEF"></path>
                        <path d="M105.042868,37.0282872 C105.042868,37.8266809 105.422716,38.4819362 105.887684,38.4798207 C106.352652,38.4798207 106.733564,37.8224397 106.731445,37.0282872 L106.72718,28.797305 C106.729308,28.0020922 106.347332,27.3468369 105.882364,27.3489523 C105.419524,27.3468369 105.038612,28.0020922 105.036484,28.797305 L105.042868,37.0282872 Z" id="Fill-67" fill="#EFEFEF"></path>
                        <path d="M1.8458272,202.409746 C1.8458272,208.804317 7.0998592,214.029395 13.5104592,214.029395 L93.4200512,213.989105 C99.8327792,213.989105 105.079363,208.757665 105.07511,202.360973 L104.992115,12.3697996 C104.985731,5.97840957 99.7380832,0.751210993 93.3253552,0.757566894 L13.4136352,0.789381206 C6.9987792,0.79362234 1.7532592,6.02294149 1.76069928,12.4153918 L1.8458272,202.409746 Z" id="Fill-69" fill="#0B1E2B"></path>
                        <polygon id="Fill-71" fill="#3EC0E8" points="5.1505048 198.874761 101.752129 198.820686 101.681905 15.9122074 5.0813448 15.9599202"></polygon>
                        <path d="M98.6900432,225.243062 C104.925083,240.008572 113.800971,256.286048 126.888171,265.387523 C126.888171,265.387523 118.391067,262.107005 113.557315,256.14397 C101.517091,241.296817 95.4363312,222.117345 90.6802512,208.82881 L89.4704832,204.596157 C89.4704832,204.596157 95.8874672,218.604626 98.6900432,225.243062" id="Fill-73" fill="#FEB783"></path>
                        <path d="M132.095919,205.06353 L127.923975,199.948722 C127.783527,199.811945 114.709095,185.087786 103.777559,176.599155 C103.777559,176.599155 112.434263,182.093545 116.136983,185.428137 C123.466879,192.029463 124.163799,192.592474 126.148159,194.898591 C130.759535,200.250903 132.095919,205.06353 132.095919,205.06353" id="Fill-75" fill="#FEB783"></path>
                        <path d="M102.899334,276.428681 C103.614342,278.553489 106.688238,287.128004 110.805918,298.501667 L105.960462,298.501667 C102.647166,287.174656 99.8584216,278.769787 98.0091896,275.256007 C84.0867496,269.606816 74.3330616,254.834943 68.2278296,242.616234 C73.4818616,249.70317 84.7304696,264.075316 91.8475656,267.368557 C98.5379976,270.464585 105.641262,267.712089 106.570134,267.327206 C105.791286,267.663316 100.767078,270.101968 102.899334,276.428681" id="Fill-77" fill="#FEB783"></path>
                        <path d="M55.367368,171.966457 C49.61964,174.421014 51.415672,193.461588 82.92816,196.998695 C84.499688,198.554131 86.644712,205.190446 89.850544,213.991861 L93.420264,213.989741 C99.832992,213.989741 105.079576,208.758301 105.075323,202.36161 L105.066808,181.437971 C99.559544,176.890415 94.264016,173.06067 90.968808,172.029014 C82.20464,169.28818 61.40876,169.386787 55.367368,171.966457" id="Fill-79" fill="#000000"></path>
                        <path d="M94.4642608,169.23962 C94.4642608,175.318226 89.5230448,180.240063 83.4273888,180.240063 L28.6516048,180.240063 C22.5570128,180.240063 17.6136688,175.318226 17.6136688,169.23962 L17.6136688,41.1075167 C17.6136688,35.0331514 22.5570128,30.109194 28.6516048,30.109194 L83.4273888,30.109194 C89.5230448,30.109194 94.4642608,35.0331514 94.4642608,41.1075167 L94.4642608,169.23962 Z" id="Fill-81" fill="#000000"></path>
                        <path d="M91.5132568,166.297438 C91.5132568,172.373924 86.5720408,177.296821 80.4774488,177.296821 L25.7016648,177.296821 C19.6060088,177.296821 14.6637288,172.373924 14.6637288,166.297438 L14.6637288,38.1642752 C14.6637288,32.0899099 19.6060088,27.1648922 25.7016648,27.1648922 L80.4774488,27.1648922 C86.5720408,27.1648922 91.5132568,32.0899099 91.5132568,38.1642752 L91.5132568,166.297438 Z" id="Fill-83" fill="#FFFFFF"></path>
                        <path d="M73.3198144,63.7237918 C73.3198144,74.8207209 64.2758144,83.832072 53.1314784,83.832072 C41.9796944,83.832072 32.9388864,74.8207209 32.9388864,63.7237918 C32.9388864,52.6024762 41.9796944,43.5911252 53.1314784,43.5911252 C64.2758144,43.5911252 73.3198144,52.6024762 73.3198144,63.7237918" id="Fill-85" fill="#664BC4"></path>
                        <path d="M58.9318744,55.9823426 C58.9318744,55.9823426 53.1692504,63.2569489 50.6113944,66.486573 C49.0334824,64.8441936 47.3108664,63.0607965 47.3108664,63.0607965 C46.2681464,61.9761262 44.5348904,61.937956 43.4400344,62.9823355 C42.3515624,64.0256546 42.3143224,65.7528567 43.3591704,66.8385872 L48.8366424,72.5217078 C49.3856664,73.0921404 50.1549384,73.3985624 50.9486824,73.3603922 C51.7371064,73.322222 52.4691384,72.9468816 52.9596424,72.3255553 L63.2283064,59.3667681 C64.1646264,58.1824312 63.9624664,56.4658319 62.7750424,55.5380837 C61.5865544,54.5997326 59.8671304,54.8033071 58.9318744,55.9823426" id="Fill-87" fill="#FFFFFF"></path>
                        <path d="M32.7937568,100.875178 C32.7937568,101.672511 33.4417328,102.313983 34.2376048,102.313983 L71.4212128,102.313983 C72.2224048,102.313983 72.8650608,101.672511 72.8650608,100.875178 C72.8650608,100.082086 72.2224048,99.4374333 71.4212128,99.4374333 L34.2376048,99.4374333 C33.4417328,99.4374333 32.7937568,100.082086 32.7937568,100.875178" id="Fill-89" fill="#BDD1E9"></path>
                        <path d="M21.7235816,108.95719 C21.7235816,109.751343 22.3726216,110.397056 23.1674296,110.397056 L68.7736616,110.397056 C69.5727256,110.397056 70.2175096,109.751343 70.2175096,108.95719 C70.2175096,108.159857 69.5727256,107.520506 68.7736616,107.520506 L23.1674296,107.520506 C22.3726216,107.520506 21.7235816,108.159857 21.7235816,108.95719" id="Fill-91" fill="#BDD1E9"></path>
                        <path d="M73.4720728,108.95719 C73.4720728,109.751343 74.1147288,110.397056 74.9159208,110.397056 L82.4916008,110.397056 C83.2917288,110.397056 83.9354488,109.751343 83.9354488,108.95719 C83.9354488,108.159857 83.2917288,107.520506 82.4916008,107.520506 L74.9159208,107.520506 C74.1147288,107.520506 73.4720728,108.159857 73.4720728,108.95719" id="Fill-93" fill="#BDD1E9"></path>
                        <path d="M34.8687696,125.115172 C34.8687696,125.907204 35.5178096,126.553977 36.3136816,126.553977 L69.3455616,126.553977 C70.1403696,126.553977 70.7883456,125.907204 70.7883456,125.115172 C70.7883456,124.316778 70.1403696,123.676367 69.3455616,123.676367 L36.3136816,123.676367 C35.5178096,123.676367 34.8687696,124.316778 34.8687696,125.115172" id="Fill-95" fill="#BDD1E9"></path>
                        <path d="M21.7235816,117.035704 C21.7235816,117.829856 22.3726216,118.476629 23.1674296,118.476629 L44.8283416,118.476629 C45.6220856,118.476629 46.2721896,117.829856 46.2721896,117.035704 C46.2721896,116.23731 45.6220856,115.596899 44.8283416,115.596899 L23.1674296,115.596899 C22.3726216,115.596899 21.7235816,116.23731 21.7235816,117.035704" id="Fill-97" fill="#BDD1E9"></path>
                        <path d="M49.5205816,117.035704 C49.5205816,117.829856 50.1696216,118.476629 50.9644296,118.476629 L82.4918136,118.476629 C83.2919416,118.476629 83.9356616,117.829856 83.9356616,117.035704 C83.9356616,116.23731 83.2919416,115.596899 82.4918136,115.596899 L50.9644296,115.596899 C50.1696216,115.596899 49.5205816,116.23731 49.5205816,117.035704" id="Fill-99" fill="#BDD1E9"></path>
                        <path d="M76.9035792,160.787886 C76.9035792,163.733354 74.5095792,166.120053 71.5527232,166.120053 L33.5881392,166.120053 C30.6334112,166.120053 28.2372832,163.733354 28.2372832,160.787886 C28.2372832,157.843478 30.6334112,155.45678 33.5881392,155.45678 L71.5527232,155.45678 C74.5095792,155.45678 76.9035792,157.843478 76.9035792,160.787886" id="Fill-101" fill="#3EC0E8"></path>
                    </g>
                    <g id="Group-106" transform="translate(156.000000, 201.000000)">
                        <mask id="mask-30" fill="white">
                            <use xlink:href="#path-29"></use>
                        </mask>
                        <g id="Clip-105"></g>
                        <path d="M3.4943662,2.5606383 C-2.21197183,5.02234043 -0.427816901,24.1265957 30.8577465,27.6755319 L30.8577465,27.6755319 C35.4285211,32.25 44.8795775,80.5574468 71.403169,99.1968085 L71.403169,99.1968085 L73.9933099,31.6659574 C73.9933099,31.6659574 48.2239437,5.59042553 38.8394366,2.62234043 L38.8394366,2.62234043 C34.5042254,1.25212766 27.2028169,0.589361702 20.2246479,0.589361702 L20.2246479,0.589361702 C13.2,0.589361702 6.50387324,1.26170213 3.4943662,2.5606383" id="Fill-104" fill="url(#linearGradient-31)" mask="url(#mask-30)"></path>
                    </g>
                    <g id="Group-158" transform="translate(32.000000, 84.000000)">
                        <g id="Group-109" transform="translate(127.441860, 117.937500)">
                            <mask id="mask-33" fill="white">
                                <use xlink:href="#path-32"></use>
                            </mask>
                            <g id="Clip-108"></g>
                            <path d="M2.01889147,1.7180625 C6.61317054,0.286875 16.6216047,-0.1615 21.3433256,0.4579375 C18.2433023,2.526625 16.0884729,7.0921875 15.5723333,8.81875 C13.1180155,9.14175 4.99784496,5.8023125 1.45389922,3.7920625 C0.541627907,3.20025 1.10131008,2.0049375 2.01889147,1.7180625" id="Fill-107" fill="url(#linearGradient-34)" mask="url(#mask-33)"></path>
                        </g>
                        <path d="M165.906681,121.380425 C165.906681,121.380425 159.21917,124.811238 157.152488,128.487487 C156.35279,129.917612 154.629139,134.99955 154.629139,134.99955 C154.629139,134.99955 154.690736,131.252112 156.437751,127.725675 C158.585147,123.386425 165.326821,121.317737 165.581705,121.279487 L165.906681,121.380425 Z" id="Fill-110" fill="#FEB783"></path>
                        <path d="M67.7366233,120.310063 C67.7366233,125.4515 63.5745845,129.6165 58.4376155,129.6165 L12.2845457,129.6165 C7.14651473,129.6165 2.98235194,125.4515 2.98235194,120.310063 L2.98235194,11.9180625 C2.98235194,6.7776875 7.14651473,2.61375 12.2845457,2.61375 L58.4376155,2.61375 C63.5745845,2.61375 67.7366233,6.7776875 67.7366233,11.9180625 L67.7366233,120.310063 Z" id="Fill-112" fill="#000000"></path>
                        <path d="M65.2510822,117.822431 C65.2510822,122.961744 61.0890434,127.127806 55.9510124,127.127806 L9.79688062,127.127806 C4.66097364,127.127806 0.496810853,122.961744 0.496810853,117.822431 L0.496810853,9.42724375 C0.496810853,4.29005625 4.66097364,0.12293125 9.79688062,0.12293125 L55.9510124,0.12293125 C61.0890434,0.12293125 65.2510822,4.29005625 65.2510822,9.42724375 L65.2510822,117.822431 Z" id="Fill-114" fill="#FFFFFF"></path>
                        <path d="M15.7730543,60.5699375 C15.7730543,61.2456875 16.3189302,61.7875625 16.990124,61.7875625 L48.3206434,61.7875625 C48.9960853,61.7875625 49.5366512,61.2456875 49.5366512,60.5699375 C49.5366512,59.8995 48.9960853,59.3544375 48.3206434,59.3544375 L16.990124,59.3544375 C16.3189302,59.3544375 15.7730543,59.8995 15.7730543,60.5699375" id="Fill-116" fill="#DBE0E3"></path>
                        <path d="M6.4456907,67.407125 C6.4456907,68.0796875 6.99262868,68.626875 7.66276047,68.626875 L46.0907295,68.626875 C46.7629853,68.626875 47.3067372,68.0796875 47.3067372,67.407125 C47.3067372,66.7324375 46.7629853,66.1926875 46.0907295,66.1926875 L7.66276047,66.1926875 C6.99262868,66.1926875 6.4456907,66.7324375 6.4456907,67.407125" id="Fill-118" fill="#DBE0E3"></path>
                        <path d="M50.0489674,67.407125 C50.0489674,68.0796875 50.5905953,68.626875 51.2649752,68.626875 L57.6498124,68.626875 C58.3241922,68.626875 58.8658202,68.0796875 58.8658202,67.407125 C58.8658202,66.7324375 58.3241922,66.1926875 57.6498124,66.1926875 L51.2649752,66.1926875 C50.5905953,66.1926875 50.0489674,66.7324375 50.0489674,67.407125" id="Fill-120" fill="#DBE0E3"></path>
                        <path d="M17.5220876,81.0769312 C17.5220876,81.7452437 18.0690256,82.2945562 18.7391574,82.2945562 L46.5724597,82.2945562 C47.2425915,82.2945562 47.7884674,81.7452437 47.7884674,81.0769312 C47.7884674,80.4001187 47.2425915,79.8593063 46.5724597,79.8593063 L18.7391574,79.8593063 C18.0690256,79.8593063 17.5220876,80.4001187 17.5220876,81.0769312" id="Fill-122" fill="#DBE0E3"></path>
                        <path d="M6.4456907,74.2412312 C6.4456907,74.9137938 6.99262868,75.4609812 7.66276047,75.4609812 L25.9134969,75.4609812 C26.5836287,75.4609812 27.1316287,74.9137938 27.1316287,74.2412312 C27.1316287,73.5665438 26.5836287,73.0246687 25.9134969,73.0246687 L7.66276047,73.0246687 C6.99262868,73.0246687 6.4456907,73.5665438 6.4456907,74.2412312" id="Fill-124" fill="#DBE0E3"></path>
                        <path d="M29.8680178,74.2412312 C29.8680178,74.9137938 30.4149558,75.4609812 31.0840256,75.4609812 L57.6492814,75.4609812 C58.3236612,75.4609812 58.8663512,74.9137938 58.8663512,74.2412312 C58.8663512,73.5665438 58.3236612,73.0246687 57.6492814,73.0246687 L31.0840256,73.0246687 C30.4149558,73.0246687 29.8680178,73.5665438 29.8680178,74.2412312" id="Fill-126" fill="#DBE0E3"></path>
                        <path d="M52.9404109,113.161031 C52.9404109,115.653656 50.9225814,117.672406 48.432155,117.672406 L16.442124,117.672406 C13.9527597,117.672406 11.9349302,115.653656 11.9349302,113.161031 C11.9349302,110.669469 13.9527597,108.651781 16.442124,108.651781 L48.432155,108.651781 C50.9225814,108.651781 52.9404109,110.669469 52.9404109,113.161031" id="Fill-128" fill="#3EC0E8"></path>
                        <path d="M48.2231504,37.316275 C50.9748326,34.524025 52.6783054,30.6937125 52.6783054,26.4670875 C52.6783054,17.9129 45.7475922,10.98115 37.2100496,10.98115 C29.8948868,10.98115 23.7808636,16.0673375 22.167662,22.896025 C22.2239488,22.8949625 22.2759876,22.887525 22.3312124,22.887525 C29.0537705,22.887525 34.5104062,28.34665 34.5104062,35.0829 C34.5104062,37.3513375 33.877445,39.466775 32.7963132,41.2868375 C34.1960496,41.702275 35.6754372,41.9339 37.2100496,41.9339 C40.4608791,41.9339 43.4738171,40.924525 45.9653054,39.20965 L50.0901736,41.75115 L48.2231504,37.316275 Z" id="Fill-130" fill="#DBE0E3"></path>
                        <path d="M22.3307876,23.985725 C16.2082682,23.985725 11.2444078,28.9529125 11.2444078,35.0814125 C11.2444078,39.3824125 13.724214,43.0714125 17.3074543,44.908475 L17.017524,48.4072875 L19.7065473,45.817975 C20.5519116,46.0241 21.4227643,46.1654125 22.3307876,46.1654125 C28.4479969,46.1654125 33.4139814,41.1992875 33.4139814,35.0814125 C33.4139814,28.9529125 28.4479969,23.985725 22.3307876,23.985725" id="Fill-132" fill="#DBE0E3"></path>
                        <path d="M248.612095,120.310063 C248.612095,125.4515 244.447932,129.6165 239.312025,129.6165 L193.158955,129.6165 C188.021986,129.6165 183.855699,125.4515 183.855699,120.310063 L183.855699,11.9180625 C183.855699,6.7776875 188.021986,2.61375 193.158955,2.61375 L239.312025,2.61375 C244.447932,2.61375 248.612095,6.7776875 248.612095,11.9180625 L248.612095,120.310063 Z" id="Fill-134" fill="#000000"></path>
                        <path d="M246.125067,117.822431 C246.125067,122.961744 241.960904,127.127806 236.824997,127.127806 L190.670865,127.127806 C185.534958,127.127806 181.368671,122.961744 181.368671,117.822431 L181.368671,9.42724375 C181.368671,4.29005625 185.534958,0.12293125 190.670865,0.12293125 L236.824997,0.12293125 C241.960904,0.12293125 246.125067,4.29005625 246.125067,9.42724375 L246.125067,117.822431 Z" id="Fill-136" fill="#FFFFFF"></path>
                        <path d="M196.648101,61.2588625 C196.648101,61.9346125 197.192915,62.475425 197.863047,62.475425 L229.194628,62.475425 C229.871132,62.475425 230.41276,61.9346125 230.41276,61.2588625 C230.41276,60.588425 229.871132,60.0423 229.194628,60.0423 L197.863047,60.0423 C197.192915,60.0423 196.648101,60.588425 196.648101,61.2588625" id="Fill-138" fill="#DBE0E3"></path>
                        <path d="M187.322224,68.095625 C187.322224,68.7681875 187.867038,69.315375 188.53717,69.315375 L226.963015,69.315375 C227.637395,69.315375 228.180084,68.7681875 228.180084,68.095625 C228.180084,67.4209375 227.637395,66.88225 226.963015,66.88225 L188.53717,66.88225 C187.867038,66.88225 187.322224,67.4209375 187.322224,68.095625" id="Fill-140" fill="#DBE0E3"></path>
                        <path d="M230.92189,68.095625 C230.92189,68.7681875 231.46458,69.315375 232.13896,69.315375 L238.522735,69.315375 C239.197115,69.315375 239.738743,68.7681875 239.738743,68.095625 C239.738743,67.4209375 239.197115,66.88225 238.522735,66.88225 L232.13896,66.88225 C231.46458,66.88225 230.92189,67.4209375 230.92189,68.095625" id="Fill-142" fill="#DBE0E3"></path>
                        <path d="M198.395647,81.7659625 C198.395647,82.434275 198.945771,82.9835875 199.614841,82.9835875 L227.447081,82.9835875 C228.115089,82.9835875 228.663089,82.434275 228.663089,81.7659625 C228.663089,81.08915 228.115089,80.5483375 227.447081,80.5483375 L199.614841,80.5483375 C198.945771,80.5483375 198.395647,81.08915 198.395647,81.7659625" id="Fill-144" fill="#DBE0E3"></path>
                        <path d="M187.322224,74.9297312 C187.322224,75.6022938 187.867038,76.1494812 188.53717,76.1494812 L206.788968,76.1494812 C207.456976,76.1494812 208.004976,75.6022938 208.004976,74.9297312 C208.004976,74.2550437 207.456976,73.7142312 206.788968,73.7142312 L188.53717,73.7142312 C187.867038,73.7142312 187.322224,74.2550437 187.322224,74.9297312" id="Fill-146" fill="#DBE0E3"></path>
                        <path d="M210.741578,74.9297312 C210.741578,75.6022938 211.289578,76.1494812 211.958647,76.1494812 L238.522841,76.1494812 C239.197221,76.1494812 239.738849,75.6022938 239.738849,74.9297312 C239.738849,74.2550437 239.197221,73.7142312 238.522841,73.7142312 L211.958647,73.7142312 C211.289578,73.7142312 210.741578,74.2550437 210.741578,74.9297312" id="Fill-148" fill="#DBE0E3"></path>
                        <path d="M233.814502,113.161031 C233.814502,115.653656 231.797734,117.672406 229.306246,117.672406 L197.318339,117.672406 C194.82685,117.672406 192.809021,115.653656 192.809021,113.161031 C192.809021,110.669469 194.82685,108.651781 197.318339,108.651781 L229.306246,108.651781 C231.797734,108.651781 233.814502,110.669469 233.814502,113.161031" id="Fill-150" fill="#3EC0E8"></path>
                        <path d="M212.665419,13.6902062 C213.132705,12.5767062 213.896295,12.5767062 214.365705,13.6902062 L218.068953,22.5206437 C218.537302,23.6352062 219.905178,24.6307687 221.108442,24.7295813 L230.651713,25.5264563 C231.853915,25.6263312 232.089682,26.3552062 231.174225,27.1457062 L223.924907,33.3985188 C223.008388,34.1879562 222.488,35.7965813 222.762,36.9748937 L224.956124,46.2940812 C225.231186,47.4723937 224.610969,47.9218312 223.577628,47.2949563 L215.393736,42.3298938 C214.361457,41.7030187 212.669667,41.7030187 211.635264,42.3298938 L203.452434,47.2949563 C202.419093,47.9218312 201.799938,47.4723937 202.072876,46.2940812 L204.268062,36.9748937 C204.543124,35.7965813 204.021674,34.1879562 203.105155,33.3985188 L195.856899,27.1457062 C194.94038,26.3552062 195.176147,25.6263312 196.379411,25.5264563 L205.920558,24.7295813 C207.123822,24.6307687 208.49276,23.6352062 208.961109,22.5206437 L212.665419,13.6902062 Z" id="Fill-152" fill="#DBE0E3"></path>
                        <path d="M229.286386,67.5223 C224.936371,63.1703 224.936371,56.0898 229.286386,51.7378 C233.636402,47.3858 240.713673,47.3858 245.06475,51.7378 C249.415828,56.0898 249.415828,63.1703 245.06475,67.5223 C240.713673,71.8743 233.636402,71.8743 229.286386,67.5223 M246.175619,71.0083625 L255.058316,79.891925 L257.427673,77.520425 L248.548161,68.6347375 C253.057479,62.9418625 252.692146,54.62355 247.436231,49.3652375 C241.779936,43.7042375 232.573324,43.7042375 226.914905,49.3652375 C221.257549,55.025175 221.257549,64.234925 226.914905,69.8948625 C232.17082,75.1521125 240.48534,75.5197375 246.175619,71.0083625" id="Fill-154" fill="#3EC0E8"></path>
                        <path d="M266.815784,95.1146813 C268.422613,96.7222438 271.033047,96.7222438 272.643063,95.1146813 C274.249892,93.5007437 274.249892,90.8923063 272.643063,89.2826187 L258.415241,75.0493688 C256.80735,73.4396812 254.193729,73.4396812 252.5869,75.0493688 C250.980071,76.6579937 250.980071,79.2696187 252.5869,80.8793063 L266.815784,95.1146813 Z" id="Fill-156" fill="#FB1A16"></path>
                    </g>
                    <path d="M258.195494,38.4761097 C259.802808,38.279531 261.130635,37.5925626 262.180047,36.4130905 C263.227317,35.2357322 263.752023,33.7772452 263.752023,32.0397434 C263.752023,30.5590621 263.381517,29.3690213 262.638362,28.469621 C261.896277,27.5712776 260.414251,26.7659391 258.195494,26.0567763 L258.195494,38.4761097 Z M255.761501,10.2829229 C254.154187,10.5249472 252.887397,11.1590719 251.96113,12.186354 C251.034864,13.2136361 250.572266,14.4300988 250.572266,15.835742 C250.572266,17.2255321 250.96526,18.3891511 251.75339,19.325542 C252.54259,20.2619329 253.878984,21.0102001 255.761501,21.5692867 L255.761501,10.2829229 Z M255.761501,44.7993905 L255.761501,41.920464 C253.694802,41.6636435 252.014672,41.2070737 250.721111,40.5496977 C249.42755,39.8923217 248.310676,38.8312196 247.368347,37.3653345 C246.774037,36.4395124 246.337139,35.3847515 246.056582,34.201052 C245.776025,33.0162955 246.568438,31.8378804 247.777403,31.6138229 C248.887853,31.4087893 249.984381,32.0777909 250.269221,33.155803 C250.593682,34.3891756 251.031651,35.3541021 251.582057,36.0516394 C252.744977,37.5016713 254.138125,38.3101804 255.761501,38.4761097 L255.761501,25.4892346 C254.062096,25.1732291 252.325212,24.5232512 250.548708,23.5414147 C249.232659,22.8153419 248.218585,21.8102541 247.506484,20.5272084 C246.794383,19.2420489 246.438868,17.7846188 246.438868,16.1528044 C246.438868,13.2516836 247.478642,10.9022514 249.561404,9.10345082 C250.954552,7.89544315 253.021251,7.15563093 255.761501,6.88295728 L255.761501,4.20166642 C255.761501,3.53794917 256.305482,3 256.977962,3 C257.650442,3 258.195494,3.53794917 258.195494,4.20166642 L258.195494,6.88295728 C260.598433,7.11018532 262.504508,7.80455193 263.912648,8.96817087 C265.069142,9.91618739 265.931159,11.0893182 266.497628,12.489677 C267.016979,13.7727228 266.223495,15.2058448 264.837843,15.4119353 C263.823769,15.5620115 262.831111,14.9817873 262.503437,14.0221452 C262.229305,13.2115224 261.852373,12.5425208 261.375855,12.0161972 C260.602717,11.1632994 259.542596,10.5999853 258.195494,10.3283685 L258.195494,22.0903259 C260.277185,22.603967 261.65427,23.0045224 262.327821,23.2909355 C263.614957,23.851079 264.663298,24.5306494 265.474986,25.3307034 C266.285604,26.1318144 266.909897,27.0840584 267.345724,28.1874355 C267.781551,29.2897557 268,30.484024 268,31.7670698 C268,34.5931524 267.089796,36.9499828 265.267246,38.8386177 C263.445766,40.7272526 261.088873,41.7397385 258.195494,41.8750184 L258.195494,44.7993905 C258.195494,45.4620508 257.650442,46 256.977962,46 C256.305482,46 255.761501,45.4620508 255.761501,44.7993905 L255.761501,44.7993905 Z" id="Fill-159" fill="#FB1A16"></path>
                    <text id="€" font-family="MyriadPro-Regular, Myriad Pro" font-size="38.8966" font-weight="normal" fill="#FB1A16">
                        <tspan x="41" y="251">€</tspan>
                    </text>
                </g>
            </g>
        </g>
    </g>
</svg>