<?xml version="1.0" encoding="UTF-8"?>
<svg width="38px" height="38px" viewBox="0 0 38 38" version="1.1" xmlns="http://www.w3.org/2000/svg" xmlns:xlink="http://www.w3.org/1999/xlink">
    <title>community_gift</title>
    <defs>
        <polygon id="path-1" points="0.1591 0.306655556 7.7561 0.306655556 7.7561 9 0.1591 9"></polygon>
        <polygon id="path-3" points="0.0238556668 0.3053 7.6166 0.3053 7.6166 9 0.0238556668 9"></polygon>
        <polygon id="path-5" points="0.157843146 0.594245299 8.778 0.594245299 8.778 5.28084444 0.157843146 5.28084444"></polygon>
        <polygon id="path-7" points="0.226486967 0.45 7.08496325 0.45 7.08496325 4.91420757 0.226486967 4.91420757"></polygon>
    </defs>
    <g id="Community" stroke="none" stroke-width="1" fill="none" fill-rule="evenodd">
        <g id="my-community" transform="translate(-204.000000, -122.000000)">
            <g id="community_gift" transform="translate(204.000000, 122.000000)">
                <circle id="viola-scuro-copy-2" fill="#664BC4" cx="19" cy="19" r="19"></circle>
                <g id="Group-17" transform="translate(10.000000, 8.000000)">
                    <g id="Group-3" transform="translate(10.000000, 11.550300)">
                        <mask id="mask-2" fill="white">
                            <use xlink:href="#path-1"></use>
                        </mask>
                        <g id="Clip-2"></g>
                        <path d="M0.1601,4.6891 C0.1601,3.3881 0.1601,2.0871 0.1601,0.7861 C0.1601,0.3771 0.2311,0.3071 0.6461,0.3071 C2.6601,0.3071 4.6741,0.3061 6.6881,0.3071 C7.3951,0.3081 7.7561,0.6741 7.7561,1.3871 L7.7561,7.9061 C7.7551,8.6471 7.4011,9.0001 6.6581,9.0001 C4.6221,9.0001 2.5871,9.0001 0.5511,9.0001 C0.2031,9.0001 0.1591,8.9571 0.1591,8.6141 C0.1591,7.3061 0.1591,5.9981 0.1591,4.6891 L0.1601,4.6891 Z" id="Fill-1" fill="#FFFFFF" mask="url(#mask-2)"></path>
                    </g>
                    <g id="Group-6" transform="translate(1.000000, 11.550300)">
                        <mask id="mask-4" fill="white">
                            <use xlink:href="#path-3"></use>
                        </mask>
                        <g id="Clip-5"></g>
                        <path d="M7.6166,4.7033 C7.6166,5.9973 7.6166,7.2903 7.6166,8.5843 C7.6166,8.9693 7.5856,8.9993 7.2126,8.9993 C5.1776,9.0003 3.1416,9.0003 1.1056,8.9993 C0.3876,8.9993 0.0266,8.6493 0.0256,7.9343 C0.0226,5.7313 0.0236,3.5293 0.0276,1.3273 C0.0286,0.6783 0.3966,0.3083 1.0406,0.3073 C3.0906,0.3053 5.1406,0.3053 7.1906,0.3053 C7.5296,0.3053 7.6156,0.3923 7.6156,0.7343 C7.6166,2.0573 7.6166,3.3803 7.6166,4.7033" id="Fill-4" fill="#FFFFFF" mask="url(#mask-4)"></path>
                    </g>
                    <g id="Group-9" transform="translate(10.000000, 5.550300)">
                        <mask id="mask-6" fill="white">
                            <use xlink:href="#path-5"></use>
                        </mask>
                        <g id="Clip-8"></g>
                        <path d="M4.2075,5.2804 C3.0155,5.2804 1.8225,5.2804 0.6295,5.2804 C0.2135,5.2794 0.1595,5.2274 0.1595,4.8184 C0.1575,3.5454 0.1575,2.2734 0.1585,1.0004 C0.1585,0.6664 0.2325,0.5954 0.5745,0.5954 C2.9595,0.5944 5.3455,0.5934 7.7305,0.5954 C8.4235,0.5954 8.7765,0.9514 8.7775,1.6454 C8.7785,2.5104 8.7785,3.3764 8.7775,4.2414 C8.7755,4.9224 8.4225,5.2784 7.7425,5.2804 C6.5635,5.2814 5.3855,5.2804 4.2075,5.2804" id="Fill-7" fill="#FFFFFF" mask="url(#mask-6)"></path>
                    </g>
                    <path d="M4.581,10.8307 C3.411,10.8307 2.24,10.8317 1.069,10.8307 C0.347,10.8297 0,10.4817 0,9.7597 C0,8.9017 0,8.0437 0.001,7.1857 C0.003,6.5037 0.354,6.1477 1.035,6.1477 C3.412,6.1457 5.79,6.1467 8.167,6.1467 C8.539,6.1467 8.616,6.2227 8.616,6.5927 C8.617,7.8727 8.617,9.1517 8.616,10.4317 C8.616,10.7667 8.555,10.8297 8.224,10.8307 C7.01,10.8307 5.795,10.8307 4.581,10.8307" id="Fill-10" fill="#FFFFFF"></path>
                    <g id="Group-14" transform="translate(2.000000, 0.550300)">
                        <mask id="mask-8" fill="white">
                            <use xlink:href="#path-7"></use>
                        </mask>
                        <g id="Clip-13"></g>
                        <path d="M5.2958,3.1862 C4.7208,2.7482 4.1358,2.3782 3.4738,2.1402 C3.0678,1.9932 2.6548,1.8882 2.2168,1.9372 C2.0268,1.9582 1.8758,2.0402 1.8138,2.2212 C1.5738,2.9182 1.7368,3.0812 2.2728,3.2842 C2.3198,3.3022 2.3698,3.3162 2.4188,3.3272 C3.3388,3.5332 4.2528,3.4602 5.1608,3.2482 C5.1998,3.2402 5.2348,3.2152 5.2958,3.1862 M3.5268,4.91420757 C2.8908,4.9132 2.2658,4.8532 1.6638,4.6222 C0.4078,4.1392 -0.0882,2.9832 0.4288,1.7342 C0.8258,0.7772 1.6638,0.3402 2.7848,0.4732 C3.6268,0.5722 4.3838,0.8932 5.1098,1.3002 C5.6878,1.6242 6.2358,1.9942 6.6888,2.4882 C7.1338,2.9752 7.2108,3.4972 6.8848,3.9272 C6.6228,4.2722 6.2458,4.4462 5.8468,4.5752 C5.0928,4.8172 4.3168,4.9152 3.5268,4.91420757" id="Fill-12" fill="#FFFFFF" mask="url(#mask-8)"></path>
                    </g>
                    <path d="M11.4726,3.7458 C11.6016,3.7868 11.6616,3.8158 11.7236,3.8228 C12.2786,3.8848 12.8326,3.9738 13.3886,3.9908 C13.8806,4.0068 14.3786,3.9548 14.8226,3.6978 C15.0886,3.5428 15.1426,3.3508 15.0456,2.9568 C14.9626,2.6188 14.8456,2.4978 14.5396,2.4878 C13.3496,2.4478 12.4346,3.0728 11.4726,3.7458 M13.2636,5.4648 C12.4736,5.4598 11.6916,5.3848 10.9466,5.1138 C10.6386,5.0018 10.3306,4.8428 10.0766,4.6368 C9.6446,4.2858 9.6036,3.7488 9.9176,3.2878 C10.2096,2.8588 10.6096,2.5428 11.0346,2.2598 C11.9476,1.6488 12.9096,1.1428 14.0256,1.0278 C14.7626,0.9518 15.4496,1.0678 15.9856,1.6438 C17.0466,2.7828 16.6466,4.5768 15.2086,5.1478 C14.5816,5.3958 13.9286,5.4628 13.2636,5.4648" id="Fill-15" fill="#FFFFFF"></path>
                </g>
            </g>
        </g>
    </g>
</svg>