<?xml version="1.0" encoding="UTF-8"?>
<svg width="38px" height="38px" viewBox="0 0 38 38" version="1.1" xmlns="http://www.w3.org/2000/svg" xmlns:xlink="http://www.w3.org/1999/xlink">
    <title>community_rewards</title>
    <defs>
        <polygon id="path-1" points="0.5 0 20.5 0 20.5 16 0.5 16"></polygon>
    </defs>
    <g id="Community" stroke="none" stroke-width="1" fill="none" fill-rule="evenodd">
        <g id="my-community" transform="translate(-117.000000, -122.000000)">
            <g id="community_rewards" transform="translate(117.000000, 122.000000)">
                <circle id="viola-scuro-copy" fill="#664BC4" cx="19" cy="19" r="19"></circle>
                <g id="Group-3" transform="translate(8.000000, 10.000000)">
                    <mask id="mask-2" fill="white">
                        <use xlink:href="#path-1"></use>
                    </mask>
                    <g id="Clip-2"></g>
                    <path d="M19.3673885,6.17802416 C19.3271154,6.17802416 19.2882215,6.18640493 19.2482243,6.19143339 C18.4689677,2.98020175 15.1395421,0.566260681 11.1475415,0.566260681 C9.47924281,0.566260681 7.92955658,0.991445071 6.63033584,1.7161023 L4.81832287,0 L4.67653955,3.23609459 C4.00596511,3.95600272 3.49786222,4.78849252 3.19608992,5.69612989 C3.19360734,5.69501246 3.19140059,5.69305694 3.18836632,5.69138079 C3.18836632,5.69138079 2.41269568,7.3317768 0.5,7.59325682 L1.19429695,10.3918752 C1.19429695,10.3918752 2.17078133,10.2471673 4.39076615,11.7040244 L4.39076615,11.7009515 C5.05196193,12.5007563 5.90293773,13.1737321 6.88742156,13.6802099 L7.53537687,15.7745643 C7.53537687,15.7745643 8.55489277,16.1896918 9.51427488,15.8932919 L9.60061375,14.5694096 C10.1026481,14.6507031 10.6179229,14.697356 11.1475415,14.697356 C11.8354941,14.697356 12.4997242,14.6174594 13.1388525,14.4828083 L13.2309841,15.8932919 C14.1900903,16.1896918 15.2096062,15.7745643 15.2096062,15.7745643 L15.951624,13.3768261 C17.7170195,12.2976623 18.9596924,10.643019 19.3100131,8.73220344 C19.3298738,8.7324828 19.3480794,8.73834934 19.3673885,8.73834934 C19.9927246,8.73834934 20.5,8.16538404 20.5,7.45748835 C20.5,6.75098946 19.9927246,6.17802416 19.3673885,6.17802416 M12.6823323,9.53647799 C12.5639956,9.77449185 12.4122819,9.96277981 12.2260879,10.10218 C12.0407213,10.2418594 11.7737053,10.3471778 11.4247638,10.4189731 L11.4247638,11.4134911 L10.7169506,11.4134911 L10.7169506,10.4410424 C10.3881456,10.404167 10.1084408,10.3217561 9.87756017,10.1960446 C9.5611682,10.0214452 9.26711951,9.79069467 8.99651748,9.50239619 L9.71205434,8.77662152 C10.1707813,9.26019194 10.6151645,9.50239619 11.0438246,9.50239619 C11.2631198,9.50239619 11.4501414,9.42752798 11.6076477,9.27723284 C11.7640508,9.12665834 11.8429419,8.9498241 11.8429419,8.74617139 C11.8429419,8.57492433 11.7924626,8.42490855 11.6917799,8.29556534 C11.5888904,8.16650148 11.3908351,8.03464403 11.0970623,7.90027236 C10.4998621,7.62705926 10.095752,7.41027668 9.88500793,7.2493659 C9.67453969,7.09013127 9.51675747,6.91050344 9.41221295,6.70992368 C9.30822012,6.510182 9.25580994,6.29758981 9.25580994,6.0707503 C9.25580994,5.69612989 9.39428315,5.37486705 9.67040204,5.10807921 C9.94624509,4.84129137 10.2946349,4.69770085 10.7169506,4.67814572 L10.7169506,4.30548082 L11.4247638,4.30548082 L11.4247638,4.72591611 C11.6677815,4.7831847 11.8746638,4.86000842 12.0434798,4.95694599 C12.2131232,5.05444228 12.4136611,5.21814665 12.6448176,5.44861782 L11.9176953,6.14897082 C11.5866837,5.81150516 11.2589821,5.64221361 10.9354182,5.64221361 C10.7445349,5.64221361 10.5892352,5.69305694 10.4703469,5.79362618 C10.350631,5.89419542 10.2918764,6.01068812 10.2918764,6.14170749 C10.2918764,6.25373045 10.3440108,6.36379789 10.4493828,6.47358597 C10.5519964,6.58532957 10.7608096,6.70405714 11.074719,6.83116549 C11.6316461,7.05968114 12.0134129,7.25467372 12.2189159,7.41614322 C12.424419,7.57761272 12.5827529,7.7712085 12.693366,7.99693057 C12.803979,8.222932 12.8588718,8.47658996 12.8588718,8.75734575 C12.8588718,9.03754282 12.7998414,9.29706733 12.6823323,9.53647799" id="Fill-1" fill="#FFFFFF" mask="url(#mask-2)"></path>
                </g>
            </g>
        </g>
    </g>
</svg>