<?xml version="1.0" encoding="UTF-8"?>
<svg width="48px" height="48px" viewBox="0 0 48 48" version="1.1" xmlns="http://www.w3.org/2000/svg" xmlns:xlink="http://www.w3.org/1999/xlink">
    <title>eperts add photo</title>
    <defs>
        <filter id="filter-1">
            <feColorMatrix in="SourceGraphic" type="matrix" values="0 0 0 0 1.000000 0 0 0 0 0.678915 0 0 0 0 0.263720 0 0 0 1.000000 0"></feColorMatrix>
        </filter>
    </defs>
    <g id="Experts" stroke="none" stroke-width="1" fill="none" fill-rule="evenodd" fill-opacity="0.920000017">
        <g id="eperts-add-photo" transform="translate(-157.000000, -724.000000)" filter="url(#filter-1)">
            <g transform="translate(157.000000, 724.000000)" id="_Icons-/-FontIcons-/-Camera" fill="#FFFFFF">
                <path d="M28.8185714,8.06 C29.2039007,8.06 29.5744514,8.20828846 29.8533987,8.47412128 L29.8533987,8.47412128 L33.4664988,11.9173552 L36.9691001,11.9185937 C40.1716491,12.0595509 42.7306828,14.6333682 42.8542857,17.894 L42.8542857,17.894 L42.8516468,34.5326519 C42.6647178,37.6798044 39.9796907,40.0902793 36.9031429,39.9397143 L36.9031429,39.9397143 L11.1636665,39.93796 C8.01592599,40.0903287 5.3314463,37.681896 5.14,34.4462857 L5.14,34.4462857 L5.14109575,17.836676 C5.26360288,14.6333682 7.82263664,12.0595509 11.0911429,11.9171429 L11.0911429,11.9171429 L14.463724,11.9171429 L18.0766013,8.47412128 C18.3555486,8.20828846 18.7260993,8.06 19.1114286,8.06 L19.1114286,8.06 Z M28.2182955,11.06 L19.7117045,11.06 L16.1007394,14.5011993 C15.9657465,14.6303359 15.8066748,14.7345086 15.6309385,14.8063034 L15.6309385,14.8063034 L15.6119431,14.8139051 C15.435014,14.8832398 15.2477908,14.9175677 15.0607875,14.9171417 L15.0607875,14.9171417 L11.1571001,14.915692 C9.51437875,14.9879949 8.20174329,16.3082134 8.14,17.894 L8.14,17.894 L8.13730706,34.3564438 C8.22763421,35.8618384 9.51228093,37.0143839 11.0911429,36.9397143 L11.0911429,36.9397143 L36.9756125,36.9414659 C38.4825619,37.0143565 39.7674706,35.8608336 39.8542857,34.4437143 L39.8542857,34.4437143 L39.8553815,17.951324 C39.7925424,16.3082134 38.479907,14.9879949 36.9031429,14.9171429 L36.9031429,14.9171429 L32.866,14.9171429 C32.4806707,14.9171429 32.11012,14.7688544 31.8311728,14.5030216 L31.8311728,14.5030216 L28.2182955,11.06 Z M23.9971429,17.6565714 C28.0209317,17.6565714 31.2828571,20.9184968 31.2828571,24.9422857 C31.2828571,28.9660746 28.0209317,32.228 23.9971429,32.228 C19.973354,32.228 16.7114286,28.9660746 16.7114286,24.9422857 C16.7114286,20.9184968 19.973354,17.6565714 23.9971429,17.6565714 Z M23.9971429,20.6565714 C21.6302082,20.6565714 19.7114286,22.5753511 19.7114286,24.9422857 C19.7114286,27.3092204 21.6302082,29.228 23.9971429,29.228 C26.3640775,29.228 28.2828571,27.3092204 28.2828571,24.9422857 C28.2828571,22.5753511 26.3640775,20.6565714 23.9971429,20.6565714 Z" id="Combined-Shape"></path>
            </g>
        </g>
    </g>
</svg>