<?xml version="1.0" encoding="UTF-8"?>
<svg width="20px" height="20px" viewBox="0 0 20 20" version="1.1" xmlns="http://www.w3.org/2000/svg" xmlns:xlink="http://www.w3.org/1999/xlink">
    <title>Combined Shape Copy 2</title>
    <g id="Experts" stroke="none" stroke-width="1" fill="none" fill-rule="evenodd">
        <g id="Expert-scheda-client" transform="translate(-11.000000, -254.000000)" fill="#FFAD43">
            <path d="M21,254 C26.5228475,254 31,258.477153 31,264 C31,269.522847 26.5228475,274 21,274 C15.4771525,274 11,269.522847 11,264 C11,258.477153 15.4771525,254 21,254 Z M25.2662631,261.233744 L19.9730101,266.526997 L16.8803281,263.434315 C16.5679087,263.121895 16.0613767,263.121895 15.7489572,263.434315 C15.4365378,263.746734 15.4365378,264.253266 15.7489572,264.565685 L19.4073247,268.224053 C19.7197441,268.536472 20.2262761,268.536472 20.5386956,268.224053 L26.3976339,262.365115 C26.7100534,262.052695 26.7100534,261.546163 26.3976339,261.233744 C26.0852145,260.921324 25.5786825,260.921324 25.2662631,261.233744 Z" id="Combined-Shape-Copy-2"></path>
        </g>
    </g>
</svg>