<?xml version="1.0" encoding="UTF-8"?>
<svg width="26px" height="26px" viewBox="0 0 26 26" version="1.1" xmlns="http://www.w3.org/2000/svg" xmlns:xlink="http://www.w3.org/1999/xlink">
    <title>edit</title>
    <defs>
        <polygon id="path-1" points="0.5 0.3369 25.5 0.3369 25.5 25.3369 0.5 25.3369"></polygon>
        <filter id="filter-3">
            <feColorMatrix in="SourceGraphic" type="matrix" values="0 0 0 0 1.000000 0 0 0 0 1.000000 0 0 0 0 1.000000 0 0 0 1.000000 0"></feColorMatrix>
        </filter>
        <polygon id="path-4" points="0 0 17 0 17 16 0 16"></polygon>
    </defs>
    <g id="Experts" stroke="none" stroke-width="1" fill="none" fill-rule="evenodd">
        <g id="Expert-scheda-not-complete" transform="translate(-78.000000, -113.000000)">
            <g id="edit" transform="translate(78.000000, 113.000000)">
                <g id="Group-3">
                    <mask id="mask-2" fill="white">
                        <use xlink:href="#path-1"></use>
                    </mask>
                    <g id="Clip-2"></g>
                    <path d="M25.5,12.8369 C25.5,5.93406934 19.9036337,0.3369 12.9994827,0.3369 C6.09636635,0.3369 0.5,5.93406934 0.5,12.8369 C0.5,19.7407653 6.09636635,25.3369 12.9994827,25.3369 C19.9036337,25.3369 25.5,19.7407653 25.5,12.8369" id="Fill-1" fill="#664BC4" mask="url(#mask-2)"></path>
                </g>
                <g filter="url(#filter-3)" id="Group-3-Copy">
                    <g transform="translate(5.000000, 4.000000)">
                        <mask id="mask-5" fill="white">
                            <use xlink:href="#path-4"></use>
                        </mask>
                        <g id="Clip-2"></g>
                        <path d="M15.3556684,3.14822331 L9.7775731,8.28655661 L8.06377385,6.56926262 L13.8476293,0.914386251 C13.9214251,0.842408939 14.0221347,0.810230846 14.1245806,0.820392349 L15.4138369,3.03814036 C15.3964732,3.076246 15.3886595,3.11858559 15.3556684,3.14822331 L15.3556684,3.14822331 Z M2.45702838,15.0304074 C2.32159135,15.1548858 2.10801759,15.1514986 1.97605331,15.0227863 C1.97605331,15.0227863 1.97518512,15.0219395 1.97431694,15.0210927 L0.948121032,13.9930873 C0.817893125,13.8626813 0.818761311,13.6509834 0.95072559,13.522271 L7.50813478,7.11290303 L9.20630668,8.81326118 L2.45702838,15.0304074 Z M16.9487898,4.12118721 L15.9703441,2.43861169 C15.9686078,2.43607131 15.9686078,2.43353094 15.9668714,2.43099056 L15.8027842,2.14985565 L14.6654605,0.194613128 C14.5578055,0.010012492 14.3181861,-0.0543436931 14.1297897,0.0498117118 C14.0629394,0.0870705558 14.0169255,0.143805614 13.9830663,0.205621423 C13.7642834,0.228484805 13.5593915,0.322478707 13.3987771,0.47913521 L7.49684836,6.24917528 C7.42131617,6.26187716 7.34838855,6.2889745 7.29022008,6.34401597 C7.22944706,6.40329141 7.19819236,6.47780909 7.18430138,6.55402037 L0.503609777,13.0861732 C0.191062802,13.3910182 0.151126244,13.8499795 0.354281778,14.2107128 L0.0391302441,15.2031529 C-0.138847895,15.7273171 0.320422522,16.1413984 0.808343079,15.9542574 L1.73903852,15.5969112 C2.10367666,15.800988 2.57162893,15.7730439 2.8911214,15.4800539 L9.76889124,9.14351003 C9.84789617,9.13250173 9.92516472,9.1045576 9.98680593,9.04612896 C10.0458426,8.99024069 10.0753609,8.91995696 10.0909883,8.84713286 L15.7576386,3.62750753 L16.114463,4.24227845 L11.6771642,8.45676179 C11.5217589,8.60325679 11.5182861,8.84628606 11.6702187,8.99870861 C11.821283,9.15028436 12.0704524,9.15367153 12.2258577,9.00548294 L16.8810713,4.58522918 C17.0086947,4.46413793 17.0373448,4.27276296 16.9487898,4.12118721 L16.9487898,4.12118721 Z" id="Fill-1" fill="#000000" mask="url(#mask-5)"></path>
                    </g>
                </g>
            </g>
        </g>
    </g>
</svg>