<?xml version="1.0" encoding="UTF-8"?>
<svg width="25px" height="26px" viewBox="0 0 25 26" version="1.1" xmlns="http://www.w3.org/2000/svg" xmlns:xlink="http://www.w3.org/1999/xlink">
    <title>remove photo</title>
    <defs>
        <polygon id="path-1" points="0.0005 0.837 24.163 0.837 24.163 25 0.0005 25"></polygon>
    </defs>
    <g id="Events" stroke="none" stroke-width="1" fill="none" fill-rule="evenodd">
        <g id="Create-event-flled" transform="translate(-101.000000, -640.000000)">
            <g id="remove-photo" transform="translate(101.000000, 640.000000)">
                <g id="Group-3" transform="translate(0.000000, 0.163100)">
                    <mask id="mask-2" fill="white">
                        <use xlink:href="#path-1"></use>
                    </mask>
                    <g id="Clip-2"></g>
                    <path d="M24.1635,12.9183 C24.1635,6.2463 18.7545,0.8363 12.0815,0.8363 C5.4095,0.8363 0.0005,6.2463 0.0005,12.9183 C0.0005,19.5913 5.4095,25.0003 12.0815,25.0003 C18.7545,25.0003 24.1635,19.5913 24.1635,12.9183" id="Fill-1" fill="#FF0000" mask="url(#mask-2)"></path>
                </g>
                <path d="M13.309,7.095 C13.273,6.542 12.666,6.064 12.04,6.077 C11.339,6.093 10.854,6.711 10.859,7.095 L13.309,7.095 Z M12.081,7.955 C10.581,7.955 9.082,7.955 7.583,7.956 C7.207,7.956 6.899,8.094 6.711,8.427 C6.516,8.774 6.518,9.137 6.718,9.48 C6.921,9.828 7.254,9.941 7.644,9.94000657 C10.602,9.938 13.56,9.939 16.518,9.939 C16.548,9.939 16.58,9.94000657 16.61,9.938 C17.332,9.907 17.762,9.278 17.53,8.593 C17.393,8.192 17.039,7.956 16.564,7.956 C15.07,7.955 13.576,7.955 12.081,7.955 L12.081,7.955 Z M7.713,10.793 L7.713,10.958 C7.713,13.654 7.72,16.35 7.70798502,19.046 C7.705,19.67 8.153,20.095 8.749,20.0920158 C10.97,20.078 13.191,20.087 15.412,20.086 C16.068,20.086 16.448,19.705 16.448,19.048 C16.449,16.352 16.449,13.656 16.448,10.96 C16.448,10.906 16.443,10.852 16.44,10.793 L7.713,10.793 Z M8.427,20.941 C8.164,20.836 7.875,20.769 7.644,20.616 C7.107,20.262 6.859,19.734 6.86,19.089 L6.86,13.195 C6.86,12.402 6.857,11.608 6.863,10.815 C6.864,10.703 6.832,10.645 6.729,10.595 C6.03,10.254 5.632,9.499 5.732,8.716 C5.835,7.912 6.394,7.297 7.174,7.141 C7.323,7.112 7.479,7.105 7.632,7.104 C8.364,7.1 9.095,7.1 9.828,7.105 C9.936,7.105 9.976,7.074 9.994,6.965 C10.16,5.973 11.054,5.225 12.073,5.22198377 C13.085,5.218 13.99,5.954 14.163,6.934 C14.187,7.069 14.231,7.107 14.366,7.105 C15.102,7.099 15.839,7.099 16.577,7.103 C17.482,7.108 18.189,7.656 18.392,8.505 C18.597,9.36 18.205,10.214 17.418,10.6 C17.315,10.651 17.3,10.715 17.3,10.815 C17.303,13.574 17.303,16.331 17.302,19.089 C17.301,19.931 16.813,20.615 16.041,20.857 C15.941,20.889 15.837,20.913 15.735,20.941 L8.427,20.941 Z" id="Fill-4" fill="#FFFFFF"></path>
                <path d="M14.7875,16.1771 L14.7875,15.3791 C14.7875,14.8481 14.7905,14.3161 14.7855,13.7841 C14.7835,13.5391 14.6075,13.3621 14.3765,13.3571 C14.1415,13.3511 13.9655,13.5141 13.9425,13.7621 C13.9385,13.8131 13.9385,13.8641 13.9385,13.9151 L13.9385,18.4391 C13.9385,18.5061 13.9395,18.5731 13.9485,18.6381 C13.9745,18.8111 14.0755,18.9251 14.2405,18.9781 C14.5215,19.0671 14.7845,18.8661 14.7865,18.5541 C14.7895,17.7611 14.7875,16.9691 14.7875,16.1771 M9.3735,16.1831 L9.3735,18.4381 C9.3735,18.4941 9.3725,18.5511 9.3765,18.6071 C9.3915,18.8111 9.5405,18.9661 9.7465,18.9961 C9.9275,19.0231 10.1225,18.9131 10.1855,18.7341 C10.2145,18.6551 10.2225,18.5641 10.2225,18.4791 C10.2245,16.9451 10.2235,15.4111 10.2235,13.8781 C10.2235,13.8171 10.2205,13.7551 10.2095,13.6951 C10.1785,13.5141 10.0225,13.3751 9.8405,13.3581 C9.5765,13.3341 9.3755,13.5221 9.3745,13.8061 C9.3715,14.5981 9.3735,15.3911 9.3735,16.1831 M11.6525,16.1781 L11.6525,18.4481 C11.6535,18.7991 11.8135,19.0041 12.0855,19.0011325 C12.3525,18.9971 12.5085,18.7961 12.5095,18.4541 C12.5095,16.9361 12.5095,15.4171 12.5085,13.8981 C12.5085,13.8521 12.5105,13.8061 12.5065,13.7601 C12.4855,13.5271 12.3085,13.3581 12.0845,13.3570822 C11.8585,13.3551 11.6795,13.5221 11.6555,13.7541 C11.6505,13.8051 11.6535,13.8561 11.6535,13.9071 C11.6525,14.6641 11.6525,15.4211 11.6525,16.1781" id="Fill-6" fill="#FFFFFF"></path>
                <path d="M11.6527,16.178 C11.6527,15.421 11.6527,14.664 11.6537,13.907 C11.6537,13.856 11.6507,13.805 11.6557,13.754 C11.6787,13.522 11.8587,13.355 12.0847,13.3569822 C12.3077,13.358 12.4857,13.527 12.5067,13.761 C12.5097,13.806 12.5077,13.852 12.5077,13.898 C12.5087,15.417 12.5087,16.936 12.5087,18.454 C12.5077,18.796 12.3527,18.997 12.0857,19.0010325 C11.8137,19.004 11.6537,18.799 11.6527,18.448 L11.6527,16.178 Z" id="Fill-8" fill="#FFFFFF"></path>
                <path d="M9.3734,16.1834 C9.3734,15.3914 9.3714,14.5984 9.3744,13.8064 C9.3754,13.5214 9.5764,13.3334 9.8404,13.3584 C10.0224,13.3744 10.1784,13.5144 10.2094,13.6944 C10.2204,13.7544 10.2234,13.8164 10.2234,13.8774 C10.2234,15.4114 10.2244,16.9454 10.2224,18.4784 C10.2224,18.5644 10.2144,18.6544 10.1854,18.7344 C10.1224,18.9124 9.9274,19.0224 9.7464,18.9964 C9.5404,18.9664 9.3924,18.8104 9.3764,18.6064 C9.3724,18.5504 9.3734,18.4944 9.3734,18.4374 L9.3734,16.1834 Z" id="Fill-10" fill="#FFFFFF"></path>
                <path d="M14.7875,16.1771 C14.7875,16.9691 14.7895,17.7611 14.7865,18.5541 C14.7845,18.8661 14.5215,19.0671 14.2405,18.9781 C14.0755,18.9251 13.9745,18.8111 13.9485,18.6381 C13.9395,18.5731 13.9385,18.5061 13.9385,18.4391 L13.9385,13.9151 C13.9385,13.8641 13.9385,13.8131 13.9425,13.7621 C13.9655,13.5141 14.1415,13.3511 14.3765,13.3571 C14.6075,13.3621 14.7835,13.5391 14.7855,13.7841 C14.7905,14.3161 14.7875,14.8481 14.7875,15.3791 L14.7875,16.1771 Z" id="Fill-12" fill="#FFFFFF"></path>
            </g>
        </g>
    </g>
</svg>