<?xml version="1.0" encoding="UTF-8"?>
<svg width="25px" height="25px" viewBox="0 0 25 25" version="1.1" xmlns="http://www.w3.org/2000/svg" xmlns:xlink="http://www.w3.org/1999/xlink">
    <title>information-button copy</title>
    <defs>
        <filter id="filter-1">
            <feColorMatrix in="SourceGraphic" type="matrix" values="0 0 0 0 0.704193 0 0 0 0 0.731979 0 0 0 0 0.794497 0 0 0 1.000000 0"></feColorMatrix>
        </filter>
    </defs>
    <g id="Receive" stroke="none" stroke-width="1" fill="none" fill-rule="evenodd">
        <g id="information-button-copy" transform="translate(-611.000000, -676.000000)" filter="url(#filter-1)">
            <g transform="translate(611.000000, 676.000000)">
                <path d="M12.4994709,0 C5.5968254,0 0,5.5968254 0,12.4994709 C0,19.4021164 5.5968254,25 12.4994709,25 C19.4021164,25 25,19.4021164 25,12.4994709 C25,5.5968254 19.4021164,0 12.4994709,0 Z M15.1015873,19.3724868 C14.4582011,19.626455 13.9460317,19.8190476 13.5619048,19.952381 C13.178836,20.0857143 12.7333333,20.152381 12.226455,20.152381 C11.447619,20.152381 10.8412698,19.9619048 10.4095238,19.5820106 C9.97777778,19.2021164 9.76296296,18.7206349 9.76296296,18.1354497 C9.76296296,17.9079365 9.77883598,17.6751323 9.81058201,17.4380952 C9.84338624,17.2010582 9.8952381,16.9343915 9.96613757,16.6349206 L10.7714286,13.7904762 C10.842328,13.5174603 10.9037037,13.2582011 10.952381,13.0169312 C11.0010582,12.773545 11.0243386,12.5502646 11.0243386,12.3470899 C11.0243386,11.9851852 10.9492063,11.7312169 10.8,11.5883598 C10.6486772,11.4455026 10.3640212,11.3756614 9.93968254,11.3756614 C9.73227513,11.3756614 9.51851852,11.4063492 9.2994709,11.4708995 C9.08253968,11.5375661 8.89417989,11.5978836 8.73968254,11.6571429 L8.95238095,10.7809524 C9.47936508,10.5661376 9.98412698,10.3820106 10.4656085,10.2296296 C10.9470899,10.0751323 11.4021164,9.9989418 11.8306878,9.9989418 C12.6042328,9.9989418 13.2010582,10.1873016 13.621164,10.5597884 C14.0391534,10.9333333 14.2497354,11.4190476 14.2497354,12.015873 C14.2497354,12.1396825 14.2349206,12.357672 14.2063492,12.6687831 C14.1777778,12.9809524 14.1238095,13.2656085 14.0455026,13.5269841 L13.2444444,16.362963 C13.178836,16.5904762 13.1206349,16.8507937 13.0677249,17.1417989 C13.015873,17.4328042 12.9904762,17.6550265 12.9904762,17.8042328 C12.9904762,18.1809524 13.0740741,18.4380952 13.2433862,18.5746032 C13.410582,18.7111111 13.7037037,18.7798942 14.1185185,18.7798942 C14.3142857,18.7798942 14.5333333,18.7449735 14.7809524,18.6772487 C15.026455,18.6095238 15.2042328,18.5492063 15.3164021,18.4973545 L15.1015873,19.3724868 Z M14.9597884,7.86137566 C14.5862434,8.20846561 14.1365079,8.38201058 13.610582,8.38201058 C13.0857143,8.38201058 12.6328042,8.20846561 12.2560847,7.86137566 C11.8814815,7.51428571 11.6920635,7.09206349 11.6920635,6.5989418 C11.6920635,6.10687831 11.8825397,5.68359788 12.2560847,5.33333333 C12.6328042,4.98201058 13.0857143,4.80740741 13.610582,4.80740741 C14.1365079,4.80740741 14.5873016,4.98201058 14.9597884,5.33333333 C15.3333333,5.68359788 15.5206349,6.10687831 15.5206349,6.5989418 C15.5206349,7.09312169 15.3333333,7.51428571 14.9597884,7.86137566 Z" id="Shape" fill="#030104" fill-rule="nonzero"></path>
            </g>
        </g>
    </g>
</svg>