<?xml version="1.0" encoding="UTF-8"?>
<svg width="31px" height="32px" viewBox="0 0 31 32" version="1.1" xmlns="http://www.w3.org/2000/svg" xmlns:xlink="http://www.w3.org/1999/xlink">
    <title>receive ticket</title>
    <defs>
        <filter id="filter-1">
            <feColorMatrix in="SourceGraphic" type="matrix" values="0 0 0 0 1.000000 0 0 0 0 1.000000 0 0 0 0 1.000000 0 0 0 1.000000 0"></feColorMatrix>
        </filter>
        <polygon id="path-2" points="0 32 31 32 31 0 0 0"></polygon>
    </defs>
    <g id="Receive" stroke="none" stroke-width="1" fill="none" fill-rule="evenodd">
        <g id="receive-ticket" transform="translate(-607.000000, -442.000000)" filter="url(#filter-1)">
            <g transform="translate(607.000000, 442.000000)">
                <path d="M25.1942803,24.9881807 L28.6903093,28.7600952 C29.1571507,29.2636247 29.1571507,30.0838538 28.6903093,30.5873833 C28.2382548,31.0738247 27.4482156,31.0749639 26.9951049,30.5873833 L23.4990758,26.8154688 L20.0030467,30.5873833 C19.549936,31.0761031 18.7598968,31.0738247 18.3078423,30.5873833 C17.841001,30.0838538 17.841001,29.2636247 18.3078423,28.7600952 L26.9951049,19.3901174 C27.4482156,18.9025368 28.2382548,18.9025368 28.6903093,19.3901174 C28.9163366,19.6350469 29.0409685,19.9585817 29.0409685,20.3037614 C29.0409685,20.6478019 28.9163366,20.9736152 28.6903093,21.2174055 L25.1942803,24.9881807 Z M30,20.3037614 C30,19.6828936 29.7750289,19.0984804 29.3683911,18.6587465 C28.5540593,17.7804178 27.1302988,17.7804178 26.3170231,18.6587465 L17.6297605,28.0287243 C16.7900798,28.9355331 16.7900798,30.4119454 17.6297605,31.3187542 C18.4440924,32.1970828 19.8678529,32.1970828 20.6811285,31.3187542 L23.4990758,28.2793498 L26.3170231,31.3187542 C26.723661,31.7573489 27.2654927,32 27.842179,32 C28.4188654,32 28.9606971,31.7573489 29.3683911,31.3187542 C30.2080718,30.4119454 30.2080718,28.9355331 29.3683911,28.0287243 L26.5493876,24.9881807 L29.3683911,21.9487764 C29.7750289,21.5090425 30,20.9257685 30,20.3037614 L30,20.3037614 Z" id="Fill-1" fill="#B4BBCB"></path>
                <path d="M19.0529282,19.0424534 C19.3584756,19.0424534 19.6459907,19.1807829 19.8623784,19.4339962 L21.7136954,21.6015491 L20.0957966,23.4947875 L18.2434779,21.3284069 C18.028092,21.0751936 17.9088784,20.7387482 17.9088784,20.3823739 C17.9088784,20.023655 18.028092,19.6872095 18.2434779,19.4339962 C18.4598656,19.1807829 18.7473807,19.0424534 19.0529282,19.0424534 L19.0529282,19.0424534 Z M20.0957966,25 L23,21.6015491 L20.5055307,18.68139 C19.7291397,17.77287 18.3767166,17.77287 17.6003256,18.68139 C16.7998915,19.6192171 16.7998915,21.1431861 17.6003256,22.0810132 L20.0957966,25 Z" id="Fill-3" fill="#B4BBCB"></path>
                <mask id="mask-3" fill="white">
                    <use xlink:href="#path-2"></use>
                </mask>
                <g id="Clip-6"></g>
                <path d="M17.9884914,13.0115854 L30.0125972,13.0115854 L30.0125972,0.988414587 L17.9884914,0.988414587 L17.9884914,13.0115854 Z M17,14 L31,14 L31,0 L17,0 L17,14 Z" id="Fill-5" fill="#B4BBCB" mask="url(#mask-3)"></path>
                <path d="M22.8318557,7.89051988 L24.16631,7.89051988 L24.16631,6.11070336 L22.8318557,6.11070336 L22.8318557,7.89051988 Z M22,9 L25,9 L25,5 L22,5 L22,9 Z" id="Fill-7" fill="#B4BBCB" mask="url(#mask-3)"></path>
                <path d="M0.988491446,13.0115854 L13.0125972,13.0115854 L13.0125972,0.988414587 L0.988491446,0.988414587 L0.988491446,13.0115854 Z M0,14 L14,14 L14,0 L0,0 L0,14 Z" id="Fill-8" fill="#B4BBCB" mask="url(#mask-3)"></path>
                <path d="M5.83211009,7.88929664 L7.16697248,7.88929664 L7.16697248,6.10948012 L5.83211009,6.10948012 L5.83211009,7.88929664 Z M5,9 L8,9 L8,5 L5,5 L5,9 Z" id="Fill-9" fill="#B4BBCB" mask="url(#mask-3)"></path>
                <path d="M0.988491446,31.0125972 L13.0125972,31.0125972 L13.0125972,18.9884914 L0.988491446,18.9884914 L0.988491446,31.0125972 Z M0,32 L14,32 L14,18 L0,18 L0,32 Z" id="Fill-10" fill="#B4BBCB" mask="url(#mask-3)"></path>
                <path d="M5.83211009,25.8892966 L7.16697248,25.8892966 L7.16697248,24.1094801 L5.83211009,24.1094801 L5.83211009,25.8892966 Z M5,27 L8,27 L8,23 L5,23 L5,27 Z" id="Fill-11" fill="#B4BBCB" mask="url(#mask-3)"></path>
            </g>
        </g>
    </g>
</svg>