<svg id="Group_Copy" data-name="Group Copy" xmlns="http://www.w3.org/2000/svg" xmlns:xlink="http://www.w3.org/1999/xlink" width="32.045" height="32.045" viewBox="0 0 32.045 32.045">
  <defs>
    <clipPath id="clip-path">
      <path id="Clip_2" data-name="Clip 2" d="M0,0H32.045V32.045H0Z" fill="rgba(0,0,0,0)"/>
    </clipPath>
  </defs>
  <g id="Group_3" data-name="Group 3">
    <path id="Clip_2-2" data-name="Clip 2" d="M0,0H32.045V32.045H0Z" fill="rgba(0,0,0,0)"/>
    <g id="Group_3-2" data-name="Group 3" clip-path="url(#clip-path)">
      <path id="Fill_1" data-name="Fill 1" d="M26.253,32.045H5.792A5.792,5.792,0,0,1,0,26.253V5.792A5.792,5.792,0,0,1,5.792,0H26.253a5.792,5.792,0,0,1,5.792,5.792V26.253a5.792,5.792,0,0,1-5.792,5.792" fill="#3ec0e8"/>
    </g>
  </g>
  <path id="admin-site-alt3" d="M8.5,0A8.5,8.5,0,1,0,17,8.5,8.5,8.5,0,0,0,8.5,0ZM1.048,9.142H3.419a13.449,13.449,0,0,0,.359,2.55H1.738a7.423,7.423,0,0,1-.689-2.55Zm8.094-5.1V1.124a3.9,3.9,0,0,1,2.1,1.889,8.077,8.077,0,0,1,.51,1.02Zm3.041,1.275a12.108,12.108,0,0,1,.387,2.55H9.142V5.317h3.041ZM7.858,1.124V4.042H5.251a8.056,8.056,0,0,1,.51-1.02,3.9,3.9,0,0,1,2.1-1.9Zm0,4.193v2.55H4.439a12.108,12.108,0,0,1,.387-2.55H7.858ZM3.419,7.858H1.048a7.423,7.423,0,0,1,.689-2.55h2.04a13.345,13.345,0,0,0-.359,2.55Zm1.02,1.284H7.858v2.55H4.826a12.164,12.164,0,0,1-.387-2.55ZM7.867,12.92v2.918a3.9,3.9,0,0,1-2.1-1.889,8.056,8.056,0,0,1-.51-1.02Zm1.275,2.918V12.967h2.607a8.056,8.056,0,0,1-.51,1.02,3.9,3.9,0,0,1-2.1,1.889Zm0-4.193V9.095h3.419a12.165,12.165,0,0,1-.387,2.55Zm4.448-2.55h2.371a7.423,7.423,0,0,1-.689,2.55H13.222a13.4,13.4,0,0,0,.359-2.5Zm0-1.275a13.345,13.345,0,0,0-.368-2.5h2.04a7.431,7.431,0,0,1,.689,2.55Zm.944-3.778H12.844a8.424,8.424,0,0,0-1.313-2.38A7.556,7.556,0,0,1,14.5,4.042ZM5.468,1.662a8.424,8.424,0,0,0-1.313,2.38H2.5a7.556,7.556,0,0,1,2.966-2.38ZM2.493,13H4.156a8.424,8.424,0,0,0,1.313,2.38A7.556,7.556,0,0,1,2.5,12.967L2.493,13Zm9.029,2.38A8.424,8.424,0,0,0,12.835,13H14.5a7.556,7.556,0,0,1-2.966,2.342l-.009.038Z" transform="translate(7.489 7.621)" fill="#fff"/>
</svg>
