<svg id="menu-left" xmlns="http://www.w3.org/2000/svg" width="22.143" height="15.5" viewBox="0 0 22.143 15.5">
  <path id="Tracciato_31" data-name="Tracciato 31" d="M14.071,8.6a1.1,1.1,0,0,0-1.1-1.1H4.1a1.1,1.1,0,0,0,0,2.2H12.97A1.1,1.1,0,0,0,14.071,8.6Z" transform="translate(8.071 -7.5)" fill="#fff"/>
  <path id="Tracciato_32" data-name="Tracciato 32" d="M25.142,17.609a1.1,1.1,0,0,0-1.1-1.1H4.1a1.1,1.1,0,0,0,0,2.2h19.94A1.1,1.1,0,0,0,25.142,17.609Z" transform="translate(-3 -9.859)" fill="#fff"/>
  <path id="Tracciato_33" data-name="Tracciato 33" d="M17.4,25.515a1.1,1.1,0,1,1,0,2.2H4.1a1.1,1.1,0,0,1,0-2.2Z" transform="translate(3.643 -12.218)" fill="#fff"/>
</svg>
