<?xml version="1.0" encoding="UTF-8"?>
<svg width="16px" height="16px" viewBox="0 0 16 16" version="1.1" xmlns="http://www.w3.org/2000/svg" xmlns:xlink="http://www.w3.org/1999/xlink">
    <title>Combined-Shape-Copy</title>
    <g id="Store" stroke="none" stroke-width="1" fill="none" fill-rule="evenodd">
        <g id="Store-map-Events" transform="translate(-131.000000, -114.000000)" fill="#FFFFFF" fill-rule="nonzero">
            <path d="M132.003674,120.218221 L132.003674,118.727305 C132.003674,118.325643 132.33357,118.000032 132.740516,118.000032 L136.424727,118.000032 L136.424727,119.454578 C136.424727,119.856239 136.754622,120.18185 137.161569,120.18185 C137.568516,120.18185 137.898411,119.856239 137.898411,119.454578 L137.898411,118.000032 L145.266832,118.000032 C145.673779,118.000032 146.003674,118.325643 146.003674,118.727305 L146.003674,120.218221 C145.162849,120.386682 144.52999,121.120411 144.52999,122.000032 C144.52999,122.879653 145.162849,123.613382 146.003674,123.781844 L146.003674,125.272759 C146.003674,125.674421 145.673779,126.000032 145.266832,126.000032 L137.898411,126.000032 L137.898411,124.545487 C137.898411,124.143825 137.568516,123.818214 137.161569,123.818214 C136.754622,123.818214 136.424727,124.143825 136.424727,124.545487 L136.424727,126.000032 L132.740516,126.000032 C132.33357,126.000032 132.003674,125.674421 132.003674,125.272759 L132.003674,123.781844 C132.8445,123.613382 133.477358,122.879653 133.477358,122.000032 C133.477358,121.120411 132.8445,120.386682 132.003674,120.218221 Z M137.201322,121.091881 C136.92518,121.091881 136.701322,121.390358 136.701322,121.758548 L136.701322,122.425214 C136.701322,122.793404 136.92518,123.091881 137.201322,123.091881 C137.477464,123.091881 137.701322,122.793404 137.701322,122.425214 L137.701322,121.758548 C137.701322,121.390358 137.477464,121.091881 137.201322,121.091881 Z" id="Combined-Shape-Copy" transform="translate(139.003674, 122.000032) rotate(-45.000000) translate(-139.003674, -122.000032) "></path>
        </g>
    </g>
</svg>