<?xml version="1.0" encoding="UTF-8"?>
<svg width="355px" height="215px" viewBox="0 0 355 215" version="1.1" xmlns="http://www.w3.org/2000/svg" xmlns:xlink="http://www.w3.org/1999/xlink">
    <title>sign up illustration-02 copy 2</title>
    <defs>
        <radialGradient cx="50.0029212%" cy="49.99869%" fx="50.0029212%" fy="49.99869%" r="79.1715249%" gradientTransform="translate(0.500029,0.499987),scale(0.498883,1.000000),rotate(180.000000),translate(-0.500029,-0.499987)" id="radialGradient-1">
            <stop stop-color="#B4DEF9" offset="0%"></stop>
            <stop stop-color="#96D6FA" offset="100%"></stop>
        </radialGradient>
        <radialGradient cx="861.936626%" cy="49.9370873%" fx="861.936626%" fy="49.9370873%" r="88.3104602%" gradientTransform="translate(8.619366,0.499371),scale(0.436752,1.000000),translate(-8.619366,-0.499371)" id="radialGradient-2">
            <stop stop-color="#B4DEF9" offset="0%"></stop>
            <stop stop-color="#96D6FA" offset="100%"></stop>
        </radialGradient>
        <radialGradient cx="1501.12383%" cy="49.988453%" fx="1501.12383%" fy="49.988453%" r="50.4610659%" gradientTransform="translate(15.011238,0.499885),scale(1.000000,0.978280),translate(-15.011238,-0.499885)" id="radialGradient-3">
            <stop stop-color="#B4DEF9" offset="0%"></stop>
            <stop stop-color="#96D6FA" offset="100%"></stop>
        </radialGradient>
        <radialGradient cx="-472.843654%" cy="49.9913446%" fx="-472.843654%" fy="49.9913446%" r="68.4942247%" gradientTransform="translate(-4.728437,0.499913),scale(1.000000,0.601125),translate(4.728437,-0.499913)" id="radialGradient-4">
            <stop stop-color="#B4DEF9" offset="0%"></stop>
            <stop stop-color="#96D6FA" offset="100%"></stop>
        </radialGradient>
        <radialGradient cx="-576.887589%" cy="50.0321706%" fx="-576.887589%" fy="50.0321706%" r="55.6301601%" gradientTransform="translate(-5.768876,0.500322),scale(0.822253,1.000000),translate(5.768876,-0.500322)" id="radialGradient-5">
            <stop stop-color="#B4DEF9" offset="0%"></stop>
            <stop stop-color="#96D6FA" offset="100%"></stop>
        </radialGradient>
        <linearGradient x1="0%" y1="49.6976086%" x2="99.8514116%" y2="49.6976086%" id="linearGradient-6">
            <stop stop-color="#FEBD85" offset="0%"></stop>
            <stop stop-color="#F6A77E" offset="100%"></stop>
        </linearGradient>
        <linearGradient x1="0%" y1="49.9394988%" x2="100.299291%" y2="49.9394988%" id="linearGradient-7">
            <stop stop-color="#FEBD85" offset="0%"></stop>
            <stop stop-color="#F6A77E" offset="100%"></stop>
        </linearGradient>
        <linearGradient x1="0.279502294%" y1="50.153657%" x2="100.005921%" y2="50.153657%" id="linearGradient-8">
            <stop stop-color="#FEBD85" offset="0%"></stop>
            <stop stop-color="#F6A77E" offset="100%"></stop>
        </linearGradient>
        <linearGradient x1="0.121333383%" y1="50.0601685%" x2="100.00613%" y2="50.0601685%" id="linearGradient-9">
            <stop stop-color="#FEBD85" offset="0%"></stop>
            <stop stop-color="#F6A77E" offset="100%"></stop>
        </linearGradient>
        <linearGradient x1="0%" y1="50%" x2="100%" y2="50%" id="linearGradient-10">
            <stop stop-color="#FEBD85" offset="0%"></stop>
            <stop stop-color="#F6A77E" offset="100%"></stop>
        </linearGradient>
        <linearGradient x1="-2.77915818e-14%" y1="50.0090298%" x2="100.012386%" y2="50.0090298%" id="linearGradient-11">
            <stop stop-color="#FEBD85" offset="0%"></stop>
            <stop stop-color="#F6A77E" offset="100%"></stop>
        </linearGradient>
        <linearGradient x1="-0.0141329522%" y1="50.0888311%" x2="99.9612679%" y2="50.0888311%" id="linearGradient-12">
            <stop stop-color="#FEBD85" offset="0%"></stop>
            <stop stop-color="#F6A77E" offset="100%"></stop>
        </linearGradient>
        <linearGradient x1="-6.36052609e-13%" y1="50.074004%" x2="100.034629%" y2="50.074004%" id="linearGradient-13">
            <stop stop-color="#FEBD85" offset="0%"></stop>
            <stop stop-color="#F6A77E" offset="100%"></stop>
        </linearGradient>
        <linearGradient x1="0%" y1="49.9724821%" x2="100%" y2="49.9724821%" id="linearGradient-14">
            <stop stop-color="#FEBD85" offset="0%"></stop>
            <stop stop-color="#F6A77E" offset="100%"></stop>
        </linearGradient>
        <linearGradient x1="0%" y1="49.1125592%" x2="99.9679576%" y2="49.1125592%" id="linearGradient-15">
            <stop stop-color="#FEBD85" offset="0%"></stop>
            <stop stop-color="#F6A77E" offset="100%"></stop>
        </linearGradient>
        <linearGradient x1="0%" y1="50%" x2="100%" y2="50%" id="linearGradient-16">
            <stop stop-color="#FEBD85" offset="0%"></stop>
            <stop stop-color="#F6A77E" offset="100%"></stop>
        </linearGradient>
        <linearGradient x1="0.0689262445%" y1="49.9881441%" x2="99.9935732%" y2="49.9881441%" id="linearGradient-17">
            <stop stop-color="#FEBD85" offset="0%"></stop>
            <stop stop-color="#F6A77E" offset="100%"></stop>
        </linearGradient>
    </defs>
    <g id="Registration" stroke="none" stroke-width="1" fill="none" fill-rule="evenodd">
        <g id="1-Login" transform="translate(-29.000000, -100.000000)" fill-rule="nonzero">
            <g id="sign-up-illustration-02-copy-2" transform="translate(29.000000, 100.000000)">
                <g id="Group" opacity="0.92" transform="translate(22.000000, 97.000000)">
                    <path d="M248.422222,117.365472 C248.422222,117.365472 258.833333,88.0992453 218.255556,88.210566 C168.8,88.3664151 199.277778,64.009434 165.277778,51.8086792 C136.9,41.6228302 107.188889,69.1969811 107.188889,69.1969811 C107.188889,69.1969811 74.1444444,-20.7390566 30.6555556,4.82018868 C-12.8333333,30.379434 45.3666667,78.8262264 45.3666667,78.8262264 C45.3666667,78.8262264 16.0666667,97.1050943 13.7666667,117.910943 L248.422222,117.365472 Z" id="Path" fill="url(#radialGradient-1)"></path>
                    <path d="M29.4444444,110.697358 C29.4444444,110.697358 -1.46666667,109.895849 0.911111111,100.678491 C3.28888889,91.4611321 29.4444444,110.697358 29.4444444,110.697358 Z" id="Path" fill="url(#radialGradient-2)"></path>
                    <path d="M25.1111111,105.097925 C25.1111111,105.097925 5.65555556,94.9788679 10,89.8358491 C14.3444444,84.6928302 25.1111111,105.097925 25.1111111,105.097925 Z" id="Path" fill="url(#radialGradient-3)"></path>
                    <path d="M197.877778,99.1756604 C197.877778,99.1756604 206.766667,48.9811321 222.188889,47.0441509 C237.611111,45.1071698 227.166667,68.2062264 197.877778,99.1756604 Z" id="Path" fill="url(#radialGradient-4)"></path>
                    <path d="M208.777778,93.7877358 C208.777778,93.7877358 225.722222,67.2933962 234.933333,69.8315094 C244.144444,72.3696226 232.777778,83.0786792 208.777778,93.7877358 Z" id="Path" fill="url(#radialGradient-5)"></path>
                </g>
                <rect id="Rectangle" fill="#294460" x="114" y="0" width="113" height="214" rx="5.19"></rect>
                <rect id="Rectangle" fill="#0B1E2B" x="110" y="0" width="113" height="214" rx="5.19"></rect>
                <path d="M114,26.3903346 L114,191 L219,191 L219,26.3903346 C219,21.204196 214.789095,17 209.594681,17 L123.394149,17 C118.204097,17.0061541 114,21.2085482 114,26.3903346 Z" id="Path" fill="#664BC4"></path>
                <path d="M178.873438,8 L149.154726,8 C148.516989,8 148,8.44771525 148,9 C148,9.55228475 148.516989,10 149.154726,10 L178.873438,10 C179.495621,10 180,9.56320463 180,9.02439024 C180,8.48557585 179.495621,8.04878049 178.873438,8.04878049 L178.873438,8 Z" id="Path" fill="#9CB9F5"></path>
                <path d="M184.012346,8 L184.012346,8 C183.453243,8 183,8.44771525 183,9 C183,9.55228475 183.453243,10 184.012346,10 L184.012346,10 C184.557812,10 185,9.56320463 185,9.02439024 C185,8.48557585 184.557812,8.04878049 184.012346,8.04878049 L184.012346,8 Z" id="Path" fill="#9CB9F5"></path>
                <path d="M113,130 L113,194.222624 C113,199.618164 117.356984,203.993841 122.735615,204 L208.253258,204 C213.636235,204 218,199.62252 218,194.222624 L218,130 L113,130 Z" id="Path" fill="#FFFFFF"></path>
                <path d="M162.000307,182 C153.506724,182 145.849474,176.883589 142.59912,169.036542 C139.348767,161.189494 141.145411,152.157152 147.151282,146.151282 C153.157152,140.145411 162.189494,138.348767 170.036542,141.59912 C177.883589,144.849474 183,152.506724 183,161.000307 C182.987674,172.593008 173.593008,181.987674 162.000307,182 Z M162.000307,142.74019 C151.915523,142.74019 143.74019,150.915523 143.74019,161.000307 C143.74019,171.085091 151.915523,179.260423 162.000307,179.260423 C172.085091,179.260423 180.260427,171.085091 180.260427,161.000307 C180.266604,150.907534 172.093075,142.718989 162.000307,142.706645 L162.000307,142.74019 Z" id="Shape" fill="#664BC4"></path>
                <path d="M149,156.479903 C149,156.479903 158.214496,167.135993 163.689452,172 C163.689452,172 174.29228,150.229374 187,135 C187,135 174.997643,146.919613 162.637006,160.717739 C162.637006,160.684195 156.501473,159.174675 149,156.479903 Z" id="Path" fill="#FB1A16"></path>
                <polygon id="Path" fill="#53D5F4" points="148 49 196.766077 49 203 96 162.391077 96"></polygon>
                <path d="M180.229224,53.8872757 L180.229224,53.8872757 C179.818662,53.8752138 179.492247,53.5442164 179.49243,53.1401397 C179.651124,42.802899 178.01884,35.9225566 174.61825,32.6775328 C172.906849,31.0583961 170.567972,30.2453544 168.202469,30.4472759 C158.26141,30.9044786 157.501945,52.9505678 157.490609,53.1735935 C157.526159,53.4560925 157.392927,53.7334293 157.14849,53.8857554 C156.904052,54.0380815 156.592242,54.0380815 156.347804,53.8857554 C156.103367,53.7334293 155.970135,53.4560925 156.005685,53.1735935 C156.005685,52.2145831 156.821827,29.5440219 168.134457,29.0310628 C170.912365,28.8104319 173.653011,29.772764 175.661098,31.6739172 C179.413082,35.2534795 181.158719,42.3010912 180.988689,53.2070474 C180.958721,53.595931 180.625595,53.8943007 180.229224,53.8872757 Z" id="Path" fill="#53D5F4"></path>
                <polygon id="Path" fill="#3EC0E8" points="186 49 140.588889 49 131 96 180.911111 96"></polygon>
                <path d="M161.067479,65.6085199 C160.592539,67.0636778 159.715175,68.3467304 158.541698,69.3022118 C157.441105,70.2718592 156.039439,70.8099597 154.586855,70.8204778 C153.388512,70.9233619 152.23433,70.3331249 151.595798,69.2908814 C150.988841,68.1598738 150.89969,66.8128708 151.352082,65.6085199 C151.825399,64.1124354 152.71934,62.7922114 153.922176,61.8128549 C155.049646,60.8014293 156.499177,60.2454725 157.998876,60.2492676 C159.225618,60.1308525 160.405814,60.7610196 161.012089,61.8581763 C161.531775,63.0478163 161.551796,64.4033682 161.067479,65.6085199 Z M155.406626,68.2371595 C156.127612,68.2278728 156.817601,67.9358564 157.334197,67.4213748 C157.852518,66.91337 158.234059,66.2772918 158.441996,65.5745289 C158.674268,64.9812279 158.693888,64.3230237 158.497386,63.7163526 C158.299983,63.1395379 157.739902,62.7779917 157.145871,62.8439161 C156.416702,62.8503313 155.719682,63.1517853 155.207223,63.6823615 C154.687142,64.2068723 154.305941,64.8579786 154.099424,65.5745289 C153.876919,66.1691125 153.876919,66.8267912 154.099424,67.4213748 C154.305886,67.9632999 154.841011,68.2972549 155.406626,68.2371595 Z M169.918793,61.2576681 C169.723906,61.7180026 169.462502,62.1457767 169.143334,62.5266665 L160.546814,73.2791623 C160.092616,73.8910008 159.372547,74.8087586 158.408762,76.0324357 C157.227109,77.5431481 155.458324,79.7676721 153.102404,82.7060078 C152.635783,83.4374804 151.86963,83.9126451 151.019742,83.9976669 C150.685153,84.0207013 150.361269,83.872058 150.155659,83.6011049 C149.980015,83.2990365 149.951369,82.9307048 150.078113,82.6040347 C150.306376,82.073191 150.616854,81.5834751 150.997586,81.1537508 L166.73941,61.3596412 C167.186701,60.6234705 167.928268,60.1261202 168.766682,60 C169.796935,60 170.184665,60.4192227 169.918793,61.2576681 Z M168.467576,78.5364415 C168.001858,80.0086909 167.118861,81.3061735 165.930717,82.2641244 C164.818825,83.2278521 163.411138,83.7612429 161.953718,83.7710601 C160.764815,83.8727239 159.622538,83.2753987 159.006973,82.2301334 C158.411101,81.0892478 158.338126,79.7374882 158.807569,78.5364415 C159.268284,77.0422876 160.14159,75.7162588 161.322273,74.7181158 C162.434615,73.727031 163.857317,73.17634 165.332505,73.1658588 C166.550058,73.0226136 167.737037,73.6207611 168.367875,74.6954552 C168.924751,75.905204 168.960909,77.2981759 168.467576,78.5364415 L168.467576,78.5364415 Z M165.842093,78.4344684 C166.071551,77.8411169 166.095013,77.1852066 165.908561,76.5762921 C165.662382,76.0209035 165.094025,75.6913453 164.501656,75.7605074 C163.771826,75.7759417 163.079709,76.0951029 162.585164,76.6442742 C162.069086,77.1586064 161.688085,77.7976831 161.477365,78.5024505 C161.26094,79.0825602 161.26094,79.7238654 161.477365,80.3039751 C161.690993,80.8594878 162.236332,81.205208 162.817802,81.1537508 C163.54755,81.1394777 164.243069,80.8346079 164.75645,80.3039751 C165.267976,79.7854451 165.641648,79.1419706 165.842093,78.4344684 L165.842093,78.4344684 Z" id="Shape" fill="#FFFFFF"></path>
                <path d="M175.239991,54 L175.239991,54 C175.041436,53.9969601 174.852201,53.9163728 174.713929,53.7758746 C174.575657,53.6353763 174.499676,53.4464796 174.502708,53.250751 C174.661507,42.8856158 173.02814,35.9867071 169.625293,32.7329268 C167.909264,31.1076286 165.564614,30.2923633 163.193911,30.4966517 C153.246253,30.9550881 152.497627,53.0606676 152.486284,53.2842952 C152.467924,53.6892525 152.126135,54.0063576 151.714972,54 C151.305919,53.9817539 150.987552,53.6430106 151.000374,53.2395697 C151.000374,52.2779714 151.805715,29.5462347 163.125854,29.0318914 C165.905998,28.8077287 168.649653,29.7730765 170.65749,31.6818775 C174.423308,35.271099 176.15876,42.3377284 175.988618,53.2731138 C175.98242,53.6763105 175.649057,54 175.239991,54 Z" id="Path" fill="#53D5F4"></path>
                <polygon id="Path" fill="#3CB7D3" points="191.973425 51 188 96 199 96"></polygon>
                <path d="M129.127157,110 L158.872843,110 C159.495354,110 160,109.552285 160,109 C160,108.447715 159.495354,108 158.872843,108 L129.127157,108 C128.504646,108 128,108.447715 128,109 L128,109 C128,109.552285 128.504646,110 129.127157,110 Z" id="Path" fill="#FFFFFF"></path>
                <path d="M125.966184,110 L126.033816,110 C126.567425,110 127,109.552285 127,109 C127,108.447715 126.567425,108 126.033816,108 L125.966184,108 C125.432575,108 125,108.447715 125,109 C125,109.552285 125.432575,110 125.966184,110 Z" id="Path" fill="#FFFFFF"></path>
                <path d="M129.138028,113.999951 L158.873239,113.9417 C159.495532,113.9417 160,113.507036 160,112.97085 C160,112.434664 159.495532,112 158.873239,112 L129.126761,112.058251 C128.504468,112.058251 128,112.492915 128,113.029101 L128,113.029101 C128,113.288278 128.120242,113.5367 128.333994,113.719051 C128.547746,113.901403 128.837245,114.002543 129.138028,113.999951 Z" id="Path" fill="#FFFFFF"></path>
                <path d="M125.956522,114 L126.033816,114 C126.567425,114 127,113.552285 127,113 C127,112.447715 126.567425,112 126.033816,112 L125.966184,112 C125.432575,112 125,112.447715 125,113 C125,113.552285 125.432575,114 125.966184,114 L125.956522,114 Z" id="Path" fill="#FFFFFF"></path>
                <path d="M158.884114,116 L129.127157,116.058252 C128.504646,116.058252 128,116.492927 128,117.029126 C128,117.565325 128.504646,118 129.127157,118 L158.872843,117.941748 C159.495354,117.941748 160,117.507073 160,116.970874 C160,116.434675 159.495354,116 158.872843,116 L158.884114,116 Z" id="Path" fill="#FFFFFF"></path>
                <path d="M126.033816,116 L125.966184,116 C125.432575,116 125,116.447715 125,117 L125,117 C125,117.552285 125.432575,118 125.966184,118 L126.033816,118 C126.567425,118 127,117.552285 127,117 C127,116.447715 126.567425,116 126.033816,116 Z" id="Path" fill="#FFFFFF"></path>
                <path d="M39.6374443,109 L38.5141159,110.924509 C37.9316493,111.66035 37.7756315,112.056573 37.3179792,112.305627 C35.3814431,113.271918 34.1016385,115.332942 34,117.648969 C34,117.648969 34,119.471592 35.1545319,118.882919 C36.3090639,118.294245 35.7786033,118.339528 37.3699851,117.547083 C38.961367,116.754638 39.5542348,114.230136 39.6894502,113.369767 L41,111.513182 L39.6374443,109 Z" id="Path" fill="url(#linearGradient-6)"></path>
                <path d="M116,80.5906133 C116,80.5906133 117.278349,77.5653744 118.69126,77.4465257 C120.104172,77.327677 124.578393,76.6361938 124.903587,77.252046 C125.189124,78.5442356 124.832479,79.8907924 123.939218,80.8931372 C122.986064,81.703469 117.03165,83 117.03165,83 L116,80.5906133 Z" id="Path" fill="url(#linearGradient-7)"></path>
                <path d="M93.9900041,212.086048 C93.8334828,212.572833 92.8719949,213.546404 90.5465358,214 L84.3639451,214 C83.5790926,213.803665 82.7682076,213.729021 81.9602253,213.778734 L81.6583629,213.778734 L80.942837,213.856177 L79.8919084,213.977873 L79.4447047,213.977873 L76.8732836,213.977873 L76.6049614,213.977873 C76.3317171,213.938828 76.0648391,213.864436 75.8111749,213.756607 L75.8111749,213.756607 C75.1883764,213.551248 74.7488147,212.998836 74.6931657,212.351567 C74.6590393,211.657689 74.7154038,210.962352 74.8608671,210.282729 C74.8608671,210.205286 74.8608671,210.116779 74.8608671,210.039336 C75.1068291,208.933006 75.7552744,208.501537 75.8670753,207.17394 C76.0906772,204.673632 74,196 74,196 L82.0161258,196 C82.0161258,196 81.8037041,203.854948 82.7092915,206.499078 C83.6148789,209.143208 86.1639399,209.75169 88.7912614,210.360172 C89.0819438,210.426552 89.3726262,210.503995 89.6744887,210.559312 L89.9875312,210.636755 C92.1900093,211.134604 94.1577055,211.555009 93.9900041,212.086048 Z" id="Path" fill="url(#linearGradient-8)"></path>
                <path d="M65.9135069,127.601821 C66.5837763,131.36842 67.5444959,135.26914 68.3823328,139.315159 C69.7117006,145.831263 70.728276,152.727379 69.6893583,160.204691 C69.5529956,161.253749 69.4783926,162.30992 69.4659351,163.367739 C69.2760254,176.534068 75.1520546,200.407818 75.1520546,200.407818 C76.5231215,200.89293 77.9810166,201.083353 79.4306081,200.96666 C80.6338563,200.804171 81.8098729,200.480883 82.9271806,200.005451 C82.9271806,200.005451 83.4857385,185.207303 83.519252,165.357218 C83.519252,150.927906 86.3678973,131.927262 86.9376264,120.772767 C87.0927431,115.516244 86.958486,110.255163 86.5354647,105.013409 C86.5354647,105.013409 74.7834064,95.524264 70.5942221,100.386193 C66.4050378,105.248123 63.4111674,113.496638 65.9135069,127.601821 Z" id="Path" fill="#664BC4"></path>
                <path d="M69.3282876,159.875518 C69.1897067,160.911785 69.11389,161.955079 69.1012299,163 C78.0359508,150.424786 80,123 80,123 L70.2024598,127.626001 C70.2024598,127.626001 69.0671712,132.770908 68,139.240685 C69.3509934,145.677339 70.384106,152.511455 69.3282876,159.875518 Z" id="Path" fill="#4E3BAD"></path>
                <path d="M68.9901884,213.12515 C68.8474958,213.593863 68.0571985,214.496992 66.0595026,215 L58.9907323,215 C58.3812166,214.866947 57.756662,214.824608 57.135729,214.874248 L56.8503438,214.874248 L56.1478574,214.954272 C56.0819993,214.954272 51.2194756,214.954272 51.1097121,214.851384 L51.1097121,214.851384 C50.4947439,214.64442 50.0609961,214.070693 50.012077,213.399519 C49.9731206,212.682438 50.0285157,211.963177 50.1767223,211.261733 C50.1767223,211.181709 50.1767223,211.090253 50.231604,211.010229 C50.4730837,209.867028 51.1426412,209.055355 51.263381,207.683514 C51.4719317,205.09988 51.0219013,196 51.0219013,196 L58.2662932,196.628761 C58.2662932,196.628761 56.9820601,204.631167 57.8821209,207.351986 C58.7272999,209.924188 61.2738134,210.712996 63.853256,211.353189 L64.7094114,211.547533 L65.0277255,211.627557 C67.2229958,212.141998 69.1548336,212.564982 68.9901884,213.12515 Z" id="Path" fill="url(#linearGradient-9)"></path>
                <path d="M50.5028139,200.848219 C51.5526909,201.325188 52.6479988,201.697502 53.7725087,201.959645 C55.185994,202.059611 56.6066401,201.973652 57.997269,201.704017 C58.7956973,193.40116 60.143165,185.158961 62.0310162,177.030367 C64.9467379,164.115506 68.9803778,151.472728 74.0873136,139.241893 C75.2109201,136.507786 80.0873721,123.559677 80.8963688,120.347656 C83.379539,110.467082 80.8963688,111.534051 80.8963688,111.534051 L59.2332361,109 C59.2332361,109 56.603997,110.367054 55.3343217,124.304332 C54.9747676,128.483292 54.9298234,146.532846 54.3680201,149.933808 C54.0235909,152.55094 53.402198,155.125047 52.5140695,157.61376 C48.4915583,167.40542 50.5028139,200.848219 50.5028139,200.848219 Z" id="Path" fill="#664BC4"></path>
                <path d="M68.9902012,212.140056 C68.8476752,212.610644 68.0583001,213.507003 66.0629352,214 L59.0024135,214 C58.3944381,213.863503 57.7697337,213.821949 57.1495747,213.876751 L57.0399393,213.876751 L56.8754861,213.876751 L56.1628559,213.943978 L55.8449131,213.943978 L51.5581678,213.943978 C51.4044195,213.914168 51.2538749,213.869138 51.1086625,213.809524 L51.1086625,213.809524 C50.4927875,213.595834 50.0612788,213.026954 50.0123082,212.364146 C49.9729013,211.653908 50.0282263,210.941493 50.1767613,210.246499 C50.1767613,210.168067 50.1767613,210.089636 50.2315791,210 C52.3585064,210.302521 55.3844443,211.535014 58.3555645,211.826331 C60.6406643,212.031499 62.9379503,211.609906 65.0104351,210.605042 C67.2250708,211.154062 69.1546544,211.591036 68.9902012,212.140056 Z" id="Path" fill="#664BC4"></path>
                <path d="M93.99017,212.048924 C93.836213,212.52846 92.8904776,213.49843 90.6031176,213.956168 L84.5218191,213.956168 C83.7515958,213.752484 82.9529156,213.675172 82.1574806,213.727299 L81.8605636,213.727299 L81.1457636,213.79269 C80.6948898,213.847183 80.2550128,213.901675 79.8261328,213.934371 C78.930221,214.021876 78.0277985,214.021876 77.1318866,213.934371 C76.783849,213.893708 76.4410713,213.816999 76.1091728,213.705502 L76.1091728,213.705502 C75.4914226,213.497647 75.0586001,212.944301 75.0094804,212.299591 C74.9759653,211.608827 75.0313962,210.916645 75.1744343,210.239768 C75.1744343,210.163478 75.1744343,210.07629 75.1744343,210 C77.3078374,210.29426 80.3429882,211.493099 83.3231544,211.776461 C85.6218311,211.990933 87.9361951,211.584176 90.0202807,210.599419 C92.2196653,211.089853 94.1551238,211.503998 93.99017,212.048924 Z" id="Path" fill="#664BC4"></path>
                <path d="M83.7952764,44.0173842 C84.5103058,38.1014166 82.6952312,28.6492128 71.0127509,30.1615654 C59.3302705,31.673918 55.6121177,43.2612079 58.0102163,48.4209992 C60.4083148,53.5807905 54.6220769,54.8262573 52.8180028,60.3641367 C51.266939,65.1347196 50.7279168,71.0506872 48.2198137,73.7084245 C40.1454817,82.2710092 55.986133,95.4262529 65.5345256,92.6128322 C82.9262407,87.5531231 85.1703329,86.7969468 84.5433072,72.9856089 C84.2352945,65.9131364 78.7790702,63.1664372 82.2442126,61.120313 C90.5935559,56.205167 82.1782099,57.3950327 83.7952764,44.0173842 Z" id="Path" fill="#0B1E2B"></path>
                <path d="M66,59.4369266 L69.3021002,67.6622706 L76.4378029,68 L80,62.8795872 C78.007108,61.2915265 76.7369821,59.0162973 76.46042,56.5389908 C76.2470428,55.1358874 76.2052926,53.7135099 76.3360258,52.3010321 C76.3360258,51.8652523 76.4264943,51.6037844 76.4264943,51.6037844 L67.5379645,49 L67.5379645,49 C67.4248788,51.266055 67.3004847,53.0527523 67.1534733,54.4472477 C66.6106624,59.3279817 66,59.4369266 66,59.4369266 Z" id="Path" fill="url(#linearGradient-10)"></path>
                <path d="M79.7424985,59.3682209 C79.2934793,59.3682209 71.7477657,57.7991303 59,61.1390516 C59,61.1390516 65.9871774,93.8657967 63.610661,100.030081 C62.169103,103.800471 61.0693059,107.698506 60.3251543,111.674974 L86.0506713,112 C86.0506713,112 85.6892655,90.8284858 86.8829996,83.3416824 C88.0767337,75.8548791 79.7424985,59.3682209 79.7424985,59.3682209 Z" id="Path" fill="url(#linearGradient-11)"></path>
                <path d="M116.006742,79.4603662 C116.006742,79.4603662 101.05266,84.9888793 99.5684115,85.1215636 C96.3320803,85.3537611 93.05111,69.8849815 90.0268143,64.7324072 C87.9734179,61.2383869 81.099004,60.1326843 80.2173828,60 L80.1169449,60 L80.1169449,60.0773992 C80.0499863,60.7850489 79.4473591,66.0813644 76.4788622,66.5678736 C70.9770992,67.4634927 66.5466733,62.4657168 65.2521408,60.4643951 L65.2521408,60.4643951 C65.2521408,60.4643951 59.0919517,60.6634216 56.1457744,63.361336 C52.8759638,66.3688471 48.0103073,84.8009098 46.6934552,93.8345003 C46.6934552,93.8345003 40.0980354,106.295769 38,111.23826 C38.3035401,111.71257 38.7070884,112.116175 39.1829349,112.421361 C39.713361,112.745386 40.2939848,112.980727 40.9015383,113.117954 C40.9015383,113.117954 52.8090053,99.8937506 53.5901887,97.8150297 C53.9584608,96.8198974 56.7930406,92.2865166 59.5829813,85.8844984 C60.7048198,89.1493796 61.1267223,92.6102715 60.821715,96.0459055 C60.442283,100.313918 56.4136087,110.077272 57.2840702,112.16705 C58.1545317,114.256828 59.4602239,115.484158 62.2390049,116.081237 C64.9678728,116.583294 67.7334746,116.864334 70.5083891,116.921571 C78.4095012,117.308567 86.8686014,116.324492 88.018057,112.598274 C88.5760451,110.818093 88.3640096,103.907451 88.018057,100.723028 C87.7717563,95.9001011 87.891129,91.0656607 88.3751694,86.2604373 L88.3751694,86.3378365 C89.2456309,87.6425656 90.2165303,89.0357509 91.2209089,90.3183659 C92.4402975,92.0366772 93.950537,93.5330135 95.684814,94.7411764 C95.975608,94.9166533 96.2917172,95.0471529 96.6222341,95.1281723 C97.6600921,95.3714269 99.546092,94.8075186 101.800364,93.8234432 C102.592707,93.4806754 103.440849,93.0826225 104.300151,92.6513985 C108.970908,90.2065631 113.514924,87.5310853 117.915062,84.6350544 C118.48421,81.7602276 116.006742,79.4603662 116.006742,79.4603662 Z" id="Path" fill="#FA7269"></path>
                <path d="M57.1258912,112.108767 C58.0638878,114.307204 59.3564928,115.406422 62.2047994,116 C66.0139805,115.2965 68.5191177,108.569284 69.8117227,105.260636 C71.2987904,101.446348 63.5545993,81.8253 61.4040706,82.001175 C59.8140521,82.1330812 59.5051996,84.6392991 59.4594436,85.9143925 C60.6280998,89.1903242 61.0684549,92.6654387 60.7520487,96.1151392 C60.3631233,100.325146 56.2336506,110.031244 57.1258912,112.108767 Z" id="Path" fill="#E75755"></path>
                <path d="M88,86.4849236 C88.8428928,87.7407414 89.7830424,89.0816994 90.755611,90.3162321 C91.9969868,91.9189478 93.4507557,93.3506816 95.078138,94.5732417 C95.3597221,94.7421403 95.6658197,94.8677478 95.9858687,94.94573 C96.9908562,95.1798655 98.8171239,94.6370968 101,93.6899122 C99.7269247,93.7911125 98.4476389,93.7911125 97.1745636,93.6899122 C95.0133001,93.5089893 94.3541147,91.167634 90.8852868,87.6662437 C88.8104738,85.5164539 88.1729011,85.8357296 88,86.4849236 Z" id="Path" fill="#E75755"></path>
                <path d="M68,49 C69.3460076,51.211288 72.6197719,55.8422576 77,57 C76.7847683,55.5089421 76.7426553,53.997402 76.8745247,52.4963821 C76.8745247,52.0332851 76.9657795,51.7554269 76.9657795,51.7554269 L68,49 Z" id="Path" fill="#EC7775"></path>
                <path d="M79.1560774,52.6727683 C79.1560774,52.6727683 68.5645131,54.8143012 67.3428406,48.1404234 C66.1211681,41.4665456 63.9243992,37.2174723 70.637994,35.5631665 C77.3515887,33.9088606 79.1336614,36.2203565 80.0863418,38.3505585 C81.0390222,40.4807606 81.8796225,51.958924 79.1560774,52.6727683 Z" id="Path" fill="url(#linearGradient-12)"></path>
                <path d="M73.998077,33.2954846 C73.998077,33.2954846 74.1960702,35.5551548 70.5739602,39.396594 C66.9518502,43.2380332 67.6622962,51 67.6622962,51 C67.6622962,51 61.7225016,38.9559583 64.9719187,35.3969779 C68.2213357,31.8379974 73.998077,33.2954846 73.998077,33.2954846 Z" id="Path" fill="#0B1E2B"></path>
                <path d="M69,31.2972038 C69,31.2972038 74.2031412,29.5053449 79.3730709,34.7211381 C81.5871736,37.0037609 81.2550582,41.4320493 80.0705132,44 C80.0705132,44 78.232808,38.4760527 74.9116541,37.2776757 C71.5905001,36.0792987 69,31.2972038 69,31.2972038 Z" id="Path" fill="#0B1E2B"></path>
                <path d="M75,48.6122868 C75,48.6122868 75.2968043,49.1974963 77.3744341,48.929972 C77.3744341,48.929972 79.1552596,48.7126085 78.9890492,48.0521578 C77.6069902,47.8955312 76.1910418,48.094354 75,48.6122868 L75,48.6122868 Z" id="Path" fill="#FFFFFF"></path>
                <path d="M340.441185,214.803077 C340.441185,214.803077 351.129068,215.692307 351.585815,213.691539 C351.654327,213.42477 353.150174,203.576544 353.150174,203.576544 L355,191.005049 C352.941235,190.906476 351.106898,192.260918 350.649483,194.217394 C349.439103,197.796546 345.84222,203.576544 340.509697,205.07712 C334.903125,206.666619 340.441185,214.803077 340.441185,214.803077 Z" id="Path" fill="#010117"></path>
                <path d="M290.436393,163.366539 L291.376315,163.680261 C292.960253,161.362736 296.067045,160.402177 298.81737,161.379632 C298.81737,161.379632 300.809111,162.15348 299.623018,163.178305 C298.436925,164.203131 298.739043,163.669803 297.105368,165.13384 C295.471693,166.597876 293.233782,167.340352 291.700812,166.848854 L290,166.284154 L290.436393,163.366539 Z" id="Path" fill="url(#linearGradient-13)"></path>
                <path d="M249,198.0252 C249,198.0252 283.513085,171.248758 293.347041,171.001037 C303.180998,170.753315 335,214.971603 335,214.971603 L323.070646,214.971603 C323.070646,214.971603 302.061235,203.610194 294.666366,192.823049 C294.315376,192.313594 293.735513,192.01774 293.123556,192.035887 C292.511599,192.054033 291.949719,192.383744 291.628594,192.913129 C287.803661,199.117427 277.81449,214.307259 271.361996,214.982863 C264.43277,215.624686 249,198.0252 249,198.0252 Z" id="Path" fill="#010117"></path>
                <path d="M252,125.318107 C252,125.318107 251.786701,127.035223 251.494819,129.148597 C251.215395,131.58132 250.810734,133.99864 250.282383,136.391304 L239.774611,139 L239,131.504128 C240.761939,127.563723 241.653377,123.302309 241.615717,119 L252,125.318107 Z" id="Path" fill="url(#linearGradient-14)"></path>
                <path d="M243,141.110236 L257.852881,159.389876 L263.041904,165.782143 C263.041904,165.782143 272.348668,167.531606 277.225233,167.957757 C280.751537,168.260549 292,166.836307 292,166.836307 L291.676384,163.471956 C288.326599,162.018224 284.885977,160.785747 281.376452,159.782384 C278.028695,159.07587 269.447279,157.135761 269.447279,157.135761 C266.222273,155.958238 253.936005,140 253.936005,140 L243,141.110236 Z" id="Path" fill="#4E3BAD"></path>
                <path d="M233.406152,206 L263.222932,203.536982 C263.222932,203.536982 263.310596,202.924014 263.442092,201.90983 C263.484848,201.580807 263.510453,201.249712 263.518798,200.917936 C263.584546,197.88653 262.422996,193.79636 261.918927,189.773059 C261.476592,187.26318 261.619213,184.682771 262.335332,182.239122 C263.255806,179.620076 263.672211,174.660606 263.858497,169.979758 C264.099574,164.072973 263.957119,158.556259 263.968077,158.511679 C264.134472,154.435739 263.431688,150.371445 261.907969,146.597806 C259.004093,138.796392 253.579872,134.338441 251.026653,131.697105 C251.026653,131.697105 247.914574,132.477246 239.827554,130.003084 C239.586477,129.936214 238.885164,130.972688 238.578339,131.574511 C238.578339,131.574511 235.08273,136.032462 233.636271,147.06589 C232.354182,156.862237 233.406152,206 233.406152,206 Z" id="Path" fill="#664BC4"></path>
                <path d="M241.008715,151.790738 C241.008715,153.149049 253.046037,191.645566 251.579672,194.494706 C244.466709,208.232419 262.380433,202.037197 263.354362,198.492337 C263.015128,196.129097 262.47892,185.240523 263.354362,182.049045 C264.054715,179.387639 263.813969,174.705332 264,170.023024 C263.642233,168.202324 262.983776,166.455254 262.052142,164.854817 C257.565504,164.159097 240.560051,141.189287 241.008715,151.790738 Z" id="Path" fill="#4E3BAD"></path>
                <path d="M301.779096,158.951504 L298.132308,156.297438 L298.035204,156.297438 L298.035204,156.297438 L297.344688,156 L294,167.222577 L296.923904,169.739363 L297.452581,169.979602 L297.452581,169.979602 C297.737895,170.061497 298.03326,169.889755 298.121518,169.590644 L301.908568,159.740859 C302.069554,159.482945 302.012753,159.136645 301.779096,158.951504 Z" id="Path" fill="#060632"></path>
                <path d="M300.764888,159.574787 L296.819396,157.056521 C296.666912,156.985771 296.488325,156.981224 296.331859,157.044109 C296.175394,157.106993 296.057188,157.230823 296.009162,157.382159 L292.06367,166.326347 C291.946795,166.551313 291.993632,166.819742 292.181095,166.999332 L295.962191,169.919219 C296.113421,170.007704 296.301125,170.024536 296.467934,169.964571 C296.634743,169.904606 296.760828,169.774972 296.807654,169.61529 L300.941026,160.269482 C301.063513,160.028161 300.990619,159.740666 300.764888,159.574787 L300.764888,159.574787 Z" id="Path" fill="#BED2FA"></path>
                <polygon id="Path" fill="#FFFFFF" points="293 165.10297 296.488994 168 300 159.483168 296.334906 157"></polygon>
                <path d="M294.580782,167.210006 C294.514107,167.19214 294.442968,167.203846 294.385535,167.242135 C294.328101,167.280425 294.289934,167.341589 294.280782,167.410006 C294.228001,167.550996 294.287889,167.70927 294.420782,167.780006 C294.540782,167.830006 294.670782,167.780006 294.720782,167.590006 C294.770393,167.446164 294.711857,167.287279 294.580782,167.210006 Z" id="Path" fill="#060632"></path>
                <polygon id="Path" fill="#FFFFFF" points="297.054545 158 294 165.573363 297 168 300 160.155756"></polygon>
                <polygon id="Path" fill="#FFFFFF" points="297.036364 159 295 164.306452 296.994805 166 299 160.501613"></polygon>
                <path d="M291,168.521798 L292.8581,168.521798 C293.391992,167.436267 294.337577,166.610677 295.483266,166.229767 C296.628955,165.848857 297.879104,165.944425 298.953972,166.495087 C298.953972,166.495087 300.659947,167.377687 299.714598,168.380146 C298.769249,169.382605 298.997437,168.837791 297.704373,170.276102 C296.411309,171.714413 294.585807,172.368191 293.281877,171.790687 L291.825822,171.136909 L291,168.521798 Z" id="Path" fill="url(#linearGradient-15)"></path>
                <path d="M243.803303,132 C243.803303,132 251.197072,135.154388 255.037847,141.89941 C257.594674,146.37372 261.999943,154.035975 264.656387,158.678072 C266.072267,161.126398 268.435548,162.865936 271.175743,163.476769 L280.152309,165.467837 L292.759348,168.655782 C292.962936,169.099138 293.039621,169.591245 292.980718,170.076376 C293.010213,170.716635 292.650657,171.310426 292.0731,171.575269 C292.0731,171.575269 280.296199,174.438828 276.112301,174.763215 C265.785375,175.546219 260.893092,174.181555 259.376705,173.644638 C259.041921,173.520993 258.731036,173.3393 258.458018,173.107721 C256.87522,171.810171 250.809674,166.6759 247.621941,161.776531 C244.434209,156.877162 236,144.528067 236,144.528067 L243.803303,132 Z" id="Path" fill="#664BC4"></path>
                <path d="M233.5385,194.854609 C233.5385,194.854609 230.353331,215 239.47601,215 L340.003048,215 C341.738148,213.681419 342.823501,211.662701 342.977353,209.467904 C343.177119,205.625858 341.989617,204.262552 341.989617,204.262552 C341.989617,204.262552 305.998318,202.989381 298.706834,200.510641 C262.071842,188.049342 233.5385,194.854609 233.5385,194.854609 Z" id="Path" fill="#0B0754"></path>
                <path d="M252,125.225597 C252,125.225597 251.794595,126.91757 251.513514,129 C242.162162,126.266811 242,119 242,119 L252,125.225597 Z" id="Path" fill="url(#linearGradient-16)"></path>
                <path d="M253.21384,125.997381 C253.21384,125.997381 241.327397,126.347655 241.214408,118.946708 C241.101419,111.545762 239.508274,106.596732 247.089836,106.065672 C254.671398,105.534611 256.185451,108.325503 256.829488,110.788718 C257.473526,113.251934 256.29844,125.714902 253.21384,125.997381 Z" id="Path" fill="url(#linearGradient-17)"></path>
                <path d="M241.872145,119 C241.872145,119 244.966307,109.127601 255.574861,109.63786 C261.831188,109.948452 260.958476,102.838106 260.958476,102.838106 C260.958476,102.838106 252.571371,100.952367 245.759682,102.838106 C234.108407,105.955122 240.829424,117.447038 241.872145,119 Z" id="Path" fill="#0B1E2B"></path>
                <rect id="Rectangle" fill="#FFFFFF" x="0" y="11" width="46" height="42" rx="10.12"></rect>
                <path d="M24.6965429,74.0354957 C24.9482873,74.1466225 25.0660999,74.4383387 24.9623553,74.6936752 C24.854411,74.9489924 24.5603906,75.0682664 24.3056423,74.9600812 C24.0508939,74.8518959 23.9318857,74.5572189 24.0398299,74.3019017 C24.1537082,74.0527161 24.4417865,73.9358526 24.6965429,74.0354957 L24.6965429,74.0354957 Z" id="Path" fill="#FFFFFF"></path>
                <path d="M20.0796379,68.1168749 C20.6401529,68.3516783 21.0035832,68.9014424 21,69.509074 C20.9963635,70.1167057 20.6264269,70.6621141 20.0631617,70.8902429 C19.4998965,71.1183718 18.8546251,70.9841343 18.4291039,70.5503056 C18.0035827,70.116477 17.8819107,69.468798 18.1209869,68.910151 C18.4451387,68.1527087 19.3196629,67.7985164 20.0796379,68.1168749 Z" id="Path" fill="#FFFFFF"></path>
                <path d="M14.1629852,60.2093462 C14.5996518,59.1951895 15.7758077,58.7269041 16.7901718,59.1633343 C17.8045359,59.5997645 18.2730907,60.7756866 17.8367854,61.7899989 C17.4004802,62.8043112 16.2244914,63.2730156 15.2099717,62.8369468 C14.7225507,62.6274397 14.3383735,62.2328499 14.1420093,61.7400388 C13.9456451,61.2472277 13.9531908,60.6965929 14.1629852,60.2093462 L14.1629852,60.2093462 Z" id="Path" fill="#FFFFFF"></path>
                <rect id="Rectangle" fill="#ED9696" x="263" y="51" width="48" height="44" rx="10.5"></rect>
                <path d="M285.314609,116.028879 C285.188617,116.079744 285.088699,116.178447 285.037376,116.302738 C284.986052,116.42703 284.987644,116.566449 285.041792,116.689571 C285.095025,116.814287 285.196625,116.912862 285.323986,116.963361 C285.451347,117.01386 285.593904,117.012094 285.719938,116.958457 C285.960865,116.836858 286.064978,116.552054 285.958104,116.30695 C285.85123,116.061845 285.569929,115.940288 285.314609,116.028879 L285.314609,116.028879 Z" id="Path" fill="#ED9696"></path>
                <path d="M289.912126,110.116864 C289.150215,110.441933 288.795753,111.323861 289.120405,112.086719 C289.445058,112.849577 290.325891,113.204496 291.087815,112.879458 C291.84974,112.554421 292.20424,111.672509 291.87962,110.909637 C291.550041,110.151785 290.67414,109.798853 289.912126,110.116864 L289.912126,110.116864 Z" id="Path" fill="#ED9696"></path>
                <path d="M295.848582,101.237752 C295.539322,100.48744 294.807362,99.9984282 293.995902,100 C293.184443,100.001579 292.454387,100.49343 292.148042,101.244937 C291.841697,101.996444 292.019807,102.858593 292.59886,103.427141 C293.177913,103.995689 294.043091,104.1579 294.78873,103.837716 C295.793134,103.406416 296.265169,102.248451 295.848582,101.237752 L295.848582,101.237752 Z" id="Path" fill="#ED9696"></path>
                <polygon id="Path" fill="#D37A7A" points="272 76 268 76 268 74 272 74"></polygon>
                <polygon id="Path" fill="#D37A7A" points="276.706865 69.852743 274.391466 71.9663138 273 70.3031761 276.706865 67 279 67 279 79 276.706865 79"></polygon>
                <path d="M290.549661,69.2019761 L286.159078,69.2019761 L286.159078,71.0180388 C286.481919,70.9158715 286.818256,70.8698728 287.154991,70.8818341 C287.683662,70.8751977 288.209298,70.9674124 288.707758,71.1542435 C289.162212,71.3157271 289.578565,71.5789593 289.928554,71.9260701 C290.269855,72.2765925 290.539579,72.6976942 290.721001,73.1632629 C290.911474,73.6802709 291.006012,74.2313853 290.999428,74.7863689 C291.008948,75.397455 290.899587,76.0040676 290.678166,76.5683805 C290.4766,77.0710552 290.173151,77.5205643 289.78934,77.885026 C289.400324,78.2539236 288.945026,78.5357501 288.450748,78.7136046 C287.905895,78.90868 287.333825,79.0046211 286.758767,78.9973644 C285.897086,79.0295126 285.048523,78.7668537 284.338592,78.2482385 C283.651143,77.6850689 283.176361,76.8798999 283,75.9781601 L285.473719,75.3765893 C285.51831,75.7740074 285.697089,76.1408944 285.977029,76.409475 C286.256333,76.6726476 286.620936,76.810956 286.99436,76.7953883 C287.443528,76.8209042 287.881065,76.6387156 288.193738,76.2959711 C288.497486,75.9572532 288.659622,75.5030771 288.643505,75.0360776 C288.657578,74.6982592 288.579502,74.3632991 288.418622,74.0712942 C288.265734,73.8239352 288.060364,73.6179212 287.818932,73.4697235 C287.562337,73.3190385 287.283549,73.2154245 286.99436,73.1632629 C286.693714,73.108673 286.389137,73.0820872 286.084117,73.0838101 C285.69251,73.082148 285.301649,73.1201554 284.916864,73.1973141 C284.528177,73.2737701 284.145228,73.3799854 283.771029,73.515125 L283.899534,67 L290.549661,67 L290.549661,69.2019761 Z" id="Path" fill="#D37A7A"></path>
                <path d="M292.000844,70.6716681 C291.999549,70.2260148 292.088959,69.7847985 292.263586,69.3751103 C292.411761,68.9685148 292.636738,68.5944965 292.926152,68.2736099 C293.530303,67.6592464 294.3512,67.3088257 295.210863,67.298323 C296.089339,67.2986941 296.931701,67.6495069 297.552692,68.2736099 C297.853553,68.5769646 298.093948,68.9352542 298.260953,69.3292145 C298.61139,70.1577533 298.61139,71.0937912 298.260953,71.9223301 C298.09141,72.3183095 297.851397,72.679917 297.552692,72.9894086 C296.931701,73.6135116 296.089339,73.9643245 295.210863,73.9646955 C294.3512,73.9541928 293.530303,73.6037721 292.926152,72.9894086 C292.627447,72.679917 292.387435,72.3183095 292.217892,71.9223301 C292.064897,71.5236868 291.991158,71.0987939 292.000844,70.6716681 L292.000844,70.6716681 Z M296.90155,70.6716681 C296.911315,70.240381 296.741569,69.8245416 296.433184,69.5242718 C296.141397,69.2028424 295.723615,69.0265995 295.290828,69.0423654 C294.858889,69.0311922 294.442931,69.2066657 294.148473,69.5242718 C293.843098,69.8257181 293.677378,70.2418469 293.69153,70.6716681 C293.680151,71.1009958 293.845445,71.5160543 294.148473,71.8190644 C294.447423,72.1288109 294.861436,72.299305 295.290828,72.2894969 C295.721006,72.3036252 296.136693,72.1324417 296.433184,71.8190644 C296.739255,71.5172268 296.908571,71.1024402 296.90155,70.6716681 L296.90155,70.6716681 Z M302.224926,67 L303.641447,67.7917034 L296.718773,80 L295.439334,79.2771403 L302.224926,67 Z M300.431414,76.3053839 C300.430133,75.8597306 300.519543,75.4185143 300.69417,75.0088261 C300.863713,74.6128467 301.103726,74.2512392 301.40243,73.9417476 C302.023422,73.3176446 302.865783,72.9668317 303.744259,72.9664607 C304.603923,72.9769634 305.42482,73.3273841 306.02897,73.9417476 C306.327675,74.2512392 306.567688,74.6128467 306.737231,75.0088261 C306.911857,75.4185143 307.001268,75.8597306 306.999986,76.3053839 C306.999986,76.754617 306.910651,77.1993267 306.737231,77.6134157 C306.567688,78.0093951 306.327675,78.3710026 306.02897,78.6804943 C305.42482,79.2948578 304.603923,79.6452784 303.744259,79.6557811 C302.865783,79.6554101 302.023422,79.3045972 301.40243,78.6804943 C301.103726,78.3710026 300.863713,78.0093951 300.69417,77.6134157 C300.520749,77.1993267 300.431414,76.754617 300.431414,76.3053839 Z M305.332133,76.3053839 C305.336982,75.877255 305.172666,75.4646537 304.875191,75.1579876 C304.576241,74.8482412 304.162228,74.6777471 303.732836,74.6875552 C303.302658,74.6734269 302.886971,74.8446104 302.59048,75.1579876 C301.975355,75.7981602 301.975355,76.8126077 302.59048,77.4527802 C302.883449,77.7712897 303.301579,77.9434795 303.732836,77.9232127 C304.16328,77.9388336 304.579554,77.7674082 304.875191,77.4527802 C305.172666,77.1461142 305.336982,76.7335128 305.332133,76.3053839 Z" id="Shape" fill="#D37A7A"></path>
                <polygon id="Path" fill="#FFFFFF" points="271 75 267 75 267 73 271 73"></polygon>
                <polygon id="Path" fill="#FFFFFF" points="275.672794 68.8494208 273.378676 70.969112 272 69.3127413 275.794118 66 278 66 278 78 275.661765 78"></polygon>
                <path d="M288.656641,68.2019761 L284.244703,68.2019761 L284.244703,70.0180388 C284.567539,69.9158715 284.903871,69.8698728 285.240601,69.8818341 C285.769266,69.8751977 286.294894,69.9674124 286.793347,70.1542435 C287.67945,70.4974231 288.382273,71.2299521 288.720893,72.1632629 C288.911364,72.6802709 289.005901,73.2313853 288.999316,73.7863689 C289.009764,74.3975395 288.900369,75.0043516 288.678059,75.5683805 C288.476496,76.0710552 288.173051,76.5205643 287.789246,76.885026 C287.402971,77.2578892 286.946857,77.5402245 286.450672,77.7136046 C285.905827,77.90868 285.333765,78.0046211 284.758715,77.9973644 C283.897046,78.0295126 283.048495,77.7668537 282.338574,77.2482385 C281.651843,76.6843884 281.177246,75.8795221 281,74.9781601 L283.473684,74.3765893 C283.520745,74.7699582 283.699319,75.1324023 283.976988,75.3981246 C284.269681,75.6755724 284.65626,75.8148869 285.047847,75.7840379 C285.497009,75.8095538 285.934539,75.6273652 286.247209,75.2846207 C286.550953,74.9459029 286.713086,74.4917267 286.69697,74.0247272 C286.708099,73.687226 286.630223,73.3531209 286.472089,73.0599439 C286.321803,72.8132383 286.115643,72.6103313 285.872408,72.4697235 C285.618538,72.3104788 285.338923,72.2027067 285.047847,72.1519125 C284.746561,72.1029142 284.442406,72.0763648 284.137617,72.0724597 C283.746269,72.076488 283.355887,72.1144493 282.97038,72.1859637 C282.582847,72.2677909 282.200236,72.3739143 281.824561,72.5037746 L281.953064,66 L288.678059,66 L288.656641,68.2019761 Z" id="Path" fill="#FFFFFF"></path>
                <path d="M290.000041,69.6749117 C289.997811,69.2287678 290.087267,68.7869642 290.262838,68.3772085 C290.430296,67.9797415 290.670565,67.6174476 290.971134,67.3091873 C291.575315,66.6942811 292.396254,66.3435508 293.255961,66.3330389 C294.134482,66.3334102 294.976886,66.684533 295.597909,67.3091873 C295.898479,67.6174476 296.138747,67.9797415 296.306206,68.3772085 C296.478175,68.7877047 296.563748,69.2295433 296.557537,69.6749117 C296.561493,70.1200745 296.476009,70.5614588 296.306206,70.9726148 C296.139193,71.3669231 295.898785,71.7255293 295.597909,72.0291519 C294.976886,72.6538062 294.134482,73.004929 293.255961,73.0053004 C292.396254,72.9947884 291.575315,72.6440582 290.971134,72.0291519 C290.670258,71.7255293 290.429851,71.3669231 290.262838,70.9726148 C290.089419,70.5621837 290.000041,70.1208312 290.000041,69.6749117 L290.000041,69.6749117 Z M294.901037,69.6749117 C294.909419,69.2435024 294.739882,68.827829 294.432647,68.5265018 C294.139664,68.2077109 293.721512,68.035369 293.290234,68.0556537 C292.859767,68.0400191 292.443473,68.2115958 292.14782,68.5265018 C291.532664,69.1672399 291.532664,70.1825835 292.14782,70.8233216 C292.443473,71.1382275 292.859767,71.3098043 293.290234,71.2941696 C293.721512,71.3144543 294.139664,71.1421124 294.432647,70.8233216 C294.741049,70.5227865 294.910802,70.1065798 294.901037,69.6749117 L294.901037,69.6749117 Z M300.224684,66 L301.641277,66.7924028 L294.718251,79 L293.438748,78.2765018 L300.224684,66 Z M298.431095,75.3136042 C298.429799,74.8675572 298.519214,74.4259512 298.69385,74.0159011 C298.860863,73.6215928 299.10127,73.2629866 299.402146,72.959364 C299.701486,72.6507522 300.05871,72.4048474 300.453167,72.2358657 C300.861519,72.0629935 301.301051,71.9769718 301.744094,71.9832155 C302.60672,71.9794675 303.432928,72.332449 304.028921,72.959364 C304.329797,73.2629866 304.570205,73.6215928 304.737217,74.0159011 C304.911853,74.4259512 305.001268,74.8675572 304.999986,75.3136042 C304.999986,75.7632342 304.910647,76.2083367 304.737217,76.6227915 C304.569759,77.0202585 304.329491,77.3825524 304.028921,77.6908127 C303.731169,77.9931557 303.378186,78.2349117 302.989325,78.4028269 C302.582741,78.5826091 302.14254,78.6726778 301.698397,78.6669611 C301.254052,78.6748676 300.813389,78.5847043 300.40747,78.4028269 C300.013686,78.2377888 299.656434,77.9957681 299.35645,77.6908127 C299.05588,77.3825524 298.815612,77.0202585 298.648153,76.6227915 C298.490346,76.2051305 298.416568,75.7601383 298.431095,75.3136042 L298.431095,75.3136042 Z M303.332049,75.3136042 C303.335655,74.8853312 303.171514,74.4728228 302.875083,74.1651943 C302.572727,73.8594259 302.161552,73.6874928 301.73267,73.6874928 C301.303788,73.6874928 300.892613,73.8594259 300.590256,74.1651943 C299.986707,74.8106002 299.986707,75.8166083 300.590256,76.4620141 C300.892613,76.7677825 301.303788,76.9397157 301.73267,76.9397157 C302.161552,76.9397157 302.572727,76.7677825 302.875083,76.4620141 C303.172573,76.1550772 303.336897,75.7421113 303.332049,75.3136042 L303.332049,75.3136042 Z" id="Shape" fill="#FFFFFF"></path>
                <polygon id="Path" fill="#664BC4" points="9 35 6 35 6 33 9 33"></polygon>
                <path d="M10,35.7911993 L13.8876582,32.36375 C14.0979541,32.1751013 14.2976178,31.9753233 14.4857595,31.7653065 C14.6799049,31.5490541 14.7863403,31.2702274 14.7848101,30.9818895 C14.7962436,30.6786027 14.6606379,30.3879489 14.4193038,30.1984725 C14.1724594,30.0103974 13.8677243,29.9106089 13.5553797,29.915572 C13.2067714,29.8961286 12.8669176,30.0272901 12.625,30.2746381 C12.4006814,30.521841 12.2679762,30.8362555 12.2484177,31.166863 L10.1439873,31.0145319 C10.1546706,30.5547587 10.264129,30.1023922 10.4651899,29.6870753 C10.6432969,29.3246391 10.9004365,29.0051632 11.2183544,28.7513273 C11.544004,28.4898886 11.9210636,28.2972724 12.3259494,28.1855261 C12.7677599,28.0557798 13.2272196,27.9933961 13.6882911,28.0005527 C14.1202661,27.994015 14.5504516,28.0564871 14.9620253,28.1855261 C15.3422334,28.2950405 15.6936899,28.4843788 15.9920886,28.7404465 C16.2928032,28.9905182 16.5282586,29.3076322 16.6787975,29.6653138 C16.8555999,30.0744742 16.9424112,30.5157142 16.9335443,30.9601279 C16.9370676,31.2460356 16.9035712,31.5312231 16.8338608,31.8088297 C16.7705897,32.0511067 16.6776098,32.2849412 16.556962,32.5052003 C16.4358579,32.7102686 16.2949105,32.9033893 16.1360759,33.0818823 C15.9738098,33.2630591 15.7999328,33.4338724 15.6155063,33.5932795 L12.5696203,36.172027 L17,36.172027 L17,38 L10,38 L10,35.7911993 Z" id="Path" fill="#664BC4"></path>
                <path d="M18.002492,33 C18.003305,32.4149464 18.0563721,31.8311654 18.1610452,31.2557875 C18.2361566,30.6914361 18.4078487,30.1446542 18.6684157,29.6399832 C18.9208823,29.163486 19.2835538,28.7559516 19.7254374,28.4522066 C20.2547738,28.1330122 20.8644993,27.9768401 21.4800935,28.0027776 C22.0956877,27.9768401 22.7054132,28.1330122 23.2347496,28.4522066 C23.6742034,28.7587635 24.0362895,29.1656401 24.2917714,29.6399832 C24.5624674,30.1438961 24.7482339,30.6899918 24.8414227,31.2557875 C25.0528591,32.4087456 25.0528591,33.5912544 24.8414227,34.7442125 C24.7482339,35.3100082 24.5624674,35.8561039 24.2917714,36.3600168 C24.0362895,36.8343599 23.6742034,37.2412365 23.2347496,37.5477934 C22.7054132,37.8669878 22.0956877,38.0231599 21.4800935,37.9972224 C20.8644993,38.0231599 20.2547738,37.8669878 19.7254374,37.5477934 C19.2835538,37.2440484 18.9208823,36.836514 18.6684157,36.3600168 C18.3931375,35.8581592 18.2070926,35.3112449 18.1187644,34.7442125 C18.0282571,34.1675329 17.9893418,33.5837612 18.002492,33 L18.002492,33 Z M20.0319737,33 C20.0319737,33.2568166 20.0319737,33.5564359 20.0319737,33.9202594 C20.0530879,34.2649788 20.1133838,34.6060853 20.2116674,34.936825 C20.2992749,35.2460924 20.4546334,35.531384 20.6661868,35.7714788 C21.1432795,36.2294062 21.890899,36.2294062 22.3679918,35.7714788 C22.5833493,35.5324267 22.7423651,35.2470554 22.8330813,34.936825 C22.931365,34.6060853 22.9916608,34.2649788 23.012775,33.9202594 C23.012775,33.5564359 23.012775,33.2568166 23.012775,33 C23.012775,32.7431834 23.012775,32.4435641 23.012775,32.0797406 C22.9958004,31.7170116 22.9354626,31.3577022 22.8330813,31.0096716 C22.7423651,30.6994411 22.5833493,30.4140699 22.3679918,30.1750177 C21.890899,29.7170904 21.1432795,29.7170904 20.6661868,30.1750177 C20.4546334,30.4151126 20.2992749,30.7004042 20.2116674,31.0096716 C20.1092861,31.3577022 20.0489483,31.7170116 20.0319737,32.0797406 C20.0425439,32.4435641 20.0319737,32.7431834 20.0319737,33 Z" id="Shape" fill="#664BC4"></path>
                <path d="M26.0000422,30.1014199 C25.9979309,29.718257 26.0750557,29.3386741 26.226761,28.9858012 C26.3688937,28.6514405 26.5769042,28.3481046 26.8387832,28.0933063 C27.0960087,27.8359018 27.3996267,27.6278338 27.7341489,27.479716 C28.0934502,27.3342099 28.4790444,27.2620947 28.8675232,27.2677485 C29.2561401,27.2605078 29.642059,27.3326836 30.0008975,27.479716 C30.3389377,27.627542 30.6463281,27.8355622 30.907597,28.0933063 C31.1659949,28.3509293 31.3735231,28.653562 31.5196191,28.9858012 C31.8156894,29.7009981 31.8156894,30.5018417 31.5196191,31.2170385 C31.3706607,31.5477263 31.1634626,31.8498776 30.907597,32.1095335 C30.6463281,32.3672775 30.3389377,32.5752977 30.0008975,32.7231237 C29.642059,32.8701561 29.2561401,32.942332 28.8675232,32.9350913 C28.4790444,32.940745 28.0934502,32.8686299 27.7341489,32.7231237 C27.3996267,32.575006 27.0960087,32.3669379 26.8387832,32.1095335 C26.5793436,31.852752 26.3716746,31.549914 26.226761,31.2170385 C26.0753586,30.8640739 25.9982464,30.4845528 26.0000422,30.1014199 L26.0000422,30.1014199 Z M30.2275724,30.1014199 C30.2327803,29.741931 30.0896438,29.3957339 29.8308914,29.1419878 C29.4385231,28.7517327 28.8451121,28.6342899 28.3300013,28.8449447 C27.8148904,29.0555994 27.4807235,29.5523754 27.4848065,30.1014199 C27.4723647,30.4654849 27.616378,30.8178525 27.8814875,31.0720081 C28.1440065,31.3429904 28.5090779,31.494467 28.8894528,31.4902363 C29.2698278,31.4860056 29.6313287,31.3264478 29.8875601,31.0496957 C30.1217804,30.7891061 30.2437305,30.448994 30.2275724,30.1014199 Z M34.8290721,27 L36.0531164,27.6693712 L30.0689,38 L28.9355257,37.3864097 L34.8290721,27 Z M33.2876831,34.8762677 C33.2803271,34.493739 33.3536517,34.113866 33.5030242,33.7606491 C33.653409,33.4307405 33.8604483,33.1288208 34.1150463,32.8681542 C34.6442567,32.3312643 35.3724804,32.0292354 36.1324526,32.0314085 C36.5216833,32.0296292 36.9072446,32.1055334 37.2658269,32.2545639 C37.9409677,32.5547639 38.4783471,33.0916788 38.7732148,33.7606491 C38.9261565,34.1131459 39.0033332,34.4929839 38.9998896,34.8762677 C39.0017294,35.2594007 38.9246172,35.6389217 38.7732148,35.9918864 C38.6313342,36.329669 38.423385,36.6367062 38.1611926,36.8955375 C37.9039671,37.152942 37.6003491,37.3610101 37.2658269,37.5091278 C36.9065256,37.654634 36.5209314,37.7267491 36.1324526,37.7210953 C35.7438357,37.728336 35.3579168,37.6561602 34.9990783,37.5091278 C34.6610381,37.3613018 34.3536476,37.1532816 34.0923788,36.8955375 C33.8375821,36.6308242 33.6305977,36.3252116 33.4803567,35.9918864 C33.3402806,35.6366295 33.274739,35.2571306 33.2876831,34.8762677 Z M37.5151693,34.8762677 C37.5127384,34.3276198 37.1758819,33.8340539 36.6607882,33.6244189 C36.1456945,33.4147839 35.5530925,33.530075 35.1577507,33.9168357 C34.8978832,34.1698504 34.7545446,34.5165359 34.7610697,34.8762677 C34.7522969,35.242975 34.8955076,35.5974067 35.1577507,35.8580122 C35.4153295,36.1141843 35.766288,36.2583233 36.1324526,36.2583233 C36.4986172,36.2583233 36.8495757,36.1141843 37.1071545,35.8580122 C37.377007,35.6015654 37.5250478,35.2453572 37.5151693,34.8762677 L37.5151693,34.8762677 Z" id="Shape" fill="#664BC4"></path>
            </g>
        </g>
    </g>
</svg>