<?xml version="1.0" encoding="UTF-8"?>
<svg width="21px" height="17px" viewBox="0 0 21 17" version="1.1" xmlns="http://www.w3.org/2000/svg" xmlns:xlink="http://www.w3.org/1999/xlink">
    <title>card</title>
    <defs>
        <polygon id="path-1" points="0 0.716 20.3777 0.716 20.3777 15.99955 0 15.99955"></polygon>
    </defs>
    <g id="wallet" stroke="none" stroke-width="1" fill="none" fill-rule="evenodd">
        <g id="Withdrawal" transform="translate(-41.000000, -506.000000)">
            <g id="card" transform="translate(41.000000, 506.000000)">
                <g id="Group-3" transform="translate(0.000000, 0.283800)">
                    <mask id="mask-2" fill="white">
                        <use xlink:href="#path-1"></use>
                    </mask>
                    <g id="Clip-2"></g>
                    <path d="M19.1037,3.8938 C19.1037,3.3558 19.1077,2.8388 19.1017,2.3228 C19.0997,2.1158 18.9697,1.9988 18.7587,1.9908 C18.7067,1.9888 18.6527,1.9898 18.5997,1.9898 C15.3117,1.9908 12.0227,1.9908 8.7337,1.9908 C6.3807,1.9908 4.0267,1.9908 1.6727,1.9918 C1.3877,1.9918 1.2757,2.1038 1.2747,2.3868 C1.2737,2.8318 1.2737,3.2758 1.2747,3.7198 C1.2747,3.7768 1.2817,3.8338 1.2857,3.8938 L19.1037,3.8938 Z M1.2737,6.4558 L1.2737,6.6288 C1.2737,9.1888 1.2737,11.7478 1.2747,14.3078 C1.2747,14.6188 1.3837,14.7258 1.6917,14.7258 L18.6607,14.7258 C18.9997,14.7258 19.1037,14.6238 19.1037,14.2918 L19.1037,6.6738 L19.1037,6.4558 L1.2737,6.4558 Z M20.3777,2.0698 L20.3777,14.6468 C20.3657,14.6768 20.3497,14.7068 20.3417,14.7378 C20.1527,15.5118 19.5407,15.9988 18.7457,15.9988 C13.0427,15.9998 7.3387,15.9998 1.6357,15.9988 C0.6937,15.9978 0.0007,15.3068 0.0007,14.3668 C-0.0003,10.3678 -0.0003,6.3688 0.0007,2.3698 C0.0007,1.4028 0.6887,0.7178 1.6567,0.7168 C2.7707,0.7158 3.8847,0.7158 4.9987,0.7158 C9.5817,0.7168 14.1637,0.7158 18.7467,0.7168 C19.4497,0.7168 20.0367,1.1158 20.2747,1.7498 C20.3137,1.8548 20.3437,1.9628 20.3777,2.0698 L20.3777,2.0698 Z" id="Fill-1" fill="#664BC4" mask="url(#mask-2)"></path>
                </g>
                <path d="M6.05,11.826 C6.792,11.826 7.534,11.822 8.276,11.827 C8.615,11.83 8.877,12.071 8.912,12.393 C8.947,12.707 8.744,13 8.432,13.079 C8.376,13.094 8.315,13.098 8.256,13.098 C6.785,13.099 5.314,13.1 3.843,13.098 C3.492,13.097 3.222,12.858 3.187,12.532 C3.154,12.216 3.355,11.924 3.667,11.847 C3.743,11.828 3.824,11.827 3.904,11.827 C4.619,11.825 5.334,11.826 6.05,11.826" id="Fill-4" fill="#664BC4"></path>
            </g>
        </g>
    </g>
</svg>