<?xml version="1.0" encoding="UTF-8"?>
<svg width="190px" height="187px" viewBox="0 0 190 187" version="1.1" xmlns="http://www.w3.org/2000/svg" xmlns:xlink="http://www.w3.org/1999/xlink">
    <title>🌄 Illus</title>
    <g id="wallet" stroke="none" stroke-width="1" fill="none" fill-rule="evenodd">
        <g id="1a.16-Successfully-Transaction" transform="translate(-92.000000, -141.000000)">
            <g id="🌄-Illus" transform="translate(58.325333, 109.000000)">
                <g id="Lock-Overturning" transform="translate(33.950000, 32.010000)">
                    <path d="M3.33422982,72.1320583 L19.834098,76.7602863 C18.0511049,83.1167216 17.1366924,89.7302582 17.1366924,96.4827903 C17.1366924,136.706146 49.7441703,169.313624 89.9675257,169.313624 C97.7750674,169.313624 105.295668,168.085084 112.34656,165.810773 C114.469141,171.375523 117.774559,176.594948 122.260497,181.080887 L121.830662,180.644911 C111.926169,184.396674 101.186654,186.450247 89.9675,186.450247 C40.2798207,186.450247 0,146.170427 0,96.4827475 C0,88.0440702 1.16182316,79.8767177 3.33422982,72.1320583 Z M44.5640131,1.53045763 L54.7498764,13.6694725 C65.5663433,9.06375258 77.4693006,6.51524749 89.9675,6.51524749 C139.655179,6.51524749 179.935,46.7950682 179.935,96.4827475 C179.935,102.631156 179.318241,108.635513 178.143216,114.437324 C173.188122,110.964453 167.675622,108.641486 161.973689,107.46685 C162.517337,103.885418 162.798359,100.216922 162.798359,96.4827903 C162.798359,56.259435 130.190881,23.651957 89.9675257,23.651957 C81.8169843,23.651957 73.8792803,24.9880001 66.3936416,27.5459475 L76.5964702,39.7051836 C77.1904502,40.4130608 77.5396295,41.2940182 77.5919134,42.216605 C77.7257799,44.5788945 75.9192891,46.6024263 73.5569996,46.736298 L31.8551783,49.09947 C31.4398909,49.1230036 31.0233902,49.0859326 30.6187849,48.9894243 C28.3172706,48.4404512 26.8965553,46.1296745 27.4455284,43.8281602 L37.1148926,3.29026135 C37.3282689,2.39570164 37.8238433,1.59354284 38.528342,1.00240496 C40.3408615,-0.518482776 43.0431253,-0.282065323 44.5640131,1.53045763 Z" id="Combined-Shape" fill="#BAE6FF"></path>
                    <g id="Dollar" transform="translate(67.900000, 55.290000)">
                        <path d="M23.765,17.46 C21.3542978,17.46 19.4,15.5057022 19.4,13.095 L19.4,4.365 C19.4,1.9542978 21.3542978,0 23.765,0 L23.765,0 C26.1757022,0 28.13,1.9542978 28.13,4.365 L28.13,13.095 C28.13,15.5057022 26.1757022,17.46 23.765,17.46 Z" id="Path" fill="#33B1FF"></path>
                        <path d="M23.765,83.42 C21.3542978,83.42 19.4,81.4222734 19.4,78.958 L19.4,65.572 C19.4,63.1077266 21.3542978,61.11 23.765,61.11 L23.765,61.11 C26.1757022,61.11 28.13,63.1077266 28.13,65.572 L28.13,78.958 C28.13,81.4222734 26.1757022,83.42 23.765,83.42 Z" id="Path" fill="#33B1FF"></path>
                        <path d="M35.6300185,25.5850538 C34.4203516,24.0274852 32.8395603,22.7897893 30.887597,21.8719355 C28.9356337,20.9540816 27.0524301,20.4951613 25.2379298,20.4951613 C24.3031887,20.4951613 23.3547131,20.5786013 22.3924769,20.7454839 C21.4302407,20.9123665 20.564242,21.2322208 19.7944547,21.7050538 C19.0246675,22.1778868 18.3786042,22.7897806 17.8562477,23.5407527 C17.3338911,24.2917248 17.0727172,25.2512859 17.0727172,26.4194624 C17.0727172,27.4207571 17.2789073,28.2551569 17.6912939,28.9226882 C18.1036805,29.5902194 18.7085031,30.1742967 19.5057856,30.6749462 C20.303068,31.1755958 21.2515393,31.6345161 22.3512384,32.0517204 C23.4509376,32.4689269 24.688078,32.9000329 26.0626987,33.3450538 C28.0421529,34.012585 30.1040579,34.7496357 32.2484658,35.5562366 C34.3928737,36.3628374 36.344811,37.4336471 38.1043253,38.7687097 C39.8638396,40.1037722 41.3209199,41.7586636 42.4756007,43.7334409 C43.6302816,45.7082181 44.2076155,48.169684 44.2076155,51.117957 C44.2076155,54.5112377 43.5890432,57.4455409 42.3518854,59.9209677 C41.1147276,62.3963902 39.4514595,64.4406517 37.3620333,66.053871 C35.272607,67.6670683 32.8808031,68.8630437 30.1865434,69.641828 C27.4922837,70.4206122 24.7155906,70.81 21.8563771,70.81 C17.6775246,70.81 13.6362089,70.0729449 9.73227357,68.5988172 C5.82834696,67.1246895 2.58430497,65.0247817 0,62.2990323 L9.2374122,52.7867742 C10.6670189,54.5668532 12.5502226,56.0548672 14.8870795,57.2508602 C17.2239364,58.4468532 19.547024,59.0448387 21.8563771,59.0448387 C22.9010902,59.0448387 23.9182951,58.9335853 24.9080222,58.7110753 C25.8977493,58.4885653 26.763748,58.1269936 27.5060444,57.6263441 C28.2483408,57.1256945 28.8394179,56.4581764 29.2792976,55.6237634 C29.7191773,54.7893504 29.9391128,53.7880689 29.9391128,52.6198925 C29.9391128,51.5073404 29.6641925,50.5616875 29.1143438,49.7829032 C28.5644964,49.0041189 27.7809702,48.294876 26.7637523,47.6551613 C25.7465344,47.0154466 24.4818988,46.4313649 22.9698152,45.9029032 C21.4577315,45.3744415 19.7394774,44.8042682 17.8150092,44.1923656 C15.9455228,43.580463 14.1173053,42.8573162 12.3302957,42.0229032 C10.5432862,41.1884902 8.94875175,40.1176761 7.54663586,38.8104301 C6.14451997,37.5031841 5.01734732,35.9178209 4.16508318,34.0543011 C3.31281904,32.1907812 2.88669131,29.9239917 2.88669131,27.253871 C2.88669131,23.9718477 3.54649779,21.1626882 4.86613678,18.8263441 C6.18577578,16.4899868 7.9177732,14.570869 10.0621811,13.0689247 C12.2065934,11.5669805 14.6258882,10.4683542 17.3201479,9.77301075 C20.0144076,9.07766732 22.7361017,8.73 25.4853604,8.73 C28.7844536,8.73 32.1522283,9.34189379 35.58878,10.5656989 C39.0253361,11.7895041 42.035695,13.5973733 44.62,15.9893548 L35.6300185,25.5850538 Z" id="Path" fill="#1192E8"></path>
                    </g>
                </g>
                <g id="Done-Circle" transform="translate(143.560000, 138.710000)">
                    <g id="Group">
                        <polygon id="Path" points="0 0 85.9569231 0 85.9569231 85.9569231 0 85.9569231"></polygon>
                        <path d="M68.9676069,18.0637777 C83.0243361,32.1205069 83.0243361,54.9110217 68.9676069,68.9676069 C54.9108777,83.0243361 32.1203629,83.0243361 18.0637777,68.9676069 C4.00704847,54.9108777 4.00704847,32.1203629 18.0637777,18.0637777 C32.1205069,4.00704847 54.9110217,4.00704847 68.9676069,18.0637777" id="Path" fill="#42BE65"></path>
                    </g>
                    <path d="M60.0584603,27.9993216 C61.4081058,26.5532719 63.6744532,26.4751227 65.1204993,27.8247682 C66.5665491,29.1744136 66.6446982,31.440761 65.2950528,32.8868072 L40.2242835,59.7483456 C38.9148337,61.1513274 36.7322477,61.272849 35.2751346,60.0239031 L22.73975,49.2792877 C21.2379178,47.992004 21.0639947,45.7309788 22.3512784,44.2291394 C23.6385621,42.7273072 25.8995874,42.5533841 27.4014267,43.8406679 L37.3301677,52.3510121 L60.0584317,27.9993083 L60.0584603,27.9993216 Z" id="Path" fill="#FFFFFF"></path>
                </g>
            </g>
        </g>
    </g>
</svg>