<?xml version="1.0" encoding="UTF-8"?>
<svg width="38px" height="38px" viewBox="0 0 38 38" version="1.1" xmlns="http://www.w3.org/2000/svg" xmlns:xlink="http://www.w3.org/1999/xlink">
    <title>wallet_receive</title>
    <g id="wallet" stroke="none" stroke-width="1" fill="none" fill-rule="evenodd">
        <g id="Wallet" transform="translate(-293.000000, -122.000000)">
            <g id="wallet_receive" transform="translate(293.000000, 122.000000)">
                <circle id="viola-scuro-copy-2" fill="#664BC4" cx="19" cy="19" r="19"></circle>
                <g id="Group-4" transform="translate(7.000000, 7.000000)">
                    <path d="M2.5806,11.4644 C2.0786,11.4644 1.6686,11.8734 1.6686,12.3764 L1.6686,19.7504 C1.6686,20.2534 2.0786,20.6624 2.5806,20.6624 C3.0836,20.6624 3.4926,20.2534 3.4926,19.7504 L3.4926,12.3764 C3.4926,11.8734 3.0836,11.4644 2.5806,11.4644 M2.5806,21.4854 C1.6236,21.4854 0.8456,20.7074 0.8456,19.7504 L0.8456,12.3764 C0.8456,11.4194 1.6236,10.6404 2.5806,10.6404 C3.5376,10.6404 4.3166,11.4194 4.3166,12.3764 L4.3166,19.7504 C4.3166,20.7074 3.5376,21.4854 2.5806,21.4854" id="Fill-5" fill="#FFFFFF"></path>
                    <path d="M4.3165,18.9444 L15.8815,18.9444 C16.4945,18.9444 17.0825,18.7564 17.5805,18.3994 L22.5555,14.8394 C22.7955,14.6674 23.0365,14.4694 23.2925,14.2344 C23.3795,14.1534 23.4685,14.0754 23.5575,13.9954 C23.8325,13.7514 24.0925,13.5204 24.3245,13.2434 C24.7575,12.7274 25.0065,12.1774 25.0075031,11.7364 C25.0085,11.4794 24.7645,11.3134 24.4475,11.1514 C24.4625,11.2384 24.4505,11.3324 24.4055,11.4174 C23.1505,13.7744 20.7135,15.2384 18.0475,15.2384 C17.7375,15.2384 17.4155,15.2164 17.0895,15.1734 C16.9225,15.1514 16.7865,15.0294 16.7445,14.8674 L16.6015,14.3064 C16.5625,14.1434 16.5485,13.9954 16.5685,13.8234 C16.5685,13.8234 16.5795,13.7524 16.5825,13.6474 L16.5825,13.5144 C16.5575,12.6044 15.9725,12.4914 15.7805,12.4544 L11.5615,11.7864 C9.5305,11.4654 7.4845,11.7774 5.6435,12.6924 L4.3165,13.3524 L4.3165,18.9444 Z M15.8815,19.7684 L3.9045,19.7684 C3.6765,19.7684 3.4925,19.5844 3.4925,19.3564 L3.4925,13.0964 C3.4925,12.9404 3.5815,12.7974 3.7215,12.7274 L5.2765,11.9544 C7.2725,10.9634 9.4895,10.6244 11.6905,10.9724 L15.9235,11.6434 C16.8435,11.8204 17.3795,12.4984 17.4055,13.5034 L17.4065,13.6614 C17.3995,13.8504 17.3795,13.9704 17.3775,13.9844 C17.3845,14.0024 17.3885,14.0594 17.3935,14.0784 L17.4725,14.3874 C17.6685,14.4054 17.8605,14.4154 18.0475,14.4154 C20.4095,14.4154 22.5665,13.1184 23.6785,11.0304 C23.7385,10.9184 23.8425,10.8444 23.9585,10.8204 C23.8965,10.7024 23.8925,10.5554 23.9625,10.4294 C24.0715,10.2304 24.3225,10.1574 24.5215,10.2674 C24.5655,10.2924 24.6195,10.3184 24.6775,10.3464 C25.0825,10.5424 25.8345,10.9064 25.8315089,11.7384 C25.8295,12.6034 25.2815,13.3844 24.9555,13.7734 C24.6845,14.0954 24.3895,14.3584 24.1055,14.6114 C24.0195,14.6874 23.9335,14.7634 23.8485,14.8414 C23.5685,15.0994 23.3015,15.3174 23.0345,15.5084 L18.0605,19.0694 C17.4205,19.5264 16.6675,19.7684 15.8815,19.7684 L15.8815,19.7684 Z" id="Fill-7" fill="#FFFFFF"></path>
                    <g id="Group-13" transform="translate(10.714600, 0.620100)" fill="#FFFFFF">
                        <path d="M8.7527,13.6324 L8.6467,13.6604 C8.5187,13.6814 8.3917,13.7104 8.2567,13.7244 L8.1647,13.7384 C8.0657,13.7524 7.95970588,13.7664 7.8247,13.7744 L7.7397,13.7804 C7.4697,13.7954 7.1937,13.7954 6.9237,13.7804 L6.8957,14.1924 L6.8747,13.7744 C6.8387,13.7744 6.8037,13.7744 6.7757,13.7664 L6.7257,13.5324 C6.6977,13.3914 6.6837,13.2284 6.6897,13.0934 L6.6897,13.0444 L6.6897,12.8814 C6.6617,11.8814 6.1307,11.2014 5.2097,11.0244 L1.7357,10.4714 C1.1477,9.3944 0.8857,8.1744 0.9777,6.9344 C1.2047,3.7804 3.7637,1.2504 6.9237,1.0594 C8.7107,0.9454 10.4037,1.5554 11.6937,2.7674 C12.9907,3.9864 13.7067,5.6374 13.7067,7.4164 C13.7067,8.2534 13.5507,9.0684 13.2317,9.8404 L12.9627,10.4074 C12.8987,10.5344 12.8277,10.6554 12.7427,10.7904 C12.6797,10.8964 12.6017,11.0094 12.5307,11.1164 L12.5027,11.1514 C12.3457,11.3644 12.1697,11.5764 11.9917,11.7754 L12.2897,12.0514 L11.9497,11.8104 C11.8717,11.9034 11.7787,11.9874 11.6937,12.0724 L11.9707,12.3634 L11.6657,12.0944 C11.5667,12.1864 11.4607,12.2784 11.3467,12.3704 C11.2477,12.4554 11.1487,12.5264 11.0487,12.5974 L10.9857,12.6394 C10.8787,12.7174 10.7727,12.7884 10.6597,12.8594 C10.5457,12.9304 10.4327,12.9944 10.3127,13.0584 L10.2407,13.0934 C10.1487,13.1434 10.0497,13.1854 9.9297,13.2424 L9.8727,13.2634 C9.7527,13.3204 9.6317,13.3704 9.4827,13.4194 C9.3697,13.4624 9.2557,13.4974 9.1357,13.5324 L9.0147,13.5684 C8.9297,13.5894 8.8377,13.6114 8.7527,13.6324" id="Fill-9"></path>
                        <path d="M6.0242,14.2276 L5.9182,13.6956 C5.8752,13.4906 5.8612,13.2636 5.8682,13.0296 L5.8682,12.8946 C5.8402,11.9876 5.2582,11.8746 5.0672,11.8316 L1.4102,11.2576 C1.2902,11.2366 1.1832,11.1656 1.1192,11.0596 C0.3822,9.7906 0.0422,8.3446 0.1552,6.8776 C0.4182,3.3126 3.3022,0.4566 6.8672,0.2366 C8.8802,0.1096 10.7942,0.7966 12.2612,2.1716 C13.7072,3.5256 14.5292,5.4386 14.5292,7.4166 C14.5292,8.3666 14.3522,9.2946 13.9902,10.1666 C13.9832,10.1806 13.7002,10.7756 13.7002,10.7756 C13.6152,10.9386 13.5372,11.0736 13.4522,11.2076 C13.3672,11.3506 13.2812,11.4706 13.1962,11.5906 L13.1682,11.6336 C12.9912,11.8746 12.7992,12.1156 12.5872,12.3346 L12.5662,12.3636 C12.4522,12.4776 12.3602,12.5766 12.2542,12.6686 L11.9422,12.3986 L12.2262,12.6966 C12.1122,12.8026 11.9992,12.9026 11.8782,13.0016 C11.7512,13.1006 11.6442,13.1856 11.5312,13.2706 L11.4532,13.3206 C11.3392,13.3986 11.2192,13.4836 11.0992,13.5546 C10.9642,13.6396 10.8292,13.7096 10.7022,13.7806 L10.6522,13.8096 L10.6242,13.8236 C10.5102,13.8806 10.4042,13.9296 10.2912,13.9796 L10.2062,14.0216 C10.0642,14.0786 9.9292,14.1356 9.7872,14.1856 L9.7592,14.1996 C9.6312,14.2416 9.5042,14.2846 9.3692,14.3266 L9.2342,14.3626 C9.1432,14.3906 9.0432,14.4116 8.9442,14.4336 L8.8162,14.4616 C8.6752,14.4966 8.5262,14.5186 8.3772,14.5396 L8.2712,14.5536 C8.1572,14.5676 8.0372,14.5816 7.9162,14.5966 L7.7892,14.6026 C7.6402,14.6106 7.4842,14.6176 7.3352,14.6176 C7.1792,14.6176 7.0242,14.6106 6.8672,14.6026 L6.8322,14.5966 C6.6692,14.5886 6.5202,14.5746 6.3712,14.5536 C6.2012,14.5326 6.0592,14.3976 6.0242,14.2276 M0.9782,6.9346 C0.8852,8.1746 1.1482,9.3946 1.7362,10.4716 L5.2092,11.0236 C6.1302,11.2016 6.6622,11.8816 6.6902,12.8806 L6.6902,13.0436 L6.6902,13.0936 C6.6832,13.2276 6.6972,13.3916 6.7262,13.5326 L6.7752,13.7666 C6.8042,13.7736 6.8392,13.7736 6.8752,13.7736 L6.8962,14.1916 L6.9242,13.7806 C7.1932,13.7946 7.4702,13.7946 7.7392,13.7806 L7.8242,13.7736 C7.9592,13.7666 8.0652,13.7526 8.1642,13.7386 L8.2562,13.7246 C8.3912,13.7096 8.5192,13.6816 8.6472,13.6606 L8.7532,13.6326 C8.8372,13.6106 8.9302,13.5896 9.0152,13.5686 L9.1352,13.5326 C9.2562,13.4976 9.3692,13.4616 9.4822,13.4196 C9.6312,13.3706 9.7522,13.3206 9.8732,13.2636 L9.9292,13.2426 C10.0502,13.1856 10.1492,13.1436 10.2412,13.0936 L10.3122,13.0586 C10.4322,12.9946 10.5462,12.9306 10.6592,12.8596 C10.7732,12.7886 10.8792,12.7176 10.9852,12.6396 L11.0492,12.5976 C11.1482,12.5266 11.2482,12.4556 11.3472,12.3706 C11.4602,12.2786 11.5662,12.1856 11.6662,12.0946 L11.9702,12.3636 L11.6942,12.0726 C11.7792,11.9876 11.8712,11.9026 11.9492,11.8106 L12.2892,12.0516 L11.9922,11.7756 C12.1692,11.5766 12.3462,11.3646 12.5022,11.1516 L12.5302,11.1166 C12.6012,11.0096 12.6792,10.8966 12.7432,10.7896 C12.8282,10.6556 12.8992,10.5346 12.9622,10.4076 L13.2322,9.8406 C13.5512,9.0676 13.7072,8.2526 13.7072,7.4166 C13.7072,5.6376 12.9912,3.9856 11.6942,2.7676 C10.4042,1.5556 8.7102,0.9456 6.9242,1.0596 C3.7632,1.2506 1.2052,3.7806 0.9782,6.9346" id="Fill-11"></path>
                    </g>
                    <path d="M17.1436,15.1768 L12.6736,15.1768 C12.4456,15.1768 12.2616,14.9928 12.2616,14.7648 C12.2616,14.5378 12.4456,14.3528 12.6736,14.3528 L17.1436,14.3528 C17.3716,14.3528 17.5556,14.5378 17.5556,14.7648 C17.5556,14.9928 17.3716,15.1768 17.1436,15.1768" id="Fill-14" fill="#FFFFFF"></path>
                    <path d="M11.2593,18.127 L5.6743,18.127 C5.4473,18.127 5.2623,17.942 5.2623,17.715 C5.2623,17.488 5.4473,17.303 5.6743,17.303 L11.2593,17.303 C11.4873,17.303 11.6713,17.488 11.6713,17.715 C11.6713,17.942 11.4873,18.127 11.2593,18.127" id="Fill-16" fill="#FFFFFF"></path>
                    <path d="M15.1124,9.627 C14.7274,10.012 14.7274,10.636 15.1124,11.022 C15.4974,11.406 16.1214,11.406 16.5064,11.022 L18.0714,9.456 L19.6364,11.022 C20.0214,11.406 20.6454,11.406 21.0304,11.022 C21.4154,10.636 21.4154,10.012 21.0304,9.627 L19.4664,8.062 L21.0304,6.497 C21.4154,6.112 21.4154,5.488 21.0304,5.103 C20.6454,4.718 20.0214,4.718 19.6364,5.103 L18.0714,6.668 L16.6774,8.062 L16.5174,8.222 L16.2534,8.486 L15.1124,9.627 Z" id="Fill-18" fill="#664BC4"></path>
                    <path d="M16.3912,7.7837 L17.7912,6.3837 L16.5182,5.1107 C16.1322,4.7237 15.5052,4.7237 15.1182,5.1107 C14.7322,5.4967 14.7322,6.1237 15.1182,6.5107 L16.3912,7.7837 Z" id="Fill-20" fill="#664BC4"></path>
                </g>
            </g>
        </g>
    </g>
</svg>