<svg xmlns="http://www.w3.org/2000/svg" width="25" height="25" viewBox="0 0 25 25">
  <path id="Icon_awesome-chevron-circle-down" data-name="Icon awesome-chevron-circle-down" d="M25.563,13.063a12.5,12.5,0,1,1-12.5-12.5A12.5,12.5,0,0,1,25.563,13.063ZM13.919,18.8l6.83-6.83a1.2,1.2,0,0,0,0-1.709l-.857-.857a1.2,1.2,0,0,0-1.709,0l-5.121,5.121L7.942,9.408a1.2,1.2,0,0,0-1.709,0l-.857.857a1.2,1.2,0,0,0,0,1.709l6.83,6.83A1.211,1.211,0,0,0,13.919,18.8Z" transform="translate(-0.563 -0.563)" fill="#3ebce4"/>
</svg>
