<svg xmlns="http://www.w3.org/2000/svg" width="25" height="25" viewBox="0 0 25 25">
  <path id="Icon_awesome-chevron-circle-down" data-name="Icon awesome-chevron-circle-down" d="M25,12.5A12.5,12.5,0,1,1,12.5,0,12.5,12.5,0,0,1,25,12.5ZM13.357,18.241l6.83-6.83a1.2,1.2,0,0,0,0-1.709l-.857-.857a1.2,1.2,0,0,0-1.709,0L12.5,13.967,7.379,8.846a1.2,1.2,0,0,0-1.709,0L4.814,9.7a1.2,1.2,0,0,0,0,1.709l6.83,6.83A1.211,1.211,0,0,0,13.357,18.241Z" transform="translate(25 25) rotate(180)" fill="#3ebce4"/>
</svg>
