<svg xmlns="http://www.w3.org/2000/svg" width="26.861" height="24.375" viewBox="0 0 26.861 24.375">
  <g id="Icon_material-photo-camera" data-name="Icon material-photo-camera" transform="translate(1 1)">
    <path id="Tracciato_14" data-name="Tracciato 14" d="M21.156,17.178A3.978,3.978,0,1,1,17.178,13.2,3.978,3.978,0,0,1,21.156,17.178Z" transform="translate(-4.747 -4.747)" fill="none" stroke="#fff" stroke-width="2"/>
    <path id="Tracciato_15" data-name="Tracciato 15" d="M11.7,3,9.427,5.486H5.486A2.493,2.493,0,0,0,3,7.972V22.889a2.493,2.493,0,0,0,2.486,2.486H25.375a2.493,2.493,0,0,0,2.486-2.486V7.972a2.493,2.493,0,0,0-2.486-2.486h-3.94L19.16,3Zm3.729,18.646a6.215,6.215,0,1,1,6.215-6.215A6.218,6.218,0,0,1,15.431,21.646Z" transform="translate(-3 -3)" fill="none" stroke="#fff" stroke-width="2"/>
  </g>
</svg>
