<svg xmlns="http://www.w3.org/2000/svg" xmlns:xlink="http://www.w3.org/1999/xlink" width="38.549" height="35.941" viewBox="0 0 38.549 35.941">
  <defs>
    <clipPath id="clip-path">
      <path id="Tracciato_2" data-name="Tracciato 2" d="M105.878,32.172H89V56.1h16.878Zm0,0" transform="translate(-89 -32.172)" fill="#664bc4"/>
    </clipPath>
    <clipPath id="clip-path-2">
      <path id="Tracciato_4" data-name="Tracciato 4" d="M12.469,93H51.018v23.092H12.469Zm0,0" transform="translate(-12.469 -93)" fill="#664bc4"/>
    </clipPath>
  </defs>
  <g id="Untitled_design" data-name="Untitled design" transform="translate(0)">
    <g id="Raggruppa_1" data-name="Raggruppa 1" transform="translate(10.835 0)" clip-path="url(#clip-path)">
      <path id="Tracciato_1" data-name="Tracciato 1" d="M105.863,50.214,98.71,55.866l-.018.012c-.012.01-.026.018-.039.028s-.052.034-.078.05a1.271,1.271,0,0,1-.116.064l-.05.026c-.018.008-.037.014-.056.021a1.255,1.255,0,0,1-.156.048c-.018.005-.035.012-.054.016l-.029,0a1.392,1.392,0,0,1-.252.025h0a1.293,1.293,0,0,1-.256-.026l-.033-.006c-.021-.005-.041-.014-.063-.02a1.37,1.37,0,0,1-.148-.046l-.062-.026c-.022-.01-.043-.022-.064-.033s-.067-.035-.1-.055-.057-.038-.086-.059-.038-.028-.057-.043-.016-.01-.024-.016l-6.6-5.652a1.372,1.372,0,0,1,1.785-2.085l4.333,3.712V33.689a1.372,1.372,0,1,1,2.744,0V51.955l4.931-3.9a1.372,1.372,0,0,1,1.7,2.155Zm0,0" transform="translate(-89.693 -32.286)" fill="#664bc4"/>
    </g>
    <g id="Raggruppa_2" data-name="Raggruppa 2" transform="translate(0 12.85)" clip-path="url(#clip-path-2)">
      <path id="Tracciato_3" data-name="Tracciato 3" d="M50.969,105.26a.913.913,0,0,0-.011-.116c-.006-.035-.014-.068-.022-.1s-.019-.066-.032-.1a.954.954,0,0,0-.047-.108c-.008-.017-.013-.034-.022-.051L44.917,94.271a1.085,1.085,0,0,0-.945-.552H39.753a1.085,1.085,0,0,0,0,2.17h3.584l4.7,8.342H39.409a1.085,1.085,0,0,0-1.085,1.085v2.29a.06.06,0,0,1-.059.06H25.121a.059.059,0,0,1-.059-.06v-2.29a1.085,1.085,0,0,0-1.085-1.085H15.392l4.9-8.342H23.86a1.085,1.085,0,0,0,0-2.17H19.676a1.083,1.083,0,0,0-.935.535L12.56,104.766c-.01.019-.016.038-.026.057a1.13,1.13,0,0,0-.05.109c-.012.033-.022.066-.031.1s-.017.068-.024.1-.009.078-.012.117c0,.022-.006.042-.006.064v10.3A1.085,1.085,0,0,0,13.5,116.7H49.889a1.085,1.085,0,0,0,1.085-1.085v-10.3a.542.542,0,0,0-.006-.056Zm0,0" transform="translate(-12.42 -93.6)" fill="#664bc4"/>
    </g>
  </g>
</svg>
