<?xml version="1.0" encoding="UTF-8"?>
<svg width="18px" height="29px" viewBox="0 0 18 29" version="1.1" xmlns="http://www.w3.org/2000/svg" xmlns:xlink="http://www.w3.org/1999/xlink">
    <title>my events</title>
    <defs>
        <polygon id="path-1" points="0.00036734602 0.847775615 17.889 0.847775615 17.889 19 0.00036734602 19"></polygon>
        <polygon id="path-3" points="0.80775 0.945 3.27908 0.945 3.27908 14.3621653 0.80775 14.3621653"></polygon>
    </defs>
    <g id="Menu" stroke="none" stroke-width="1" fill="none" fill-rule="evenodd">
        <g id="My-profile" transform="translate(-25.000000, -345.000000)">
            <g id="my-events" transform="translate(25.000000, 345.000000)">
                <g id="Group-3" transform="translate(0.000000, 8.055300)">
                    <mask id="mask-2" fill="white">
                        <use xlink:href="#path-1"></use>
                    </mask>
                    <g id="Clip-2"></g>
                    <path d="M2.4694,6.8776 C2.4694,8.0696 2.5394,9.2676 2.4564,10.4546 C2.2264,13.7566 4.8264,15.9816 7.2044,16.5826 C9.9034,17.2656 12.8944,16.2106 14.4474,13.9646 C15.1124,13.0016 15.4704,11.9446 15.4514,10.7636 C15.4354,9.7556 15.4384,8.7486 15.4514,7.7416 C15.4624,6.9316 15.9764,6.3756 16.6864,6.3686 C17.3504,6.3626 17.8384,6.8816 17.8554,7.7046 C17.8814,8.8976 17.9214,10.0946 17.8444,11.2816 C17.6024,14.9926 14.5904,18.2086 10.7944,18.8326 C7.3674,19.3956 4.3634,18.5646 1.9774,15.9636 C0.6364,14.5006 -0.0026,12.7336 0.0024,10.7386 C0.0094,7.9306 0.0104,5.1206 0.00036734602,2.3116 C-0.0026,1.6316 0.2004,1.1066 0.9044,0.9106 C1.8194,0.6566 2.4454,1.1856 2.4624,2.2656 C2.4874,3.8026 2.4694,5.3396 2.4694,6.8776" id="Fill-1" fill="#B4BBCB" mask="url(#mask-2)"></path>
                </g>
                <g id="Group-6" transform="translate(7.000000, 0.055300)">
                    <mask id="mask-4" fill="white">
                        <use xlink:href="#path-3"></use>
                    </mask>
                    <g id="Clip-5"></g>
                    <path d="M3.278,7.6276 C3.278,9.3746 3.281,11.1216 3.277,12.8686 C3.274,13.8306 2.882,14.3286 2.12,14.3606 C1.323,14.3946 0.823,13.8736 0.819,12.9076 C0.804,9.4136 0.804,5.9196 0.819,2.4266 C0.822,1.4316 1.278,0.9346 2.08,0.9446 C2.892,0.9556 3.275,1.4376 3.277,2.4666 C3.28,4.1876 3.278,5.9076 3.278,7.6276" id="Fill-4" fill="#B4BBCB" mask="url(#mask-4)"></path>
                </g>
                <path d="M11.5998,8.9934 C11.5998,7.6434 11.5908,6.2934 11.6038,4.9434 C11.6118,4.1434 12.0788,3.6194 12.7558,3.5994 C13.4618,3.5804 13.9718,4.1224 13.9748,4.9634 C13.9868,7.6894 13.9868,10.4154 13.9738,13.1414 C13.9698,13.9524 13.5018,14.4204 12.7778,14.4174143 C12.0518,14.4144 11.6138,13.9524 11.6038,13.1224 C11.5888,11.7464 11.5998,10.3694 11.5998,8.9934" id="Fill-7" fill="#B4BBCB"></path>
                <path d="M4.1349,9.3586 C4.1349,8.1386 4.1269,6.9196 4.1369,5.7006 C4.1449,4.8846 4.5809,4.3996 5.2929,4.3786 C6.0259,4.3556 6.5179,4.7816 6.5289,5.6216 C6.5619,8.1386 6.5609,10.6566 6.5289,13.1736 C6.5179,14.0056 6.0199,14.4396 5.2919,14.4166 C4.5679,14.3936 4.1439,13.9226 4.1369,13.0956 C4.1279,11.8496 4.1349,10.6036 4.1349,9.3586" id="Fill-9" fill="#B4BBCB"></path>
            </g>
        </g>
    </g>
</svg>