<?xml version="1.0" encoding="UTF-8"?>
<svg width="20px" height="26px" viewBox="0 0 20 26" version="1.1" xmlns="http://www.w3.org/2000/svg" xmlns:xlink="http://www.w3.org/1999/xlink">
    <title>Legal information</title>
    <defs>
        <polygon id="path-1" points="0.369913386 0.890285714 12.1076091 0.890285714 12.1076091 7.91257143 0.369913386 7.91257143"></polygon>
        <polygon id="path-3" points="0 0.832989474 19.4688235 0.832989474 19.4688235 21.9993053 0 21.9993053"></polygon>
    </defs>
    <g id="Menu" stroke="none" stroke-width="1" fill="none" fill-rule="evenodd">
        <g id="My-profile" transform="translate(-25.000000, -631.000000)">
            <g id="Legal-information" transform="translate(25.000000, 631.000000)">
                <g id="Group-3" transform="translate(4.000000, -0.000400)">
                    <mask id="mask-2" fill="white">
                        <use xlink:href="#path-1"></use>
                    </mask>
                    <g id="Clip-2"></g>
                    <path d="M1.37197273,7.91257143 L11.0947909,7.91257143 L11.1042455,7.91257143 C11.6573364,7.91257143 12.1076091,7.56057143 12.1076091,7.12057143 C12.1076091,7.04628571 11.3867,3.02914286 11.3867,3.02914286 C11.3193364,2.63714286 10.8950636,2.34571429 10.3939727,2.34571429 L7.23615455,2.35028571 L7.23615455,1.68285714 C7.23615455,1.24742857 6.78588182,0.889714286 6.23279091,0.889714286 C5.68088182,0.889714286 5.23060909,1.24171429 5.23060909,1.68285714 L5.23060909,2.356 L2.06806364,2.36057143 C1.56697273,2.36057143 1.14742727,2.652 1.07533636,3.04285714 L0.373336364,7.01657143 C0.313063636,7.724 1.0647,7.91257143 1.37197273,7.91257143" id="Fill-1" fill="#B4BBCB" mask="url(#mask-2)"></path>
                </g>
                <g id="Group-6" transform="translate(0.000000, 3.999600)">
                    <mask id="mask-4" fill="white">
                        <use xlink:href="#path-3"></use>
                    </mask>
                    <g id="Clip-5"></g>
                    <path d="M14.5735294,11.3513053 L4.89470588,11.3513053 C4.34529412,11.3513053 3.89705882,10.9101474 3.89705882,10.3682526 C3.89705882,9.82751579 4.34529412,9.38635789 4.89470588,9.38635789 L14.5735294,9.38635789 C15.1241176,9.38635789 15.5723529,9.82751579 15.5723529,10.3682526 C15.5723529,10.9101474 15.13,11.3513053 14.5735294,11.3513053 M14.5735294,16.8802526 L4.89470588,16.8802526 C4.34529412,16.8802526 3.89705882,16.4402526 3.89705882,15.8983579 C3.89705882,15.3576211 4.34529412,14.9153053 4.89470588,14.9153053 L14.5735294,14.9153053 C15.1241176,14.9153053 15.5723529,15.3576211 15.5723529,15.8983579 C15.5723529,16.4402526 15.13,16.8802526 14.5735294,16.8802526 M18.4711765,0.832989474 L17.1052941,0.832989474 C17.1052941,0.832989474 17.5794118,3.51467368 17.5794118,3.74046316 C17.5794118,5.26425263 16.2347059,6.50783158 14.5841176,6.50783158 L4.89470588,6.50783158 C3.89705882,6.52867368 1.67,5.77141053 1.93588235,3.30509474 L2.36294118,0.837621053 L0.998235294,0.837621053 C0.447647059,0.837621053 -0.000588235294,1.27877895 -0.000588235294,1.82067368 L-0.000588235294,21.0174105 C-0.000588235294,21.5581474 0.447647059,21.9993053 0.998235294,21.9993053 L18.4711765,21.9993053 C19.0205882,21.9993053 19.4688235,21.5581474 19.4688235,21.0174105 L19.4688235,1.81604211 C19.4688235,1.27414737 19.0205882,0.832989474 18.4711765,0.832989474" id="Fill-4" fill="#B4BBCB" mask="url(#mask-4)"></path>
                </g>
            </g>
        </g>
    </g>
</svg>