<?xml version="1.0" encoding="UTF-8"?>
<svg width="23px" height="24px" viewBox="0 0 23 24" version="1.1" xmlns="http://www.w3.org/2000/svg" xmlns:xlink="http://www.w3.org/1999/xlink">
    <title>Help center</title>
    <g id="Menu" stroke="none" stroke-width="1" fill="none" fill-rule="evenodd">
        <g id="My-profile" transform="translate(-23.000000, -420.000000)" fill="#B4BBCB">
            <g id="Help-center" transform="translate(23.000000, 420.000000)">
                <path d="M21.85115,4.80055995 L19.55,4.80055995 L19.55,15.60002 L4.59885,15.60002 L4.59885,17.9999 C4.59885,18.6622669 5.11635,19.19984 5.75,19.19984 L18.39885,19.19984 L23,23.9996 L23,6.00049996 C23,5.33693313 22.4848,4.80055995 21.85115,4.80055995 M16.10115,-0.0004 L1.15,-0.0004 C0.5152,-0.0004 0,0.537173121 0,1.20073994 L0,17.9999 L4.59885,13.20014 L16.10115,13.20014 C16.7348,13.20014 17.25,12.6625669 17.25,11.999 L17.25,1.20073994 C17.25,0.537173121 16.7348,-0.0004 16.10115,-0.0004" id="Fill-6"></path>
            </g>
        </g>
    </g>
</svg>