<?xml version="1.0" encoding="UTF-8"?>
<svg width="24px" height="24px" viewBox="0 0 24 24" version="1.1" xmlns="http://www.w3.org/2000/svg" xmlns:xlink="http://www.w3.org/1999/xlink">
    <title>My code</title>
    <g id="Menu" stroke="none" stroke-width="1" fill="none" fill-rule="evenodd">
        <g id="My-profile" transform="translate(-22.000000, -206.000000)" fill="#B4BBCB">
            <g id="My-code" transform="translate(22.000000, 206.000000)">
                <path d="M0,23.9996 L11,23.9996 L11,12.9996 L0,12.9996 L0,23.9996 Z M2.20024125,21.7846406 L8.79855247,21.7846406 L8.79855247,15.2000826 L2.20024125,15.2000826 L2.20024125,21.7846406 Z" id="Fill-1"></path>
                <polygon id="Fill-2" points="4 18.9996 6 18.9996 6 16.9996 4 16.9996"></polygon>
                <polygon id="Fill-3" points="17 23.9996 19 23.9996 19 21.9996 17 21.9996"></polygon>
                <polygon id="Fill-4" points="22 23.9996 24 23.9996 24 21.9996 22 21.9996"></polygon>
                <polygon id="Fill-5" points="21.7995174 12.9996 21.7995174 15.1988762 19.6014477 15.1988762 19.6014477 12.9996 13 12.9996 13 23.9996 15.2004826 23.9996 15.2004826 17.4005651 17.3997587 17.4005651 17.3997587 19.6010477 24 19.6010477 24 12.9996"></polygon>
                <path d="M0,10.9996 L11,10.9996 L11,-0.0004 L0,-0.0004 L0,10.9996 Z M2.20024125,8.79815247 L8.79855247,8.79815247 L8.79855247,2.19863498 L2.20024125,2.19863498 L2.20024125,8.79815247 Z" id="Fill-6"></path>
                <polygon id="Fill-7" points="4 5.9996 6 5.9996 6 3.9996 4 3.9996"></polygon>
                <path d="M13,10.9996 L24,10.9996 L24,-0.0004 L13,-0.0004 L13,10.9996 Z M15.2002413,8.79815247 L21.7985525,8.79815247 L21.7985525,2.19863498 L15.2002413,2.19863498 L15.2002413,8.79815247 Z" id="Fill-8"></path>
                <polygon id="Fill-9" points="17 5.9996 19 5.9996 19 3.9996 17 3.9996"></polygon>
            </g>
        </g>
    </g>
</svg>