<svg xmlns="http://www.w3.org/2000/svg" width="120" height="120" viewBox="0 0 120 120">
  <g id="Raggruppa_4" data-name="Raggruppa 4" transform="translate(-28 -585)">
    <circle id="Ellisse_2" data-name="Ellisse 2" cx="60" cy="60" r="60" transform="translate(28 585)" fill="#713afe"/>
    <text id="TIX" transform="translate(73 675)" fill="#fff" font-size="20" font-family="Roboto-Bold, Roboto" font-weight="700"><tspan x="0" y="0">TIX</tspan></text>
    <g id="Raggruppa_1" data-name="Raggruppa 1" transform="translate(-4.5)">
      <g id="Iconly_Bold_Ticket" data-name="Iconly/Bold/Ticket" transform="translate(84.858 609.867) rotate(39)">
        <g id="Ticket" transform="translate(2 4)">
          <path id="Tracciato_1" data-name="Tracciato 1" d="M15.654,0a.872.872,0,0,1,.883.86h0V4.467a1.088,1.088,0,0,0,2.176,0h0V.86A.872.872,0,0,1,19.6,0h4.729A5.592,5.592,0,0,1,30,5.51h0V9.062a1.041,1.041,0,0,1-.319.747,1.1,1.1,0,0,1-.769.31,1.882,1.882,0,1,0-.02,3.763A1.046,1.046,0,0,1,30,14.875h0V18.49A5.593,5.593,0,0,1,24.328,24H19.6a.872.872,0,0,1-.885-.86h0V20.1a1.088,1.088,0,0,0-2.176,0h0V23.14a.872.872,0,0,1-.883.86H5.672A5.6,5.6,0,0,1,0,18.49H0V14.875a1.046,1.046,0,0,1,1.108-.994,1.917,1.917,0,0,0,1.924-1.888,1.824,1.824,0,0,0-1.944-1.762,1.1,1.1,0,0,1-.769-.31A1.041,1.041,0,0,1,0,9.174H0V5.524A5.624,5.624,0,0,1,5.687,0h9.968Zm1.971,8.554a1.081,1.081,0,0,0-1.088,1.057h0v5.637a1.088,1.088,0,0,0,2.176,0h0V9.611A1.071,1.071,0,0,0,17.626,8.554Z" fill="#fff"/>
        </g>
      </g>
      <g id="Iconly_Bold_Ticket-2" data-name="Iconly/Bold/Ticket" transform="translate(90.858 609.867) rotate(39)">
        <g id="Ticket-2" data-name="Ticket" transform="translate(2 4)">
          <path id="Tracciato_1-2" data-name="Tracciato 1" d="M15.654,0a.872.872,0,0,1,.883.86h0V4.467a1.088,1.088,0,0,0,2.176,0h0V.86A.872.872,0,0,1,19.6,0h4.729A5.592,5.592,0,0,1,30,5.51h0V9.062a1.041,1.041,0,0,1-.319.747,1.1,1.1,0,0,1-.769.31,1.882,1.882,0,1,0-.02,3.763A1.046,1.046,0,0,1,30,14.875h0V18.49A5.593,5.593,0,0,1,24.328,24H19.6a.872.872,0,0,1-.885-.86h0V20.1a1.088,1.088,0,0,0-2.176,0h0V23.14a.872.872,0,0,1-.883.86H5.672A5.6,5.6,0,0,1,0,18.49H0V14.875a1.046,1.046,0,0,1,1.108-.994,1.917,1.917,0,0,0,1.924-1.888,1.824,1.824,0,0,0-1.944-1.762,1.1,1.1,0,0,1-.769-.31A1.041,1.041,0,0,1,0,9.174H0V5.524A5.624,5.624,0,0,1,5.687,0h9.968Zm1.971,8.554a1.081,1.081,0,0,0-1.088,1.057h0v5.637a1.088,1.088,0,0,0,2.176,0h0V9.611A1.071,1.071,0,0,0,17.626,8.554Z" fill="#713afe"/>
        </g>
      </g>
      <g id="Iconly_Bold_Ticket-3" data-name="Iconly/Bold/Ticket" transform="translate(93.858 609.867) rotate(39)">
        <g id="Ticket-3" data-name="Ticket" transform="translate(2 4)">
          <path id="Tracciato_1-3" data-name="Tracciato 1" d="M15.654,0a.872.872,0,0,1,.883.86h0V4.467a1.088,1.088,0,0,0,2.176,0h0V.86A.872.872,0,0,1,19.6,0h4.729A5.592,5.592,0,0,1,30,5.51h0V9.062a1.041,1.041,0,0,1-.319.747,1.1,1.1,0,0,1-.769.31,1.882,1.882,0,1,0-.02,3.763A1.046,1.046,0,0,1,30,14.875h0V18.49A5.593,5.593,0,0,1,24.328,24H19.6a.872.872,0,0,1-.885-.86h0V20.1a1.088,1.088,0,0,0-2.176,0h0V23.14a.872.872,0,0,1-.883.86H5.672A5.6,5.6,0,0,1,0,18.49H0V14.875a1.046,1.046,0,0,1,1.108-.994,1.917,1.917,0,0,0,1.924-1.888,1.824,1.824,0,0,0-1.944-1.762,1.1,1.1,0,0,1-.769-.31A1.041,1.041,0,0,1,0,9.174H0V5.524A5.624,5.624,0,0,1,5.687,0h9.968Zm1.971,8.554a1.081,1.081,0,0,0-1.088,1.057h0v5.637a1.088,1.088,0,0,0,2.176,0h0V9.611A1.071,1.071,0,0,0,17.626,8.554Z" fill="#fff"/>
        </g>
      </g>
    </g>
  </g>
</svg>
