<svg xmlns="http://www.w3.org/2000/svg" viewBox="0 0 246.5 224.18"><defs><style>.cls-1{fill:#e7ebee;}.cls-2{fill:#dcf3fb;}.cls-3{fill:#3ec0e8;}.cls-4{fill:#664bc4;}.cls-5{fill:#fff;}</style></defs><g id="Layer_1" data-name="Layer 1"><circle class="cls-1" cx="121.95" cy="117.6" r="81.45"/><path class="cls-1" d="M122.81,224.18a106.58,106.58,0,1,1,0-213.16V12.9a104.7,104.7,0,1,0,50.32,196.53l.91,1.65A106.68,106.68,0,0,1,122.81,224.18Z"/><path class="cls-1" d="M217.08,167.37l-1.67-.89A104.77,104.77,0,0,0,156,18.27l.59-1.79a106.66,106.66,0,0,1,60.51,150.89Z"/><path class="cls-1" d="M36.49,30.36a9.67,9.67,0,1,1,9.67-9.67A9.68,9.68,0,0,1,36.49,30.36Zm0-17.46a7.79,7.79,0,1,0,7.79,7.79A7.8,7.8,0,0,0,36.49,12.9Z"/><circle class="cls-1" cx="36.49" cy="20.69" r="5.71" transform="translate(-5.17 15.83) rotate(-22.9)"/><path class="cls-2" d="M228.44,194.26a6.19,6.19,0,1,1,6.19-6.19A6.19,6.19,0,0,1,228.44,194.26Zm0-11.43a5.24,5.24,0,1,0,5.25,5.24A5.25,5.25,0,0,0,228.44,182.83Z"/><path class="cls-2" d="M232.18,188.07a3.74,3.74,0,1,1-3.74-3.74A3.73,3.73,0,0,1,232.18,188.07Z"/><path class="cls-2" d="M173.27,44.39a2.65,2.65,0,1,1-2.65-2.64A2.65,2.65,0,0,1,173.27,44.39Z"/><path class="cls-1" d="M65.08,6.26a.47.47,0,0,1-.47-.47V.47a.47.47,0,1,1,.94,0V5.79A.47.47,0,0,1,65.08,6.26Z"/><path class="cls-1" d="M65.08,15.91a.47.47,0,0,1-.47-.47V10.12a.47.47,0,0,1,.94,0v5.32A.47.47,0,0,1,65.08,15.91Z"/><path class="cls-1" d="M72.73,8.26H67.41a.47.47,0,1,1,0-.94h5.32a.47.47,0,0,1,0,.94Z"/><path class="cls-1" d="M62.75,8.26H57.43a.47.47,0,1,1,0-.94h5.32a.47.47,0,0,1,0,.94Z"/><path class="cls-1" d="M66.92,6.42a.47.47,0,0,1-.33-.14.46.46,0,0,1,0-.67l3.76-3.76a.47.47,0,1,1,.67.67L67.25,6.28A.47.47,0,0,1,66.92,6.42Z"/><path class="cls-1" d="M59.47,13.86a.46.46,0,0,1-.33-.13.48.48,0,0,1,0-.67L62.9,9.3a.46.46,0,0,1,.67,0,.47.47,0,0,1,0,.66l-3.76,3.77A.48.48,0,0,1,59.47,13.86Z"/><path class="cls-1" d="M70.68,13.86a.46.46,0,0,1-.33-.13L66.59,10a.47.47,0,0,1,.66-.66L71,13.06a.48.48,0,0,1,0,.67A.5.5,0,0,1,70.68,13.86Z"/><path class="cls-1" d="M63.24,6.42a.51.51,0,0,1-.34-.14L59.14,2.52a.47.47,0,0,1,.67-.67l3.76,3.76a.48.48,0,0,1,0,.67A.47.47,0,0,1,63.24,6.42Z"/><path class="cls-1" d="M236,168.41a.43.43,0,0,1-.33-.14.45.45,0,0,1,0-.66l3.76-3.77a.47.47,0,0,1,.67.67l-3.77,3.76A.43.43,0,0,1,236,168.41Z"/><path class="cls-1" d="M228.55,175.86a.47.47,0,0,1-.33-.14.48.48,0,0,1,0-.67l3.76-3.76a.46.46,0,0,1,.67,0,.48.48,0,0,1,0,.67l-3.76,3.76A.51.51,0,0,1,228.55,175.86Z"/><path class="cls-1" d="M239.76,175.86a.47.47,0,0,1-.33-.14L235.67,172a.46.46,0,0,1,0-.67.45.45,0,0,1,.66,0l3.77,3.76a.48.48,0,0,1,0,.67A.51.51,0,0,1,239.76,175.86Z"/><path class="cls-1" d="M232.32,168.41a.47.47,0,0,1-.34-.14l-3.76-3.76a.47.47,0,0,1,.67-.67l3.76,3.77a.47.47,0,0,1,0,.66A.43.43,0,0,1,232.32,168.41Z"/><path class="cls-1" d="M235.28,48.72a.65.65,0,0,1-.65-.65V40.72a.65.65,0,1,1,1.3,0v7.35A.65.65,0,0,1,235.28,48.72Z"/><path class="cls-1" d="M235.28,62.05a.65.65,0,0,1-.65-.65V54.05a.65.65,0,1,1,1.3,0V61.4A.65.65,0,0,1,235.28,62.05Z"/><path class="cls-1" d="M245.85,51.48H238.5a.65.65,0,1,1,0-1.3h7.35a.65.65,0,1,1,0,1.3Z"/><path class="cls-1" d="M232.06,51.48h-7.35a.65.65,0,1,1,0-1.3h7.35a.65.65,0,1,1,0,1.3Z"/><path class="cls-1" d="M237.82,48.94a.66.66,0,0,1-.46-1.12l5.2-5.2a.66.66,0,0,1,.92,0,.64.64,0,0,1,0,.92l-5.2,5.2A.63.63,0,0,1,237.82,48.94Z"/><path class="cls-1" d="M227.53,59.22a.65.65,0,0,1-.46-.19.66.66,0,0,1,0-.92l5.2-5.2a.66.66,0,0,1,.92,0,.64.64,0,0,1,0,.92L228,59A.62.62,0,0,1,227.53,59.22Z"/><path class="cls-1" d="M243,59.22a.65.65,0,0,1-.46-.19l-5.2-5.2a.65.65,0,1,1,.92-.92l5.2,5.2a.64.64,0,0,1,0,.92A.62.62,0,0,1,243,59.22Z"/><path class="cls-1" d="M232.73,48.94a.66.66,0,0,1-.46-.2l-5.2-5.2a.65.65,0,0,1,.92-.92l5.2,5.2a.64.64,0,0,1,0,.92A.63.63,0,0,1,232.73,48.94Z"/><path class="cls-1" d="M27.76,213.61a.68.68,0,0,1-.67-.68v-7.65a.68.68,0,1,1,1.35,0v7.65A.68.68,0,0,1,27.76,213.61Z"/><path class="cls-1" d="M31.59,209.78H23.94a.68.68,0,1,1,0-1.35h7.65a.68.68,0,0,1,0,1.35Z"/><path class="cls-2" d="M144.91,202a.78.78,0,0,1-.78-.78v-8.85a.79.79,0,1,1,1.57,0v8.85A.78.78,0,0,1,144.91,202Z"/><path class="cls-2" d="M149.34,197.57h-8.85a.79.79,0,1,1,0-1.57h8.85a.79.79,0,0,1,0,1.57Z"/><path class="cls-2" d="M5.21,143.45a.78.78,0,0,1-.78-.78v-8.85a.78.78,0,0,1,1.56,0v8.85A.78.78,0,0,1,5.21,143.45Z"/><path class="cls-2" d="M9.63,139H.78a.79.79,0,0,1,0-1.57H9.63a.79.79,0,1,1,0,1.57Z"/><path class="cls-2" d="M232.06,83.07a.67.67,0,0,1-.68-.68V74.7a.68.68,0,1,1,1.36,0v7.69A.67.67,0,0,1,232.06,83.07Z"/><path class="cls-2" d="M235.91,79.23h-7.69a.68.68,0,1,1,0-1.36h7.69a.68.68,0,1,1,0,1.36Z"/><path class="cls-2" d="M16.13,78.35a5.44,5.44,0,0,1-1.64-.25,5.52,5.52,0,1,1,6.9-3.63h0a5.45,5.45,0,0,1-2.69,3.24A5.56,5.56,0,0,1,16.13,78.35Zm0-10.09a4.58,4.58,0,1,0,4.36,5.93h0a4.56,4.56,0,0,0-4.36-5.93Z"/><path class="cls-2" d="M14.63,77.65a6,6,0,0,1-.86-.36.2.2,0,0,0,0,.08L10.4,88.1a.94.94,0,1,0,1.8.56l3.33-10.73s0-.06,0-.09A6,6,0,0,1,14.63,77.65Z"/><path class="cls-2" d="M19.28,73a1.53,1.53,0,1,1-1-1.92A1.53,1.53,0,0,1,19.28,73Z"/><path class="cls-2" d="M196.3,210.71H183.91a1.31,1.31,0,0,1-1.31-1.31v-8.24a1.31,1.31,0,0,1,1.31-1.31H196.3a1.31,1.31,0,0,1,1.3,1.31v8.24A1.31,1.31,0,0,1,196.3,210.71Zm-12.39-9.92a.38.38,0,0,0-.37.37v8.24a.38.38,0,0,0,.37.37H196.3a.37.37,0,0,0,.36-.37v-8.24a.37.37,0,0,0-.36-.37Z"/><path class="cls-2" d="M190.1,206.17a.45.45,0,0,1-.31-.11l-6.19-5.38a.47.47,0,0,1,.31-.83H196.3a.47.47,0,0,1,.44.31.48.48,0,0,1-.13.52l-6.2,5.38A.45.45,0,0,1,190.1,206.17Zm-4.93-5.38,4.93,4.29,4.94-4.29Z"/><path class="cls-3" d="M164.41,123.24V152a1.35,1.35,0,0,0-.55-1.08l-2.19-1.64v-26a1.37,1.37,0,0,1,1.36-1.38A1.38,1.38,0,0,1,164.41,123.24Z"/><path class="cls-3" d="M164.41,101.12v9.58a1.38,1.38,0,0,1-1.38,1.38,1.37,1.37,0,0,1-1.36-1.38v-6.85l-14.65,11a1.35,1.35,0,0,0,.51-.57,28,28,0,0,0,1.85-4.62l11.36-8.53,1.47,1.1a1.42,1.42,0,0,0,.82.28,1.4,1.4,0,0,0,1.1-.55A1.36,1.36,0,0,0,164.41,101.12Z"/><path class="cls-3" d="M164.41,101.11h0a1.36,1.36,0,0,1-.28.82,1.4,1.4,0,0,1-1.1.55,1.42,1.42,0,0,1-.82-.28l-1.47-1.1,1.47-1.1a1.39,1.39,0,0,1,1.44-.13.75.75,0,0,1,.17.1l0,0,0,0a.61.61,0,0,1,.19.2.93.93,0,0,1,.18.26,1.51,1.51,0,0,1,.1.3A1,1,0,0,1,164.41,101.11Z"/><path class="cls-3" d="M164.41,101.11a1,1,0,0,0,0-.3A1,1,0,0,1,164.41,101.11Z"/><path class="cls-3" d="M164.41,152a.61.61,0,0,1,0,.23.63.63,0,0,1,0,.22,1.66,1.66,0,0,1-.06.16,1.39,1.39,0,0,1-1,.74,1.27,1.27,0,0,1-.28,0H81.29l-.28,0a1.26,1.26,0,0,1-.7-.39.84.84,0,0,1-.15-.18c0-.08-.09-.16-.13-.24a1.12,1.12,0,0,1-.08-.26,2.64,2.64,0,0,1,0-.28,1.33,1.33,0,0,1,.53-1.08l2.2-1.66v1.38h79v-1.36l2.19,1.64A1.35,1.35,0,0,1,164.41,152Z"/><path class="cls-3" d="M164.33,152.42a.63.63,0,0,0,0-.22A.59.59,0,0,1,164.33,152.42Z"/><path class="cls-3" d="M164.37,100.81a1.51,1.51,0,0,0-.1-.3A.76.76,0,0,1,164.37,100.81Z"/><path class="cls-3" d="M164.27,152.58a1.66,1.66,0,0,0,.06-.16A1.66,1.66,0,0,1,164.27,152.58Z"/><path class="cls-3" d="M164.27,100.51a.93.93,0,0,0-.18-.26A.76.76,0,0,1,164.27,100.51Z"/><path class="cls-3" d="M164.09,100.25a.61.61,0,0,0-.19-.2A.61.61,0,0,1,164.09,100.25Z"/><path class="cls-3" d="M146.54,87l17.28,13a.75.75,0,0,0-.17-.1,1.39,1.39,0,0,0-1.44.13l-1.47,1.1L149,92.28A27,27,0,0,0,146.54,87Z"/><path class="cls-3" d="M163,153.35a1.27,1.27,0,0,0,.28,0A1.27,1.27,0,0,1,163,153.35Z"/><polygon class="cls-3" points="161.67 149.25 161.67 150.61 158.92 150.61 129.13 128.26 131.41 126.54 161.67 149.25"/><path class="cls-3" d="M150.55,101.56a28.5,28.5,0,0,1-1.17,8.08l-4.17,3.12a25.51,25.51,0,0,0-1-24.2h0a1.37,1.37,0,0,0,.41.5L149,92.28A27.65,27.65,0,0,1,150.55,101.56Z"/><path class="cls-3" d="M145.21,112.76l4.17-3.12a28,28,0,0,1-1.85,4.62,1.31,1.31,0,0,1-1.21.76,1.51,1.51,0,0,1-.62-.14,1.38,1.38,0,0,1-.62-1.85C145.12,112.94,145.18,112.85,145.21,112.76Z"/><path class="cls-3" d="M149,92.28l-4.29-3.22a1.37,1.37,0,0,1-.41-.5,1.35,1.35,0,0,1,.13-1.43,1.38,1.38,0,0,1,1.93-.26l.21.15A27,27,0,0,1,149,92.28Z"/><path class="cls-3" d="M147,114.83,131.4,126.54,130,125.45a1.4,1.4,0,0,0-1.65,0l16.91-12.69c0,.09-.09.18-.13.27a1.38,1.38,0,0,0,.62,1.85,1.51,1.51,0,0,0,.62.14A1.34,1.34,0,0,0,147,114.83Z"/><path class="cls-3" d="M146.54,87l-.21-.15a1.38,1.38,0,0,0-1.93.26,1.35,1.35,0,0,0-.13,1.43h0a25.61,25.61,0,0,0-44.35.29l0,0a1.35,1.35,0,0,0,0-1.7A1.38,1.38,0,0,0,98,86.85l-.2.15a28.38,28.38,0,0,1,48.73,0Z"/><path class="cls-4" d="M147.81,101.56a25.29,25.29,0,0,1-2.6,11.2L128.3,125.45l-6.13,4.6-6.15-4.6L99.11,112.76a25.59,25.59,0,0,1,.8-23.91,25.64,25.64,0,0,1,47.9,12.71Zm-12.33,11.2a1.42,1.42,0,0,0,.27-1.16l-1.32-5.88a1.38,1.38,0,0,0-1.34-1.07L133,95.88a10.87,10.87,0,0,0-9.51-10.79V84a1.37,1.37,0,0,0-1.36-1.38A1.38,1.38,0,0,0,120.79,84v1a10.9,10.9,0,0,0-9.51,10.79s0,8.77,0,8.77a1.38,1.38,0,0,0-1.34,1.07l-1.32,5.88a1.38,1.38,0,0,0,.26,1.16,1.37,1.37,0,0,0,1.08.51h4.73a7.64,7.64,0,0,0,15,0h4.72A1.36,1.36,0,0,0,135.48,112.76Z"/><path class="cls-3" d="M135.75,111.6a1.42,1.42,0,0,1-.27,1.16,1.36,1.36,0,0,1-1.07.51h-4.72a7,7,0,0,0,.13-1.36,1.38,1.38,0,0,0-1.38-1.38h4.26l-.71-3.14h-.32A1.38,1.38,0,0,1,130.3,106V95.88a8.14,8.14,0,0,0-8.13-8.13,1.37,1.37,0,0,0,1.36-1.38V85.09A10.87,10.87,0,0,1,133,95.88l.05,8.77a1.38,1.38,0,0,1,1.34,1.07Z"/><path class="cls-5" d="M132,107.39l.71,3.14H111.63l.71-3.14h9.38a1.37,1.37,0,1,0,0-2.74H114V95.88a8.14,8.14,0,0,1,16.27,0V106a1.38,1.38,0,0,0,1.37,1.37Z"/><path class="cls-3" d="M131.4,126.54l-2.28,1.72-6.13,4.6a1.4,1.4,0,0,1-1.65,0l-6.13-4.6-2.28-1.72,1.45-1.09a1.38,1.38,0,0,1,1.64,0l6.15,4.6,6.13-4.6a1.4,1.4,0,0,1,1.65,0Z"/><path class="cls-3" d="M129.82,111.91a7,7,0,0,1-.13,1.36h-15a7,7,0,0,1-.13-1.36,1.37,1.37,0,0,1,1.37-1.38h12.55A1.38,1.38,0,0,1,129.82,111.91Z"/><path class="cls-3" d="M126.87,113.27h2.82a7.64,7.64,0,0,1-15,0h2.8a4.9,4.9,0,0,0,9.42,0Z"/><path class="cls-5" d="M117.45,113.27h9.42a4.9,4.9,0,0,1-9.42,0Z"/><path class="cls-3" d="M123.53,85.09v1.28a1.37,1.37,0,0,1-1.36,1.38,1.38,1.38,0,0,1-1.38-1.38V85.09a9,9,0,0,1,1.38-.1A8.8,8.8,0,0,1,123.53,85.09Z"/><path class="cls-3" d="M123.53,84v1a8.8,8.8,0,0,0-1.36-.1,9,9,0,0,0-1.38.1V84a1.38,1.38,0,0,1,1.38-1.38A1.37,1.37,0,0,1,123.53,84Z"/><path class="cls-3" d="M121.72,104.65a1.37,1.37,0,1,1,0,2.74h-9.06A1.37,1.37,0,0,0,114,106v-1.37Z"/><path class="cls-3" d="M120.79,86.37a1.38,1.38,0,0,0,1.38,1.38A8.13,8.13,0,0,0,114,95.88v8.77h-1.37a1.37,1.37,0,1,0,0,2.74h-.32l-.71,3.14h4.26a1.37,1.37,0,0,0-1.37,1.38,7,7,0,0,0,.13,1.36h-4.73a1.37,1.37,0,0,1-1.08-.51,1.38,1.38,0,0,1-.26-1.16l1.32-5.88a1.38,1.38,0,0,1,1.34-1.07s0-8.77,0-8.77a10.9,10.9,0,0,1,9.51-10.79Z"/><path class="cls-3" d="M99.11,112.76,116,125.45a1.38,1.38,0,0,0-1.64,0l-1.45,1.09L97.31,114.83a1.37,1.37,0,0,0,1.93-1.8Z"/><path class="cls-3" d="M115.21,128.26,98.37,140.89a1.38,1.38,0,0,1-1.65-2.2l16.21-12.15Z"/><path class="cls-3" d="M114,104.65V106a1.38,1.38,0,1,1-1.37-1.37Z"/><path class="cls-3" d="M99.92,87.13a1.35,1.35,0,0,1,0,1.7,1.06,1.06,0,0,1-.24.23l-4.28,3.21A26.9,26.9,0,0,1,97.81,87l.2-.15A1.38,1.38,0,0,1,99.92,87.13Z"/><path class="cls-3" d="M99.88,88.83l0,0a25.59,25.59,0,0,0-.8,23.91L95,109.64a28.49,28.49,0,0,1-1.16-8.08,27.91,27.91,0,0,1,1.57-9.29l4.28-3.21A1.06,1.06,0,0,0,99.88,88.83Z"/><path class="cls-3" d="M99.24,113a1.37,1.37,0,0,1-1.93,1.8s0,0-.06,0a1.19,1.19,0,0,1-.46-.53A29.84,29.84,0,0,1,95,109.64l4.16,3.12Z"/><path class="cls-3" d="M80.46,100,97.81,87a26.9,26.9,0,0,0-2.45,5.27l-11.78,8.84L82.11,100a1.39,1.39,0,0,0-1.44-.13,1.31,1.31,0,0,0-.27.19A.17.17,0,0,1,80.46,100Z"/><path class="cls-3" d="M97.25,114.79,82.66,103.85v45.38l-2.2,1.66a1.33,1.33,0,0,0-.53,1.08V101.11a1.42,1.42,0,0,0,.27.83,1.38,1.38,0,0,0,1.09.55,1.4,1.4,0,0,0,.82-.28l1.47-1.1L95,109.64a29.84,29.84,0,0,0,1.84,4.62A1.19,1.19,0,0,0,97.25,114.79Z"/><path class="cls-3" d="M91.26,144.5a1.39,1.39,0,0,1-.28,1.93l-5.58,4.18H82.66v-1.38l6.67-5A1.39,1.39,0,0,1,91.26,144.5Z"/><path class="cls-3" d="M83.58,101.11l-1.47,1.1a1.4,1.4,0,0,1-.82.28,1.38,1.38,0,0,1-1.09-.55,1.42,1.42,0,0,1-.27-.83,1.06,1.06,0,0,1,0-.31,1,1,0,0,1,.19-.46l.08-.11a.49.49,0,0,1,.16-.16,1.31,1.31,0,0,1,.27-.19,1.39,1.39,0,0,1,1.44.13Z"/><path class="cls-3" d="M81,153.32l.28,0Z"/><path class="cls-3" d="M80.16,152.75a.84.84,0,0,0,.15.18A.84.84,0,0,1,80.16,152.75Z"/><path class="cls-3" d="M80.24,100.23l-.08.11A1,1,0,0,1,80.24,100.23Z"/><path class="cls-3" d="M80,152.51c0,.08.08.16.13.24A1.12,1.12,0,0,1,80,152.51Z"/><path class="cls-3" d="M80,152.25a1.12,1.12,0,0,0,.08.26l0-.09A.47.47,0,0,1,80,152.25Z"/><path class="cls-3" d="M80,100.8a1.06,1.06,0,0,0,0,.31A1.06,1.06,0,0,1,80,100.8Z"/><path class="cls-3" d="M79.93,152a2.64,2.64,0,0,0,0,.28A1.32,1.32,0,0,1,79.93,152Z"/></g></svg>