<svg xmlns="http://www.w3.org/2000/svg" width="24" height="24" viewBox="0 0 24 24">
  <g id="Raggruppa_150" data-name="Raggruppa 150" transform="translate(-271 -38)">
    <g id="Ellisse_23" data-name="Ellisse 23" transform="translate(271 38)" fill="#eff3fb" stroke="#dff1f6" stroke-width="1">
      <circle cx="12" cy="12" r="12" stroke="none"/>
      <circle cx="12" cy="12" r="11.5" fill="none"/>
    </g>
    <g id="gift" transform="translate(274.5 41.5)">
      <path id="Tracciato_55" data-name="Tracciato 55" d="M3.187,2.656a2.656,2.656,0,1,1,5.312,0,2.656,2.656,0,0,1,5.312,0v.006a3.164,3.164,0,0,1-.04.525h2.165A1.062,1.062,0,0,1,17,4.249V6.374a1.062,1.062,0,0,1-1.062,1.062v7.969A1.594,1.594,0,0,1,14.343,17H2.656a1.594,1.594,0,0,1-1.594-1.593V7.437A1.062,1.062,0,0,1,0,6.375V4.25A1.062,1.062,0,0,1,1.062,3.187H3.228a3.154,3.154,0,0,1-.04-.525Zm1.135.531H7.437V2.656a1.594,1.594,0,0,0-3.187,0,1.865,1.865,0,0,0,.048.457.555.555,0,0,0,.025.075Zm5.24,0h3.115a.6.6,0,0,0,.025-.075,1.84,1.84,0,0,0,.048-.457,1.594,1.594,0,0,0-3.187,0ZM1.062,4.25V6.375H7.437V4.25Zm8.5,0V6.375h6.375V4.25Zm5.312,3.187H9.562v8.5h4.781a.531.531,0,0,0,.531-.531Zm-7.437,8.5v-8.5H2.125v7.969a.531.531,0,0,0,.531.531Z" fill="#f8c56c"/>
    </g>
  </g>
</svg>
