<svg xmlns="http://www.w3.org/2000/svg" width="23.741" height="15" viewBox="0 0 23.741 15">
  <path id="handshake-o" d="M1.978,9.233a.59.59,0,0,0,.577-.33.7.7,0,0,0,0-.659.59.59,0,0,0-.577-.33.59.59,0,0,0-.577.33.7.7,0,0,0,0,.659A.59.59,0,0,0,1.978,9.233Zm15.179-.6-.4-.515q-.294-.381-.427-.557t-.392-.505q-.259-.33-.438-.546t-.417-.484q-.238-.268-.464-.505L13.334,6.966a2.685,2.685,0,0,1-2.149.948A2.691,2.691,0,0,1,9.068,6.9a2.519,2.519,0,0,1,.02-3.246l1.824-2.123a2.011,2.011,0,0,0-.526-.17A3.211,3.211,0,0,0,9.9,1.3q-.191-.005-.582.005t-.505.011A2.221,2.221,0,0,0,7.182,2L5.554,3.627h-1.6V9.233l.216-.005q.165-.005.227,0l.2.02a.75.75,0,0,1,.211.047q.072.032.18.088a.757.757,0,0,1,.191.139l3.061,3.009a3.438,3.438,0,0,0,2.339,1.144,1.741,1.741,0,0,0,1.288-.484,1.426,1.426,0,0,0,1.159-.082,1.4,1.4,0,0,0,.747-.876,1.632,1.632,0,0,0,1.308-.454,1.92,1.92,0,0,0,.371-.469.892.892,0,0,0,.144-.52.659.659,0,0,0,.443.1,1.479,1.479,0,0,0,.793-.216,1.313,1.313,0,0,0,.51-.546,1.418,1.418,0,0,0-.191-1.494Zm1.638.6h.989V3.957h-.958L17.209,2.1a2.2,2.2,0,0,0-1.742-.783H13.746a1.885,1.885,0,0,0-1.5.69l-2.154,2.5a1.162,1.162,0,0,0-.289.773,1.188,1.188,0,0,0,.278.773,1.448,1.448,0,0,0,1.134.536,1.426,1.426,0,0,0,1.144-.505l1.989-2.246a.744.744,0,0,1,.551-.222.66.66,0,0,1,.572.861q.165.2.577.649t.619.7q.3.371.85,1.087t.665.871A2.793,2.793,0,0,1,18.8,9.233Zm2.968,0a.59.59,0,0,0,.577-.33.7.7,0,0,0,0-.659.67.67,0,0,0-1.154,0,.7.7,0,0,0,0,.659A.59.59,0,0,0,21.763,9.233ZM23.741,3.3V9.892a.669.669,0,0,1-.659.659H18.61a2.6,2.6,0,0,1-.845,1.1,2.752,2.752,0,0,1-1.288.531,3.324,3.324,0,0,1-.83.84,2.89,2.89,0,0,1-1.056.469,2.872,2.872,0,0,1-1.077.84,2.753,2.753,0,0,1-1.324.253,3.14,3.14,0,0,1-1.3.407,3.374,3.374,0,0,1-1.314-.144,5.467,5.467,0,0,1-1.206-.551,5.994,5.994,0,0,1-1.066-.835L4.349,10.551H.659a.634.634,0,0,1-.464-.2A.633.633,0,0,1,0,9.892V2.968A.634.634,0,0,1,.2,2.5a.634.634,0,0,1,.464-.2H5q.144-.144.484-.495t.489-.495q.15-.144.454-.412A3.08,3.08,0,0,1,6.945.52Q7.161.4,7.471.258a2.545,2.545,0,0,1,.639-.2A4.042,4.042,0,0,1,8.81,0h1.206a3.235,3.235,0,0,1,1.865.577A3.235,3.235,0,0,1,13.746,0h1.721a3.732,3.732,0,0,1,.69.062,4.089,4.089,0,0,1,.582.15,2.4,2.4,0,0,1,.532.272q.279.185.458.319a4.011,4.011,0,0,1,.443.407q.264.272.4.433L19,2.137l.427.5h3.658a.669.669,0,0,1,.659.659Z" fill="#9d9d9d"/>
</svg>
