<svg id="_Illus" data-name="🌄 Illus" xmlns="http://www.w3.org/2000/svg" width="248.32" height="248.32" viewBox="0 0 248.32 248.32">
  <rect id="_9.Image_1.Illustration_Square_Success_background" data-name="9.Image/1.Illustration/Square/Success background" width="248.32" height="248.32" fill="none"/>
  <g id="Lock_Overturning" data-name="Lock Overturning" transform="translate(33.95 32.01)">
    <path id="Combined_Shape" data-name="Combined Shape" d="M89.968,186.45a89.548,89.548,0,0,1-50.3-15.365A90.23,90.23,0,0,1,7.07,131.5,90.4,90.4,0,0,1,3.334,72.132l16.5,4.629a72.89,72.89,0,0,0,92.512,89.051,43.319,43.319,0,0,0,9.485,14.834A89.627,89.627,0,0,1,89.968,186.45Zm88.175-72.013h0a43.18,43.18,0,0,0-16.166-6.969,73.669,73.669,0,0,0,.823-10.984A72.9,72.9,0,0,0,66.393,27.546L76.6,39.7a4.311,4.311,0,0,1,1,2.512,4.284,4.284,0,0,1-4.035,4.52L31.855,49.1c-.08,0-.162.007-.243.007a4.284,4.284,0,0,1-4.166-5.278L37.115,3.29a4.284,4.284,0,0,1,7.449-1.76L54.75,13.669a89.848,89.848,0,0,1,85.519,8.211,90.23,90.23,0,0,1,32.6,39.583,89.406,89.406,0,0,1,7.07,35.019,90.663,90.663,0,0,1-1.791,17.953Z" transform="translate(0 0)" fill="#bae6ff"/>
    <g id="Dollar" transform="translate(67.9 55.29)">
      <path id="Path" d="M4.365,17.46A4.365,4.365,0,0,1,0,13.1V4.365A4.365,4.365,0,0,1,4.365,0h0A4.365,4.365,0,0,1,8.73,4.365V13.1A4.365,4.365,0,0,1,4.365,17.46Z" transform="translate(19.4)" fill="#33b1ff"/>
      <path id="Path-2" data-name="Path" d="M4.365,22.31A4.414,4.414,0,0,1,0,17.848V4.462A4.414,4.414,0,0,1,4.365,0h0A4.414,4.414,0,0,1,8.73,4.462V17.848A4.414,4.414,0,0,1,4.365,22.31Z" transform="translate(19.4 61.11)" fill="#33b1ff"/>
      <path id="Path-3" data-name="Path" d="M35.63,16.855a12.753,12.753,0,0,0-4.742-3.713,13.253,13.253,0,0,0-5.65-1.377,16.63,16.63,0,0,0-2.845.25,7.293,7.293,0,0,0-2.6.96,6.454,6.454,0,0,0-1.938,1.836,4.93,4.93,0,0,0-.784,2.879,4.684,4.684,0,0,0,.619,2.5,5.535,5.535,0,0,0,1.814,1.752,16.092,16.092,0,0,0,2.845,1.377q1.65.626,3.711,1.293,2.969,1,6.186,2.211A23.052,23.052,0,0,1,38.1,30.039,16.8,16.8,0,0,1,42.476,35a14.432,14.432,0,0,1,1.732,7.385,19.481,19.481,0,0,1-1.856,8.8,17.512,17.512,0,0,1-4.99,6.133,21.284,21.284,0,0,1-7.175,3.588,29.847,29.847,0,0,1-8.33,1.168A34.043,34.043,0,0,1,9.732,59.869,25.656,25.656,0,0,1,0,53.569l9.237-9.512a17.1,17.1,0,0,0,5.65,4.464,15.193,15.193,0,0,0,6.969,1.794,13.87,13.87,0,0,0,3.052-.334,7.564,7.564,0,0,0,2.6-1.085,5.41,5.41,0,0,0,1.773-2,6.365,6.365,0,0,0,.66-3,4.793,4.793,0,0,0-.825-2.837,8.09,8.09,0,0,0-2.351-2.128,18.83,18.83,0,0,0-3.794-1.752q-2.268-.793-5.155-1.711a48.922,48.922,0,0,1-5.485-2.169A18.343,18.343,0,0,1,7.547,30.08a14.874,14.874,0,0,1-3.382-4.756,16.287,16.287,0,0,1-1.278-6.8A16.879,16.879,0,0,1,4.866,10.1a17.335,17.335,0,0,1,5.2-5.757,22.2,22.2,0,0,1,7.258-3.3A32.549,32.549,0,0,1,25.485,0a30,30,0,0,1,10.1,1.836A25.953,25.953,0,0,1,44.62,7.259Z" transform="translate(0 8.73)" fill="#1192e8"/>
    </g>
  </g>
  <g id="Done_Circle" data-name="Done Circle" transform="translate(143.56 138.71)">
    <g id="Group">
      <path id="Path-4" data-name="Path" d="M0,0H85.957V85.957H0Z" fill="none"/>
      <path id="Path-5" data-name="Path" d="M61.446,10.543a35.994,35.994,0,1,1-50.9,0,35.994,35.994,0,0,1,50.9,0" transform="translate(7.521 7.521)" fill="#42be65"/>
    </g>
    <path id="Path-6" data-name="Path" d="M38.569,1.138a3.582,3.582,0,0,1,5.237,4.887L18.735,32.887a3.582,3.582,0,0,1-4.949.276L1.251,22.418a3.582,3.582,0,0,1,4.662-5.439l9.929,8.51L38.569,1.138Z" transform="translate(21.489 26.862)" fill="#fff"/>
  </g>
</svg>
