<?xml version="1.0" encoding="UTF-8"?>
<svg width="169px" height="141px" viewBox="0 0 169 141" version="1.1" xmlns="http://www.w3.org/2000/svg" xmlns:xlink="http://www.w3.org/1999/xlink">
    <title>Group 4</title>
    <defs>
        <polygon id="path-1" points="0 0.917502665 80.4374461 0.917502665 80.4374461 81.9994091 0 81.9994091"></polygon>
    </defs>
    <g id="Registration" stroke="none" stroke-width="1" fill="none" fill-rule="evenodd">
        <g id="5-Forgot-password" transform="translate(-119.000000, -257.000000)">
            <g id="Group-4" transform="translate(119.000000, 257.000000)">
                <path d="M101.5,141 C64.2207773,141 34,110.779215 34,73.5 C34,36.2207741 64.2207773,6 101.5,6 C138.779211,6 169,36.2207741 169,73.5 C169,110.779215 138.779211,141 101.5,141 Z" id="Vector-Copy" fill="#EDF7FD"></path>
                <g id="Group" fill="#9FC2F9" fill-rule="nonzero">
                    <path d="M68,50.5097177 L25.9238027,2 C24.2079297,2.44166668 22.5666666,3.03055668 21,3.76666779 L65.4634852,55 C66.4333265,53.6013889 67.2539683,52.055551 68,50.5097177 Z" id="Vector-Copy-2"></path>
                    <path d="M40.4822786,0.221651722 C39.389759,0.0738854082 38.2972461,0 37.1318918,0 C36.1122068,0 35.019685,0 34,0.0738848468 L70.1988145,43 C70.6358224,40.8573884 70.9271654,38.6408927 71,36.424398 L40.4822786,0.221651722 Z" id="Vector-Copy-3"></path>
                    <path d="M70,25 C67,15.7716269 60.0769243,8.14186815 51,4 L70,25 Z" id="Vector-Copy-4"></path>
                    <path d="M62,60.725853 L14.8878974,7 C13.5157,7.89295044 12.2197311,8.93472759 11,10.0509156 L58.3408161,64 C59.6367804,62.9582245 60.8565021,61.9164536 62,60.725853 Z" id="Vector-Copy-5"></path>
                    <path d="M25,70 L0,41 C0.685975847,45.7702348 2.36279642,50.2375985 4.80182175,54.1749348 L12.6524368,63.261096 C16.234755,66.2898164 20.4268276,68.5613578 25,70 Z" id="Vector-Copy-6"></path>
                    <path d="M51,66.9104454 L6.70450775,14 C5.68117967,15.3432836 4.80404353,16.7611919 4,18.2537292 L46.4681206,69 C48.0762077,68.402985 49.5381027,67.731341 51,66.9104454 Z" id="Vector-Copy-7"></path>
                    <path d="M40,71.6018143 L2.29044315,25 C1.71691382,26.9701577 1.28676466,29.0160908 1,31.0620239 L34.1213267,71.9806908 C36.1286793,72.0564661 38.0643385,71.9049155 40,71.6018143 Z" id="Vector-Copy-8"></path>
                </g>
                <g id="Group-2" transform="translate(139.000000, 95.000000)" fill="#FED3CC" fill-rule="nonzero">
                    <path d="M12.3231402,29 L29,7.7142807 C28.5851529,7.14285234 28.0873325,6.57142836 27.5895159,6 L10,28.5 C10.7467248,28.7142771 11.5764153,28.8571429 12.3231402,29 Z" id="Vector-Copy-9"></path>
                    <path d="M30,12.6080926 C29.9193548,12.1734094 29.8387084,11.7387306 29.6774181,11.2316002 C29.5967729,10.796917 29.4354826,10.4346832 29.2741923,10 L15,28.9811533 C16.0483871,29.0536005 17.0161267,28.9087106 17.9838688,28.691369 L30,12.6080926 Z" id="Vector-Copy-10"></path>
                    <path d="M23,29 C26.7386349,26.4809172 29.2840912,22.4503798 30,18 L23,29 Z" id="Vector-Copy-11"></path>
                    <path d="M8.6090506,28 L24,4.16959469 C23.510288,3.73099834 23.0205781,3.36549695 22.4609072,3 L7,26.976613 C7.48971202,27.34211 8.0493797,27.7076024 8.6090506,28 Z" id="Vector-Copy-12"></path>
                    <path d="M0,14 L9,1 C7.1538468,1.82658947 5.53846051,2.9537638 4.1538457,4.30636468 L1.38461719,8.36416284 C0.538463657,10.0924862 0.076923048,12.0462432 0,14 Z" id="Vector-Copy-13"></path>
                    <path d="M3.46153513,26 L21,1.68388607 C20.2692306,1.45592249 19.5384636,1.22796358 18.8076942,1 L2,24.3282811 C2.48717963,24.9361839 2.97435549,25.468085 3.46153513,26 Z" id="Vector-Copy-14"></path>
                    <path d="M1.83333783,21 L16,0 C15.1666668,0 14.2575749,0 13.4242417,0.151088258 L1,18.5827262 C1.2272727,19.4136609 1.53030757,20.2446048 1.83333783,21 Z" id="Vector-Copy-15"></path>
                </g>
                <g id="Group-10" transform="translate(61.000000, 6.000000)">
                    <g id="Group-3" transform="translate(0.000000, 32.000000)">
                        <mask id="mask-2" fill="white">
                            <use xlink:href="#path-1"></use>
                        </mask>
                        <g id="Clip-2"></g>
                        <path d="M72.2886369,81.8341364 L8.19146769,81.9994091 C3.56699077,82.011803 -0.145301538,78.198803 0.00423692308,73.5906515 L2.10525231,8.95104545 C2.24731385,4.56528788 5.84869846,1.08028788 10.2488677,1.06910606 L68.6747908,0.917502665 C73.0201292,0.906348485 76.6152831,4.2894697 76.8545446,8.61559091 L80.4247754,73.2402879 C80.6827292,77.8993788 76.9691908,81.8217121 72.2886369,81.8341364" id="Fill-1" fill="#664BC4" mask="url(#mask-2)"></path>
                    </g>
                    <path d="M40.552027,51.552546 C29.4777003,51.5809698 20.4770227,42.6259511 20.4484639,31.5514087 C20.4200407,20.478105 29.3736462,11.4760133 40.447973,11.447454 C51.5222997,11.4190302 60.5242161,20.3740489 60.5527749,31.4485913 C60.5811981,42.521895 51.6263538,51.5239867 40.552027,51.552546 M40.4182432,-3.55271368e-14 C23.0213926,0.0447071577 8.95551114,14.1839496 9,31.581139 C9.04593909,48.9783284 23.1849061,63.0457226 40.5817568,63 C57.9786074,62.9552928 72.0444889,48.8160504 72,31.418861 C71.9552997,14.0216716 57.8150939,-0.045722551 40.4182432,-3.55271368e-14" id="Fill-4" fill="#664BC4"></path>
                    <path d="M46.999321,59.9019282 C47.0525985,63.7672887 43.9637189,66.9448281 40.0986842,66.999321 C36.2324386,67.0526029 33.055167,63.963463 33.0006787,60.0968916 C32.9474013,56.2315311 36.0374917,53.0539916 39.9025264,53.0007097 C43.7675611,52.9462169 46.9448328,56.0365677 46.999321,59.9019282" id="Fill-6" fill="#249AB5"></path>
                    <polygon id="Fill-8" fill="#249AB5" points="42.1615721 63 45 80.8666032 35 81 37.7677883 63.0587435"></polygon>
                </g>
            </g>
        </g>
    </g>
</svg>