<svg xmlns="http://www.w3.org/2000/svg" width="19" height="21" viewBox="0 0 19 21">
  <g id="Component_Icon_Hide" data-name="Component/Icon/Hide" transform="translate(-0.376 0.009)">
    <rect id="Rectangle_181" data-name="Rectangle 181" width="19" height="21" transform="translate(0.376 -0.009)" fill="#abb3bb" opacity="0"/>
    <path id="Group" d="M7.163,10.419A7.448,7.448,0,0,1,1.872,7.814,12.48,12.48,0,0,1,0,5.209,11.924,11.924,0,0,1,3.3,1.342L5.782,3.828A1.954,1.954,0,1,0,8.543,6.591l2.488,2.487A6.513,6.513,0,0,1,7.163,10.419ZM12.92,7.287h0L5.8.157A5.955,5.955,0,0,1,7.153,0h.01a7.449,7.449,0,0,1,5.291,2.6,12.485,12.485,0,0,1,1.873,2.6A12.1,12.1,0,0,1,12.92,7.286Z" transform="translate(3.028 4.687)" fill="none" stroke="#abb3bb" stroke-linecap="round" stroke-linejoin="round" stroke-width="1.5"/>
    <path id="Vector" d="M0,0,12.185,12.185" transform="translate(4.098 3.804)" fill="none" stroke="#abb3bb" stroke-linecap="round" stroke-linejoin="round" stroke-width="1.5"/>
  </g>
</svg>
