<svg xmlns="http://www.w3.org/2000/svg" width="18.333" height="18.333" viewBox="0 0 18.333 18.333">
  <path id="Icon_material-language" data-name="Icon material-language" d="M12.158,3a9.167,9.167,0,1,0,9.176,9.167A9.162,9.162,0,0,0,12.158,3ZM18.51,8.5h-2.7a14.345,14.345,0,0,0-1.265-3.263A7.361,7.361,0,0,1,18.51,8.5ZM12.167,4.87A12.913,12.913,0,0,1,13.918,8.5h-3.5A12.913,12.913,0,0,1,12.167,4.87ZM5.072,14a7.17,7.17,0,0,1,0-3.667h3.1a15.139,15.139,0,0,0-.128,1.833A15.139,15.139,0,0,0,8.17,14Zm.752,1.833h2.7A14.345,14.345,0,0,0,9.793,19.1,7.321,7.321,0,0,1,5.823,15.833ZM8.528,8.5h-2.7A7.321,7.321,0,0,1,9.793,5.237,14.345,14.345,0,0,0,8.528,8.5Zm3.639,10.963a12.913,12.913,0,0,1-1.751-3.63h3.5A12.913,12.913,0,0,1,12.167,19.463ZM14.312,14h-4.29a13.487,13.487,0,0,1-.147-1.833,13.37,13.37,0,0,1,.147-1.833h4.29a13.37,13.37,0,0,1,.147,1.833A13.487,13.487,0,0,1,14.312,14Zm.229,5.1a14.345,14.345,0,0,0,1.265-3.263h2.7A7.361,7.361,0,0,1,14.541,19.1ZM16.163,14a15.139,15.139,0,0,0,.128-1.833,15.14,15.14,0,0,0-.128-1.833h3.1a7.17,7.17,0,0,1,0,3.667Z" transform="translate(-3 -3)" fill="#abb3bb"/>
</svg>
