<svg id="lock_copy_2" data-name="lock copy 2" xmlns="http://www.w3.org/2000/svg" width="14.077" height="17.084" viewBox="0 0 14.077 17.084">
  <path id="Vector" d="M12.077,7.55V5.039A5.039,5.039,0,0,0,2,5.039V7.55A2.417,2.417,0,0,0,0,9.924v4.743a2.42,2.42,0,0,0,2.418,2.418h9.242a2.419,2.419,0,0,0,2.417-2.417V9.924a2.416,2.416,0,0,0-2-2.374ZM7.73,12.037v1.688a.691.691,0,1,1-1.381,0V12.037a1.1,1.1,0,0,1-.434-.865,1.124,1.124,0,0,1,2.248,0,1.1,1.1,0,0,1-.433.865Zm2.506-4.529H3.842V5.039a3.2,3.2,0,1,1,6.393,0Z" transform="translate(0 0)" fill="#abb3bb"/>
</svg>
