<svg xmlns="http://www.w3.org/2000/svg" width="18.278" height="13.926" viewBox="0 0 18.278 13.926">
  <path id="Vector" d="M15.695,0H2.585A2.531,2.531,0,0,0,.758.793,2.775,2.775,0,0,0,0,2.705v8.515a2.775,2.775,0,0,0,.758,1.912,2.531,2.531,0,0,0,1.827.793h13.11a2.53,2.53,0,0,0,1.826-.794,2.774,2.774,0,0,0,.757-1.912V2.705A2.775,2.775,0,0,0,17.52.794,2.531,2.531,0,0,0,15.695,0Zm-.8,3.827L10.212,6.956a1.925,1.925,0,0,1-2.144,0L3.38,3.827a.6.6,0,0,1-.167-.167.633.633,0,0,1-.093-.221A.647.647,0,0,1,3.116,3.2.636.636,0,0,1,3.2,2.974.607.607,0,0,1,3.358,2.8a.578.578,0,0,1,.211-.1A.565.565,0,0,1,3.8,2.7a.575.575,0,0,1,.215.087L8.7,5.913a.787.787,0,0,0,.875,0l4.688-3.129a.568.568,0,0,1,.441-.074.592.592,0,0,1,.364.27.643.643,0,0,1,.08.46A.62.62,0,0,1,14.9,3.827Z" fill="#abb3bb"/>
</svg>
