<svg xmlns="http://www.w3.org/2000/svg" width="15.649" height="15.649" viewBox="0 0 15.649 15.649">
  <path id="Icon_awesome-phone-alt" data-name="Icon awesome-phone-alt" d="M15.2,11.059,11.78,9.592a.734.734,0,0,0-.856.211L9.408,11.655A11.329,11.329,0,0,1,3.992,6.239L5.844,4.723a.732.732,0,0,0,.211-.856L4.588.444A.738.738,0,0,0,3.747.019L.569.752A.734.734,0,0,0,0,1.467,14.181,14.181,0,0,0,14.182,15.65a.734.734,0,0,0,.715-.569l.734-3.179A.742.742,0,0,0,15.2,11.059Z" transform="translate(0 0)" fill="#abb3bb"/>
</svg>
